M48
;Layer_Color=9474304
;FILE_FORMAT=4:4
METRIC,LZ
;TYPE=PLATED
T01F00S00C0.7000
T02F00S00C0.7300
T03F00S00C0.8000
T04F00S00C0.8255
T05F00S00C0.8400
T06F00S00C0.8600
T07F00S00C0.9000
T08F00S00C1.1000
T09F00S00C1.1500
T10F00S00C1.7000
T11F00S00C2.5000
T12F00S00C3.3020
;TYPE=NON_PLATED
T13F00S00C3.2000
%
T01
X0123283Y00660475
X0128383
X0135777
X0140877
Y00742975
Y00790438
X0135777
Y00742975
X0128383
Y00790437
X0123283
Y00742975
X0048167Y00745285
Y00791055
X0043067
Y00745285
Y00662785
X0048167
X0035673
X0030573
Y00745285
Y00791055
X0035673
Y00745285
Y00873555
Y00919325
X0030573
Y00873555
Y01001825
Y01048865
X0035673
X0035673Y01001825
X0035673Y01131365
X0030573
X0043067
X0048167
Y01048865
X00482572Y01001825
X00431572
X0043067Y01048865
X00431572Y00919325
X0043067Y00873555
X0048167
X00482572Y00919325
X0123283Y00919503
Y00872937
X0128383
Y00919503
X0135777
Y00872937
X0140877
Y00919503
Y01002003
Y01049311
X0135777
Y01002003
X0128383
Y01049311
X0123283
Y01002003
Y01131811
X0128383
X0135777
X0140877
T02
X0065024Y0034036
X0067564
X0070104
X0072644
X0075184
X0077724
X0080264
X0082804
X0089916
X0092456
X0094996
X0097536
X0100076
X0102616
X0105156
X0107696
Y0041976
X0105156
X0102616
X0100076
X0097536
X0094996
X0092456
X0089916
X00887758Y00474438
X00913158
X00938558
X00998596
X01023996
X01049396
X01074796
X01100196
X01125596
X01150996
Y00553838
X01125596
X01100196
X01074796
X01049396
X01023996
X00998596
X00938558
X00913158
X00887758
X00862358
X00836958
X00811558
Y00474438
X00836958
X00862358
X0082804Y0041976
X0080264
X01012359Y0069066
Y0071606
Y0074146
Y0076686
Y0079226
X01091758
Y0076686
Y0074146
Y0071606
Y0069066
X00689219Y00700514
Y00725914
Y00751314
Y00776714
X00609819
Y00751314
Y00725914
Y00700514
X00599276Y00553838
X00573876
X00624676
X00650076
X00675476
X00700876
X00726276
X00786158
Y00474438
X00726276
X00700876
X00675476
X00650076
X00624676
X00599276
X00573876
X0065024Y0041976
X0067564
X0070104
X0072644
X0075184
X0077724
X00689219Y00802114
Y00827514
Y00852914
Y00878314
Y00950686
Y00976086
Y01001486
Y01026886
Y01052286
Y01077686
Y01103086
Y01128486
X00609819
Y01103086
Y01077686
Y01052286
Y01026886
Y01001486
Y00976086
Y00950686
Y00878314
Y00852914
Y00827514
Y00802114
X01012359Y0081766
Y0084306
Y0086846
X01091758
Y0084306
Y0081766
X01092001Y00950048
Y00975448
Y01000848
Y01026248
Y01051648
Y01077048
Y01102448
Y01127848
X01012601
Y01102448
Y01077048
Y01051648
Y01026248
Y01000848
Y00975448
Y00950048
T03
X0122033Y0060706
X0136133
T04
X0093218Y00690083
X0095758
Y00741519
X0093218
Y00791941
X0095758
X00769438Y00776601
X00744038
X0074422Y00725621
X0076962
Y00827581
X0074422
X00744038Y00878195
X00769438
X0076962Y00976472
X0074422
Y01026728
X0076962
Y01077797
X0074422
Y0112858
X0076962
X0093218Y01102509
X0095758
Y01051612
X0093218
Y01001
X0095758
Y00949677
X0093218
Y00842616
X0095758
T05
X0115824Y0068326
Y0070866
Y0073406
Y0075946
Y0078486
X00544196Y00775255
Y00749855
Y00724455
Y00699055
Y00673655
Y00800655
Y00826055
Y00851455
X00544301Y00931465
Y00956865
Y00982265
Y01007665
Y01033065
Y01058465
Y01083865
Y01109265
X0115824Y0112014
Y0109474
Y0106934
Y0104394
Y0101854
Y0099314
Y0096774
Y0094234
Y0086106
Y0083566
Y0081026
T06
X0080772Y0061214
X0089408
X0091948
X0094488
X0097028
X0099568
X0102108
X0104648
X0107188
X0109728
X0078232
X0075692
X0073152
X0070612
X0068072
X0065532
X0062992
X0060452
T07
X01226323Y00412512
Y00437912
Y00463312
Y00488712
X01251723Y00476012
Y00450612
Y00425212
Y00399812
X00495959Y00400858
Y00426258
Y00451658
Y00477058
X00470559Y00489758
Y00464358
Y00438958
Y00413558
T08
X012319Y012065
X012573
X012827
X013081
X013335
X013589
X013843
X014097
X008699Y01206915
X008445
X004826Y012065
X004572
X004318
X004064
X00381
X003556
X003302
X003048
T09
X00304509Y00297571
X00329909
X00355309
X00380709
X00406109
X00431509
X01290773Y00297809
X01316173
X01341573
X01366973
X01392373
X01417773
T10
X00437559Y00367808
X01284722Y00366762
Y00521762
X00437559Y00522808
T11
X0141986Y0060706
X0030734
T12
X008636Y0089662
T13
X00407059Y00388158
X01315223Y00387112
Y00501412
X00407059Y00502458
M30
