G04*
G04 #@! TF.GenerationSoftware,Altium Limited,Altium Designer,23.7.1 (13)*
G04*
G04 Layer_Physical_Order=1*
G04 Layer_Color=255*
%FSLAX44Y44*%
%MOMM*%
G71*
G04*
G04 #@! TF.SameCoordinates,993E3EBF-5B04-44D9-8844-29F8BC13507E*
G04*
G04*
G04 #@! TF.FilePolarity,Positive*
G04*
G01*
G75*
%ADD31C,0.5080*%
%ADD32C,0.6350*%
%ADD33C,1.7780*%
%ADD34C,1.2700*%
%ADD35C,1.1300*%
%ADD36R,1.1300X1.1300*%
%ADD37C,1.6000*%
%ADD38C,2.5500*%
%ADD39C,1.4000*%
%ADD40R,1.4000X1.4000*%
%ADD41C,4.0000*%
%ADD42C,1.3650*%
%ADD43R,1.2000X1.2000*%
%ADD44C,1.2000*%
%ADD45R,1.7250X1.7250*%
%ADD46C,1.7250*%
%ADD47C,1.5240*%
%ADD48R,1.1000X1.1000*%
%ADD49C,1.1000*%
%ADD50C,1.7780*%
%ADD51R,1.7780X1.7780*%
%ADD52C,1.3970*%
G36*
X1473200Y254000D02*
X254000D01*
Y1270000D01*
X1473200D01*
Y254000D01*
D02*
G37*
%LPC*%
G36*
X681134Y1218443D02*
X681134Y1218443D01*
X554135D01*
X554134Y1218443D01*
X551151Y1218050D01*
X548370Y1216899D01*
X545983Y1215067D01*
X500685Y1169769D01*
X404115D01*
X401132Y1169376D01*
X398351Y1168224D01*
X395964Y1166392D01*
X395964Y1166392D01*
X385548Y1155976D01*
X383716Y1153589D01*
X382564Y1150808D01*
X382171Y1147824D01*
Y1109980D01*
Y1084580D01*
Y1081631D01*
X357445Y1056905D01*
X355672D01*
X353627Y1056357D01*
X351794Y1055299D01*
X350297Y1053802D01*
X349238Y1051968D01*
X348690Y1049924D01*
Y1047807D01*
X349238Y1045762D01*
X350297Y1043928D01*
X351794Y1042431D01*
X353627Y1041373D01*
X355672Y1040825D01*
X357789D01*
X359834Y1041373D01*
X361667Y1042431D01*
X363164Y1043928D01*
X364222Y1045762D01*
X364770Y1047807D01*
Y1049580D01*
X380998Y1065808D01*
X382171Y1065322D01*
Y980440D01*
Y957580D01*
X382256Y956938D01*
X382171Y956295D01*
Y952092D01*
X357445Y927365D01*
X355671D01*
X353627Y926817D01*
X351793Y925759D01*
X350296Y924262D01*
X349238Y922428D01*
X348690Y920384D01*
Y918267D01*
X349238Y916222D01*
X350296Y914388D01*
X351793Y912891D01*
X353627Y911833D01*
X355671Y911285D01*
X357788D01*
X359833Y911833D01*
X361666Y912891D01*
X363163Y914388D01*
X364222Y916222D01*
X364770Y918267D01*
Y920040D01*
X380998Y936268D01*
X382171Y935782D01*
Y853440D01*
Y825500D01*
X382367Y824017D01*
X357445Y799095D01*
X355671D01*
X353627Y798547D01*
X351793Y797489D01*
X350296Y795992D01*
X349238Y794158D01*
X348690Y792114D01*
Y789997D01*
X349238Y787952D01*
X350296Y786118D01*
X351793Y784622D01*
X353627Y783563D01*
X355671Y783015D01*
X357788D01*
X359833Y783563D01*
X361666Y784622D01*
X363163Y786118D01*
X364222Y787952D01*
X364770Y789997D01*
Y791770D01*
X383560Y810560D01*
X384733Y810074D01*
Y699755D01*
X384924Y698305D01*
X357445Y670825D01*
X355671D01*
X353627Y670277D01*
X351793Y669219D01*
X350296Y667722D01*
X349238Y665888D01*
X348690Y663844D01*
Y661727D01*
X349238Y659682D01*
X350296Y657848D01*
X351793Y656351D01*
X353627Y655293D01*
X355671Y654745D01*
X357788D01*
X359833Y655293D01*
X361666Y656351D01*
X363163Y657848D01*
X364222Y659682D01*
X364770Y661727D01*
Y663500D01*
X392249Y690980D01*
X393700Y690789D01*
X395151Y690980D01*
X411613Y674518D01*
X413293Y673395D01*
X415275Y673000D01*
X464129D01*
X473630Y663500D01*
Y661727D01*
X474178Y659682D01*
X475236Y657848D01*
X476733Y656351D01*
X478567Y655293D01*
X480611Y654745D01*
X482728D01*
X484773Y655293D01*
X486606Y656351D01*
X488103Y657848D01*
X489162Y659682D01*
X489710Y661727D01*
Y663844D01*
X489162Y665888D01*
X488103Y667722D01*
X486606Y669219D01*
X484773Y670277D01*
X482728Y670825D01*
X480955D01*
X469937Y681842D01*
X468257Y682965D01*
X466275Y683360D01*
X417421D01*
X402476Y698305D01*
X402667Y699755D01*
Y818410D01*
X403684Y819736D01*
X404836Y822516D01*
X405229Y825500D01*
Y832927D01*
X406402Y833413D01*
X452422Y787393D01*
X454103Y786270D01*
X456085Y785875D01*
X475479D01*
X476733Y784622D01*
X478567Y783563D01*
X480611Y783015D01*
X482728D01*
X484773Y783563D01*
X486606Y784622D01*
X488103Y786118D01*
X489162Y787952D01*
X489710Y789997D01*
Y792114D01*
X489162Y794158D01*
X488103Y795992D01*
X486606Y797489D01*
X484773Y798547D01*
X482728Y799095D01*
X480611D01*
X478567Y798547D01*
X476733Y797489D01*
X475479Y796235D01*
X458230D01*
X405229Y849236D01*
Y853440D01*
Y956295D01*
X405144Y956938D01*
X405229Y957580D01*
Y962467D01*
X406402Y962953D01*
X453693Y915663D01*
X455373Y914540D01*
X457355Y914146D01*
X476381D01*
X477635Y912891D01*
X479469Y911833D01*
X481514Y911285D01*
X483631D01*
X485675Y911833D01*
X487509Y912891D01*
X489006Y914388D01*
X490064Y916222D01*
X490612Y918267D01*
Y920384D01*
X490064Y922428D01*
X489006Y924262D01*
X487509Y925759D01*
X485675Y926817D01*
X483631Y927365D01*
X481514D01*
X479469Y926817D01*
X477635Y925759D01*
X476381Y924505D01*
X459500D01*
X405229Y978776D01*
Y980440D01*
Y1084580D01*
Y1089467D01*
X406402Y1089953D01*
X438180Y1058175D01*
X437654Y1056905D01*
X422630D01*
Y1040825D01*
X430470D01*
X449815Y1021480D01*
X451705Y1020217D01*
X453935Y1019773D01*
X487187D01*
X502173Y1004787D01*
Y889411D01*
X500903Y889029D01*
X499220Y890154D01*
X496990Y890597D01*
X468540D01*
X439612Y919526D01*
Y927365D01*
X423532D01*
Y911285D01*
X431371D01*
X462006Y880650D01*
X462972Y880005D01*
X462587Y878735D01*
X436861D01*
X435607Y879989D01*
X433773Y881047D01*
X431729Y881595D01*
X429612D01*
X427567Y881047D01*
X425733Y879989D01*
X424237Y878492D01*
X423178Y876659D01*
X422630Y874614D01*
Y872497D01*
X423178Y870452D01*
X424237Y868619D01*
X425733Y867122D01*
X427567Y866063D01*
X429612Y865515D01*
X431729D01*
X433773Y866063D01*
X435607Y867122D01*
X436861Y868376D01*
X475479D01*
X476733Y867122D01*
X478567Y866063D01*
X480611Y865515D01*
X482728D01*
X484773Y866063D01*
X486606Y867122D01*
X488103Y868619D01*
X489162Y870452D01*
X489710Y872497D01*
Y874614D01*
X489162Y876659D01*
X488576Y877673D01*
X489309Y878943D01*
X494576D01*
X502173Y871346D01*
Y817880D01*
X502617Y815650D01*
X503880Y813760D01*
X521105Y796535D01*
X522995Y795272D01*
X525225Y794828D01*
X536778D01*
X538445Y793161D01*
X540581Y791928D01*
X542963Y791290D01*
X545428D01*
X546140Y791481D01*
X546797Y790342D01*
X542173Y785718D01*
X541107Y784123D01*
X540581Y783982D01*
X538445Y782749D01*
X536702Y781005D01*
X535469Y778870D01*
X534831Y776488D01*
Y774022D01*
X535469Y771640D01*
X536702Y769505D01*
X538445Y767761D01*
X540581Y766528D01*
X542963Y765890D01*
X545428D01*
X547810Y766528D01*
X549946Y767761D01*
X551689Y769505D01*
X552922Y771640D01*
X553560Y774022D01*
Y776488D01*
X552922Y778870D01*
X551843Y780739D01*
X595320Y824215D01*
X598648D01*
X598685Y824151D01*
X600276Y822561D01*
X602223Y821436D01*
X604395Y820854D01*
X606643D01*
X608815Y821436D01*
X610763Y822561D01*
X612353Y824151D01*
X613477Y826098D01*
X614059Y828270D01*
Y830519D01*
X613477Y832691D01*
X612353Y834638D01*
X610763Y836228D01*
X608815Y837352D01*
X606643Y837934D01*
X604395D01*
X602223Y837352D01*
X600276Y836228D01*
X598685Y834638D01*
X598648Y834574D01*
X593174D01*
X591192Y834180D01*
X589512Y833057D01*
X554509Y798054D01*
X553370Y798711D01*
X553560Y799422D01*
Y801888D01*
X552922Y804270D01*
X551689Y806405D01*
X549946Y808149D01*
X547810Y809382D01*
X545428Y810020D01*
X542963D01*
X540581Y809382D01*
X538445Y808149D01*
X536778Y806482D01*
X527638D01*
X513827Y820294D01*
Y871924D01*
X515000Y872410D01*
X534831Y852580D01*
Y850222D01*
X535469Y847840D01*
X536702Y845705D01*
X538445Y843961D01*
X540581Y842728D01*
X542963Y842090D01*
X543546D01*
X544032Y840917D01*
X541817Y838702D01*
X540695Y837022D01*
X540300Y835040D01*
Y834620D01*
X538445Y833549D01*
X536702Y831805D01*
X535469Y829670D01*
X534831Y827288D01*
Y824822D01*
X535469Y822440D01*
X536702Y820305D01*
X538445Y818561D01*
X540581Y817328D01*
X542963Y816690D01*
X545428D01*
X547810Y817328D01*
X549946Y818561D01*
X551689Y820305D01*
X552922Y822440D01*
X553560Y824822D01*
Y827288D01*
X552922Y829670D01*
X551689Y831805D01*
X550659Y832836D01*
Y832894D01*
X595280Y877515D01*
X596979D01*
Y874154D01*
X614059D01*
Y891234D01*
X596979D01*
Y887874D01*
X593134D01*
X591152Y887479D01*
X589472Y886357D01*
X554734Y851619D01*
X553560Y852105D01*
Y852688D01*
X552922Y855070D01*
X551689Y857206D01*
X549946Y858949D01*
X547810Y860182D01*
X545428Y860820D01*
X543071D01*
X513827Y890064D01*
Y1007200D01*
X513383Y1009430D01*
X512120Y1011321D01*
X493721Y1029721D01*
X491830Y1030984D01*
X489600Y1031427D01*
X456349D01*
X438710Y1049066D01*
Y1055849D01*
X439980Y1056375D01*
X451152Y1045203D01*
X452833Y1044080D01*
X454815Y1043686D01*
X475479D01*
X476733Y1042431D01*
X478567Y1041373D01*
X480611Y1040825D01*
X482728D01*
X484773Y1041373D01*
X486606Y1042431D01*
X488103Y1043928D01*
X489162Y1045762D01*
X489710Y1047807D01*
Y1049924D01*
X489162Y1051968D01*
X488103Y1053802D01*
X486606Y1055299D01*
X484773Y1056357D01*
X482728Y1056905D01*
X480611D01*
X478567Y1056357D01*
X476733Y1055299D01*
X475479Y1054045D01*
X456960D01*
X405229Y1105776D01*
Y1109980D01*
Y1143049D01*
X408891Y1146711D01*
X505460D01*
X508444Y1147104D01*
X511224Y1148256D01*
X513612Y1150088D01*
X558910Y1195386D01*
X651643D01*
X652129Y1194213D01*
X642262Y1184346D01*
X640430Y1181959D01*
X639278Y1179178D01*
X638886Y1176194D01*
Y1133014D01*
Y1128811D01*
X621461Y1111386D01*
X612390D01*
X612353Y1111450D01*
X610763Y1113040D01*
X608815Y1114164D01*
X606643Y1114746D01*
X604395D01*
X602223Y1114164D01*
X600276Y1113040D01*
X598685Y1111450D01*
X597561Y1109502D01*
X596979Y1107330D01*
Y1105082D01*
X597561Y1102910D01*
X598685Y1100962D01*
X600276Y1099372D01*
X602223Y1098248D01*
X604395Y1097666D01*
X606643D01*
X608815Y1098248D01*
X610763Y1099372D01*
X612353Y1100962D01*
X612390Y1101027D01*
X623606D01*
X625588Y1101421D01*
X627268Y1102544D01*
X637712Y1112987D01*
X638886Y1112501D01*
Y1082040D01*
Y1077836D01*
X619135Y1058086D01*
X612390D01*
X612353Y1058150D01*
X610763Y1059740D01*
X608815Y1060864D01*
X606643Y1061446D01*
X604395D01*
X602223Y1060864D01*
X600276Y1059740D01*
X598685Y1058150D01*
X597561Y1056202D01*
X596979Y1054031D01*
Y1051782D01*
X597561Y1049610D01*
X598685Y1047663D01*
X600276Y1046072D01*
X602223Y1044948D01*
X604395Y1044366D01*
X606643D01*
X608815Y1044948D01*
X610763Y1046072D01*
X612353Y1047663D01*
X612390Y1047727D01*
X621280D01*
X623263Y1048121D01*
X624943Y1049244D01*
X637712Y1062013D01*
X638886Y1061527D01*
Y1023620D01*
Y1019416D01*
X624255Y1004785D01*
X612390D01*
X612353Y1004849D01*
X610763Y1006440D01*
X608815Y1007564D01*
X606643Y1008146D01*
X604395D01*
X602223Y1007564D01*
X600276Y1006440D01*
X598685Y1004849D01*
X597561Y1002902D01*
X596979Y1000730D01*
Y998482D01*
X597561Y996310D01*
X598685Y994362D01*
X600276Y992772D01*
X602223Y991648D01*
X604395Y991066D01*
X606643D01*
X608815Y991648D01*
X610763Y992772D01*
X612353Y994362D01*
X612390Y994426D01*
X626400D01*
X628382Y994821D01*
X630062Y995943D01*
X637712Y1003593D01*
X638886Y1003107D01*
Y970280D01*
Y966076D01*
X624295Y951486D01*
X612390D01*
X612353Y951550D01*
X610763Y953140D01*
X608815Y954264D01*
X606643Y954846D01*
X604395D01*
X602223Y954264D01*
X600276Y953140D01*
X598685Y951550D01*
X597561Y949602D01*
X596979Y947430D01*
Y945182D01*
X597561Y943010D01*
X598685Y941062D01*
X600276Y939472D01*
X602223Y938348D01*
X604395Y937766D01*
X606643D01*
X608815Y938348D01*
X610763Y939472D01*
X612353Y941062D01*
X612390Y941126D01*
X626440D01*
X628422Y941521D01*
X630103Y942644D01*
X637712Y950253D01*
X638886Y949767D01*
Y881554D01*
Y877351D01*
X622749Y861214D01*
X612390D01*
X612353Y861278D01*
X610763Y862868D01*
X608815Y863992D01*
X606643Y864574D01*
X604395D01*
X602223Y863992D01*
X600276Y862868D01*
X598685Y861278D01*
X597561Y859331D01*
X596979Y857159D01*
Y854910D01*
X597561Y852738D01*
X598685Y850791D01*
X600276Y849201D01*
X602223Y848076D01*
X604395Y847494D01*
X606643D01*
X608815Y848076D01*
X610763Y849201D01*
X612353Y850791D01*
X612390Y850855D01*
X624894D01*
X626876Y851249D01*
X628557Y852372D01*
X637712Y861527D01*
X638886Y861041D01*
Y828214D01*
Y824011D01*
X622789Y807914D01*
X612390D01*
X612353Y807978D01*
X610763Y809568D01*
X608815Y810693D01*
X606643Y811274D01*
X604395D01*
X602223Y810693D01*
X600276Y809568D01*
X598685Y807978D01*
X597561Y806031D01*
X596979Y803859D01*
Y801610D01*
X597561Y799438D01*
X598685Y797491D01*
X600276Y795901D01*
X602223Y794777D01*
X604395Y794194D01*
X606643D01*
X608815Y794777D01*
X610763Y795901D01*
X612353Y797491D01*
X612390Y797555D01*
X624935D01*
X626917Y797949D01*
X628597Y799072D01*
X637712Y808187D01*
X638886Y807701D01*
Y774874D01*
X639278Y771890D01*
X639521Y771306D01*
X622829Y754614D01*
X612390D01*
X612353Y754678D01*
X610763Y756268D01*
X608815Y757393D01*
X606643Y757975D01*
X604395D01*
X602223Y757393D01*
X600276Y756268D01*
X598685Y754678D01*
X597561Y752731D01*
X596979Y750559D01*
Y748310D01*
X597561Y746138D01*
X598685Y744191D01*
X600276Y742601D01*
X602223Y741477D01*
X604395Y740895D01*
X606643D01*
X608815Y741477D01*
X610763Y742601D01*
X612353Y744191D01*
X612390Y744255D01*
X624975D01*
X626957Y744649D01*
X628637Y745772D01*
X644061Y761196D01*
X645235Y760710D01*
Y726220D01*
X620329Y701314D01*
X612390D01*
X612353Y701378D01*
X610763Y702968D01*
X608815Y704092D01*
X606643Y704674D01*
X604395D01*
X602223Y704092D01*
X600276Y702968D01*
X598685Y701378D01*
X597561Y699431D01*
X596979Y697259D01*
Y695010D01*
X597561Y692838D01*
X598685Y690891D01*
X600276Y689301D01*
X602223Y688176D01*
X604395Y687594D01*
X606643D01*
X608815Y688176D01*
X610763Y689301D01*
X612353Y690891D01*
X612390Y690955D01*
X622474D01*
X624456Y691349D01*
X626137Y692472D01*
X654077Y720412D01*
X655200Y722092D01*
X655594Y724074D01*
Y764648D01*
X656179Y764890D01*
X658566Y766722D01*
X660398Y769110D01*
X661550Y771890D01*
X661943Y774874D01*
Y828214D01*
Y881554D01*
Y970280D01*
Y1023620D01*
Y1082040D01*
Y1133014D01*
Y1171419D01*
X685910Y1195386D01*
X1015890D01*
X1042571Y1168705D01*
Y1155700D01*
Y1102360D01*
Y1049020D01*
Y995680D01*
Y896620D01*
Y843280D01*
Y789940D01*
X1042964Y786956D01*
X1044116Y784176D01*
X1045948Y781788D01*
X1048336Y779956D01*
X1048921Y779714D01*
Y736600D01*
X1049315Y734618D01*
X1050437Y732937D01*
X1074098Y709277D01*
X1075778Y708155D01*
X1077760Y707760D01*
X1089188D01*
X1089225Y707696D01*
X1090815Y706106D01*
X1092763Y704982D01*
X1094934Y704400D01*
X1097183D01*
X1099355Y704982D01*
X1101302Y706106D01*
X1102893Y707696D01*
X1104017Y709644D01*
X1104599Y711816D01*
Y714064D01*
X1104017Y716236D01*
X1102893Y718184D01*
X1101302Y719774D01*
X1099355Y720898D01*
X1097183Y721480D01*
X1094934D01*
X1092763Y720898D01*
X1090815Y719774D01*
X1089225Y718184D01*
X1089188Y718119D01*
X1079905D01*
X1059279Y738745D01*
Y775776D01*
X1060453Y776262D01*
X1074137Y762578D01*
X1075818Y761455D01*
X1077800Y761061D01*
X1089188D01*
X1089225Y760997D01*
X1090815Y759407D01*
X1092763Y758282D01*
X1094934Y757700D01*
X1097183D01*
X1099355Y758282D01*
X1101302Y759407D01*
X1102893Y760997D01*
X1104017Y762944D01*
X1104599Y765116D01*
Y767365D01*
X1104017Y769537D01*
X1102893Y771484D01*
X1101302Y773074D01*
X1099355Y774198D01*
X1097183Y774780D01*
X1094934D01*
X1092763Y774198D01*
X1090815Y773074D01*
X1089225Y771484D01*
X1089188Y771420D01*
X1079945D01*
X1064994Y786371D01*
X1065236Y786956D01*
X1065629Y789940D01*
Y822767D01*
X1066802Y823253D01*
X1074177Y815878D01*
X1074177Y815878D01*
X1075858Y814755D01*
X1077840Y814361D01*
X1077840Y814361D01*
X1089188D01*
X1089225Y814296D01*
X1090815Y812707D01*
X1092763Y811582D01*
X1094934Y811000D01*
X1097183D01*
X1099355Y811582D01*
X1101302Y812707D01*
X1102893Y814296D01*
X1104017Y816244D01*
X1104599Y818416D01*
Y820664D01*
X1104017Y822837D01*
X1102893Y824784D01*
X1101302Y826374D01*
X1099355Y827498D01*
X1097183Y828080D01*
X1094934D01*
X1092763Y827498D01*
X1090815Y826374D01*
X1089225Y824784D01*
X1089188Y824720D01*
X1079985D01*
X1065629Y839076D01*
Y843280D01*
Y876107D01*
X1066802Y876593D01*
X1074218Y869177D01*
X1075898Y868055D01*
X1077880Y867661D01*
X1089188D01*
X1089225Y867596D01*
X1090815Y866006D01*
X1092763Y864882D01*
X1094934Y864300D01*
X1097183D01*
X1099355Y864882D01*
X1101302Y866006D01*
X1102893Y867596D01*
X1104017Y869544D01*
X1104599Y871716D01*
Y873964D01*
X1104017Y876136D01*
X1102893Y878084D01*
X1101302Y879674D01*
X1099355Y880798D01*
X1097183Y881380D01*
X1094934D01*
X1092763Y880798D01*
X1090815Y879674D01*
X1089225Y878084D01*
X1089188Y878019D01*
X1080025D01*
X1065629Y892416D01*
Y896620D01*
Y975167D01*
X1066802Y975653D01*
X1073790Y968665D01*
X1075470Y967542D01*
X1077452Y967148D01*
X1077452Y967148D01*
X1089431D01*
X1089468Y967084D01*
X1091058Y965494D01*
X1093005Y964370D01*
X1095177Y963788D01*
X1097426D01*
X1099598Y964370D01*
X1101545Y965494D01*
X1103135Y967084D01*
X1104260Y969031D01*
X1104842Y971203D01*
Y973452D01*
X1104260Y975624D01*
X1103135Y977571D01*
X1101545Y979161D01*
X1099598Y980286D01*
X1097426Y980868D01*
X1095177D01*
X1093005Y980286D01*
X1091058Y979161D01*
X1089468Y977571D01*
X1089431Y977507D01*
X1079598D01*
X1065629Y991476D01*
Y995680D01*
Y1028507D01*
X1066802Y1028993D01*
X1073829Y1021966D01*
X1075510Y1020843D01*
X1077492Y1020449D01*
X1089431D01*
X1089468Y1020384D01*
X1091058Y1018794D01*
X1093005Y1017670D01*
X1095177Y1017088D01*
X1097426D01*
X1099598Y1017670D01*
X1101545Y1018794D01*
X1103135Y1020384D01*
X1104260Y1022332D01*
X1104842Y1024504D01*
Y1026752D01*
X1104260Y1028924D01*
X1103135Y1030872D01*
X1101545Y1032462D01*
X1099598Y1033586D01*
X1097426Y1034168D01*
X1095177D01*
X1093005Y1033586D01*
X1091058Y1032462D01*
X1089468Y1030872D01*
X1089431Y1030808D01*
X1079637D01*
X1065629Y1044816D01*
Y1049020D01*
Y1081847D01*
X1066802Y1082333D01*
X1073869Y1075266D01*
X1075550Y1074143D01*
X1077532Y1073748D01*
X1089431D01*
X1089468Y1073684D01*
X1091058Y1072094D01*
X1093005Y1070970D01*
X1095177Y1070388D01*
X1097426D01*
X1099598Y1070970D01*
X1101545Y1072094D01*
X1103135Y1073684D01*
X1104260Y1075632D01*
X1104842Y1077804D01*
Y1080052D01*
X1104260Y1082224D01*
X1103135Y1084172D01*
X1101545Y1085762D01*
X1099598Y1086886D01*
X1097426Y1087468D01*
X1095177D01*
X1093005Y1086886D01*
X1091058Y1085762D01*
X1089468Y1084172D01*
X1089431Y1084108D01*
X1079677D01*
X1065629Y1098156D01*
Y1102360D01*
Y1135187D01*
X1066802Y1135673D01*
X1073910Y1128565D01*
X1075590Y1127443D01*
X1077572Y1127048D01*
X1089431D01*
X1089468Y1126984D01*
X1091058Y1125394D01*
X1093005Y1124270D01*
X1095177Y1123688D01*
X1097426D01*
X1099598Y1124270D01*
X1101545Y1125394D01*
X1103135Y1126984D01*
X1104260Y1128932D01*
X1104842Y1131104D01*
Y1133352D01*
X1104260Y1135524D01*
X1103135Y1137471D01*
X1101545Y1139062D01*
X1099598Y1140186D01*
X1097426Y1140768D01*
X1095177D01*
X1093005Y1140186D01*
X1091058Y1139062D01*
X1089468Y1137471D01*
X1089431Y1137407D01*
X1079718D01*
X1065629Y1151496D01*
Y1155700D01*
Y1173480D01*
X1065629Y1173480D01*
X1065236Y1176464D01*
X1064084Y1179244D01*
X1062252Y1181632D01*
X1062252Y1181632D01*
X1049671Y1194213D01*
X1050157Y1195386D01*
X1155590D01*
X1200888Y1150088D01*
X1203276Y1148256D01*
X1206056Y1147104D01*
X1209040Y1146711D01*
X1209040Y1146711D01*
X1303325D01*
X1309271Y1140765D01*
Y1115060D01*
Y1084580D01*
Y1082077D01*
X1284545Y1057351D01*
X1282772D01*
X1280727Y1056803D01*
X1278894Y1055745D01*
X1277397Y1054248D01*
X1276338Y1052414D01*
X1275790Y1050370D01*
Y1048253D01*
X1276338Y1046208D01*
X1277397Y1044374D01*
X1278894Y1042878D01*
X1280727Y1041819D01*
X1282772Y1041271D01*
X1284889D01*
X1286934Y1041819D01*
X1288767Y1042878D01*
X1290264Y1044374D01*
X1291322Y1046208D01*
X1291870Y1048253D01*
Y1050026D01*
X1308098Y1066254D01*
X1309271Y1065768D01*
Y985520D01*
Y960120D01*
X1309512Y958296D01*
X1309271Y956473D01*
Y952269D01*
X1284545Y927543D01*
X1282772D01*
X1280727Y926995D01*
X1278894Y925937D01*
X1277397Y924439D01*
X1276338Y922606D01*
X1275790Y920561D01*
Y918444D01*
X1276338Y916400D01*
X1277397Y914566D01*
X1278894Y913069D01*
X1280727Y912011D01*
X1282772Y911463D01*
X1284889D01*
X1286934Y912011D01*
X1288767Y913069D01*
X1290264Y914566D01*
X1291322Y916400D01*
X1291870Y918444D01*
Y920218D01*
X1308098Y936446D01*
X1309271Y935960D01*
Y855980D01*
Y825500D01*
X1309539Y823471D01*
X1284545Y798477D01*
X1282772D01*
X1280727Y797929D01*
X1278894Y796871D01*
X1277397Y795374D01*
X1276338Y793541D01*
X1275790Y791496D01*
Y789379D01*
X1276338Y787334D01*
X1277397Y785501D01*
X1278894Y784004D01*
X1280727Y782945D01*
X1282772Y782397D01*
X1284889D01*
X1286934Y782945D01*
X1288767Y784004D01*
X1290264Y785501D01*
X1291322Y787334D01*
X1291870Y789379D01*
Y791152D01*
X1308753Y808035D01*
X1309926Y807549D01*
Y731520D01*
X1310232Y729199D01*
X1311128Y727037D01*
X1312552Y725180D01*
X1313714Y724289D01*
Y697683D01*
X1284545Y668515D01*
X1282772D01*
X1280727Y667967D01*
X1278894Y666909D01*
X1277397Y665412D01*
X1276338Y663578D01*
X1275790Y661534D01*
Y659417D01*
X1276338Y657372D01*
X1277397Y655538D01*
X1278894Y654042D01*
X1280727Y652983D01*
X1282772Y652435D01*
X1284889D01*
X1286934Y652983D01*
X1288767Y654042D01*
X1290264Y655538D01*
X1291322Y657372D01*
X1291870Y659417D01*
Y661190D01*
X1322555Y691875D01*
X1323678Y693556D01*
X1324073Y695538D01*
X1324073Y695538D01*
Y717356D01*
X1325246Y717842D01*
X1386275Y656813D01*
X1387956Y655690D01*
X1389938Y655296D01*
X1402579D01*
X1403833Y654042D01*
X1405667Y652983D01*
X1407711Y652435D01*
X1409828D01*
X1411873Y652983D01*
X1413707Y654042D01*
X1415203Y655538D01*
X1416262Y657372D01*
X1416810Y659417D01*
Y661534D01*
X1416262Y663578D01*
X1415203Y665412D01*
X1413707Y666909D01*
X1411873Y667967D01*
X1409828Y668515D01*
X1407711D01*
X1405667Y667967D01*
X1403833Y666909D01*
X1402579Y665655D01*
X1392083D01*
X1327669Y730069D01*
X1327860Y731520D01*
Y816510D01*
X1328952Y817348D01*
X1330784Y819736D01*
X1331936Y822516D01*
X1332329Y825500D01*
Y835467D01*
X1333502Y835953D01*
X1382680Y786775D01*
X1384360Y785653D01*
X1386342Y785258D01*
X1386342Y785258D01*
X1402579D01*
X1403833Y784004D01*
X1405667Y782946D01*
X1407711Y782398D01*
X1409828D01*
X1411873Y782946D01*
X1413707Y784004D01*
X1415203Y785501D01*
X1416262Y787335D01*
X1416810Y789379D01*
Y791496D01*
X1416262Y793541D01*
X1415203Y795375D01*
X1413707Y796871D01*
X1411873Y797930D01*
X1409828Y798478D01*
X1407711D01*
X1405667Y797930D01*
X1403833Y796871D01*
X1402579Y795617D01*
X1388488D01*
X1332329Y851776D01*
Y855980D01*
Y956473D01*
X1332088Y958296D01*
X1332329Y960120D01*
Y965007D01*
X1333502Y965493D01*
X1383155Y915841D01*
X1383155Y915840D01*
X1384835Y914718D01*
X1386817Y914323D01*
X1402579D01*
X1403833Y913069D01*
X1405667Y912011D01*
X1407711Y911463D01*
X1409828D01*
X1411873Y912011D01*
X1413707Y913069D01*
X1415203Y914566D01*
X1416262Y916400D01*
X1416810Y918444D01*
Y920561D01*
X1416262Y922606D01*
X1415203Y924439D01*
X1413707Y925937D01*
X1411873Y926995D01*
X1409828Y927543D01*
X1407711D01*
X1405667Y926995D01*
X1403833Y925937D01*
X1402579Y924682D01*
X1388963D01*
X1332329Y981316D01*
Y985520D01*
Y1084580D01*
Y1094547D01*
X1333502Y1095033D01*
X1382886Y1045649D01*
X1384567Y1044526D01*
X1386549Y1044132D01*
X1402579D01*
X1403833Y1042878D01*
X1405667Y1041819D01*
X1407711Y1041271D01*
X1409828D01*
X1411873Y1041819D01*
X1413707Y1042878D01*
X1415203Y1044374D01*
X1416262Y1046208D01*
X1416810Y1048253D01*
Y1050370D01*
X1416262Y1052414D01*
X1415203Y1054248D01*
X1413707Y1055745D01*
X1411873Y1056803D01*
X1409828Y1057351D01*
X1407711D01*
X1405667Y1056803D01*
X1403833Y1055745D01*
X1402579Y1054491D01*
X1388694D01*
X1332329Y1110856D01*
Y1115060D01*
Y1145540D01*
X1332329Y1145540D01*
X1331936Y1148524D01*
X1330784Y1151304D01*
X1328952Y1153692D01*
X1316252Y1166392D01*
X1313864Y1168224D01*
X1311084Y1169376D01*
X1308100Y1169769D01*
X1213815D01*
X1168517Y1215067D01*
X1166130Y1216899D01*
X1163349Y1218050D01*
X1160366Y1218443D01*
X681135D01*
X681134Y1218443D01*
D02*
G37*
G36*
X1411205Y1217930D02*
X1408195D01*
X1405288Y1217151D01*
X1402682Y1215646D01*
X1400554Y1213518D01*
X1399049Y1210912D01*
X1398270Y1208005D01*
Y1204995D01*
X1399049Y1202088D01*
X1400554Y1199482D01*
X1402682Y1197354D01*
X1405288Y1195849D01*
X1408195Y1195070D01*
X1411205D01*
X1414112Y1195849D01*
X1416718Y1197354D01*
X1418846Y1199482D01*
X1420351Y1202088D01*
X1421130Y1204995D01*
Y1208005D01*
X1420351Y1210912D01*
X1418846Y1213518D01*
X1416718Y1215646D01*
X1414112Y1217151D01*
X1411205Y1217930D01*
D02*
G37*
G36*
X1385805D02*
X1382795D01*
X1379888Y1217151D01*
X1377282Y1215646D01*
X1375154Y1213518D01*
X1373649Y1210912D01*
X1372870Y1208005D01*
Y1204995D01*
X1373649Y1202088D01*
X1375154Y1199482D01*
X1377282Y1197354D01*
X1379888Y1195849D01*
X1382795Y1195070D01*
X1385805D01*
X1388712Y1195849D01*
X1391318Y1197354D01*
X1393446Y1199482D01*
X1394951Y1202088D01*
X1395730Y1204995D01*
Y1208005D01*
X1394951Y1210912D01*
X1393446Y1213518D01*
X1391318Y1215646D01*
X1388712Y1217151D01*
X1385805Y1217930D01*
D02*
G37*
G36*
X1360405D02*
X1357395D01*
X1354488Y1217151D01*
X1351882Y1215646D01*
X1349754Y1213518D01*
X1348249Y1210912D01*
X1347470Y1208005D01*
Y1204995D01*
X1348249Y1202088D01*
X1349754Y1199482D01*
X1351882Y1197354D01*
X1354488Y1195849D01*
X1357395Y1195070D01*
X1360405D01*
X1363312Y1195849D01*
X1365918Y1197354D01*
X1368046Y1199482D01*
X1369551Y1202088D01*
X1370330Y1204995D01*
Y1208005D01*
X1369551Y1210912D01*
X1368046Y1213518D01*
X1365918Y1215646D01*
X1363312Y1217151D01*
X1360405Y1217930D01*
D02*
G37*
G36*
X1335005D02*
X1331995D01*
X1329088Y1217151D01*
X1326482Y1215646D01*
X1324354Y1213518D01*
X1322849Y1210912D01*
X1322070Y1208005D01*
Y1204995D01*
X1322849Y1202088D01*
X1324354Y1199482D01*
X1326482Y1197354D01*
X1329088Y1195849D01*
X1331995Y1195070D01*
X1335005D01*
X1337912Y1195849D01*
X1340518Y1197354D01*
X1342646Y1199482D01*
X1344151Y1202088D01*
X1344930Y1204995D01*
Y1208005D01*
X1344151Y1210912D01*
X1342646Y1213518D01*
X1340518Y1215646D01*
X1337912Y1217151D01*
X1335005Y1217930D01*
D02*
G37*
G36*
X1309605D02*
X1306595D01*
X1303688Y1217151D01*
X1301082Y1215646D01*
X1298954Y1213518D01*
X1297449Y1210912D01*
X1296670Y1208005D01*
Y1204995D01*
X1297449Y1202088D01*
X1298954Y1199482D01*
X1301082Y1197354D01*
X1303688Y1195849D01*
X1306595Y1195070D01*
X1309605D01*
X1312512Y1195849D01*
X1315118Y1197354D01*
X1317246Y1199482D01*
X1318751Y1202088D01*
X1319530Y1204995D01*
Y1208005D01*
X1318751Y1210912D01*
X1317246Y1213518D01*
X1315118Y1215646D01*
X1312512Y1217151D01*
X1309605Y1217930D01*
D02*
G37*
G36*
X1284205D02*
X1281195D01*
X1278288Y1217151D01*
X1275682Y1215646D01*
X1273554Y1213518D01*
X1272049Y1210912D01*
X1271270Y1208005D01*
Y1204995D01*
X1272049Y1202088D01*
X1273554Y1199482D01*
X1275682Y1197354D01*
X1278288Y1195849D01*
X1281195Y1195070D01*
X1284205D01*
X1287112Y1195849D01*
X1289718Y1197354D01*
X1291846Y1199482D01*
X1293351Y1202088D01*
X1294130Y1204995D01*
Y1208005D01*
X1293351Y1210912D01*
X1291846Y1213518D01*
X1289718Y1215646D01*
X1287112Y1217151D01*
X1284205Y1217930D01*
D02*
G37*
G36*
X1258805D02*
X1255795D01*
X1252888Y1217151D01*
X1250282Y1215646D01*
X1248154Y1213518D01*
X1246649Y1210912D01*
X1245870Y1208005D01*
Y1204995D01*
X1246649Y1202088D01*
X1248154Y1199482D01*
X1250282Y1197354D01*
X1252888Y1195849D01*
X1255795Y1195070D01*
X1258805D01*
X1261712Y1195849D01*
X1264318Y1197354D01*
X1266446Y1199482D01*
X1267951Y1202088D01*
X1268730Y1204995D01*
Y1208005D01*
X1267951Y1210912D01*
X1266446Y1213518D01*
X1264318Y1215646D01*
X1261712Y1217151D01*
X1258805Y1217930D01*
D02*
G37*
G36*
X1243330D02*
X1220470D01*
Y1195070D01*
X1243330D01*
Y1217930D01*
D02*
G37*
G36*
X484105D02*
X481095D01*
X478188Y1217151D01*
X475582Y1215646D01*
X473454Y1213518D01*
X471949Y1210912D01*
X471170Y1208005D01*
Y1204995D01*
X471949Y1202088D01*
X473454Y1199482D01*
X475582Y1197354D01*
X478188Y1195849D01*
X481095Y1195070D01*
X484105D01*
X487012Y1195849D01*
X489618Y1197354D01*
X491746Y1199482D01*
X493251Y1202088D01*
X494030Y1204995D01*
Y1208005D01*
X493251Y1210912D01*
X491746Y1213518D01*
X489618Y1215646D01*
X487012Y1217151D01*
X484105Y1217930D01*
D02*
G37*
G36*
X458705D02*
X455695D01*
X452788Y1217151D01*
X450182Y1215646D01*
X448054Y1213518D01*
X446549Y1210912D01*
X445770Y1208005D01*
Y1204995D01*
X446549Y1202088D01*
X448054Y1199482D01*
X450182Y1197354D01*
X452788Y1195849D01*
X455695Y1195070D01*
X458705D01*
X461612Y1195849D01*
X464218Y1197354D01*
X466346Y1199482D01*
X467851Y1202088D01*
X468630Y1204995D01*
Y1208005D01*
X467851Y1210912D01*
X466346Y1213518D01*
X464218Y1215646D01*
X461612Y1217151D01*
X458705Y1217930D01*
D02*
G37*
G36*
X433305D02*
X430295D01*
X427388Y1217151D01*
X424782Y1215646D01*
X422654Y1213518D01*
X421149Y1210912D01*
X420370Y1208005D01*
Y1204995D01*
X421149Y1202088D01*
X422654Y1199482D01*
X424782Y1197354D01*
X427388Y1195849D01*
X430295Y1195070D01*
X433305D01*
X436212Y1195849D01*
X438818Y1197354D01*
X440946Y1199482D01*
X442451Y1202088D01*
X443230Y1204995D01*
Y1208005D01*
X442451Y1210912D01*
X440946Y1213518D01*
X438818Y1215646D01*
X436212Y1217151D01*
X433305Y1217930D01*
D02*
G37*
G36*
X407905D02*
X404895D01*
X401988Y1217151D01*
X399382Y1215646D01*
X397254Y1213518D01*
X395749Y1210912D01*
X394970Y1208005D01*
Y1204995D01*
X395749Y1202088D01*
X397254Y1199482D01*
X399382Y1197354D01*
X401988Y1195849D01*
X404895Y1195070D01*
X407905D01*
X410812Y1195849D01*
X413418Y1197354D01*
X415546Y1199482D01*
X417051Y1202088D01*
X417830Y1204995D01*
Y1208005D01*
X417051Y1210912D01*
X415546Y1213518D01*
X413418Y1215646D01*
X410812Y1217151D01*
X407905Y1217930D01*
D02*
G37*
G36*
X382505D02*
X379495D01*
X376588Y1217151D01*
X373982Y1215646D01*
X371854Y1213518D01*
X370349Y1210912D01*
X369570Y1208005D01*
Y1204995D01*
X370349Y1202088D01*
X371854Y1199482D01*
X373982Y1197354D01*
X376588Y1195849D01*
X379495Y1195070D01*
X382505D01*
X385412Y1195849D01*
X388018Y1197354D01*
X390146Y1199482D01*
X391651Y1202088D01*
X392430Y1204995D01*
Y1208005D01*
X391651Y1210912D01*
X390146Y1213518D01*
X388018Y1215646D01*
X385412Y1217151D01*
X382505Y1217930D01*
D02*
G37*
G36*
X357105D02*
X354095D01*
X351188Y1217151D01*
X348582Y1215646D01*
X346454Y1213518D01*
X344949Y1210912D01*
X344170Y1208005D01*
Y1204995D01*
X344949Y1202088D01*
X346454Y1199482D01*
X348582Y1197354D01*
X351188Y1195849D01*
X354095Y1195070D01*
X357105D01*
X360012Y1195849D01*
X362618Y1197354D01*
X364746Y1199482D01*
X366251Y1202088D01*
X367030Y1204995D01*
Y1208005D01*
X366251Y1210912D01*
X364746Y1213518D01*
X362618Y1215646D01*
X360012Y1217151D01*
X357105Y1217930D01*
D02*
G37*
G36*
X331705D02*
X328695D01*
X325788Y1217151D01*
X323182Y1215646D01*
X321054Y1213518D01*
X319549Y1210912D01*
X318770Y1208005D01*
Y1204995D01*
X319549Y1202088D01*
X321054Y1199482D01*
X323182Y1197354D01*
X325788Y1195849D01*
X328695Y1195070D01*
X331705D01*
X334612Y1195849D01*
X337218Y1197354D01*
X339346Y1199482D01*
X340851Y1202088D01*
X341630Y1204995D01*
Y1208005D01*
X340851Y1210912D01*
X339346Y1213518D01*
X337218Y1215646D01*
X334612Y1217151D01*
X331705Y1217930D01*
D02*
G37*
G36*
X316230D02*
X293370D01*
Y1195070D01*
X316230D01*
Y1217930D01*
D02*
G37*
G36*
X745558Y1143000D02*
X742882D01*
X740298Y1142308D01*
X737982Y1140970D01*
X736090Y1139078D01*
X735486Y1138033D01*
X700398D01*
X700353Y1138110D01*
X698763Y1139700D01*
X696816Y1140824D01*
X694644Y1141406D01*
X692395D01*
X690223Y1140824D01*
X688276Y1139700D01*
X686686Y1138110D01*
X685562Y1136162D01*
X684980Y1133990D01*
Y1131742D01*
X685562Y1129570D01*
X686686Y1127622D01*
X688276Y1126032D01*
X690223Y1124908D01*
X692395Y1124326D01*
X694644D01*
X696816Y1124908D01*
X698763Y1126032D01*
X700353Y1127622D01*
X700383Y1127674D01*
X735471D01*
X736090Y1126602D01*
X737982Y1124710D01*
X740298Y1123372D01*
X742882Y1122680D01*
X745558D01*
X748142Y1123372D01*
X750458Y1124710D01*
X752350Y1126602D01*
X753688Y1128918D01*
X754380Y1131502D01*
Y1134178D01*
X753688Y1136762D01*
X752350Y1139078D01*
X750458Y1140970D01*
X748142Y1142308D01*
X745558Y1143000D01*
D02*
G37*
G36*
X1409828Y1139851D02*
X1407711D01*
X1405667Y1139303D01*
X1403833Y1138245D01*
X1402579Y1136991D01*
X1363961D01*
X1362707Y1138245D01*
X1360874Y1139303D01*
X1358829Y1139851D01*
X1356712D01*
X1354667Y1139303D01*
X1352834Y1138245D01*
X1351337Y1136748D01*
X1350278Y1134915D01*
X1349730Y1132870D01*
Y1130753D01*
X1350278Y1128708D01*
X1351337Y1126875D01*
X1352834Y1125378D01*
X1354667Y1124319D01*
X1356712Y1123771D01*
X1358829D01*
X1360874Y1124319D01*
X1362707Y1125378D01*
X1363961Y1126632D01*
X1402579D01*
X1403833Y1125378D01*
X1405667Y1124319D01*
X1407711Y1123771D01*
X1409828D01*
X1411873Y1124319D01*
X1413707Y1125378D01*
X1415203Y1126875D01*
X1416262Y1128708D01*
X1416810Y1130753D01*
Y1132870D01*
X1416262Y1134915D01*
X1415203Y1136748D01*
X1413707Y1138245D01*
X1411873Y1139303D01*
X1409828Y1139851D01*
D02*
G37*
G36*
X1284889D02*
X1282772D01*
X1280727Y1139303D01*
X1278894Y1138245D01*
X1277640Y1136991D01*
X1239021D01*
X1237767Y1138245D01*
X1235934Y1139303D01*
X1233889Y1139851D01*
X1231772D01*
X1229727Y1139303D01*
X1227894Y1138245D01*
X1226397Y1136748D01*
X1225338Y1134915D01*
X1224790Y1132870D01*
Y1130753D01*
X1225338Y1128708D01*
X1226397Y1126875D01*
X1227894Y1125378D01*
X1229727Y1124319D01*
X1231772Y1123771D01*
X1233889D01*
X1235934Y1124319D01*
X1237767Y1125378D01*
X1239021Y1126632D01*
X1277640D01*
X1278894Y1125378D01*
X1280727Y1124319D01*
X1282772Y1123771D01*
X1284889D01*
X1286934Y1124319D01*
X1288767Y1125378D01*
X1290264Y1126875D01*
X1291322Y1128708D01*
X1291870Y1130753D01*
Y1132870D01*
X1291322Y1134915D01*
X1290264Y1136748D01*
X1288767Y1138245D01*
X1286934Y1139303D01*
X1284889Y1139851D01*
D02*
G37*
G36*
X482728Y1139405D02*
X480611D01*
X478567Y1138857D01*
X476733Y1137799D01*
X475479Y1136545D01*
X436861D01*
X435607Y1137799D01*
X433773Y1138857D01*
X431729Y1139405D01*
X429612D01*
X427567Y1138857D01*
X425733Y1137799D01*
X424237Y1136302D01*
X423178Y1134469D01*
X422630Y1132424D01*
Y1130307D01*
X423178Y1128262D01*
X424237Y1126429D01*
X425733Y1124932D01*
X427567Y1123873D01*
X429612Y1123325D01*
X431729D01*
X433773Y1123873D01*
X435607Y1124932D01*
X436861Y1126186D01*
X475479D01*
X476733Y1124932D01*
X478567Y1123873D01*
X480611Y1123325D01*
X482728D01*
X484773Y1123873D01*
X486606Y1124932D01*
X488103Y1126429D01*
X489162Y1128262D01*
X489710Y1130307D01*
Y1132424D01*
X489162Y1134469D01*
X488103Y1136302D01*
X486606Y1137799D01*
X484773Y1138857D01*
X482728Y1139405D01*
D02*
G37*
G36*
X357789D02*
X355672D01*
X353627Y1138857D01*
X351794Y1137799D01*
X350540Y1136545D01*
X311921D01*
X310667Y1137799D01*
X308834Y1138857D01*
X306789Y1139405D01*
X304672D01*
X302627Y1138857D01*
X300793Y1137799D01*
X299297Y1136302D01*
X298238Y1134469D01*
X297690Y1132424D01*
Y1130307D01*
X298238Y1128262D01*
X299297Y1126429D01*
X300793Y1124932D01*
X302627Y1123873D01*
X304672Y1123325D01*
X306789D01*
X308834Y1123873D01*
X310667Y1124932D01*
X311921Y1126186D01*
X350540D01*
X351794Y1124932D01*
X353627Y1123873D01*
X355672Y1123325D01*
X357789D01*
X359834Y1123873D01*
X361667Y1124932D01*
X363164Y1126429D01*
X364222Y1128262D01*
X364770Y1130307D01*
Y1132424D01*
X364222Y1134469D01*
X363164Y1136302D01*
X361667Y1137799D01*
X359834Y1138857D01*
X357789Y1139405D01*
D02*
G37*
G36*
X770958Y1143000D02*
X770890D01*
Y1134110D01*
X779780D01*
Y1134178D01*
X779088Y1136762D01*
X777750Y1139078D01*
X775858Y1140970D01*
X773542Y1142308D01*
X770958Y1143000D01*
D02*
G37*
G36*
X768350D02*
X768282D01*
X765698Y1142308D01*
X763382Y1140970D01*
X761490Y1139078D01*
X760152Y1136762D01*
X759460Y1134178D01*
Y1134110D01*
X768350D01*
Y1143000D01*
D02*
G37*
G36*
X1009572Y1140729D02*
Y1133498D01*
X1016803D01*
X1016260Y1135524D01*
X1015135Y1137471D01*
X1013545Y1139062D01*
X1011598Y1140186D01*
X1009572Y1140729D01*
D02*
G37*
G36*
X1016803Y1130958D02*
X1009572D01*
Y1123727D01*
X1011598Y1124270D01*
X1013545Y1125394D01*
X1015135Y1126984D01*
X1016260Y1128932D01*
X1016803Y1130958D01*
D02*
G37*
G36*
X1007032Y1140729D02*
X1005005Y1140186D01*
X1003058Y1139062D01*
X1001468Y1137471D01*
X1001431Y1137407D01*
X959508D01*
X957526Y1137013D01*
X955845Y1135890D01*
X934699Y1114743D01*
X933518Y1115060D01*
X933450D01*
Y1106170D01*
X942340D01*
Y1106238D01*
X942023Y1107419D01*
X961653Y1127048D01*
X1001431D01*
X1001468Y1126984D01*
X1003058Y1125394D01*
X1005005Y1124270D01*
X1007032Y1123727D01*
Y1132228D01*
Y1140729D01*
D02*
G37*
G36*
X1159473Y1129505D02*
X1157007D01*
X1154625Y1128867D01*
X1152490Y1127634D01*
X1150746Y1125890D01*
X1150417Y1125320D01*
X1110874D01*
X1108891Y1124925D01*
X1107211Y1123802D01*
X1097497Y1114089D01*
X1097426Y1114108D01*
X1095177D01*
X1093005Y1113526D01*
X1091058Y1112402D01*
X1089468Y1110812D01*
X1088344Y1108864D01*
X1087762Y1106692D01*
Y1104444D01*
X1088344Y1102272D01*
X1089468Y1100324D01*
X1091058Y1098734D01*
X1093005Y1097610D01*
X1095177Y1097028D01*
X1097426D01*
X1099598Y1097610D01*
X1101545Y1098734D01*
X1103135Y1100324D01*
X1104260Y1102272D01*
X1104842Y1104444D01*
Y1106692D01*
X1104822Y1106764D01*
X1113019Y1114960D01*
X1150417D01*
X1150746Y1114390D01*
X1152490Y1112646D01*
X1154625Y1111413D01*
X1157007Y1110775D01*
X1159473D01*
X1161855Y1111413D01*
X1163990Y1112646D01*
X1165734Y1114390D01*
X1166967Y1116525D01*
X1167605Y1118907D01*
Y1121373D01*
X1166967Y1123755D01*
X1165734Y1125890D01*
X1163990Y1127634D01*
X1161855Y1128867D01*
X1159473Y1129505D01*
D02*
G37*
G36*
X692250Y1114707D02*
X690223Y1114164D01*
X688276Y1113040D01*
X686686Y1111450D01*
X685562Y1109502D01*
X685019Y1107476D01*
X692250D01*
Y1114707D01*
D02*
G37*
G36*
X930910Y1115060D02*
X930842D01*
X928258Y1114368D01*
X925942Y1113030D01*
X924050Y1111138D01*
X922712Y1108822D01*
X922020Y1106238D01*
Y1106170D01*
X930910D01*
Y1115060D01*
D02*
G37*
G36*
X545534Y1118630D02*
X543068D01*
X540686Y1117992D01*
X538550Y1116759D01*
X536807Y1115015D01*
X535574Y1112880D01*
X534936Y1110498D01*
Y1108032D01*
X535574Y1105650D01*
X536807Y1103515D01*
X538550Y1101771D01*
X540686Y1100538D01*
X543068Y1099900D01*
X545534D01*
X547915Y1100538D01*
X550051Y1101771D01*
X551795Y1103515D01*
X553027Y1105650D01*
X553666Y1108032D01*
Y1110498D01*
X553027Y1112880D01*
X551795Y1115015D01*
X550051Y1116759D01*
X547915Y1117992D01*
X545534Y1118630D01*
D02*
G37*
G36*
X692250Y1104936D02*
X685019D01*
X685562Y1102910D01*
X686686Y1100962D01*
X688276Y1099372D01*
X690223Y1098248D01*
X692250Y1097705D01*
Y1104936D01*
D02*
G37*
G36*
X958918Y1115060D02*
X956242D01*
X953658Y1114368D01*
X951342Y1113030D01*
X949450Y1111138D01*
X948112Y1108822D01*
X947420Y1106238D01*
Y1103562D01*
X948112Y1100978D01*
X949450Y1098662D01*
X951342Y1096770D01*
X953658Y1095432D01*
X956242Y1094740D01*
X958918D01*
X961502Y1095432D01*
X963818Y1096770D01*
X965710Y1098662D01*
X966514Y1100055D01*
X1001738D01*
X1003058Y1098734D01*
X1005005Y1097610D01*
X1007178Y1097028D01*
X1009426D01*
X1011598Y1097610D01*
X1013545Y1098734D01*
X1015135Y1100324D01*
X1016260Y1102272D01*
X1016842Y1104444D01*
Y1106692D01*
X1016260Y1108864D01*
X1015135Y1110812D01*
X1013545Y1112402D01*
X1011598Y1113526D01*
X1009426Y1114108D01*
X1007178D01*
X1005005Y1113526D01*
X1003058Y1112402D01*
X1001468Y1110812D01*
X1001238Y1110414D01*
X966128D01*
X965710Y1111138D01*
X963818Y1113030D01*
X961502Y1114368D01*
X958918Y1115060D01*
D02*
G37*
G36*
X614059Y1141406D02*
X596979D01*
Y1131651D01*
X554373Y1089045D01*
X552124D01*
X551795Y1089615D01*
X550051Y1091359D01*
X547915Y1092592D01*
X545534Y1093230D01*
X543068D01*
X540686Y1092592D01*
X538550Y1091359D01*
X536807Y1089615D01*
X535574Y1087480D01*
X534936Y1085098D01*
Y1082632D01*
X535574Y1080250D01*
X536807Y1078115D01*
X538550Y1076371D01*
X540686Y1075138D01*
X543068Y1074500D01*
X545534D01*
X547915Y1075138D01*
X550051Y1076371D01*
X551795Y1078115D01*
X552124Y1078686D01*
X556519D01*
X558501Y1079080D01*
X560181Y1080203D01*
X604304Y1124326D01*
X614059D01*
Y1141406D01*
D02*
G37*
G36*
X1159473Y1104105D02*
X1157007D01*
X1154625Y1103467D01*
X1152490Y1102234D01*
X1150746Y1100490D01*
X1149513Y1098355D01*
X1148875Y1095973D01*
Y1093507D01*
X1149513Y1091125D01*
X1150746Y1088990D01*
X1152490Y1087246D01*
X1154625Y1086013D01*
X1157007Y1085375D01*
X1159473D01*
X1161855Y1086013D01*
X1163990Y1087246D01*
X1165734Y1088990D01*
X1166967Y1091125D01*
X1167605Y1093507D01*
Y1095973D01*
X1166967Y1098355D01*
X1165734Y1100490D01*
X1163990Y1102234D01*
X1161855Y1103467D01*
X1159473Y1104105D01*
D02*
G37*
G36*
X745558Y1089660D02*
X742882D01*
X740298Y1088968D01*
X737982Y1087630D01*
X736090Y1085738D01*
X735498Y1084713D01*
X700409D01*
X700353Y1084810D01*
X698763Y1086400D01*
X696816Y1087524D01*
X694644Y1088106D01*
X692395D01*
X690223Y1087524D01*
X688276Y1086400D01*
X686686Y1084810D01*
X685562Y1082862D01*
X684980Y1080690D01*
Y1078442D01*
X685562Y1076270D01*
X686686Y1074322D01*
X688276Y1072732D01*
X690223Y1071608D01*
X692395Y1071026D01*
X694644D01*
X696816Y1071608D01*
X698763Y1072732D01*
X700353Y1074322D01*
X700371Y1074353D01*
X735460D01*
X736090Y1073262D01*
X737982Y1071370D01*
X740298Y1070032D01*
X742882Y1069340D01*
X745558D01*
X748142Y1070032D01*
X750458Y1071370D01*
X752350Y1073262D01*
X753688Y1075578D01*
X754380Y1078162D01*
Y1080838D01*
X753688Y1083422D01*
X752350Y1085738D01*
X750458Y1087630D01*
X748142Y1088968D01*
X745558Y1089660D01*
D02*
G37*
G36*
X779780Y1131570D02*
X759460D01*
Y1131502D01*
X759777Y1130321D01*
X740841Y1111386D01*
X700390D01*
X700353Y1111450D01*
X698763Y1113040D01*
X696816Y1114164D01*
X694790Y1114707D01*
Y1106206D01*
Y1097705D01*
X696816Y1098248D01*
X698763Y1099372D01*
X700353Y1100962D01*
X700390Y1101027D01*
X742986D01*
X744968Y1101421D01*
X746648Y1102544D01*
X763267Y1119162D01*
X764441Y1118676D01*
Y1088241D01*
X763382Y1087630D01*
X761490Y1085738D01*
X760152Y1083422D01*
X759460Y1080838D01*
Y1080770D01*
X779780D01*
Y1080838D01*
X779088Y1083422D01*
X777750Y1085738D01*
X775858Y1087630D01*
X774799Y1088241D01*
Y1124099D01*
X775858Y1124710D01*
X777750Y1126602D01*
X779088Y1128918D01*
X779780Y1131502D01*
Y1131570D01*
D02*
G37*
G36*
X1009572Y1087429D02*
Y1080198D01*
X1016803D01*
X1016260Y1082224D01*
X1015135Y1084172D01*
X1013545Y1085762D01*
X1011598Y1086886D01*
X1009572Y1087429D01*
D02*
G37*
G36*
X1159473Y1078705D02*
X1157007D01*
X1154625Y1078067D01*
X1152490Y1076834D01*
X1150746Y1075090D01*
X1150417Y1074520D01*
X1113374D01*
X1113374Y1074520D01*
X1111392Y1074125D01*
X1109712Y1073002D01*
X1109711Y1073002D01*
X1097497Y1060788D01*
X1097426Y1060808D01*
X1095177D01*
X1093005Y1060226D01*
X1091058Y1059101D01*
X1089468Y1057511D01*
X1088344Y1055564D01*
X1087762Y1053392D01*
Y1051143D01*
X1088344Y1048971D01*
X1089468Y1047024D01*
X1091058Y1045434D01*
X1093005Y1044310D01*
X1095177Y1043728D01*
X1097426D01*
X1099598Y1044310D01*
X1101545Y1045434D01*
X1103135Y1047024D01*
X1104260Y1048971D01*
X1104842Y1051143D01*
Y1053392D01*
X1104822Y1053464D01*
X1115519Y1064161D01*
X1150417D01*
X1150746Y1063590D01*
X1152490Y1061846D01*
X1154625Y1060613D01*
X1157007Y1059975D01*
X1159473D01*
X1161855Y1060613D01*
X1163990Y1061846D01*
X1165734Y1063590D01*
X1166967Y1065725D01*
X1167605Y1068107D01*
Y1070573D01*
X1166967Y1072955D01*
X1165734Y1075090D01*
X1163990Y1076834D01*
X1161855Y1078067D01*
X1159473Y1078705D01*
D02*
G37*
G36*
X606643Y1088106D02*
X604395D01*
X602223Y1087524D01*
X600276Y1086400D01*
X598685Y1084810D01*
X597561Y1082862D01*
X596979Y1080690D01*
Y1078442D01*
X596998Y1078370D01*
X558473Y1039845D01*
X550766D01*
X550051Y1040559D01*
X547915Y1041792D01*
X545534Y1042430D01*
X543068D01*
X540686Y1041792D01*
X538550Y1040559D01*
X536807Y1038816D01*
X535574Y1036680D01*
X534936Y1034298D01*
Y1031832D01*
X535574Y1029451D01*
X536807Y1027315D01*
X538550Y1025571D01*
X540686Y1024338D01*
X543068Y1023700D01*
X545534D01*
X547915Y1024338D01*
X550051Y1025571D01*
X551795Y1027315D01*
X553027Y1029451D01*
X553037Y1029485D01*
X560618D01*
X562600Y1029880D01*
X564281Y1031003D01*
X604323Y1071045D01*
X604395Y1071026D01*
X606643D01*
X608815Y1071608D01*
X610763Y1072732D01*
X612353Y1074322D01*
X613477Y1076270D01*
X614059Y1078442D01*
Y1080690D01*
X613477Y1082862D01*
X612353Y1084810D01*
X610763Y1086400D01*
X608815Y1087524D01*
X606643Y1088106D01*
D02*
G37*
G36*
X1016803Y1077658D02*
X1009572D01*
Y1070427D01*
X1011598Y1070970D01*
X1013545Y1072094D01*
X1015135Y1073684D01*
X1016260Y1075632D01*
X1016803Y1077658D01*
D02*
G37*
G36*
X942340Y1103630D02*
X932180D01*
X922020D01*
Y1103562D01*
X922712Y1100978D01*
X924050Y1098662D01*
X925942Y1096770D01*
X927001Y1096159D01*
Y1060301D01*
X925942Y1059690D01*
X924050Y1057798D01*
X922712Y1055482D01*
X922020Y1052898D01*
Y1052830D01*
X932180D01*
X942340D01*
Y1052898D01*
X941648Y1055482D01*
X940310Y1057798D01*
X938418Y1059690D01*
X937359Y1060301D01*
Y1090736D01*
X938533Y1091222D01*
X954490Y1075266D01*
X956170Y1074143D01*
X958152Y1073748D01*
X958152Y1073748D01*
X1001431D01*
X1001468Y1073684D01*
X1003058Y1072094D01*
X1005005Y1070970D01*
X1007032Y1070427D01*
Y1078928D01*
Y1087429D01*
X1005005Y1086886D01*
X1003058Y1085762D01*
X1001468Y1084172D01*
X1001431Y1084108D01*
X960297D01*
X942023Y1102381D01*
X942340Y1103562D01*
Y1103630D01*
D02*
G37*
G36*
X692250Y1061407D02*
X690223Y1060864D01*
X688276Y1059740D01*
X686686Y1058150D01*
X685562Y1056202D01*
X685019Y1054176D01*
X692250D01*
Y1061407D01*
D02*
G37*
G36*
X545534Y1067830D02*
X543068D01*
X540686Y1067192D01*
X538550Y1065959D01*
X536807Y1064215D01*
X535574Y1062080D01*
X534936Y1059698D01*
Y1057232D01*
X535574Y1054850D01*
X536807Y1052715D01*
X538550Y1050971D01*
X540686Y1049738D01*
X543068Y1049100D01*
X545534D01*
X547915Y1049738D01*
X550051Y1050971D01*
X551795Y1052715D01*
X553027Y1054850D01*
X553666Y1057232D01*
Y1059698D01*
X553027Y1062080D01*
X551795Y1064215D01*
X550051Y1065959D01*
X547915Y1067192D01*
X545534Y1067830D01*
D02*
G37*
G36*
X692250Y1051636D02*
X685019D01*
X685562Y1049610D01*
X686686Y1047663D01*
X688276Y1046072D01*
X690223Y1044948D01*
X692250Y1044405D01*
Y1051636D01*
D02*
G37*
G36*
X958918Y1061720D02*
X956242D01*
X953658Y1061028D01*
X951342Y1059690D01*
X949450Y1057798D01*
X948112Y1055482D01*
X947420Y1052898D01*
Y1050222D01*
X948112Y1047638D01*
X949450Y1045322D01*
X951342Y1043430D01*
X953658Y1042092D01*
X956242Y1041400D01*
X958918D01*
X961502Y1042092D01*
X963818Y1043430D01*
X965710Y1045322D01*
X966526Y1046735D01*
X1001758D01*
X1003058Y1045434D01*
X1005005Y1044310D01*
X1007178Y1043728D01*
X1009426D01*
X1011598Y1044310D01*
X1013545Y1045434D01*
X1015135Y1047024D01*
X1016260Y1048971D01*
X1016842Y1051143D01*
Y1053392D01*
X1016260Y1055564D01*
X1015135Y1057511D01*
X1013545Y1059101D01*
X1011598Y1060226D01*
X1009426Y1060808D01*
X1007178D01*
X1005005Y1060226D01*
X1003058Y1059101D01*
X1001468Y1057511D01*
X1001227Y1057094D01*
X966117D01*
X965710Y1057798D01*
X963818Y1059690D01*
X961502Y1061028D01*
X958918Y1061720D01*
D02*
G37*
G36*
X1365810Y1057351D02*
X1349730D01*
Y1041271D01*
X1365810D01*
Y1057351D01*
D02*
G37*
G36*
X1240870D02*
X1224790D01*
Y1041271D01*
X1240870D01*
Y1057351D01*
D02*
G37*
G36*
X313770Y1056905D02*
X297690D01*
Y1040825D01*
X313770D01*
Y1056905D01*
D02*
G37*
G36*
X1159473Y1053305D02*
X1157007D01*
X1154625Y1052667D01*
X1152490Y1051434D01*
X1150746Y1049690D01*
X1149513Y1047555D01*
X1148875Y1045173D01*
Y1042707D01*
X1149513Y1040325D01*
X1150746Y1038190D01*
X1152490Y1036446D01*
X1154625Y1035213D01*
X1157007Y1034575D01*
X1159473D01*
X1161855Y1035213D01*
X1163990Y1036446D01*
X1165734Y1038190D01*
X1166967Y1040325D01*
X1167605Y1042707D01*
Y1045173D01*
X1166967Y1047555D01*
X1165734Y1049690D01*
X1163990Y1051434D01*
X1161855Y1052667D01*
X1159473Y1053305D01*
D02*
G37*
G36*
X745558Y1036320D02*
X742882D01*
X740298Y1035628D01*
X737982Y1034290D01*
X736090Y1032398D01*
X735509Y1031393D01*
X700421D01*
X700353Y1031510D01*
X698763Y1033100D01*
X696816Y1034224D01*
X694644Y1034806D01*
X692395D01*
X690223Y1034224D01*
X688276Y1033100D01*
X686686Y1031510D01*
X685562Y1029563D01*
X684980Y1027391D01*
Y1025142D01*
X685562Y1022970D01*
X686686Y1021022D01*
X688276Y1019433D01*
X690223Y1018308D01*
X692395Y1017726D01*
X694644D01*
X696816Y1018308D01*
X698763Y1019433D01*
X700353Y1021022D01*
X700360Y1021034D01*
X735448D01*
X736090Y1019922D01*
X737982Y1018030D01*
X740298Y1016692D01*
X742882Y1016000D01*
X745558D01*
X748142Y1016692D01*
X750458Y1018030D01*
X752350Y1019922D01*
X753688Y1022238D01*
X754380Y1024822D01*
Y1027498D01*
X753688Y1030082D01*
X752350Y1032398D01*
X750458Y1034290D01*
X748142Y1035628D01*
X745558Y1036320D01*
D02*
G37*
G36*
X779780Y1078230D02*
X759460D01*
Y1078162D01*
X759777Y1076981D01*
X740881Y1058086D01*
X700390D01*
X700353Y1058150D01*
X698763Y1059740D01*
X696816Y1060864D01*
X694790Y1061407D01*
Y1052906D01*
Y1044405D01*
X696816Y1044948D01*
X698763Y1046072D01*
X700353Y1047663D01*
X700390Y1047727D01*
X743026D01*
X745008Y1048121D01*
X746689Y1049244D01*
X763267Y1065822D01*
X764441Y1065336D01*
Y1034901D01*
X763382Y1034290D01*
X761490Y1032398D01*
X760152Y1030082D01*
X759460Y1027498D01*
Y1027430D01*
X779780D01*
Y1027498D01*
X779088Y1030082D01*
X777750Y1032398D01*
X775858Y1034290D01*
X774799Y1034901D01*
Y1070759D01*
X775858Y1071370D01*
X777750Y1073262D01*
X779088Y1075578D01*
X779780Y1078162D01*
Y1078230D01*
D02*
G37*
G36*
X1009572Y1034129D02*
Y1026898D01*
X1016803D01*
X1016260Y1028924D01*
X1015135Y1030872D01*
X1013545Y1032462D01*
X1011598Y1033586D01*
X1009572Y1034129D01*
D02*
G37*
G36*
X606643Y1034806D02*
X604395D01*
X602223Y1034224D01*
X600276Y1033100D01*
X598685Y1031510D01*
X597561Y1029563D01*
X596979Y1027391D01*
Y1025142D01*
X596998Y1025070D01*
X559373Y987445D01*
X552124D01*
X551795Y988016D01*
X550051Y989759D01*
X547915Y990992D01*
X545534Y991630D01*
X543068D01*
X540686Y990992D01*
X538550Y989759D01*
X536807Y988016D01*
X535574Y985880D01*
X534936Y983498D01*
Y981032D01*
X535574Y978651D01*
X536807Y976515D01*
X538550Y974771D01*
X540686Y973538D01*
X543068Y972900D01*
X545534D01*
X547915Y973538D01*
X550051Y974771D01*
X551795Y976515D01*
X552124Y977086D01*
X561518D01*
X563500Y977480D01*
X565181Y978603D01*
X604323Y1017745D01*
X604395Y1017726D01*
X606643D01*
X608815Y1018308D01*
X610763Y1019433D01*
X612353Y1021022D01*
X613477Y1022970D01*
X614059Y1025142D01*
Y1027391D01*
X613477Y1029563D01*
X612353Y1031510D01*
X610763Y1033100D01*
X608815Y1034224D01*
X606643Y1034806D01*
D02*
G37*
G36*
X1016803Y1024358D02*
X1009572D01*
Y1017127D01*
X1011598Y1017670D01*
X1013545Y1018794D01*
X1015135Y1020384D01*
X1016260Y1022332D01*
X1016803Y1024358D01*
D02*
G37*
G36*
X942340Y1050290D02*
X932180D01*
X922020D01*
Y1050222D01*
X922712Y1047638D01*
X924050Y1045322D01*
X925942Y1043430D01*
X927001Y1042819D01*
Y1006961D01*
X925942Y1006350D01*
X924050Y1004458D01*
X922712Y1002142D01*
X922020Y999558D01*
Y999490D01*
X932180D01*
X942340D01*
Y999558D01*
X941648Y1002142D01*
X940310Y1004458D01*
X938418Y1006350D01*
X937359Y1006961D01*
Y1037396D01*
X938533Y1037882D01*
X954449Y1021966D01*
X956130Y1020843D01*
X958112Y1020449D01*
X1001431D01*
X1001468Y1020384D01*
X1003058Y1018794D01*
X1005005Y1017670D01*
X1007032Y1017127D01*
Y1025628D01*
Y1034129D01*
X1005005Y1033586D01*
X1003058Y1032462D01*
X1001468Y1030872D01*
X1001431Y1030808D01*
X960257D01*
X942023Y1049041D01*
X942340Y1050222D01*
Y1050290D01*
D02*
G37*
G36*
X1159473Y1027905D02*
X1157007D01*
X1154625Y1027267D01*
X1152490Y1026034D01*
X1150746Y1024290D01*
X1150417Y1023719D01*
X1115874D01*
X1113892Y1023325D01*
X1112211Y1022203D01*
X1097497Y1007489D01*
X1097426Y1007508D01*
X1095177D01*
X1093005Y1006926D01*
X1091058Y1005801D01*
X1089468Y1004212D01*
X1088344Y1002264D01*
X1087762Y1000092D01*
Y997843D01*
X1088344Y995671D01*
X1089468Y993724D01*
X1091058Y992134D01*
X1093005Y991010D01*
X1095177Y990428D01*
X1097426D01*
X1099598Y991010D01*
X1101545Y992134D01*
X1103135Y993724D01*
X1104260Y995671D01*
X1104842Y997843D01*
Y1000092D01*
X1104822Y1000164D01*
X1118019Y1013361D01*
X1150417D01*
X1150746Y1012790D01*
X1152490Y1011046D01*
X1154625Y1009813D01*
X1157007Y1009175D01*
X1159473D01*
X1161855Y1009813D01*
X1163990Y1011046D01*
X1165734Y1012790D01*
X1166967Y1014925D01*
X1167605Y1017307D01*
Y1019773D01*
X1166967Y1022155D01*
X1165734Y1024290D01*
X1163990Y1026034D01*
X1161855Y1027267D01*
X1159473Y1027905D01*
D02*
G37*
G36*
X1409828Y1010043D02*
X1407711D01*
X1405667Y1009495D01*
X1403833Y1008436D01*
X1402579Y1007182D01*
X1363961D01*
X1362707Y1008436D01*
X1360874Y1009495D01*
X1358829Y1010043D01*
X1356712D01*
X1354667Y1009495D01*
X1352834Y1008436D01*
X1351337Y1006939D01*
X1350278Y1005106D01*
X1349730Y1003061D01*
Y1000944D01*
X1350278Y998899D01*
X1351337Y997066D01*
X1352834Y995569D01*
X1354667Y994510D01*
X1356712Y993963D01*
X1358829D01*
X1360874Y994510D01*
X1362707Y995569D01*
X1363961Y996823D01*
X1402579D01*
X1403833Y995569D01*
X1405667Y994510D01*
X1407711Y993963D01*
X1409828D01*
X1411873Y994510D01*
X1413707Y995569D01*
X1415203Y997066D01*
X1416262Y998899D01*
X1416810Y1000944D01*
Y1003061D01*
X1416262Y1005106D01*
X1415203Y1006939D01*
X1413707Y1008436D01*
X1411873Y1009495D01*
X1409828Y1010043D01*
D02*
G37*
G36*
X1284889D02*
X1282772D01*
X1280727Y1009495D01*
X1278894Y1008436D01*
X1277640Y1007182D01*
X1239021D01*
X1237767Y1008436D01*
X1235934Y1009495D01*
X1233889Y1010043D01*
X1231772D01*
X1229727Y1009495D01*
X1227894Y1008436D01*
X1226397Y1006939D01*
X1225338Y1005106D01*
X1224790Y1003061D01*
Y1000944D01*
X1225338Y998899D01*
X1226397Y997066D01*
X1227894Y995569D01*
X1229727Y994510D01*
X1231772Y993963D01*
X1233889D01*
X1235934Y994510D01*
X1237767Y995569D01*
X1239021Y996823D01*
X1277640D01*
X1278894Y995569D01*
X1280727Y994510D01*
X1282772Y993963D01*
X1284889D01*
X1286934Y994510D01*
X1288767Y995569D01*
X1290264Y997066D01*
X1291322Y998899D01*
X1291870Y1000944D01*
Y1003061D01*
X1291322Y1005106D01*
X1290264Y1006939D01*
X1288767Y1008436D01*
X1286934Y1009495D01*
X1284889Y1010043D01*
D02*
G37*
G36*
X483631Y1009865D02*
X481514D01*
X479469Y1009317D01*
X477635Y1008259D01*
X476381Y1007005D01*
X437763D01*
X436509Y1008259D01*
X434675Y1009317D01*
X432630Y1009865D01*
X430513D01*
X428469Y1009317D01*
X426635Y1008259D01*
X425138Y1006762D01*
X424080Y1004929D01*
X423532Y1002884D01*
Y1000767D01*
X424080Y998722D01*
X425138Y996889D01*
X426635Y995392D01*
X428469Y994333D01*
X430513Y993785D01*
X432630D01*
X434675Y994333D01*
X436509Y995392D01*
X437763Y996646D01*
X476381D01*
X477635Y995392D01*
X479469Y994333D01*
X481514Y993785D01*
X483631D01*
X485675Y994333D01*
X487509Y995392D01*
X489006Y996889D01*
X490064Y998722D01*
X490612Y1000767D01*
Y1002884D01*
X490064Y1004929D01*
X489006Y1006762D01*
X487509Y1008259D01*
X485675Y1009317D01*
X483631Y1009865D01*
D02*
G37*
G36*
X357788D02*
X355671D01*
X353627Y1009317D01*
X351793Y1008259D01*
X350539Y1007005D01*
X311921D01*
X310667Y1008259D01*
X308834Y1009317D01*
X306789Y1009865D01*
X304672D01*
X302627Y1009317D01*
X300793Y1008259D01*
X299297Y1006762D01*
X298238Y1004929D01*
X297690Y1002884D01*
Y1000767D01*
X298238Y998722D01*
X299297Y996889D01*
X300793Y995392D01*
X302627Y994333D01*
X304672Y993785D01*
X306789D01*
X308834Y994333D01*
X310667Y995392D01*
X311921Y996646D01*
X350539D01*
X351793Y995392D01*
X353627Y994333D01*
X355671Y993785D01*
X357788D01*
X359833Y994333D01*
X361666Y995392D01*
X363163Y996889D01*
X364222Y998722D01*
X364770Y1000767D01*
Y1002884D01*
X364222Y1004929D01*
X363163Y1006762D01*
X361666Y1008259D01*
X359833Y1009317D01*
X357788Y1009865D01*
D02*
G37*
G36*
X692250Y1008107D02*
X690223Y1007564D01*
X688276Y1006440D01*
X686686Y1004849D01*
X685562Y1002902D01*
X685019Y1000876D01*
X692250D01*
Y1008107D01*
D02*
G37*
G36*
X545534Y1017030D02*
X543068D01*
X540686Y1016392D01*
X538550Y1015159D01*
X536807Y1013416D01*
X535574Y1011280D01*
X534936Y1008898D01*
Y1006432D01*
X535574Y1004051D01*
X536807Y1001915D01*
X538550Y1000171D01*
X540686Y998938D01*
X543068Y998300D01*
X545534D01*
X547915Y998938D01*
X550051Y1000171D01*
X551795Y1001915D01*
X553027Y1004051D01*
X553666Y1006432D01*
Y1008898D01*
X553027Y1011280D01*
X551795Y1013416D01*
X550051Y1015159D01*
X547915Y1016392D01*
X545534Y1017030D01*
D02*
G37*
G36*
X692250Y998336D02*
X685019D01*
X685562Y996310D01*
X686686Y994362D01*
X688276Y992772D01*
X690223Y991648D01*
X692250Y991105D01*
Y998336D01*
D02*
G37*
G36*
X958918Y1008380D02*
X956242D01*
X953658Y1007688D01*
X951342Y1006350D01*
X949450Y1004458D01*
X948112Y1002142D01*
X947420Y999558D01*
Y996882D01*
X948112Y994298D01*
X949450Y991982D01*
X951342Y990090D01*
X953658Y988752D01*
X956242Y988060D01*
X958918D01*
X961502Y988752D01*
X963818Y990090D01*
X965710Y991982D01*
X966537Y993414D01*
X1001778D01*
X1003058Y992134D01*
X1005005Y991010D01*
X1007178Y990428D01*
X1009426D01*
X1011598Y991010D01*
X1013545Y992134D01*
X1015135Y993724D01*
X1016260Y995671D01*
X1016842Y997843D01*
Y1000092D01*
X1016260Y1002264D01*
X1015135Y1004212D01*
X1013545Y1005801D01*
X1011598Y1006926D01*
X1009426Y1007508D01*
X1007178D01*
X1005005Y1006926D01*
X1003058Y1005801D01*
X1001468Y1004212D01*
X1001215Y1003773D01*
X966105D01*
X965710Y1004458D01*
X963818Y1006350D01*
X961502Y1007688D01*
X958918Y1008380D01*
D02*
G37*
G36*
X1159473Y1002505D02*
X1157007D01*
X1154625Y1001867D01*
X1152490Y1000634D01*
X1150746Y998890D01*
X1149513Y996755D01*
X1148875Y994373D01*
Y991907D01*
X1149513Y989525D01*
X1150746Y987390D01*
X1152490Y985646D01*
X1154625Y984413D01*
X1157007Y983775D01*
X1159473D01*
X1161855Y984413D01*
X1163990Y985646D01*
X1165734Y987390D01*
X1166967Y989525D01*
X1167605Y991907D01*
Y994373D01*
X1166967Y996755D01*
X1165734Y998890D01*
X1163990Y1000634D01*
X1161855Y1001867D01*
X1159473Y1002505D01*
D02*
G37*
G36*
X745558Y982980D02*
X742882D01*
X740298Y982288D01*
X737982Y980950D01*
X736090Y979058D01*
X735521Y978073D01*
X700432D01*
X700353Y978210D01*
X698763Y979799D01*
X696816Y980924D01*
X694644Y981506D01*
X692395D01*
X690223Y980924D01*
X688276Y979799D01*
X686686Y978210D01*
X685562Y976262D01*
X684980Y974090D01*
Y971842D01*
X685562Y969669D01*
X686686Y967722D01*
X688276Y966132D01*
X690223Y965008D01*
X692395Y964426D01*
X694644D01*
X696816Y965008D01*
X698763Y966132D01*
X700345Y967714D01*
X735436D01*
X736090Y966582D01*
X737982Y964690D01*
X740298Y963352D01*
X742882Y962660D01*
X745558D01*
X748142Y963352D01*
X750458Y964690D01*
X752350Y966582D01*
X753688Y968898D01*
X754380Y971482D01*
Y974158D01*
X753688Y976742D01*
X752350Y979058D01*
X750458Y980950D01*
X748142Y982288D01*
X745558Y982980D01*
D02*
G37*
G36*
X779780Y1024890D02*
X759460D01*
Y1024822D01*
X759777Y1023641D01*
X740920Y1004785D01*
X700390D01*
X700353Y1004849D01*
X698763Y1006440D01*
X696816Y1007564D01*
X694790Y1008107D01*
Y999606D01*
Y991105D01*
X696816Y991648D01*
X698763Y992772D01*
X700353Y994362D01*
X700390Y994426D01*
X743066D01*
X745048Y994821D01*
X746728Y995943D01*
X763267Y1012482D01*
X764441Y1011996D01*
Y981561D01*
X763382Y980950D01*
X761490Y979058D01*
X760152Y976742D01*
X759460Y974158D01*
Y974090D01*
X779780D01*
Y974158D01*
X779088Y976742D01*
X777750Y979058D01*
X775858Y980950D01*
X774799Y981561D01*
Y1017419D01*
X775858Y1018030D01*
X777750Y1019922D01*
X779088Y1022238D01*
X779780Y1024822D01*
Y1024890D01*
D02*
G37*
G36*
X1009572Y980829D02*
Y973598D01*
X1016803D01*
X1016260Y975624D01*
X1015135Y977571D01*
X1013545Y979161D01*
X1011598Y980286D01*
X1009572Y980829D01*
D02*
G37*
G36*
X606643Y981506D02*
X604395D01*
X602223Y980924D01*
X600276Y979799D01*
X598685Y978210D01*
X597561Y976262D01*
X596979Y974090D01*
Y971842D01*
X596998Y971770D01*
X561873Y936645D01*
X552124D01*
X551795Y937215D01*
X550051Y938959D01*
X547915Y940192D01*
X545534Y940830D01*
X543068D01*
X540686Y940192D01*
X538550Y938959D01*
X536807Y937215D01*
X535574Y935080D01*
X534936Y932698D01*
Y930232D01*
X535574Y927850D01*
X536807Y925715D01*
X538550Y923971D01*
X540686Y922738D01*
X543068Y922100D01*
X545534D01*
X547915Y922738D01*
X550051Y923971D01*
X551795Y925715D01*
X552124Y926286D01*
X564019D01*
X566001Y926680D01*
X567681Y927803D01*
X604323Y964445D01*
X604395Y964426D01*
X606643D01*
X608815Y965008D01*
X610763Y966132D01*
X612353Y967722D01*
X613477Y969669D01*
X614059Y971842D01*
Y974090D01*
X613477Y976262D01*
X612353Y978210D01*
X610763Y979799D01*
X608815Y980924D01*
X606643Y981506D01*
D02*
G37*
G36*
X1016803Y971058D02*
X1009572D01*
Y963827D01*
X1011598Y964370D01*
X1013545Y965494D01*
X1015135Y967084D01*
X1016260Y969031D01*
X1016803Y971058D01*
D02*
G37*
G36*
X942340Y996950D02*
X932180D01*
X922020D01*
Y996882D01*
X922712Y994298D01*
X924050Y991982D01*
X925942Y990090D01*
X927001Y989479D01*
Y953621D01*
X925942Y953010D01*
X924050Y951118D01*
X922712Y948802D01*
X922020Y946218D01*
Y946150D01*
X932180D01*
X942340D01*
Y946218D01*
X941648Y948802D01*
X940310Y951118D01*
X938418Y953010D01*
X937359Y953621D01*
Y984056D01*
X938533Y984542D01*
X954410Y968665D01*
X956090Y967542D01*
X958072Y967148D01*
X1001431D01*
X1001468Y967084D01*
X1003058Y965494D01*
X1005005Y964370D01*
X1007032Y963827D01*
Y972328D01*
Y980829D01*
X1005005Y980286D01*
X1003058Y979161D01*
X1001468Y977571D01*
X1001431Y977507D01*
X960218D01*
X942023Y995701D01*
X942340Y996882D01*
Y996950D01*
D02*
G37*
G36*
X1159473Y977105D02*
X1157007D01*
X1154625Y976467D01*
X1152490Y975234D01*
X1150746Y973490D01*
X1150417Y972919D01*
X1118374D01*
X1116392Y972525D01*
X1114711Y971403D01*
X1097517Y954208D01*
X1087762D01*
Y937128D01*
X1104842D01*
Y946883D01*
X1120519Y962561D01*
X1150417D01*
X1150746Y961990D01*
X1152490Y960246D01*
X1154625Y959013D01*
X1157007Y958375D01*
X1159473D01*
X1161855Y959013D01*
X1163990Y960246D01*
X1165734Y961990D01*
X1166967Y964125D01*
X1167605Y966507D01*
Y968973D01*
X1166967Y971355D01*
X1165734Y973490D01*
X1163990Y975234D01*
X1161855Y976467D01*
X1159473Y977105D01*
D02*
G37*
G36*
X692250Y954807D02*
X690223Y954264D01*
X688276Y953140D01*
X686686Y951550D01*
X685562Y949602D01*
X685019Y947576D01*
X692250D01*
Y954807D01*
D02*
G37*
G36*
X545534Y966230D02*
X543068D01*
X540686Y965592D01*
X538550Y964359D01*
X536807Y962616D01*
X535574Y960480D01*
X534936Y958098D01*
Y955632D01*
X535574Y953251D01*
X536807Y951115D01*
X538550Y949371D01*
X540686Y948138D01*
X543068Y947500D01*
X545534D01*
X547915Y948138D01*
X550051Y949371D01*
X551795Y951115D01*
X553027Y953251D01*
X553666Y955632D01*
Y958098D01*
X553027Y960480D01*
X551795Y962616D01*
X550051Y964359D01*
X547915Y965592D01*
X545534Y966230D01*
D02*
G37*
G36*
X692250Y945036D02*
X685019D01*
X685562Y943010D01*
X686686Y941062D01*
X688276Y939472D01*
X690223Y938348D01*
X692250Y937805D01*
Y945036D01*
D02*
G37*
G36*
X958918Y955040D02*
X956242D01*
X953658Y954348D01*
X951342Y953010D01*
X949450Y951118D01*
X948112Y948802D01*
X947420Y946218D01*
Y943542D01*
X948112Y940958D01*
X949450Y938642D01*
X951342Y936750D01*
X953658Y935412D01*
X956242Y934720D01*
X958918D01*
X961502Y935412D01*
X963818Y936750D01*
X965710Y938642D01*
X966549Y940095D01*
X1001798D01*
X1003058Y938834D01*
X1005005Y937710D01*
X1007178Y937128D01*
X1009426D01*
X1011598Y937710D01*
X1013545Y938834D01*
X1015135Y940424D01*
X1016260Y942372D01*
X1016842Y944544D01*
Y946792D01*
X1016260Y948964D01*
X1015135Y950912D01*
X1013545Y952502D01*
X1011598Y953626D01*
X1009426Y954208D01*
X1007178D01*
X1005005Y953626D01*
X1003058Y952502D01*
X1001468Y950912D01*
X1001204Y950454D01*
X966094D01*
X965710Y951118D01*
X963818Y953010D01*
X961502Y954348D01*
X958918Y955040D01*
D02*
G37*
G36*
X1159473Y951705D02*
X1157007D01*
X1154625Y951067D01*
X1152490Y949834D01*
X1150746Y948090D01*
X1149513Y945955D01*
X1148875Y943573D01*
Y941107D01*
X1149513Y938725D01*
X1150746Y936590D01*
X1152490Y934846D01*
X1154625Y933613D01*
X1157007Y932975D01*
X1159473D01*
X1161855Y933613D01*
X1163990Y934846D01*
X1165734Y936590D01*
X1166967Y938725D01*
X1167605Y941107D01*
Y943573D01*
X1166967Y945955D01*
X1165734Y948090D01*
X1163990Y949834D01*
X1161855Y951067D01*
X1159473Y951705D01*
D02*
G37*
G36*
X1365810Y927543D02*
X1349730D01*
Y911463D01*
X1365810D01*
Y927543D01*
D02*
G37*
G36*
X1240870D02*
X1224790D01*
Y911463D01*
X1240870D01*
Y927543D01*
D02*
G37*
G36*
X313770Y927365D02*
X297690D01*
Y911285D01*
X313770D01*
Y927365D01*
D02*
G37*
G36*
X865820Y919160D02*
X864870D01*
Y897890D01*
X886140D01*
Y898840D01*
X885274Y903195D01*
X883575Y907297D01*
X881108Y910988D01*
X877968Y914128D01*
X874277Y916595D01*
X870175Y918294D01*
X865820Y919160D01*
D02*
G37*
G36*
X862330D02*
X861380D01*
X857025Y918294D01*
X852923Y916595D01*
X849232Y914128D01*
X846092Y910988D01*
X843625Y907297D01*
X841926Y903195D01*
X841060Y898840D01*
Y897890D01*
X862330D01*
Y919160D01*
D02*
G37*
G36*
X745558Y893524D02*
X742882D01*
X740298Y892832D01*
X737982Y891494D01*
X736090Y889603D01*
X735285Y888209D01*
X700082D01*
X698763Y889528D01*
X696816Y890652D01*
X694644Y891234D01*
X692395D01*
X690223Y890652D01*
X688276Y889528D01*
X686686Y887938D01*
X685562Y885991D01*
X684980Y883819D01*
Y881570D01*
X685562Y879398D01*
X686686Y877450D01*
X688276Y875861D01*
X690223Y874736D01*
X692395Y874154D01*
X694644D01*
X696816Y874736D01*
X698763Y875861D01*
X700353Y877450D01*
X700584Y877850D01*
X735672D01*
X736090Y877126D01*
X737982Y875234D01*
X740298Y873897D01*
X742882Y873204D01*
X745558D01*
X748142Y873897D01*
X750458Y875234D01*
X752350Y877126D01*
X753688Y879443D01*
X754380Y882027D01*
Y884702D01*
X753688Y887286D01*
X752350Y889603D01*
X750458Y891494D01*
X748142Y892832D01*
X745558Y893524D01*
D02*
G37*
G36*
X779780Y971550D02*
X759460D01*
Y971482D01*
X759777Y970301D01*
X740960Y951486D01*
X700390D01*
X700353Y951550D01*
X698763Y953140D01*
X696816Y954264D01*
X694790Y954807D01*
Y946306D01*
Y937805D01*
X696816Y938348D01*
X698763Y939472D01*
X700353Y941062D01*
X700390Y941126D01*
X743106D01*
X745088Y941521D01*
X746768Y942644D01*
X763267Y959142D01*
X764441Y958656D01*
Y892106D01*
X763382Y891494D01*
X761490Y889603D01*
X760152Y887286D01*
X759460Y884702D01*
Y884634D01*
X779780D01*
Y884702D01*
X779088Y887286D01*
X777750Y889603D01*
X775858Y891494D01*
X774799Y892106D01*
Y964079D01*
X775858Y964690D01*
X777750Y966582D01*
X779088Y968898D01*
X779780Y971482D01*
Y971550D01*
D02*
G37*
G36*
X357788Y881595D02*
X355671D01*
X353627Y881047D01*
X351793Y879989D01*
X350539Y878735D01*
X311921D01*
X310667Y879989D01*
X308834Y881047D01*
X306789Y881595D01*
X304672D01*
X302627Y881047D01*
X300793Y879989D01*
X299297Y878492D01*
X298238Y876659D01*
X297690Y874614D01*
Y872497D01*
X298238Y870452D01*
X299297Y868619D01*
X300793Y867122D01*
X302627Y866063D01*
X304672Y865515D01*
X306789D01*
X308834Y866063D01*
X310667Y867122D01*
X311921Y868376D01*
X350539D01*
X351793Y867122D01*
X353627Y866063D01*
X355671Y865515D01*
X357788D01*
X359833Y866063D01*
X361666Y867122D01*
X363163Y868619D01*
X364222Y870452D01*
X364770Y872497D01*
Y874614D01*
X364222Y876659D01*
X363163Y878492D01*
X361666Y879989D01*
X359833Y881047D01*
X357788Y881595D01*
D02*
G37*
G36*
X1409828Y880977D02*
X1407711D01*
X1405667Y880430D01*
X1403833Y879371D01*
X1402579Y878117D01*
X1363961D01*
X1362707Y879371D01*
X1360874Y880430D01*
X1358829Y880977D01*
X1356712D01*
X1354667Y880430D01*
X1352834Y879371D01*
X1351337Y877874D01*
X1350278Y876041D01*
X1349730Y873996D01*
Y871879D01*
X1350278Y869834D01*
X1351337Y868001D01*
X1352834Y866504D01*
X1354667Y865445D01*
X1356712Y864898D01*
X1358829D01*
X1360874Y865445D01*
X1362707Y866504D01*
X1363961Y867758D01*
X1402579D01*
X1403833Y866504D01*
X1405667Y865445D01*
X1407711Y864898D01*
X1409828D01*
X1411873Y865445D01*
X1413707Y866504D01*
X1415203Y868001D01*
X1416262Y869834D01*
X1416810Y871879D01*
Y873996D01*
X1416262Y876041D01*
X1415203Y877874D01*
X1413707Y879371D01*
X1411873Y880430D01*
X1409828Y880977D01*
D02*
G37*
G36*
X1284889D02*
X1282772D01*
X1280727Y880430D01*
X1278894Y879371D01*
X1277640Y878117D01*
X1239021D01*
X1237767Y879371D01*
X1235934Y880430D01*
X1233889Y880977D01*
X1231772D01*
X1229727Y880430D01*
X1227894Y879371D01*
X1226397Y877874D01*
X1225338Y876041D01*
X1224790Y873996D01*
Y871879D01*
X1225338Y869834D01*
X1226397Y868001D01*
X1227894Y866504D01*
X1229727Y865445D01*
X1231772Y864898D01*
X1233889D01*
X1235934Y865445D01*
X1237767Y866504D01*
X1239021Y867758D01*
X1277640D01*
X1278894Y866504D01*
X1280727Y865445D01*
X1282772Y864898D01*
X1284889D01*
X1286934Y865445D01*
X1288767Y866504D01*
X1290264Y868001D01*
X1291322Y869834D01*
X1291870Y871879D01*
Y873996D01*
X1291322Y876041D01*
X1290264Y877874D01*
X1288767Y879371D01*
X1286934Y880430D01*
X1284889Y880977D01*
D02*
G37*
G36*
X1009328Y881341D02*
Y874110D01*
X1016559D01*
X1016016Y876136D01*
X1014892Y878084D01*
X1013302Y879674D01*
X1011355Y880798D01*
X1009328Y881341D01*
D02*
G37*
G36*
X886140Y895350D02*
X864870D01*
Y874080D01*
X865820D01*
X870175Y874946D01*
X874277Y876645D01*
X877968Y879112D01*
X881108Y882252D01*
X883575Y885943D01*
X885274Y890045D01*
X886140Y894400D01*
Y895350D01*
D02*
G37*
G36*
X862330D02*
X841060D01*
Y894400D01*
X841926Y890045D01*
X843625Y885943D01*
X846092Y882252D01*
X849232Y879112D01*
X852923Y876645D01*
X857025Y874946D01*
X861380Y874080D01*
X862330D01*
Y895350D01*
D02*
G37*
G36*
X1159473Y870425D02*
X1157007D01*
X1154625Y869787D01*
X1152490Y868554D01*
X1150746Y866810D01*
X1150417Y866239D01*
X1110939D01*
X1110939Y866239D01*
X1108957Y865845D01*
X1107276Y864723D01*
X1097255Y854701D01*
X1097183Y854720D01*
X1094934D01*
X1092763Y854138D01*
X1090815Y853014D01*
X1089225Y851424D01*
X1088101Y849476D01*
X1087519Y847305D01*
Y845056D01*
X1088101Y842884D01*
X1089225Y840937D01*
X1090815Y839346D01*
X1092763Y838222D01*
X1094934Y837640D01*
X1097183D01*
X1099355Y838222D01*
X1101302Y839346D01*
X1102893Y840937D01*
X1104017Y842884D01*
X1104599Y845056D01*
Y847305D01*
X1104580Y847376D01*
X1113084Y855881D01*
X1150417D01*
X1150746Y855310D01*
X1152490Y853566D01*
X1154625Y852333D01*
X1157007Y851695D01*
X1159473D01*
X1161855Y852333D01*
X1163990Y853566D01*
X1165734Y855310D01*
X1166967Y857445D01*
X1167605Y859827D01*
Y862293D01*
X1166967Y864675D01*
X1165734Y866810D01*
X1163990Y868554D01*
X1161855Y869787D01*
X1159473Y870425D01*
D02*
G37*
G36*
X1016559Y871570D02*
X1009328D01*
Y864339D01*
X1011355Y864882D01*
X1013302Y866006D01*
X1014892Y867596D01*
X1016016Y869544D01*
X1016559Y871570D01*
D02*
G37*
G36*
X942340Y943610D02*
X932180D01*
X922020D01*
Y943542D01*
X922712Y940958D01*
X924050Y938642D01*
X925942Y936750D01*
X927001Y936139D01*
Y854561D01*
X925942Y853950D01*
X924050Y852058D01*
X922712Y849742D01*
X922020Y847158D01*
Y847090D01*
X932180D01*
X942340D01*
Y847158D01*
X942023Y848339D01*
X961345Y867661D01*
X1001188D01*
X1001225Y867596D01*
X1002815Y866006D01*
X1004762Y864882D01*
X1006788Y864339D01*
Y872840D01*
X1008058D01*
D01*
X1006788D01*
Y881341D01*
X1004762Y880798D01*
X1002815Y879674D01*
X1001225Y878084D01*
X1001188Y878019D01*
X959200D01*
X957218Y877625D01*
X955537Y876503D01*
X938533Y859498D01*
X937359Y859984D01*
Y936139D01*
X938418Y936750D01*
X940310Y938642D01*
X941648Y940958D01*
X942340Y943542D01*
Y943610D01*
D02*
G37*
G36*
X692250Y864535D02*
X690223Y863992D01*
X688276Y862868D01*
X686686Y861278D01*
X685562Y859331D01*
X685019Y857304D01*
X692250D01*
Y864535D01*
D02*
G37*
G36*
Y854764D02*
X685019D01*
X685562Y852738D01*
X686686Y850791D01*
X688276Y849201D01*
X690223Y848076D01*
X692250Y847533D01*
Y854764D01*
D02*
G37*
G36*
X958918Y855980D02*
X956242D01*
X953658Y855288D01*
X951342Y853950D01*
X949450Y852058D01*
X948112Y849742D01*
X947420Y847158D01*
Y844482D01*
X948112Y841898D01*
X949450Y839582D01*
X951342Y837690D01*
X953658Y836352D01*
X956242Y835660D01*
X958918D01*
X961502Y836352D01*
X963818Y837690D01*
X965710Y839582D01*
X966425Y840821D01*
X1001340D01*
X1002815Y839346D01*
X1004762Y838222D01*
X1006934Y837640D01*
X1009183D01*
X1011355Y838222D01*
X1013302Y839346D01*
X1014892Y840937D01*
X1016016Y842884D01*
X1016598Y845056D01*
Y847305D01*
X1016016Y849476D01*
X1014892Y851424D01*
X1013302Y853014D01*
X1011355Y854138D01*
X1009183Y854720D01*
X1006934D01*
X1004762Y854138D01*
X1002815Y853014D01*
X1001225Y851424D01*
X1001084Y851180D01*
X966217D01*
X965710Y852058D01*
X963818Y853950D01*
X961502Y855288D01*
X958918Y855980D01*
D02*
G37*
G36*
X745558Y839382D02*
X742882D01*
X740298Y838690D01*
X737982Y837352D01*
X736090Y835461D01*
X735528Y834488D01*
X700440D01*
X700353Y834638D01*
X698763Y836228D01*
X696816Y837352D01*
X694644Y837934D01*
X692395D01*
X690223Y837352D01*
X688276Y836228D01*
X686686Y834638D01*
X685562Y832691D01*
X684980Y830519D01*
Y828270D01*
X685562Y826098D01*
X686686Y824151D01*
X688276Y822561D01*
X690223Y821436D01*
X692395Y820854D01*
X694644D01*
X696816Y821436D01*
X698763Y822561D01*
X700332Y824129D01*
X735429D01*
X736090Y822984D01*
X737982Y821092D01*
X740298Y819754D01*
X742882Y819062D01*
X745558D01*
X748142Y819754D01*
X750458Y821092D01*
X752350Y822984D01*
X753688Y825301D01*
X754380Y827885D01*
Y830560D01*
X753688Y833144D01*
X752350Y835461D01*
X750458Y837352D01*
X748142Y838690D01*
X745558Y839382D01*
D02*
G37*
G36*
X779780Y882094D02*
X759460D01*
Y882027D01*
X759777Y880846D01*
X740145Y861214D01*
X700390D01*
X700353Y861278D01*
X698763Y862868D01*
X696816Y863992D01*
X694790Y864535D01*
Y856034D01*
Y847533D01*
X696816Y848076D01*
X698763Y849201D01*
X700353Y850791D01*
X700390Y850855D01*
X742290D01*
X744272Y851249D01*
X745953Y852372D01*
X763267Y869686D01*
X764441Y869200D01*
Y837963D01*
X763382Y837352D01*
X761490Y835461D01*
X760152Y833144D01*
X759460Y830560D01*
Y830492D01*
X779780D01*
Y830560D01*
X779088Y833144D01*
X777750Y835461D01*
X775858Y837352D01*
X774799Y837963D01*
Y874623D01*
X775858Y875234D01*
X777750Y877126D01*
X779088Y879443D01*
X779780Y882027D01*
Y882094D01*
D02*
G37*
G36*
X1159473Y845025D02*
X1157007D01*
X1154625Y844387D01*
X1152490Y843154D01*
X1150746Y841410D01*
X1149513Y839275D01*
X1148875Y836893D01*
Y834427D01*
X1149513Y832045D01*
X1150746Y829910D01*
X1152490Y828166D01*
X1154625Y826933D01*
X1157007Y826295D01*
X1159473D01*
X1161855Y826933D01*
X1163990Y828166D01*
X1165734Y829910D01*
X1166967Y832045D01*
X1167605Y834427D01*
Y836893D01*
X1166967Y839275D01*
X1165734Y841410D01*
X1163990Y843154D01*
X1161855Y844387D01*
X1159473Y845025D01*
D02*
G37*
G36*
X1009328Y828041D02*
Y820810D01*
X1016559D01*
X1016016Y822837D01*
X1014892Y824784D01*
X1013302Y826374D01*
X1011355Y827498D01*
X1009328Y828041D01*
D02*
G37*
G36*
X1016559Y818270D02*
X1009328D01*
Y811039D01*
X1011355Y811582D01*
X1013302Y812707D01*
X1014892Y814296D01*
X1016016Y816244D01*
X1016559Y818270D01*
D02*
G37*
G36*
X942340Y844550D02*
X932180D01*
X922020D01*
Y844482D01*
X922712Y841898D01*
X924050Y839582D01*
X925942Y837690D01*
X927001Y837079D01*
Y801221D01*
X925942Y800610D01*
X924050Y798718D01*
X922712Y796402D01*
X922020Y793818D01*
Y793750D01*
X932180D01*
X942340D01*
Y793818D01*
X941648Y796402D01*
X940310Y798718D01*
X938418Y800610D01*
X937359Y801221D01*
Y831656D01*
X938533Y832142D01*
X954797Y815878D01*
X956478Y814755D01*
X958460Y814361D01*
X1001188D01*
X1001225Y814296D01*
X1002815Y812707D01*
X1004762Y811582D01*
X1006788Y811039D01*
Y819540D01*
Y828041D01*
X1004762Y827498D01*
X1002815Y826374D01*
X1001225Y824784D01*
X1001188Y824720D01*
X960605D01*
X942023Y843301D01*
X942340Y844482D01*
Y844550D01*
D02*
G37*
G36*
X692250Y811235D02*
X690223Y810693D01*
X688276Y809568D01*
X686686Y807978D01*
X685562Y806031D01*
X685019Y804005D01*
X692250D01*
Y811235D01*
D02*
G37*
G36*
X1159473Y819625D02*
X1157007D01*
X1154625Y818987D01*
X1152490Y817754D01*
X1150746Y816010D01*
X1150417Y815440D01*
X1113439D01*
X1111457Y815045D01*
X1109777Y813923D01*
X1097255Y801401D01*
X1097183Y801420D01*
X1094934D01*
X1092763Y800838D01*
X1090815Y799714D01*
X1089225Y798123D01*
X1088101Y796176D01*
X1087519Y794004D01*
Y791756D01*
X1088101Y789584D01*
X1089225Y787636D01*
X1090815Y786046D01*
X1092763Y784922D01*
X1094934Y784340D01*
X1097183D01*
X1099355Y784922D01*
X1101302Y786046D01*
X1102893Y787636D01*
X1104017Y789584D01*
X1104599Y791756D01*
Y794004D01*
X1104580Y794076D01*
X1115584Y805080D01*
X1150417D01*
X1150746Y804510D01*
X1152490Y802766D01*
X1154625Y801533D01*
X1157007Y800895D01*
X1159473D01*
X1161855Y801533D01*
X1163990Y802766D01*
X1165734Y804510D01*
X1166967Y806645D01*
X1167605Y809027D01*
Y811493D01*
X1166967Y813875D01*
X1165734Y816010D01*
X1163990Y817754D01*
X1161855Y818987D01*
X1159473Y819625D01*
D02*
G37*
G36*
X692250Y801464D02*
X685019D01*
X685562Y799438D01*
X686686Y797491D01*
X688276Y795901D01*
X690223Y794777D01*
X692250Y794233D01*
Y801464D01*
D02*
G37*
G36*
X958918Y802640D02*
X956242D01*
X953658Y801948D01*
X951342Y800610D01*
X949450Y798718D01*
X948112Y796402D01*
X947420Y793818D01*
Y791142D01*
X948112Y788558D01*
X949450Y786242D01*
X951342Y784350D01*
X953658Y783012D01*
X956242Y782320D01*
X958918D01*
X961502Y783012D01*
X963818Y784350D01*
X965710Y786242D01*
X966437Y787501D01*
X1001360D01*
X1002815Y786046D01*
X1004762Y784922D01*
X1006934Y784340D01*
X1009183D01*
X1011355Y784922D01*
X1013302Y786046D01*
X1014892Y787636D01*
X1016016Y789584D01*
X1016598Y791756D01*
Y794004D01*
X1016016Y796176D01*
X1014892Y798123D01*
X1013302Y799714D01*
X1011355Y800838D01*
X1009183Y801420D01*
X1006934D01*
X1004762Y800838D01*
X1002815Y799714D01*
X1001225Y798123D01*
X1001072Y797860D01*
X966206D01*
X965710Y798718D01*
X963818Y800610D01*
X961502Y801948D01*
X958918Y802640D01*
D02*
G37*
G36*
X313770Y799095D02*
X297690D01*
Y783015D01*
X313770D01*
Y799095D01*
D02*
G37*
G36*
X1365810Y798478D02*
X1349730D01*
Y782398D01*
X1365810D01*
Y798478D01*
D02*
G37*
G36*
X1240870Y798477D02*
X1224790D01*
Y782397D01*
X1240870D01*
Y798477D01*
D02*
G37*
G36*
X745558Y786341D02*
X742882D01*
X740298Y785648D01*
X737982Y784311D01*
X736090Y782419D01*
X735454Y781317D01*
X700365D01*
X700353Y781338D01*
X698763Y782928D01*
X696816Y784053D01*
X694644Y784634D01*
X692395D01*
X690223Y784053D01*
X688276Y782928D01*
X686686Y781338D01*
X685562Y779391D01*
X684980Y777219D01*
Y774970D01*
X685562Y772798D01*
X686686Y770851D01*
X688276Y769261D01*
X690223Y768137D01*
X692395Y767554D01*
X694644D01*
X696816Y768137D01*
X698763Y769261D01*
X700353Y770851D01*
X700415Y770958D01*
X735504D01*
X736090Y769942D01*
X737982Y768051D01*
X740298Y766713D01*
X742882Y766021D01*
X745558D01*
X748142Y766713D01*
X750458Y768051D01*
X752350Y769942D01*
X753688Y772259D01*
X754380Y774843D01*
Y777518D01*
X753688Y780102D01*
X752350Y782419D01*
X750458Y784311D01*
X748142Y785648D01*
X745558Y786341D01*
D02*
G37*
G36*
X779780Y827952D02*
X759460D01*
Y827885D01*
X759777Y826703D01*
X740987Y807914D01*
X700390D01*
X700353Y807978D01*
X698763Y809568D01*
X696816Y810693D01*
X694790Y811235D01*
Y802735D01*
Y794233D01*
X696816Y794777D01*
X698763Y795901D01*
X700353Y797491D01*
X700390Y797555D01*
X743132D01*
X745115Y797949D01*
X746795Y799072D01*
X763267Y815544D01*
X764441Y815058D01*
Y784922D01*
X763382Y784311D01*
X761490Y782419D01*
X760152Y780102D01*
X759460Y777518D01*
Y777451D01*
X779780D01*
Y777518D01*
X779088Y780102D01*
X777750Y782419D01*
X775858Y784311D01*
X774799Y784922D01*
Y820481D01*
X775858Y821092D01*
X777750Y822984D01*
X779088Y825301D01*
X779780Y827885D01*
Y827952D01*
D02*
G37*
G36*
X1159473Y794225D02*
X1157007D01*
X1154625Y793587D01*
X1152490Y792354D01*
X1150746Y790610D01*
X1149513Y788475D01*
X1148875Y786093D01*
Y783627D01*
X1149513Y781245D01*
X1150746Y779110D01*
X1152490Y777366D01*
X1154625Y776133D01*
X1157007Y775495D01*
X1159473D01*
X1161855Y776133D01*
X1163990Y777366D01*
X1165734Y779110D01*
X1166967Y781245D01*
X1167605Y783627D01*
Y786093D01*
X1166967Y788475D01*
X1165734Y790610D01*
X1163990Y792354D01*
X1161855Y793587D01*
X1159473Y794225D01*
D02*
G37*
G36*
X606643Y784634D02*
X604395D01*
X602223Y784053D01*
X600276Y782928D01*
X598685Y781338D01*
X598648Y781274D01*
X593214D01*
X591232Y780880D01*
X589552Y779757D01*
X589552Y779757D01*
X544357Y734562D01*
X543862Y733820D01*
X542963D01*
X540581Y733182D01*
X538445Y731949D01*
X536702Y730206D01*
X535469Y728070D01*
X534831Y725688D01*
Y723222D01*
X535469Y720841D01*
X536702Y718705D01*
X538445Y716961D01*
X540581Y715728D01*
X542963Y715090D01*
X545428D01*
X547810Y715728D01*
X549946Y716961D01*
X551689Y718705D01*
X552922Y720841D01*
X553560Y723222D01*
Y725688D01*
X552922Y728070D01*
X552773Y728328D01*
X595360Y770915D01*
X598648D01*
X598685Y770851D01*
X600276Y769261D01*
X602223Y768137D01*
X604395Y767554D01*
X606643D01*
X608815Y768137D01*
X610763Y769261D01*
X612353Y770851D01*
X613477Y772798D01*
X614059Y774970D01*
Y777219D01*
X613477Y779391D01*
X612353Y781338D01*
X610763Y782928D01*
X608815Y784053D01*
X606643Y784634D01*
D02*
G37*
G36*
X1009328Y774741D02*
Y767510D01*
X1016559D01*
X1016016Y769537D01*
X1014892Y771484D01*
X1013302Y773074D01*
X1011355Y774198D01*
X1009328Y774741D01*
D02*
G37*
G36*
X1159473Y768825D02*
X1157007D01*
X1154625Y768187D01*
X1152490Y766954D01*
X1150746Y765210D01*
X1150417Y764640D01*
X1115939D01*
X1115939Y764640D01*
X1113957Y764245D01*
X1112276Y763122D01*
X1097255Y748101D01*
X1097183Y748120D01*
X1094934D01*
X1092763Y747538D01*
X1090815Y746414D01*
X1089225Y744824D01*
X1088101Y742876D01*
X1087519Y740704D01*
Y738456D01*
X1088101Y736284D01*
X1089225Y734336D01*
X1090815Y732746D01*
X1092763Y731622D01*
X1094934Y731040D01*
X1097183D01*
X1099355Y731622D01*
X1101302Y732746D01*
X1102893Y734336D01*
X1104017Y736284D01*
X1104599Y738456D01*
Y740704D01*
X1104580Y740776D01*
X1118084Y754280D01*
X1150417D01*
X1150746Y753710D01*
X1152490Y751966D01*
X1154625Y750733D01*
X1157007Y750095D01*
X1159473D01*
X1161855Y750733D01*
X1163990Y751966D01*
X1165734Y753710D01*
X1166967Y755845D01*
X1167605Y758227D01*
Y760693D01*
X1166967Y763075D01*
X1165734Y765210D01*
X1163990Y766954D01*
X1161855Y768187D01*
X1159473Y768825D01*
D02*
G37*
G36*
X1016559Y764970D02*
X1009328D01*
Y757739D01*
X1011355Y758282D01*
X1013302Y759407D01*
X1014892Y760997D01*
X1016016Y762944D01*
X1016559Y764970D01*
D02*
G37*
G36*
X942340Y791210D02*
X932180D01*
X922020D01*
Y791142D01*
X922712Y788558D01*
X924050Y786242D01*
X925942Y784350D01*
X927001Y783739D01*
Y747881D01*
X925942Y747270D01*
X924050Y745378D01*
X922712Y743062D01*
X922020Y740478D01*
Y740410D01*
X932180D01*
X942340D01*
Y740478D01*
X941648Y743062D01*
X940310Y745378D01*
X938418Y747270D01*
X937359Y747881D01*
Y778316D01*
X938533Y778802D01*
X954757Y762578D01*
X954757Y762578D01*
X956438Y761455D01*
X958420Y761061D01*
X1001188D01*
X1001225Y760997D01*
X1002815Y759407D01*
X1004762Y758282D01*
X1006788Y757739D01*
Y766240D01*
Y774741D01*
X1004762Y774198D01*
X1002815Y773074D01*
X1001225Y771484D01*
X1001188Y771420D01*
X960565D01*
X942023Y789961D01*
X942340Y791142D01*
Y791210D01*
D02*
G37*
G36*
X692250Y757936D02*
X690223Y757393D01*
X688276Y756268D01*
X686686Y754678D01*
X685562Y752731D01*
X685019Y750705D01*
X692250D01*
Y757936D01*
D02*
G37*
G36*
X482728Y753325D02*
X480611D01*
X478567Y752777D01*
X476733Y751719D01*
X475479Y750465D01*
X436861D01*
X435607Y751719D01*
X433773Y752777D01*
X431729Y753325D01*
X429612D01*
X427567Y752777D01*
X425733Y751719D01*
X424237Y750222D01*
X423178Y748389D01*
X422630Y746344D01*
Y744227D01*
X423178Y742182D01*
X424237Y740349D01*
X425733Y738852D01*
X427567Y737793D01*
X429612Y737245D01*
X431729D01*
X433773Y737793D01*
X435607Y738852D01*
X436861Y740106D01*
X475479D01*
X476733Y738852D01*
X478567Y737793D01*
X480611Y737245D01*
X482728D01*
X484773Y737793D01*
X486606Y738852D01*
X488103Y740349D01*
X489162Y742182D01*
X489710Y744227D01*
Y746344D01*
X489162Y748389D01*
X488103Y750222D01*
X486606Y751719D01*
X484773Y752777D01*
X482728Y753325D01*
D02*
G37*
G36*
X357788D02*
X355671D01*
X353627Y752777D01*
X351793Y751719D01*
X350539Y750465D01*
X311921D01*
X310667Y751719D01*
X308834Y752777D01*
X306789Y753325D01*
X304672D01*
X302627Y752777D01*
X300793Y751719D01*
X299297Y750222D01*
X298238Y748389D01*
X297690Y746344D01*
Y744227D01*
X298238Y742182D01*
X299297Y740349D01*
X300793Y738852D01*
X302627Y737793D01*
X304672Y737245D01*
X306789D01*
X308834Y737793D01*
X310667Y738852D01*
X311921Y740106D01*
X350539D01*
X351793Y738852D01*
X353627Y737793D01*
X355671Y737245D01*
X357788D01*
X359833Y737793D01*
X361666Y738852D01*
X363163Y740349D01*
X364222Y742182D01*
X364770Y744227D01*
Y746344D01*
X364222Y748389D01*
X363163Y750222D01*
X361666Y751719D01*
X359833Y752777D01*
X357788Y753325D01*
D02*
G37*
G36*
X1409828Y751015D02*
X1407711D01*
X1405667Y750467D01*
X1403833Y749408D01*
X1402579Y748154D01*
X1363961D01*
X1362707Y749408D01*
X1360874Y750467D01*
X1358829Y751015D01*
X1356712D01*
X1354667Y750467D01*
X1352834Y749408D01*
X1351337Y747912D01*
X1350278Y746078D01*
X1349730Y744033D01*
Y741916D01*
X1350278Y739872D01*
X1351337Y738038D01*
X1352834Y736541D01*
X1354667Y735483D01*
X1356712Y734935D01*
X1358829D01*
X1360874Y735483D01*
X1362707Y736541D01*
X1363961Y737795D01*
X1402579D01*
X1403833Y736541D01*
X1405667Y735483D01*
X1407711Y734935D01*
X1409828D01*
X1411873Y735483D01*
X1413707Y736541D01*
X1415203Y738038D01*
X1416262Y739872D01*
X1416810Y741916D01*
Y744033D01*
X1416262Y746078D01*
X1415203Y747912D01*
X1413707Y749408D01*
X1411873Y750467D01*
X1409828Y751015D01*
D02*
G37*
G36*
X1284889D02*
X1282772D01*
X1280727Y750467D01*
X1278894Y749408D01*
X1277640Y748154D01*
X1239021D01*
X1237767Y749408D01*
X1235934Y750467D01*
X1233889Y751015D01*
X1231772D01*
X1229727Y750467D01*
X1227894Y749408D01*
X1226397Y747912D01*
X1225338Y746078D01*
X1224790Y744033D01*
Y741916D01*
X1225338Y739872D01*
X1226397Y738038D01*
X1227894Y736541D01*
X1229727Y735483D01*
X1231772Y734935D01*
X1233889D01*
X1235934Y735483D01*
X1237767Y736541D01*
X1239021Y737795D01*
X1277640D01*
X1278894Y736541D01*
X1280727Y735483D01*
X1282772Y734935D01*
X1284889D01*
X1286934Y735483D01*
X1288767Y736541D01*
X1290264Y738038D01*
X1291322Y739872D01*
X1291870Y741916D01*
Y744033D01*
X1291322Y746078D01*
X1290264Y747912D01*
X1288767Y749408D01*
X1286934Y750467D01*
X1284889Y751015D01*
D02*
G37*
G36*
X692250Y748165D02*
X685019D01*
X685562Y746138D01*
X686686Y744191D01*
X688276Y742601D01*
X690223Y741477D01*
X692250Y740934D01*
Y748165D01*
D02*
G37*
G36*
X438710Y799095D02*
X422630D01*
Y783015D01*
X430470D01*
X446451Y767033D01*
X448342Y765770D01*
X450572Y765327D01*
X520484D01*
X534831Y750980D01*
Y748622D01*
X535469Y746240D01*
X536702Y744105D01*
X538445Y742361D01*
X540581Y741128D01*
X542963Y740490D01*
X545428D01*
X547810Y741128D01*
X549946Y742361D01*
X551689Y744105D01*
X552922Y746240D01*
X553560Y748622D01*
Y751088D01*
X552922Y753470D01*
X551689Y755605D01*
X549946Y757349D01*
X547810Y758582D01*
X545428Y759220D01*
X543071D01*
X527017Y775274D01*
X525127Y776537D01*
X522897Y776981D01*
X452985D01*
X438710Y791256D01*
Y799095D01*
D02*
G37*
G36*
X958918Y749300D02*
X956242D01*
X953658Y748608D01*
X951342Y747270D01*
X949450Y745378D01*
X948112Y743062D01*
X947420Y740478D01*
Y737802D01*
X948112Y735218D01*
X949450Y732902D01*
X951342Y731010D01*
X953658Y729672D01*
X956242Y728980D01*
X958918D01*
X961502Y729672D01*
X963818Y731010D01*
X965710Y732902D01*
X966448Y734180D01*
X1001380D01*
X1002815Y732746D01*
X1004762Y731622D01*
X1006934Y731040D01*
X1009183D01*
X1011355Y731622D01*
X1013302Y732746D01*
X1014892Y734336D01*
X1016016Y736284D01*
X1016598Y738456D01*
Y740704D01*
X1016016Y742876D01*
X1014892Y744824D01*
X1013302Y746414D01*
X1011355Y747538D01*
X1009183Y748120D01*
X1006934D01*
X1004762Y747538D01*
X1002815Y746414D01*
X1001225Y744824D01*
X1001061Y744539D01*
X966194D01*
X965710Y745378D01*
X963818Y747270D01*
X961502Y748608D01*
X958918Y749300D01*
D02*
G37*
G36*
X745558Y733140D02*
X742882D01*
X740298Y732448D01*
X737982Y731110D01*
X736090Y729218D01*
X735425Y728067D01*
X700324D01*
X698763Y729628D01*
X696816Y730753D01*
X694644Y731335D01*
X692395D01*
X690223Y730753D01*
X688276Y729628D01*
X686686Y728038D01*
X685562Y726091D01*
X684980Y723919D01*
Y721670D01*
X685562Y719498D01*
X686686Y717551D01*
X688276Y715961D01*
X690223Y714837D01*
X692395Y714255D01*
X694644D01*
X696816Y714837D01*
X698763Y715961D01*
X700353Y717551D01*
X700444Y717708D01*
X735532D01*
X736090Y716742D01*
X737982Y714850D01*
X740298Y713512D01*
X742882Y712820D01*
X745558D01*
X748142Y713512D01*
X750458Y714850D01*
X752350Y716742D01*
X753688Y719058D01*
X754380Y721642D01*
Y724318D01*
X753688Y726902D01*
X752350Y729218D01*
X750458Y731110D01*
X748142Y732448D01*
X745558Y733140D01*
D02*
G37*
G36*
X1159473Y743425D02*
X1157007D01*
X1154625Y742787D01*
X1152490Y741554D01*
X1150746Y739810D01*
X1149513Y737675D01*
X1148875Y735293D01*
Y732827D01*
X1149513Y730445D01*
X1150746Y728310D01*
X1152490Y726566D01*
X1154625Y725333D01*
X1157007Y724695D01*
X1159473D01*
X1161855Y725333D01*
X1163990Y726566D01*
X1165734Y728310D01*
X1166967Y730445D01*
X1167605Y732827D01*
Y735293D01*
X1166967Y737675D01*
X1165734Y739810D01*
X1163990Y741554D01*
X1161855Y742787D01*
X1159473Y743425D01*
D02*
G37*
G36*
X779780Y774911D02*
X759460D01*
Y774843D01*
X759777Y773662D01*
X740728Y754614D01*
X700390D01*
X700353Y754678D01*
X698763Y756268D01*
X696816Y757393D01*
X694790Y757936D01*
Y749435D01*
Y740934D01*
X696816Y741477D01*
X698763Y742601D01*
X700353Y744191D01*
X700390Y744255D01*
X742874D01*
X744856Y744649D01*
X746536Y745772D01*
X763267Y762503D01*
X764441Y762017D01*
Y731721D01*
X763382Y731110D01*
X761490Y729218D01*
X760152Y726902D01*
X759460Y724318D01*
Y724250D01*
X779780D01*
Y724318D01*
X779088Y726902D01*
X777750Y729218D01*
X775858Y731110D01*
X774799Y731721D01*
Y767439D01*
X775858Y768051D01*
X777750Y769942D01*
X779088Y772259D01*
X779780Y774843D01*
Y774911D01*
D02*
G37*
G36*
X606643Y731335D02*
X604395D01*
X602223Y730753D01*
X600276Y729628D01*
X598685Y728038D01*
X598648Y727974D01*
X593335D01*
X591353Y727580D01*
X589672Y726457D01*
X546065Y682850D01*
X545428Y683020D01*
X542963D01*
X540581Y682382D01*
X538445Y681149D01*
X536702Y679406D01*
X535469Y677270D01*
X534831Y674888D01*
Y672422D01*
X535469Y670041D01*
X536702Y667905D01*
X538445Y666161D01*
X540581Y664928D01*
X542963Y664290D01*
X545428D01*
X547810Y664928D01*
X549946Y666161D01*
X551689Y667905D01*
X552922Y670041D01*
X553560Y672422D01*
Y674888D01*
X553390Y675525D01*
X595480Y717615D01*
X598648D01*
X598685Y717551D01*
X600276Y715961D01*
X602223Y714837D01*
X604395Y714255D01*
X606643D01*
X608815Y714837D01*
X610763Y715961D01*
X612353Y717551D01*
X613477Y719498D01*
X614059Y721670D01*
Y723919D01*
X613477Y726091D01*
X612353Y728038D01*
X610763Y729628D01*
X608815Y730753D01*
X606643Y731335D01*
D02*
G37*
G36*
X1009328Y721441D02*
Y714210D01*
X1016559D01*
X1016016Y716236D01*
X1014892Y718184D01*
X1013302Y719774D01*
X1011355Y720898D01*
X1009328Y721441D01*
D02*
G37*
G36*
X1159473Y718025D02*
X1157007D01*
X1154625Y717387D01*
X1152490Y716154D01*
X1150746Y714410D01*
X1150417Y713839D01*
X1118439D01*
X1118439Y713839D01*
X1116457Y713445D01*
X1114776Y712322D01*
X1114776Y712322D01*
X1097274Y694820D01*
X1087519D01*
Y677740D01*
X1104599D01*
Y687495D01*
X1120584Y703481D01*
X1150417D01*
X1150746Y702910D01*
X1152490Y701166D01*
X1154625Y699933D01*
X1157007Y699295D01*
X1159473D01*
X1161855Y699933D01*
X1163990Y701166D01*
X1165734Y702910D01*
X1166967Y705045D01*
X1167605Y707427D01*
Y709893D01*
X1166967Y712275D01*
X1165734Y714410D01*
X1163990Y716154D01*
X1161855Y717387D01*
X1159473Y718025D01*
D02*
G37*
G36*
X768350Y721710D02*
X759460D01*
Y721642D01*
X759777Y720461D01*
X740629Y701314D01*
X700390D01*
X700353Y701378D01*
X698763Y702968D01*
X696816Y704092D01*
X694790Y704635D01*
Y696134D01*
Y687633D01*
X696816Y688176D01*
X698763Y689301D01*
X700353Y690891D01*
X700390Y690955D01*
X742774D01*
X744756Y691349D01*
X746437Y692472D01*
X767101Y713137D01*
X768282Y712820D01*
X768350D01*
Y721710D01*
D02*
G37*
G36*
X1016559Y711670D02*
X1009328D01*
Y704439D01*
X1011355Y704982D01*
X1013302Y706106D01*
X1014892Y707696D01*
X1016016Y709644D01*
X1016559Y711670D01*
D02*
G37*
G36*
X942340Y737870D02*
X932180D01*
X922020D01*
Y737802D01*
X922712Y735218D01*
X924050Y732902D01*
X925942Y731010D01*
X927001Y730399D01*
Y694541D01*
X925942Y693930D01*
X924050Y692038D01*
X923439Y690980D01*
X808945D01*
X779464Y720461D01*
X779780Y721642D01*
Y721710D01*
X770890D01*
Y712820D01*
X770958D01*
X772139Y713137D01*
X803138Y682138D01*
X803138Y682138D01*
X804818Y681015D01*
X806800Y680620D01*
X806800Y680620D01*
X918016D01*
X918502Y679447D01*
X872637Y633582D01*
X871515Y631902D01*
X871121Y629920D01*
Y557454D01*
X870939Y557380D01*
X869850Y557241D01*
X868912Y558867D01*
X867387Y560392D01*
X865520Y561470D01*
X863437Y562028D01*
X861280D01*
X859197Y561470D01*
X857330Y560392D01*
X855805Y558867D01*
X854727Y556999D01*
X854168Y554916D01*
Y552760D01*
X854727Y550677D01*
X855805Y548809D01*
X857330Y547284D01*
X859197Y546206D01*
X861280Y545648D01*
X863437D01*
X865520Y546206D01*
X867387Y547284D01*
X868912Y548809D01*
X869850Y550434D01*
X870939Y550295D01*
X871121Y550222D01*
Y536696D01*
X871515Y534714D01*
X872637Y533034D01*
X929964Y475708D01*
X937288D01*
Y483033D01*
X881479Y538842D01*
Y546875D01*
X882653Y547361D01*
X882730Y547284D01*
X884597Y546206D01*
X886680Y545648D01*
X888837D01*
X890920Y546206D01*
X892787Y547284D01*
X894312Y548809D01*
X895390Y550677D01*
X895948Y552760D01*
Y554916D01*
X895390Y556999D01*
X894312Y558867D01*
X892787Y560392D01*
X890920Y561470D01*
X888837Y562028D01*
X886680D01*
X884597Y561470D01*
X882730Y560392D01*
X882653Y560315D01*
X881479Y560801D01*
Y627775D01*
X929661Y675956D01*
X930842Y675640D01*
X930910D01*
Y685800D01*
X932180D01*
Y687070D01*
X942340D01*
Y687138D01*
X941648Y689722D01*
X940310Y692038D01*
X938418Y693930D01*
X937359Y694541D01*
Y724976D01*
X938533Y725462D01*
X954718Y709277D01*
X956398Y708155D01*
X958380Y707760D01*
X1001188D01*
X1001225Y707696D01*
X1002815Y706106D01*
X1004762Y704982D01*
X1006788Y704439D01*
Y712940D01*
Y721441D01*
X1004762Y720898D01*
X1002815Y719774D01*
X1001225Y718184D01*
X1001188Y718119D01*
X960526D01*
X942023Y736621D01*
X942340Y737802D01*
Y737870D01*
D02*
G37*
G36*
X692250Y704635D02*
X690223Y704092D01*
X688276Y702968D01*
X686686Y701378D01*
X685562Y699431D01*
X685019Y697404D01*
X692250D01*
Y704635D01*
D02*
G37*
G36*
Y694864D02*
X685019D01*
X685562Y692838D01*
X686686Y690891D01*
X688276Y689301D01*
X690223Y688176D01*
X692250Y687633D01*
Y694864D01*
D02*
G37*
G36*
X958918Y695960D02*
X956242D01*
X953658Y695268D01*
X951342Y693930D01*
X949450Y692038D01*
X948112Y689722D01*
X947420Y687138D01*
Y684462D01*
X948112Y681878D01*
X949450Y679562D01*
X951342Y677670D01*
X953658Y676332D01*
X956242Y675640D01*
X958918D01*
X961502Y676332D01*
X963818Y677670D01*
X965710Y679562D01*
X966460Y680861D01*
X1001400D01*
X1002815Y679446D01*
X1004762Y678322D01*
X1006934Y677740D01*
X1009183D01*
X1011355Y678322D01*
X1013302Y679446D01*
X1014892Y681036D01*
X1016016Y682984D01*
X1016598Y685156D01*
Y687404D01*
X1016016Y689576D01*
X1014892Y691524D01*
X1013302Y693114D01*
X1011355Y694238D01*
X1009183Y694820D01*
X1006934D01*
X1004762Y694238D01*
X1002815Y693114D01*
X1001225Y691524D01*
X1001049Y691220D01*
X966183D01*
X965710Y692038D01*
X963818Y693930D01*
X961502Y695268D01*
X958918Y695960D01*
D02*
G37*
G36*
X942340Y684530D02*
X933450D01*
Y675640D01*
X933518D01*
X936102Y676332D01*
X938418Y677670D01*
X940310Y679562D01*
X941648Y681878D01*
X942340Y684462D01*
Y684530D01*
D02*
G37*
G36*
X1159473Y692625D02*
X1157007D01*
X1154625Y691987D01*
X1152490Y690754D01*
X1150746Y689010D01*
X1149513Y686875D01*
X1148875Y684493D01*
Y682027D01*
X1149513Y679645D01*
X1150746Y677510D01*
X1152490Y675766D01*
X1154625Y674533D01*
X1157007Y673895D01*
X1159473D01*
X1161855Y674533D01*
X1163990Y675766D01*
X1165734Y677510D01*
X1166967Y679645D01*
X1167605Y682027D01*
Y684493D01*
X1166967Y686875D01*
X1165734Y689010D01*
X1163990Y690754D01*
X1161855Y691987D01*
X1159473Y692625D01*
D02*
G37*
G36*
X313770Y670825D02*
X297690D01*
Y654745D01*
X313770D01*
Y670825D01*
D02*
G37*
G36*
X1365810Y668515D02*
X1349730D01*
Y652435D01*
X1365810D01*
Y668515D01*
D02*
G37*
G36*
X1240870D02*
X1224790D01*
Y652435D01*
X1240870D01*
Y668515D01*
D02*
G37*
G36*
X545428Y708420D02*
X542963D01*
X540581Y707782D01*
X538445Y706549D01*
X536702Y704806D01*
X535469Y702670D01*
X534831Y700288D01*
Y697931D01*
X487887Y650987D01*
X450709D01*
X438710Y662986D01*
Y670825D01*
X422630D01*
Y654745D01*
X430470D01*
X444175Y641040D01*
X446065Y639777D01*
X448295Y639333D01*
X490300D01*
X492530Y639777D01*
X494421Y641040D01*
X543071Y689690D01*
X545428D01*
X547810Y690328D01*
X549946Y691561D01*
X551689Y693305D01*
X552922Y695441D01*
X553560Y697822D01*
Y700288D01*
X552922Y702670D01*
X551689Y704806D01*
X549946Y706549D01*
X547810Y707782D01*
X545428Y708420D01*
D02*
G37*
G36*
X1422080Y629600D02*
X1421130D01*
Y608330D01*
X1442400D01*
Y609280D01*
X1441534Y613635D01*
X1439835Y617737D01*
X1437368Y621428D01*
X1434228Y624568D01*
X1430537Y627035D01*
X1426435Y628734D01*
X1422080Y629600D01*
D02*
G37*
G36*
X1418590D02*
X1417640D01*
X1413285Y628734D01*
X1409183Y627035D01*
X1405492Y624568D01*
X1402352Y621428D01*
X1399885Y617737D01*
X1398186Y613635D01*
X1397320Y609280D01*
Y608330D01*
X1418590D01*
Y629600D01*
D02*
G37*
G36*
X309560D02*
X308610D01*
Y608330D01*
X329880D01*
Y609280D01*
X329014Y613635D01*
X327315Y617737D01*
X324848Y621428D01*
X321708Y624568D01*
X318017Y627035D01*
X313915Y628734D01*
X309560Y629600D01*
D02*
G37*
G36*
X306070D02*
X305120D01*
X300765Y628734D01*
X296663Y627035D01*
X292972Y624568D01*
X289832Y621428D01*
X287365Y617737D01*
X285666Y613635D01*
X284800Y609280D01*
Y608330D01*
X306070D01*
Y629600D01*
D02*
G37*
G36*
X1098534Y621665D02*
X1096026D01*
X1093604Y621016D01*
X1091432Y619762D01*
X1089658Y617989D01*
X1088404Y615816D01*
X1087755Y613394D01*
Y610886D01*
X1088404Y608464D01*
X1089658Y606292D01*
X1091432Y604518D01*
X1093604Y603264D01*
X1096026Y602615D01*
X1098534D01*
X1100956Y603264D01*
X1103129Y604518D01*
X1104902Y606292D01*
X1106156Y608464D01*
X1106805Y610886D01*
Y613394D01*
X1106156Y615816D01*
X1104902Y617989D01*
X1103129Y619762D01*
X1100956Y621016D01*
X1098534Y621665D01*
D02*
G37*
G36*
X1073134D02*
X1070626D01*
X1068204Y621016D01*
X1066031Y619762D01*
X1064258Y617989D01*
X1063004Y615816D01*
X1062355Y613394D01*
Y610886D01*
X1063004Y608464D01*
X1064258Y606292D01*
X1066031Y604518D01*
X1068204Y603264D01*
X1070626Y602615D01*
X1073134D01*
X1075556Y603264D01*
X1077729Y604518D01*
X1079502Y606292D01*
X1080756Y608464D01*
X1081405Y610886D01*
Y613394D01*
X1080756Y615816D01*
X1079502Y617989D01*
X1077729Y619762D01*
X1075556Y621016D01*
X1073134Y621665D01*
D02*
G37*
G36*
X1047734D02*
X1045226D01*
X1042803Y621016D01*
X1040631Y619762D01*
X1038858Y617989D01*
X1037604Y615816D01*
X1036955Y613394D01*
Y610886D01*
X1037604Y608464D01*
X1038858Y606292D01*
X1040631Y604518D01*
X1042803Y603264D01*
X1045226Y602615D01*
X1047734D01*
X1050156Y603264D01*
X1052328Y604518D01*
X1054102Y606292D01*
X1055356Y608464D01*
X1056005Y610886D01*
Y613394D01*
X1055356Y615816D01*
X1054102Y617989D01*
X1052328Y619762D01*
X1050156Y621016D01*
X1047734Y621665D01*
D02*
G37*
G36*
X1022334D02*
X1019826D01*
X1017403Y621016D01*
X1015231Y619762D01*
X1013458Y617989D01*
X1012204Y615816D01*
X1011555Y613394D01*
Y610886D01*
X1012204Y608464D01*
X1013458Y606292D01*
X1015231Y604518D01*
X1017403Y603264D01*
X1019826Y602615D01*
X1022334D01*
X1024756Y603264D01*
X1026928Y604518D01*
X1028702Y606292D01*
X1029956Y608464D01*
X1030605Y610886D01*
Y613394D01*
X1029956Y615816D01*
X1028702Y617989D01*
X1026928Y619762D01*
X1024756Y621016D01*
X1022334Y621665D01*
D02*
G37*
G36*
X996934D02*
X994426D01*
X992003Y621016D01*
X989831Y619762D01*
X988058Y617989D01*
X986804Y615816D01*
X986155Y613394D01*
Y610886D01*
X986804Y608464D01*
X988058Y606292D01*
X989831Y604518D01*
X992003Y603264D01*
X994426Y602615D01*
X996934D01*
X999357Y603264D01*
X1001528Y604518D01*
X1003302Y606292D01*
X1004556Y608464D01*
X1005205Y610886D01*
Y613394D01*
X1004556Y615816D01*
X1003302Y617989D01*
X1001528Y619762D01*
X999357Y621016D01*
X996934Y621665D01*
D02*
G37*
G36*
X971534D02*
X969026D01*
X966603Y621016D01*
X964432Y619762D01*
X962658Y617989D01*
X961404Y615816D01*
X960755Y613394D01*
Y610886D01*
X961404Y608464D01*
X962658Y606292D01*
X964432Y604518D01*
X966603Y603264D01*
X969026Y602615D01*
X971534D01*
X973957Y603264D01*
X976128Y604518D01*
X977902Y606292D01*
X979156Y608464D01*
X979805Y610886D01*
Y613394D01*
X979156Y615816D01*
X977902Y617989D01*
X976128Y619762D01*
X973957Y621016D01*
X971534Y621665D01*
D02*
G37*
G36*
X920734D02*
X918226D01*
X915804Y621016D01*
X913632Y619762D01*
X911858Y617989D01*
X910604Y615816D01*
X909955Y613394D01*
Y610886D01*
X910604Y608464D01*
X911858Y606292D01*
X913632Y604518D01*
X915804Y603264D01*
X918226Y602615D01*
X920734D01*
X923157Y603264D01*
X925329Y604518D01*
X927102Y606292D01*
X928356Y608464D01*
X929005Y610886D01*
Y613394D01*
X928356Y615816D01*
X927102Y617989D01*
X925329Y619762D01*
X923157Y621016D01*
X920734Y621665D01*
D02*
G37*
G36*
X758174D02*
X755666D01*
X753243Y621016D01*
X751071Y619762D01*
X749298Y617989D01*
X748044Y615816D01*
X747395Y613394D01*
Y610886D01*
X748044Y608464D01*
X749298Y606292D01*
X751071Y604518D01*
X753243Y603264D01*
X755666Y602615D01*
X758174D01*
X760596Y603264D01*
X762768Y604518D01*
X764542Y606292D01*
X765796Y608464D01*
X766445Y610886D01*
Y613394D01*
X765796Y615816D01*
X764542Y617989D01*
X762768Y619762D01*
X760596Y621016D01*
X758174Y621665D01*
D02*
G37*
G36*
X732774D02*
X730266D01*
X727843Y621016D01*
X725671Y619762D01*
X723898Y617989D01*
X722644Y615816D01*
X721995Y613394D01*
Y610886D01*
X722644Y608464D01*
X723898Y606292D01*
X725671Y604518D01*
X727843Y603264D01*
X730266Y602615D01*
X732774D01*
X735197Y603264D01*
X737368Y604518D01*
X739142Y606292D01*
X740396Y608464D01*
X741045Y610886D01*
Y613394D01*
X740396Y615816D01*
X739142Y617989D01*
X737368Y619762D01*
X735197Y621016D01*
X732774Y621665D01*
D02*
G37*
G36*
X656574D02*
X654066D01*
X651644Y621016D01*
X649472Y619762D01*
X647698Y617989D01*
X646444Y615816D01*
X645795Y613394D01*
Y610886D01*
X645995Y610140D01*
X635684Y599828D01*
X634561Y598148D01*
X634166Y596166D01*
Y491253D01*
X625541Y482628D01*
X623598D01*
X621515Y482070D01*
X619647Y480992D01*
X618122Y479467D01*
X617044Y477599D01*
X616486Y475516D01*
Y473360D01*
X617044Y471277D01*
X618122Y469409D01*
X619647Y467884D01*
X621515Y466806D01*
X623598Y466248D01*
X625754D01*
X627837Y466806D01*
X629705Y467884D01*
X631230Y469409D01*
X632308Y471277D01*
X632866Y473360D01*
Y475303D01*
X643008Y485446D01*
X644131Y487126D01*
X644526Y489108D01*
Y546119D01*
X645796Y546852D01*
X646915Y546206D01*
X648998Y545648D01*
X651154D01*
X653237Y546206D01*
X655105Y547284D01*
X656629Y548809D01*
X657708Y550677D01*
X658266Y552760D01*
Y554916D01*
X657708Y556999D01*
X656629Y558867D01*
X655105Y560392D01*
X653237Y561470D01*
X651154Y562028D01*
X648998D01*
X646915Y561470D01*
X645796Y560824D01*
X644526Y561557D01*
Y594021D01*
X653320Y602815D01*
X654066Y602615D01*
X656574D01*
X658997Y603264D01*
X661169Y604518D01*
X662942Y606292D01*
X664196Y608464D01*
X664845Y610886D01*
Y613394D01*
X664196Y615816D01*
X662942Y617989D01*
X661169Y619762D01*
X658997Y621016D01*
X656574Y621665D01*
D02*
G37*
G36*
X631174D02*
X628666D01*
X626244Y621016D01*
X624072Y619762D01*
X622298Y617989D01*
X621044Y615816D01*
X620395Y613394D01*
Y610886D01*
X620595Y610140D01*
X583078Y572622D01*
X581955Y570942D01*
X581561Y568960D01*
Y559448D01*
X580877Y559096D01*
X580290Y559006D01*
X579055Y560241D01*
Y579351D01*
X602520Y602815D01*
X603266Y602615D01*
X605774D01*
X608196Y603264D01*
X610368Y604518D01*
X612142Y606292D01*
X613396Y608464D01*
X614045Y610886D01*
Y613394D01*
X613396Y615816D01*
X612142Y617989D01*
X610368Y619762D01*
X608196Y621016D01*
X605774Y621665D01*
X603266D01*
X600844Y621016D01*
X598671Y619762D01*
X596898Y617989D01*
X595644Y615816D01*
X594995Y613394D01*
Y610886D01*
X595195Y610140D01*
X570213Y585158D01*
X569091Y583478D01*
X568696Y581496D01*
Y560241D01*
X567322Y558867D01*
X566244Y556999D01*
X565686Y554916D01*
Y552760D01*
X566244Y550677D01*
X567322Y548809D01*
X568847Y547284D01*
X570715Y546206D01*
X572798Y545648D01*
X574954D01*
X577037Y546206D01*
X578905Y547284D01*
X580290Y548670D01*
X580877Y548579D01*
X581561Y548228D01*
Y489448D01*
X574741Y482628D01*
X565686D01*
Y466248D01*
X582066D01*
Y475303D01*
X590402Y483640D01*
X591525Y485320D01*
X591920Y487302D01*
X591920Y487302D01*
Y547816D01*
X593190Y548342D01*
X594247Y547284D01*
X596115Y546206D01*
X598198Y545648D01*
X600354D01*
X602437Y546206D01*
X604305Y547284D01*
X605830Y548809D01*
X606908Y550677D01*
X607466Y552760D01*
Y554916D01*
X606908Y556999D01*
X605830Y558867D01*
X604305Y560392D01*
X602437Y561470D01*
X600354Y562028D01*
X598198D01*
X596115Y561470D01*
X594247Y560392D01*
X593190Y559334D01*
X591920Y559860D01*
Y566815D01*
X627920Y602815D01*
X628666Y602615D01*
X631174D01*
X633596Y603264D01*
X635769Y604518D01*
X637542Y606292D01*
X638796Y608464D01*
X639445Y610886D01*
Y613394D01*
X638796Y615816D01*
X637542Y617989D01*
X635769Y619762D01*
X633596Y621016D01*
X631174Y621665D01*
D02*
G37*
G36*
X1362454Y615600D02*
X1360206D01*
X1358033Y615018D01*
X1356086Y613894D01*
X1354496Y612304D01*
X1353372Y610356D01*
X1352790Y608184D01*
Y605936D01*
X1353372Y603764D01*
X1354496Y601816D01*
X1356086Y600226D01*
X1358033Y599102D01*
X1360206Y598520D01*
X1362454D01*
X1364626Y599102D01*
X1366573Y600226D01*
X1368163Y601816D01*
X1369288Y603764D01*
X1369870Y605936D01*
Y608184D01*
X1369288Y610356D01*
X1368163Y612304D01*
X1366573Y613894D01*
X1364626Y615018D01*
X1362454Y615600D01*
D02*
G37*
G36*
X1228870D02*
X1211790D01*
Y598520D01*
X1228870D01*
Y615600D01*
D02*
G37*
G36*
X1442400Y605790D02*
X1421130D01*
Y584520D01*
X1422080D01*
X1426435Y585386D01*
X1430537Y587085D01*
X1434228Y589552D01*
X1437368Y592692D01*
X1439835Y596383D01*
X1441534Y600485D01*
X1442400Y604840D01*
Y605790D01*
D02*
G37*
G36*
X1418590D02*
X1397320D01*
Y604840D01*
X1398186Y600485D01*
X1399885Y596383D01*
X1402352Y592692D01*
X1405492Y589552D01*
X1409183Y587085D01*
X1413285Y585386D01*
X1417640Y584520D01*
X1418590D01*
Y605790D01*
D02*
G37*
G36*
X329880D02*
X308610D01*
Y584520D01*
X309560D01*
X313915Y585386D01*
X318017Y587085D01*
X321708Y589552D01*
X324848Y592692D01*
X327315Y596383D01*
X329014Y600485D01*
X329880Y604840D01*
Y605790D01*
D02*
G37*
G36*
X306070D02*
X284800D01*
Y604840D01*
X285666Y600485D01*
X287365Y596383D01*
X289832Y592692D01*
X292972Y589552D01*
X296663Y587085D01*
X300765Y585386D01*
X305120Y584520D01*
X306070D01*
Y605790D01*
D02*
G37*
G36*
X808974Y621665D02*
X806466D01*
X804044Y621016D01*
X801871Y619762D01*
X800098Y617989D01*
X798844Y615816D01*
X798195Y613394D01*
Y610886D01*
X798844Y608464D01*
X800098Y606292D01*
X801871Y604518D01*
X804044Y603264D01*
X806466Y602615D01*
X808974D01*
X809720Y602815D01*
X817415Y595120D01*
Y561240D01*
X816145Y560647D01*
X814720Y561470D01*
X812637Y562028D01*
X810480D01*
X808397Y561470D01*
X806530Y560392D01*
X805005Y558867D01*
X803927Y556999D01*
X803368Y554916D01*
Y552760D01*
X803927Y550677D01*
X805005Y548809D01*
X806530Y547284D01*
X808397Y546206D01*
X810480Y545648D01*
X812637D01*
X814720Y546206D01*
X816145Y547029D01*
X817415Y546436D01*
Y488802D01*
X817810Y486819D01*
X818932Y485139D01*
X828768Y475303D01*
Y473360D01*
X829327Y471277D01*
X830405Y469409D01*
X831930Y467884D01*
X833797Y466806D01*
X835880Y466248D01*
X838037D01*
X840120Y466806D01*
X841987Y467884D01*
X843512Y469409D01*
X844590Y471277D01*
X845148Y473360D01*
Y475516D01*
X844590Y477599D01*
X843512Y479467D01*
X841987Y480992D01*
X840120Y482070D01*
X838037Y482628D01*
X836093D01*
X827774Y490947D01*
Y551563D01*
X829044Y551730D01*
X829327Y550677D01*
X830405Y548809D01*
X831930Y547284D01*
X833797Y546206D01*
X835880Y545648D01*
X838037D01*
X840120Y546206D01*
X841987Y547284D01*
X843512Y548809D01*
X844590Y550677D01*
X845148Y552760D01*
Y554916D01*
X844590Y556999D01*
X843512Y558867D01*
X841987Y560392D01*
X840120Y561470D01*
X838037Y562028D01*
X835880D01*
X833797Y561470D01*
X831930Y560392D01*
X830405Y558867D01*
X829327Y556999D01*
X829044Y555945D01*
X827774Y556113D01*
Y597265D01*
X827380Y599247D01*
X826257Y600928D01*
X817045Y610140D01*
X817245Y610886D01*
Y613394D01*
X816596Y615816D01*
X815342Y617989D01*
X813568Y619762D01*
X811396Y621016D01*
X808974Y621665D01*
D02*
G37*
G36*
X977900Y650340D02*
X975918Y649945D01*
X974238Y648822D01*
X946880Y621465D01*
X946134Y621665D01*
X943626D01*
X941204Y621016D01*
X939032Y619762D01*
X937258Y617989D01*
X936004Y615816D01*
X935355Y613394D01*
Y610886D01*
X936004Y608464D01*
X937258Y606292D01*
X939032Y604518D01*
X941204Y603264D01*
X943626Y602615D01*
X946134D01*
X948557Y603264D01*
X950729Y604518D01*
X952502Y606292D01*
X953756Y608464D01*
X954405Y610886D01*
Y613394D01*
X954205Y614140D01*
X980045Y639981D01*
X1100215D01*
X1132740Y607455D01*
Y560072D01*
X1131470Y559546D01*
X1130625Y560392D01*
X1128758Y561470D01*
X1126675Y562028D01*
X1124731D01*
X1109057Y577702D01*
X1107376Y578825D01*
X1105394Y579220D01*
X934325D01*
X903405Y610140D01*
X903605Y610886D01*
Y613394D01*
X902956Y615816D01*
X901702Y617989D01*
X899929Y619762D01*
X897757Y621016D01*
X895334Y621665D01*
X892826D01*
X890404Y621016D01*
X888232Y619762D01*
X886458Y617989D01*
X885204Y615816D01*
X884555Y613394D01*
Y610886D01*
X885204Y608464D01*
X886458Y606292D01*
X888232Y604518D01*
X890404Y603264D01*
X892826Y602615D01*
X895334D01*
X896080Y602815D01*
X928518Y570378D01*
X930198Y569255D01*
X932180Y568861D01*
X1103249D01*
X1117406Y554703D01*
Y552760D01*
X1117965Y550677D01*
X1119043Y548809D01*
X1120568Y547284D01*
X1122435Y546206D01*
X1124518Y545648D01*
X1126675D01*
X1128758Y546206D01*
X1129106Y546407D01*
X1129886Y545391D01*
X1102185Y517690D01*
X1087469D01*
X1085487Y517296D01*
X1083807Y516173D01*
X1050262Y482628D01*
X1048318D01*
X1046235Y482070D01*
X1044368Y480992D01*
X1042843Y479467D01*
X1041765Y477599D01*
X1041206Y475516D01*
Y473360D01*
X1041765Y471277D01*
X1042843Y469409D01*
X1044368Y467884D01*
X1046235Y466806D01*
X1048318Y466248D01*
X1050475D01*
X1052558Y466806D01*
X1054425Y467884D01*
X1055950Y469409D01*
X1057028Y471277D01*
X1057586Y473360D01*
Y475303D01*
X1089614Y507331D01*
X1104331D01*
X1106313Y507725D01*
X1107993Y508848D01*
X1141582Y542438D01*
X1142705Y544118D01*
X1143100Y546100D01*
Y548596D01*
X1144370Y548936D01*
X1144443Y548809D01*
X1145968Y547284D01*
X1147835Y546206D01*
X1149918Y545648D01*
X1152075D01*
X1154158Y546206D01*
X1156025Y547284D01*
X1157550Y548809D01*
X1158628Y550677D01*
X1159186Y552760D01*
Y554916D01*
X1158628Y556999D01*
X1157550Y558867D01*
X1156025Y560392D01*
X1154158Y561470D01*
X1152075Y562028D01*
X1149918D01*
X1147835Y561470D01*
X1145968Y560392D01*
X1144443Y558867D01*
X1144370Y558740D01*
X1143100Y559080D01*
Y609600D01*
X1142705Y611582D01*
X1141582Y613262D01*
X1106022Y648822D01*
X1104342Y649945D01*
X1102360Y650340D01*
X977900D01*
X977900Y650340D01*
D02*
G37*
G36*
X707374Y621665D02*
X704866D01*
X702443Y621016D01*
X700272Y619762D01*
X698498Y617989D01*
X697244Y615816D01*
X696595Y613394D01*
Y610886D01*
X697244Y608464D01*
X698498Y606292D01*
X700272Y604518D01*
X700940Y604132D01*
Y562910D01*
X700058Y562028D01*
X699798D01*
X697715Y561470D01*
X695847Y560392D01*
X694790Y559334D01*
X693520Y559860D01*
Y604520D01*
X693125Y606502D01*
X692002Y608182D01*
X690045Y610140D01*
X690245Y610886D01*
Y613394D01*
X689596Y615816D01*
X688342Y617989D01*
X686569Y619762D01*
X684397Y621016D01*
X681974Y621665D01*
X679466D01*
X677044Y621016D01*
X674872Y619762D01*
X673098Y617989D01*
X671844Y615816D01*
X671195Y613394D01*
Y610886D01*
X671844Y608464D01*
X673098Y606292D01*
X674872Y604518D01*
X677044Y603264D01*
X679466Y602615D01*
X681974D01*
X681992Y602620D01*
X683160Y601674D01*
Y559448D01*
X682477Y559096D01*
X681890Y559006D01*
X680505Y560392D01*
X678637Y561470D01*
X676554Y562028D01*
X674398D01*
X672315Y561470D01*
X670447Y560392D01*
X668922Y558867D01*
X667844Y556999D01*
X667286Y554916D01*
Y552760D01*
X667844Y550677D01*
X668922Y548809D01*
X670447Y547284D01*
X672315Y546206D01*
X674398Y545648D01*
X676554D01*
X678637Y546206D01*
X680505Y547284D01*
X681890Y548670D01*
X682477Y548579D01*
X683160Y548228D01*
Y489448D01*
X676341Y482628D01*
X674398D01*
X672315Y482070D01*
X670447Y480992D01*
X668922Y479467D01*
X667844Y477599D01*
X667286Y475516D01*
Y473360D01*
X667844Y471277D01*
X668922Y469409D01*
X670447Y467884D01*
X672315Y466806D01*
X674398Y466248D01*
X676554D01*
X678637Y466806D01*
X680505Y467884D01*
X682029Y469409D01*
X683108Y471277D01*
X683666Y473360D01*
Y475303D01*
X692002Y483640D01*
X693125Y485320D01*
X693520Y487302D01*
X693520Y487302D01*
Y547816D01*
X694790Y548342D01*
X695847Y547284D01*
X697715Y546206D01*
X699798Y545648D01*
X701954D01*
X704037Y546206D01*
X705905Y547284D01*
X707430Y548809D01*
X708508Y550677D01*
X709066Y552760D01*
Y554916D01*
X708755Y556075D01*
X709782Y557102D01*
X709782Y557103D01*
X710905Y558783D01*
X711300Y560765D01*
X711300Y560765D01*
Y604132D01*
X711969Y604518D01*
X713742Y606292D01*
X714996Y608464D01*
X715645Y610886D01*
Y613394D01*
X714996Y615816D01*
X713742Y617989D01*
X711969Y619762D01*
X709797Y621016D01*
X707374Y621665D01*
D02*
G37*
G36*
X1101275Y562028D02*
X1099118D01*
X1097035Y561470D01*
X1095168Y560392D01*
X1093643Y558867D01*
X1092565Y556999D01*
X1092006Y554916D01*
Y552760D01*
X1092565Y550677D01*
X1093643Y548809D01*
X1095168Y547284D01*
X1097035Y546206D01*
X1099118Y545648D01*
X1101275D01*
X1103358Y546206D01*
X1105225Y547284D01*
X1106750Y548809D01*
X1107828Y550677D01*
X1108386Y552760D01*
Y554916D01*
X1107828Y556999D01*
X1106750Y558867D01*
X1105225Y560392D01*
X1103358Y561470D01*
X1101275Y562028D01*
D02*
G37*
G36*
X1075875D02*
X1073718D01*
X1071635Y561470D01*
X1069768Y560392D01*
X1068243Y558867D01*
X1067165Y556999D01*
X1066606Y554916D01*
Y552760D01*
X1067165Y550677D01*
X1068243Y548809D01*
X1069768Y547284D01*
X1071635Y546206D01*
X1073718Y545648D01*
X1075875D01*
X1077958Y546206D01*
X1079825Y547284D01*
X1081350Y548809D01*
X1082428Y550677D01*
X1082986Y552760D01*
Y554916D01*
X1082428Y556999D01*
X1081350Y558867D01*
X1079825Y560392D01*
X1077958Y561470D01*
X1075875Y562028D01*
D02*
G37*
G36*
X1050475D02*
X1048318D01*
X1046235Y561470D01*
X1044368Y560392D01*
X1042843Y558867D01*
X1041765Y556999D01*
X1041206Y554916D01*
Y552760D01*
X1041765Y550677D01*
X1042843Y548809D01*
X1044368Y547284D01*
X1046235Y546206D01*
X1048318Y545648D01*
X1050475D01*
X1052558Y546206D01*
X1054425Y547284D01*
X1055950Y548809D01*
X1057028Y550677D01*
X1057586Y552760D01*
Y554916D01*
X1057028Y556999D01*
X1055950Y558867D01*
X1054425Y560392D01*
X1052558Y561470D01*
X1050475Y562028D01*
D02*
G37*
G36*
X1025075D02*
X1022918D01*
X1020835Y561470D01*
X1018968Y560392D01*
X1017443Y558867D01*
X1016365Y556999D01*
X1015806Y554916D01*
Y552760D01*
X1016365Y550677D01*
X1017443Y548809D01*
X1018968Y547284D01*
X1020835Y546206D01*
X1022918Y545648D01*
X1025075D01*
X1027158Y546206D01*
X1029025Y547284D01*
X1030550Y548809D01*
X1031628Y550677D01*
X1032186Y552760D01*
Y554916D01*
X1031628Y556999D01*
X1030550Y558867D01*
X1029025Y560392D01*
X1027158Y561470D01*
X1025075Y562028D01*
D02*
G37*
G36*
X999675D02*
X997518D01*
X995435Y561470D01*
X993568Y560392D01*
X992043Y558867D01*
X990965Y556999D01*
X990406Y554916D01*
Y552760D01*
X990965Y550677D01*
X992043Y548809D01*
X993568Y547284D01*
X995435Y546206D01*
X997518Y545648D01*
X999675D01*
X1001758Y546206D01*
X1003625Y547284D01*
X1005150Y548809D01*
X1006228Y550677D01*
X1006786Y552760D01*
Y554916D01*
X1006228Y556999D01*
X1005150Y558867D01*
X1003625Y560392D01*
X1001758Y561470D01*
X999675Y562028D01*
D02*
G37*
G36*
X939637D02*
X937480D01*
X935397Y561470D01*
X933530Y560392D01*
X932005Y558867D01*
X930927Y556999D01*
X930368Y554916D01*
Y552760D01*
X930927Y550677D01*
X932005Y548809D01*
X933530Y547284D01*
X935397Y546206D01*
X937480Y545648D01*
X939637D01*
X941720Y546206D01*
X943587Y547284D01*
X945112Y548809D01*
X946190Y550677D01*
X946748Y552760D01*
Y554916D01*
X946190Y556999D01*
X945112Y558867D01*
X943587Y560392D01*
X941720Y561470D01*
X939637Y562028D01*
D02*
G37*
G36*
X914237D02*
X912080D01*
X909997Y561470D01*
X908130Y560392D01*
X906605Y558867D01*
X905527Y556999D01*
X904968Y554916D01*
Y552760D01*
X905527Y550677D01*
X906605Y548809D01*
X908130Y547284D01*
X909997Y546206D01*
X912080Y545648D01*
X914237D01*
X916320Y546206D01*
X918187Y547284D01*
X919712Y548809D01*
X920790Y550677D01*
X921348Y552760D01*
Y554916D01*
X920790Y556999D01*
X919712Y558867D01*
X918187Y560392D01*
X916320Y561470D01*
X914237Y562028D01*
D02*
G37*
G36*
X787237D02*
X785080D01*
X782997Y561470D01*
X781130Y560392D01*
X779605Y558867D01*
X778527Y556999D01*
X777968Y554916D01*
Y552760D01*
X778527Y550677D01*
X779605Y548809D01*
X781130Y547284D01*
X782997Y546206D01*
X785080Y545648D01*
X787237D01*
X789320Y546206D01*
X791187Y547284D01*
X792712Y548809D01*
X793790Y550677D01*
X794348Y552760D01*
Y554916D01*
X793790Y556999D01*
X792712Y558867D01*
X791187Y560392D01*
X789320Y561470D01*
X787237Y562028D01*
D02*
G37*
G36*
X727354D02*
X725198D01*
X723115Y561470D01*
X721247Y560392D01*
X719722Y558867D01*
X718644Y556999D01*
X718086Y554916D01*
Y552760D01*
X718644Y550677D01*
X719722Y548809D01*
X721247Y547284D01*
X723115Y546206D01*
X725198Y545648D01*
X727354D01*
X729437Y546206D01*
X731305Y547284D01*
X732830Y548809D01*
X733908Y550677D01*
X734466Y552760D01*
Y554916D01*
X733908Y556999D01*
X732830Y558867D01*
X731305Y560392D01*
X729437Y561470D01*
X727354Y562028D01*
D02*
G37*
G36*
X625754D02*
X623598D01*
X621515Y561470D01*
X619647Y560392D01*
X618122Y558867D01*
X617044Y556999D01*
X616486Y554916D01*
Y552760D01*
X617044Y550677D01*
X618122Y548809D01*
X619647Y547284D01*
X621515Y546206D01*
X623598Y545648D01*
X625754D01*
X627837Y546206D01*
X629705Y547284D01*
X631230Y548809D01*
X632308Y550677D01*
X632866Y552760D01*
Y554916D01*
X632308Y556999D01*
X631230Y558867D01*
X629705Y560392D01*
X627837Y561470D01*
X625754Y562028D01*
D02*
G37*
G36*
X439065Y538098D02*
X436053D01*
X433099Y537510D01*
X430316Y536357D01*
X427812Y534684D01*
X425682Y532555D01*
X424009Y530050D01*
X422856Y527268D01*
X422269Y524314D01*
Y521302D01*
X422856Y518348D01*
X424009Y515565D01*
X425682Y513061D01*
X427812Y510931D01*
X430316Y509258D01*
X433099Y508105D01*
X436053Y507518D01*
X439065D01*
X442019Y508105D01*
X444801Y509258D01*
X447305Y510931D01*
X449435Y513061D01*
X451109Y515565D01*
X452261Y518348D01*
X452849Y521302D01*
Y524314D01*
X452261Y527268D01*
X451109Y530050D01*
X449435Y532555D01*
X447305Y534684D01*
X444801Y536357D01*
X442019Y537510D01*
X439065Y538098D01*
D02*
G37*
G36*
X1286228Y537052D02*
X1283216D01*
X1280262Y536464D01*
X1277480Y535312D01*
X1274976Y533638D01*
X1272846Y531508D01*
X1271172Y529004D01*
X1270020Y526222D01*
X1269432Y523268D01*
Y520256D01*
X1270020Y517302D01*
X1271172Y514519D01*
X1272846Y512015D01*
X1274976Y509885D01*
X1277480Y508212D01*
X1280262Y507059D01*
X1283216Y506472D01*
X1286228D01*
X1289182Y507059D01*
X1291965Y508212D01*
X1294469Y509885D01*
X1296599Y512015D01*
X1298272Y514519D01*
X1299425Y517302D01*
X1300012Y520256D01*
Y523268D01*
X1299425Y526222D01*
X1298272Y529004D01*
X1296599Y531508D01*
X1294469Y533638D01*
X1291965Y535312D01*
X1289182Y536464D01*
X1286228Y537052D01*
D02*
G37*
G36*
X408885Y520998D02*
X405233D01*
X401651Y520285D01*
X398277Y518888D01*
X395240Y516859D01*
X392658Y514276D01*
X390629Y511240D01*
X389231Y507866D01*
X388519Y504284D01*
Y500632D01*
X389231Y497050D01*
X390629Y493676D01*
X392658Y490639D01*
X395240Y488057D01*
X398277Y486028D01*
X401651Y484630D01*
X405233Y483918D01*
X408885D01*
X412467Y484630D01*
X415841Y486028D01*
X418877Y488057D01*
X421460Y490639D01*
X423489Y493676D01*
X424886Y497050D01*
X425599Y500632D01*
Y504284D01*
X424886Y507866D01*
X423489Y511240D01*
X421460Y514276D01*
X418877Y516859D01*
X415841Y518888D01*
X412467Y520285D01*
X408885Y520998D01*
D02*
G37*
G36*
X1317049Y519952D02*
X1313397D01*
X1309815Y519239D01*
X1306441Y517842D01*
X1303404Y515813D01*
X1300822Y513230D01*
X1298793Y510194D01*
X1297395Y506820D01*
X1296683Y503238D01*
Y499586D01*
X1297395Y496004D01*
X1298793Y492630D01*
X1300822Y489593D01*
X1303404Y487011D01*
X1306441Y484982D01*
X1309815Y483584D01*
X1313397Y482872D01*
X1317049D01*
X1320631Y483584D01*
X1324005Y484982D01*
X1327041Y487011D01*
X1329624Y489593D01*
X1331653Y492630D01*
X1333050Y496004D01*
X1333763Y499586D01*
Y503238D01*
X1333050Y506820D01*
X1331653Y510194D01*
X1329624Y513230D01*
X1327041Y515813D01*
X1324005Y517842D01*
X1320631Y519239D01*
X1317049Y519952D01*
D02*
G37*
G36*
X1227579Y498252D02*
X1225067D01*
X1222640Y497602D01*
X1220465Y496346D01*
X1218689Y494569D01*
X1217433Y492394D01*
X1216783Y489968D01*
Y487456D01*
X1217433Y485029D01*
X1218689Y482854D01*
X1220465Y481078D01*
X1222640Y479822D01*
X1225067Y479172D01*
X1227579D01*
X1230005Y479822D01*
X1232180Y481078D01*
X1233957Y482854D01*
X1235212Y485029D01*
X1235863Y487456D01*
Y489968D01*
X1235212Y492394D01*
X1233957Y494569D01*
X1232180Y496346D01*
X1230005Y497602D01*
X1227579Y498252D01*
D02*
G37*
G36*
X1152266Y482577D02*
Y475708D01*
X1159135D01*
X1158628Y477599D01*
X1157550Y479467D01*
X1156025Y480992D01*
X1154158Y482070D01*
X1152266Y482577D01*
D02*
G37*
G36*
X939828D02*
Y475708D01*
X946697D01*
X946190Y477599D01*
X945112Y479467D01*
X943587Y480992D01*
X941720Y482070D01*
X939828Y482577D01*
D02*
G37*
G36*
X727546D02*
Y475708D01*
X734415D01*
X733908Y477599D01*
X732830Y479467D01*
X731305Y480992D01*
X729437Y482070D01*
X727546Y482577D01*
D02*
G37*
G36*
X1149726D02*
X1147835Y482070D01*
X1145968Y480992D01*
X1144443Y479467D01*
X1143365Y477599D01*
X1142858Y475708D01*
X1149726D01*
Y482577D01*
D02*
G37*
G36*
X725006D02*
X723115Y482070D01*
X721247Y480992D01*
X719722Y479467D01*
X718644Y477599D01*
X718137Y475708D01*
X725006D01*
Y482577D01*
D02*
G37*
G36*
X734415Y473168D02*
X727546D01*
Y466299D01*
X729437Y466806D01*
X731305Y467884D01*
X732830Y469409D01*
X733908Y471277D01*
X734415Y473168D01*
D02*
G37*
G36*
X937288D02*
X930420D01*
X930927Y471277D01*
X932005Y469409D01*
X933530Y467884D01*
X935397Y466806D01*
X937288Y466299D01*
Y473168D01*
D02*
G37*
G36*
X1126675Y482628D02*
X1124518D01*
X1122435Y482070D01*
X1120568Y480992D01*
X1119043Y479467D01*
X1117965Y477599D01*
X1117406Y475516D01*
Y473360D01*
X1117965Y471277D01*
X1119043Y469409D01*
X1120568Y467884D01*
X1122435Y466806D01*
X1124518Y466248D01*
X1126675D01*
X1128758Y466806D01*
X1130625Y467884D01*
X1132150Y469409D01*
X1133228Y471277D01*
X1133786Y473360D01*
Y475516D01*
X1133228Y477599D01*
X1132150Y479467D01*
X1130625Y480992D01*
X1128758Y482070D01*
X1126675Y482628D01*
D02*
G37*
G36*
X1101275D02*
X1099118D01*
X1097035Y482070D01*
X1095168Y480992D01*
X1093643Y479467D01*
X1092565Y477599D01*
X1092006Y475516D01*
Y473360D01*
X1092565Y471277D01*
X1093643Y469409D01*
X1095168Y467884D01*
X1097035Y466806D01*
X1099118Y466248D01*
X1101275D01*
X1103358Y466806D01*
X1105225Y467884D01*
X1106750Y469409D01*
X1107828Y471277D01*
X1108386Y473360D01*
Y475516D01*
X1107828Y477599D01*
X1106750Y479467D01*
X1105225Y480992D01*
X1103358Y482070D01*
X1101275Y482628D01*
D02*
G37*
G36*
X1075875D02*
X1073718D01*
X1071635Y482070D01*
X1069768Y480992D01*
X1068243Y479467D01*
X1067165Y477599D01*
X1066606Y475516D01*
Y473360D01*
X1067165Y471277D01*
X1068243Y469409D01*
X1069768Y467884D01*
X1071635Y466806D01*
X1073718Y466248D01*
X1075875D01*
X1077958Y466806D01*
X1079825Y467884D01*
X1081350Y469409D01*
X1082428Y471277D01*
X1082986Y473360D01*
Y475516D01*
X1082428Y477599D01*
X1081350Y479467D01*
X1079825Y480992D01*
X1077958Y482070D01*
X1075875Y482628D01*
D02*
G37*
G36*
X1025075D02*
X1022918D01*
X1020835Y482070D01*
X1018968Y480992D01*
X1017443Y479467D01*
X1016365Y477599D01*
X1015806Y475516D01*
Y473360D01*
X1016365Y471277D01*
X1017443Y469409D01*
X1018968Y467884D01*
X1020835Y466806D01*
X1022918Y466248D01*
X1025075D01*
X1027158Y466806D01*
X1029025Y467884D01*
X1030550Y469409D01*
X1031628Y471277D01*
X1032186Y473360D01*
Y475516D01*
X1031628Y477599D01*
X1030550Y479467D01*
X1029025Y480992D01*
X1027158Y482070D01*
X1025075Y482628D01*
D02*
G37*
G36*
X1006786D02*
X990406D01*
Y466248D01*
X1006786D01*
Y482628D01*
D02*
G37*
G36*
X914237D02*
X912080D01*
X909997Y482070D01*
X908130Y480992D01*
X906605Y479467D01*
X905527Y477599D01*
X904968Y475516D01*
Y473360D01*
X905527Y471277D01*
X906605Y469409D01*
X908130Y467884D01*
X909997Y466806D01*
X912080Y466248D01*
X914237D01*
X916320Y466806D01*
X918187Y467884D01*
X919712Y469409D01*
X920790Y471277D01*
X921348Y473360D01*
Y475516D01*
X920790Y477599D01*
X919712Y479467D01*
X918187Y480992D01*
X916320Y482070D01*
X914237Y482628D01*
D02*
G37*
G36*
X888837D02*
X886680D01*
X884597Y482070D01*
X882730Y480992D01*
X881205Y479467D01*
X880127Y477599D01*
X879568Y475516D01*
Y473360D01*
X880127Y471277D01*
X881205Y469409D01*
X882730Y467884D01*
X884597Y466806D01*
X886680Y466248D01*
X888837D01*
X890920Y466806D01*
X892787Y467884D01*
X894312Y469409D01*
X895390Y471277D01*
X895948Y473360D01*
Y475516D01*
X895390Y477599D01*
X894312Y479467D01*
X892787Y480992D01*
X890920Y482070D01*
X888837Y482628D01*
D02*
G37*
G36*
X863437D02*
X861280D01*
X859197Y482070D01*
X857330Y480992D01*
X855805Y479467D01*
X854727Y477599D01*
X854168Y475516D01*
Y473360D01*
X854727Y471277D01*
X855805Y469409D01*
X857330Y467884D01*
X859197Y466806D01*
X861280Y466248D01*
X863437D01*
X865520Y466806D01*
X867387Y467884D01*
X868912Y469409D01*
X869990Y471277D01*
X870548Y473360D01*
Y475516D01*
X869990Y477599D01*
X868912Y479467D01*
X867387Y480992D01*
X865520Y482070D01*
X863437Y482628D01*
D02*
G37*
G36*
X812637D02*
X810480D01*
X808397Y482070D01*
X806530Y480992D01*
X805005Y479467D01*
X803927Y477599D01*
X803368Y475516D01*
Y473360D01*
X803927Y471277D01*
X805005Y469409D01*
X806530Y467884D01*
X808397Y466806D01*
X810480Y466248D01*
X812637D01*
X814720Y466806D01*
X816587Y467884D01*
X818112Y469409D01*
X819190Y471277D01*
X819748Y473360D01*
Y475516D01*
X819190Y477599D01*
X818112Y479467D01*
X816587Y480992D01*
X814720Y482070D01*
X812637Y482628D01*
D02*
G37*
G36*
X783574Y621665D02*
X781066D01*
X778643Y621016D01*
X776471Y619762D01*
X774698Y617989D01*
X773444Y615816D01*
X772795Y613394D01*
Y610886D01*
X773444Y608464D01*
X774698Y606292D01*
X776471Y604518D01*
X777141Y604132D01*
Y585155D01*
X760878Y568892D01*
X759755Y567212D01*
X759361Y565230D01*
Y496056D01*
X759755Y494074D01*
X760878Y492394D01*
X777968Y475303D01*
Y466248D01*
X794348D01*
Y482628D01*
X785293D01*
X769719Y498202D01*
Y563084D01*
X785982Y579347D01*
X785983Y579347D01*
X787105Y581028D01*
X787499Y583010D01*
Y604132D01*
X788168Y604518D01*
X789942Y606292D01*
X791196Y608464D01*
X791845Y610886D01*
Y613394D01*
X791196Y615816D01*
X789942Y617989D01*
X788168Y619762D01*
X785996Y621016D01*
X783574Y621665D01*
D02*
G37*
G36*
X701954Y482628D02*
X699798D01*
X697715Y482070D01*
X695847Y480992D01*
X694322Y479467D01*
X693244Y477599D01*
X692686Y475516D01*
Y473360D01*
X693244Y471277D01*
X694322Y469409D01*
X695847Y467884D01*
X697715Y466806D01*
X699798Y466248D01*
X701954D01*
X704037Y466806D01*
X705905Y467884D01*
X707430Y469409D01*
X708508Y471277D01*
X709066Y473360D01*
Y475516D01*
X708508Y477599D01*
X707430Y479467D01*
X705905Y480992D01*
X704037Y482070D01*
X701954Y482628D01*
D02*
G37*
G36*
X651154D02*
X648998D01*
X646915Y482070D01*
X645047Y480992D01*
X643522Y479467D01*
X642444Y477599D01*
X641886Y475516D01*
Y473360D01*
X642444Y471277D01*
X643522Y469409D01*
X645047Y467884D01*
X646915Y466806D01*
X648998Y466248D01*
X651154D01*
X653237Y466806D01*
X655105Y467884D01*
X656629Y469409D01*
X657708Y471277D01*
X658266Y473360D01*
Y475516D01*
X657708Y477599D01*
X656629Y479467D01*
X655105Y480992D01*
X653237Y482070D01*
X651154Y482628D01*
D02*
G37*
G36*
X600354D02*
X598198D01*
X596115Y482070D01*
X594247Y480992D01*
X592722Y479467D01*
X591644Y477599D01*
X591086Y475516D01*
Y473360D01*
X591644Y471277D01*
X592722Y469409D01*
X594247Y467884D01*
X596115Y466806D01*
X598198Y466248D01*
X600354D01*
X602437Y466806D01*
X604305Y467884D01*
X605830Y469409D01*
X606908Y471277D01*
X607466Y473360D01*
Y475516D01*
X606908Y477599D01*
X605830Y479467D01*
X604305Y480992D01*
X602437Y482070D01*
X600354Y482628D01*
D02*
G37*
G36*
X947153Y473168D02*
X939828D01*
Y465843D01*
X952134Y453537D01*
X953814Y452415D01*
X955796Y452020D01*
X1133758D01*
X1135741Y452415D01*
X1137421Y453537D01*
X1149726Y465843D01*
Y473168D01*
X1142402D01*
X1131613Y462379D01*
X957942D01*
X947153Y473168D01*
D02*
G37*
G36*
X1250453Y423942D02*
X1242186D01*
X1242833Y421530D01*
X1244089Y419354D01*
X1245865Y417578D01*
X1248040Y416322D01*
X1250453Y415676D01*
Y423942D01*
D02*
G37*
G36*
X727518Y427950D02*
X725362D01*
X723279Y427392D01*
X721411Y426314D01*
X719886Y424789D01*
X718808Y422921D01*
X718250Y420838D01*
Y418682D01*
X718808Y416599D01*
X719886Y414731D01*
X721411Y413206D01*
X723279Y412128D01*
X725362Y411570D01*
X727518D01*
X729601Y412128D01*
X731469Y413206D01*
X732994Y414731D01*
X734072Y416599D01*
X734630Y418682D01*
Y420838D01*
X734072Y422921D01*
X732994Y424789D01*
X731469Y426314D01*
X729601Y427392D01*
X727518Y427950D01*
D02*
G37*
G36*
X702118D02*
X699962D01*
X697879Y427392D01*
X696011Y426314D01*
X694486Y424789D01*
X693408Y422921D01*
X692850Y420838D01*
Y418682D01*
X693408Y416599D01*
X694486Y414731D01*
X696011Y413206D01*
X697879Y412128D01*
X699962Y411570D01*
X702118D01*
X704201Y412128D01*
X706069Y413206D01*
X707594Y414731D01*
X708672Y416599D01*
X709230Y418682D01*
Y420838D01*
X708672Y422921D01*
X707594Y424789D01*
X706069Y426314D01*
X704201Y427392D01*
X702118Y427950D01*
D02*
G37*
G36*
X676718D02*
X674562D01*
X672479Y427392D01*
X670611Y426314D01*
X669086Y424789D01*
X668008Y422921D01*
X667450Y420838D01*
Y418682D01*
X668008Y416599D01*
X669086Y414731D01*
X670611Y413206D01*
X672479Y412128D01*
X674562Y411570D01*
X676718D01*
X678801Y412128D01*
X680669Y413206D01*
X682194Y414731D01*
X683272Y416599D01*
X683830Y418682D01*
Y420838D01*
X683272Y422921D01*
X682194Y424789D01*
X680669Y426314D01*
X678801Y427392D01*
X676718Y427950D01*
D02*
G37*
G36*
X497215Y410398D02*
X494703D01*
X492277Y409748D01*
X490101Y408492D01*
X488325Y406715D01*
X487069Y404540D01*
X486419Y402114D01*
Y399602D01*
X487069Y397175D01*
X488325Y395000D01*
X490101Y393224D01*
X492277Y391968D01*
X494703Y391318D01*
X497215D01*
X499641Y391968D01*
X501817Y393224D01*
X503593Y395000D01*
X504849Y397175D01*
X505499Y399602D01*
Y402114D01*
X504849Y404540D01*
X503593Y406715D01*
X501817Y408492D01*
X499641Y409748D01*
X497215Y410398D01*
D02*
G37*
G36*
X1078230Y348499D02*
Y341630D01*
X1085099D01*
X1084592Y343521D01*
X1083514Y345389D01*
X1081989Y346914D01*
X1080121Y347992D01*
X1078230Y348499D01*
D02*
G37*
G36*
X829310D02*
Y341630D01*
X836179D01*
X835672Y343521D01*
X834594Y345389D01*
X833069Y346914D01*
X831201Y347992D01*
X829310Y348499D01*
D02*
G37*
G36*
X1075690D02*
X1073799Y347992D01*
X1071931Y346914D01*
X1070406Y345389D01*
X1069328Y343521D01*
X1068821Y341630D01*
X1075690D01*
Y348499D01*
D02*
G37*
G36*
X826770D02*
X824879Y347992D01*
X823011Y346914D01*
X821486Y345389D01*
X820408Y343521D01*
X819901Y341630D01*
X826770D01*
Y348499D01*
D02*
G37*
G36*
X1085099Y339090D02*
X1078230D01*
Y332221D01*
X1080121Y332728D01*
X1081989Y333806D01*
X1083514Y335331D01*
X1084592Y337199D01*
X1085099Y339090D01*
D02*
G37*
G36*
X836179D02*
X829310D01*
Y332221D01*
X831201Y332728D01*
X833069Y333806D01*
X834594Y335331D01*
X835672Y337199D01*
X836179Y339090D01*
D02*
G37*
G36*
X1052638Y348550D02*
X1050482D01*
X1048399Y347992D01*
X1046531Y346914D01*
X1045006Y345389D01*
X1043928Y343521D01*
X1043370Y341438D01*
Y339282D01*
X1043928Y337199D01*
X1045006Y335331D01*
X1046531Y333806D01*
X1048399Y332728D01*
X1050482Y332170D01*
X1052638D01*
X1054721Y332728D01*
X1056589Y333806D01*
X1058114Y335331D01*
X1059192Y337199D01*
X1059750Y339282D01*
Y341438D01*
X1059192Y343521D01*
X1058114Y345389D01*
X1056589Y346914D01*
X1054721Y347992D01*
X1052638Y348550D01*
D02*
G37*
G36*
X1027238D02*
X1025082D01*
X1022999Y347992D01*
X1021131Y346914D01*
X1019606Y345389D01*
X1018528Y343521D01*
X1017970Y341438D01*
Y339282D01*
X1018528Y337199D01*
X1019606Y335331D01*
X1021131Y333806D01*
X1022999Y332728D01*
X1025082Y332170D01*
X1027238D01*
X1029321Y332728D01*
X1031189Y333806D01*
X1032714Y335331D01*
X1033792Y337199D01*
X1034350Y339282D01*
Y341438D01*
X1033792Y343521D01*
X1032714Y345389D01*
X1031189Y346914D01*
X1029321Y347992D01*
X1027238Y348550D01*
D02*
G37*
G36*
X1001838D02*
X999682D01*
X997599Y347992D01*
X995731Y346914D01*
X994206Y345389D01*
X993128Y343521D01*
X992570Y341438D01*
Y339282D01*
X993128Y337199D01*
X994206Y335331D01*
X995731Y333806D01*
X997599Y332728D01*
X999682Y332170D01*
X1001838D01*
X1003921Y332728D01*
X1005789Y333806D01*
X1007314Y335331D01*
X1008392Y337199D01*
X1008950Y339282D01*
Y341438D01*
X1008392Y343521D01*
X1007314Y345389D01*
X1005789Y346914D01*
X1003921Y347992D01*
X1001838Y348550D01*
D02*
G37*
G36*
X976438D02*
X974282D01*
X972199Y347992D01*
X970331Y346914D01*
X968806Y345389D01*
X967728Y343521D01*
X967170Y341438D01*
Y339282D01*
X967728Y337199D01*
X968806Y335331D01*
X970331Y333806D01*
X972199Y332728D01*
X974282Y332170D01*
X976438D01*
X978521Y332728D01*
X980389Y333806D01*
X981914Y335331D01*
X982992Y337199D01*
X983550Y339282D01*
Y341438D01*
X982992Y343521D01*
X981914Y345389D01*
X980389Y346914D01*
X978521Y347992D01*
X976438Y348550D01*
D02*
G37*
G36*
X951038D02*
X948882D01*
X946799Y347992D01*
X944931Y346914D01*
X943406Y345389D01*
X942328Y343521D01*
X941770Y341438D01*
Y339282D01*
X942328Y337199D01*
X943406Y335331D01*
X944931Y333806D01*
X946799Y332728D01*
X948882Y332170D01*
X951038D01*
X953121Y332728D01*
X954989Y333806D01*
X956514Y335331D01*
X957592Y337199D01*
X958150Y339282D01*
Y341438D01*
X957592Y343521D01*
X956514Y345389D01*
X954989Y346914D01*
X953121Y347992D01*
X951038Y348550D01*
D02*
G37*
G36*
X925638D02*
X923482D01*
X921399Y347992D01*
X919531Y346914D01*
X918006Y345389D01*
X916928Y343521D01*
X916370Y341438D01*
Y339282D01*
X916928Y337199D01*
X918006Y335331D01*
X919531Y333806D01*
X921399Y332728D01*
X923482Y332170D01*
X925638D01*
X927721Y332728D01*
X929589Y333806D01*
X931114Y335331D01*
X932192Y337199D01*
X932750Y339282D01*
Y341438D01*
X932192Y343521D01*
X931114Y345389D01*
X929589Y346914D01*
X927721Y347992D01*
X925638Y348550D01*
D02*
G37*
G36*
X907350D02*
X890970D01*
Y332170D01*
X907350D01*
Y348550D01*
D02*
G37*
G36*
X803718D02*
X801562D01*
X799479Y347992D01*
X797611Y346914D01*
X796086Y345389D01*
X795008Y343521D01*
X794450Y341438D01*
Y339282D01*
X795008Y337199D01*
X796086Y335331D01*
X797611Y333806D01*
X799479Y332728D01*
X801562Y332170D01*
X803718D01*
X805801Y332728D01*
X807669Y333806D01*
X809194Y335331D01*
X810272Y337199D01*
X810830Y339282D01*
Y341438D01*
X810272Y343521D01*
X809194Y345389D01*
X807669Y346914D01*
X805801Y347992D01*
X803718Y348550D01*
D02*
G37*
G36*
X778318D02*
X776162D01*
X774079Y347992D01*
X772211Y346914D01*
X770686Y345389D01*
X769608Y343521D01*
X769050Y341438D01*
Y339282D01*
X769608Y337199D01*
X770686Y335331D01*
X772211Y333806D01*
X774079Y332728D01*
X776162Y332170D01*
X778318D01*
X780401Y332728D01*
X782269Y333806D01*
X783794Y335331D01*
X784872Y337199D01*
X785430Y339282D01*
Y341438D01*
X784872Y343521D01*
X783794Y345389D01*
X782269Y346914D01*
X780401Y347992D01*
X778318Y348550D01*
D02*
G37*
G36*
X752918D02*
X750762D01*
X748679Y347992D01*
X746811Y346914D01*
X745286Y345389D01*
X744208Y343521D01*
X743650Y341438D01*
Y339282D01*
X744208Y337199D01*
X745286Y335331D01*
X746811Y333806D01*
X748679Y332728D01*
X750762Y332170D01*
X752918D01*
X755001Y332728D01*
X756869Y333806D01*
X758394Y335331D01*
X759472Y337199D01*
X760030Y339282D01*
Y341438D01*
X759472Y343521D01*
X758394Y345389D01*
X756869Y346914D01*
X755001Y347992D01*
X752918Y348550D01*
D02*
G37*
G36*
X727518D02*
X725362D01*
X723279Y347992D01*
X721411Y346914D01*
X719886Y345389D01*
X718808Y343521D01*
X718250Y341438D01*
Y339282D01*
X718808Y337199D01*
X719886Y335331D01*
X721411Y333806D01*
X723279Y332728D01*
X725362Y332170D01*
X727518D01*
X729601Y332728D01*
X731469Y333806D01*
X732994Y335331D01*
X734072Y337199D01*
X734630Y339282D01*
Y341438D01*
X734072Y343521D01*
X732994Y345389D01*
X731469Y346914D01*
X729601Y347992D01*
X727518Y348550D01*
D02*
G37*
G36*
X702118D02*
X699962D01*
X697879Y347992D01*
X696011Y346914D01*
X694486Y345389D01*
X693408Y343521D01*
X692850Y341438D01*
Y339282D01*
X693408Y337199D01*
X694486Y335331D01*
X696011Y333806D01*
X697879Y332728D01*
X699962Y332170D01*
X702118D01*
X704201Y332728D01*
X706069Y333806D01*
X707594Y335331D01*
X708672Y337199D01*
X709230Y339282D01*
Y341438D01*
X708672Y343521D01*
X707594Y345389D01*
X706069Y346914D01*
X704201Y347992D01*
X702118Y348550D01*
D02*
G37*
G36*
X676718D02*
X674562D01*
X672479Y347992D01*
X670611Y346914D01*
X669086Y345389D01*
X668008Y343521D01*
X667450Y341438D01*
Y339282D01*
X668008Y337199D01*
X669086Y335331D01*
X670611Y333806D01*
X672479Y332728D01*
X674562Y332170D01*
X676718D01*
X678801Y332728D01*
X680669Y333806D01*
X682194Y335331D01*
X683272Y337199D01*
X683830Y339282D01*
Y341438D01*
X683272Y343521D01*
X682194Y345389D01*
X680669Y346914D01*
X678801Y347992D01*
X676718Y348550D01*
D02*
G37*
G36*
X658430D02*
X642050D01*
Y332170D01*
X658430D01*
Y348550D01*
D02*
G37*
G36*
X1317643Y308974D02*
X1317443D01*
Y299079D01*
X1327338D01*
Y299279D01*
X1326577Y302118D01*
X1325107Y304664D01*
X1323028Y306743D01*
X1320482Y308213D01*
X1317643Y308974D01*
D02*
G37*
G36*
X331379Y308736D02*
X331179D01*
Y298841D01*
X341074D01*
Y299041D01*
X340313Y301881D01*
X338843Y304427D01*
X336764Y306505D01*
X334218Y307975D01*
X331379Y308736D01*
D02*
G37*
G36*
X328639D02*
X328439D01*
X325599Y307975D01*
X323054Y306505D01*
X320975Y304427D01*
X319505Y301881D01*
X318744Y299041D01*
Y298841D01*
X328639D01*
Y308736D01*
D02*
G37*
G36*
X1419243Y308974D02*
X1416303D01*
X1413463Y308213D01*
X1410917Y306743D01*
X1408838Y304664D01*
X1407368Y302118D01*
X1406608Y299279D01*
Y296339D01*
X1407368Y293499D01*
X1408838Y290953D01*
X1410917Y288875D01*
X1413463Y287405D01*
X1416303Y286644D01*
X1419243D01*
X1422082Y287405D01*
X1424628Y288875D01*
X1426707Y290953D01*
X1428177Y293499D01*
X1428938Y296339D01*
Y299279D01*
X1428177Y302118D01*
X1426707Y304664D01*
X1424628Y306743D01*
X1422082Y308213D01*
X1419243Y308974D01*
D02*
G37*
G36*
X480099Y499298D02*
X461019D01*
Y482237D01*
X416098D01*
X414116Y481843D01*
X412435Y480720D01*
X300846Y369131D01*
X299724Y367451D01*
X299329Y365469D01*
Y308736D01*
X293344D01*
Y286406D01*
X315674D01*
Y308736D01*
X309688D01*
Y363324D01*
X418243Y471878D01*
X462928D01*
X463414Y470705D01*
X462925Y470215D01*
X461669Y468040D01*
X461023Y465628D01*
X470559D01*
Y463088D01*
X461023D01*
X461669Y460675D01*
X462925Y458500D01*
X463414Y458011D01*
X462928Y456837D01*
X416098D01*
X414116Y456443D01*
X412435Y455320D01*
X351646Y394531D01*
X350524Y392851D01*
X350129Y390869D01*
Y307473D01*
X348453Y306505D01*
X346375Y304427D01*
X344905Y301881D01*
X344144Y299041D01*
Y296101D01*
X344905Y293262D01*
X346196Y291025D01*
X345911Y290031D01*
X345649Y289645D01*
X345230Y289575D01*
X340573Y294232D01*
X341074Y296101D01*
Y296301D01*
X331179D01*
Y286406D01*
X331379D01*
X333248Y286907D01*
X339951Y280204D01*
X341632Y279081D01*
X343614Y278687D01*
X1302230D01*
X1304212Y279081D01*
X1305892Y280204D01*
X1312833Y287145D01*
X1314703Y286644D01*
X1314903D01*
Y297809D01*
Y308974D01*
X1314703D01*
X1312833Y308473D01*
X1272072Y349235D01*
Y355993D01*
X1273342Y356519D01*
X1274976Y354885D01*
X1277480Y353212D01*
X1280262Y352059D01*
X1283216Y351472D01*
X1286228D01*
X1289182Y352059D01*
X1291965Y353212D01*
X1294469Y354885D01*
X1296599Y357015D01*
X1298272Y359519D01*
X1299425Y362302D01*
X1300012Y365256D01*
Y368268D01*
X1299425Y371222D01*
X1298272Y374004D01*
X1296599Y376509D01*
X1294469Y378638D01*
X1291965Y380312D01*
X1289182Y381464D01*
X1286228Y382052D01*
X1283216D01*
X1280262Y381464D01*
X1277480Y380312D01*
X1274976Y378638D01*
X1273342Y377005D01*
X1272072Y377531D01*
Y410042D01*
X1271678Y412024D01*
X1270555Y413705D01*
X1261060Y423199D01*
X1261259Y423942D01*
X1252993D01*
Y415676D01*
X1253735Y415874D01*
X1259084Y410525D01*
X1258598Y409352D01*
X1242183D01*
Y390272D01*
X1261263D01*
X1261713Y389188D01*
Y347089D01*
X1262107Y345107D01*
X1263230Y343427D01*
X1296509Y310147D01*
X1296023Y308974D01*
X1279608D01*
Y306717D01*
X1278434Y306231D01*
X1231502Y353163D01*
Y404486D01*
X1232180Y404878D01*
X1233957Y406654D01*
X1235212Y408829D01*
X1235863Y411256D01*
Y413768D01*
X1235212Y416194D01*
X1233957Y418369D01*
X1232180Y420146D01*
X1230005Y421402D01*
X1227579Y422052D01*
X1225067D01*
X1222640Y421402D01*
X1220465Y420146D01*
X1218689Y418369D01*
X1217433Y416194D01*
X1216783Y413768D01*
Y411256D01*
X1217433Y408829D01*
X1218689Y406654D01*
X1220465Y404878D01*
X1221143Y404486D01*
Y351017D01*
X1221537Y349035D01*
X1222660Y347355D01*
X1273841Y296174D01*
X1275521Y295051D01*
X1277504Y294657D01*
X1279608D01*
Y289046D01*
X1034630D01*
X1034144Y290219D01*
X1075690Y331765D01*
Y339090D01*
X1068365D01*
X1018321Y289046D01*
X785710D01*
X785224Y290219D01*
X826770Y331765D01*
Y339090D01*
X819445D01*
X769401Y289046D01*
X440433D01*
X439946Y290219D01*
X440443Y290716D01*
X441913Y293262D01*
X442674Y296101D01*
Y299041D01*
X442173Y300910D01*
X555843Y414580D01*
X643837D01*
X645211Y413206D01*
X647079Y412128D01*
X649162Y411570D01*
X651318D01*
X653401Y412128D01*
X655269Y413206D01*
X656794Y414731D01*
X657872Y416599D01*
X658430Y418682D01*
Y420838D01*
X657872Y422921D01*
X656794Y424789D01*
X655269Y426314D01*
X653401Y427392D01*
X651318Y427950D01*
X649162D01*
X647079Y427392D01*
X645211Y426314D01*
X643837Y424939D01*
X553698D01*
X551716Y424545D01*
X550035Y423422D01*
X550035Y423422D01*
X434848Y308235D01*
X432979Y308736D01*
X430039D01*
X427199Y307975D01*
X424654Y306505D01*
X422575Y304427D01*
X421105Y301881D01*
X420344Y299041D01*
Y296101D01*
X421105Y293262D01*
X422575Y290716D01*
X423071Y290219D01*
X422585Y289046D01*
X415033D01*
X414546Y290219D01*
X415043Y290716D01*
X416513Y293262D01*
X417274Y296101D01*
Y299041D01*
X416773Y300910D01*
X474221Y358359D01*
X474221Y358359D01*
X475344Y360039D01*
X475738Y362021D01*
Y405532D01*
X476417Y405924D01*
X478193Y407700D01*
X479449Y409875D01*
X480099Y412302D01*
Y414814D01*
X479449Y417240D01*
X478193Y419415D01*
X477703Y419905D01*
X478189Y421078D01*
X487933D01*
X488325Y420400D01*
X490101Y418624D01*
X492277Y417368D01*
X494703Y416718D01*
X497215D01*
X499641Y417368D01*
X501817Y418624D01*
X503593Y420400D01*
X503984Y421078D01*
X520700D01*
X522682Y421473D01*
X524362Y422595D01*
X540625Y438858D01*
X752697D01*
X759361Y432195D01*
Y425521D01*
X758091Y425092D01*
X756869Y426314D01*
X755001Y427392D01*
X752918Y427950D01*
X750762D01*
X748679Y427392D01*
X746811Y426314D01*
X745286Y424789D01*
X744208Y422921D01*
X743650Y420838D01*
Y418682D01*
X744208Y416599D01*
X745286Y414731D01*
X746811Y413206D01*
X748679Y412128D01*
X750762Y411570D01*
X752918D01*
X755001Y412128D01*
X756869Y413206D01*
X758091Y414428D01*
X759361Y413999D01*
Y411480D01*
X759755Y409498D01*
X760878Y407817D01*
X771038Y397658D01*
X772718Y396535D01*
X774700Y396141D01*
X1058520D01*
X1060502Y396535D01*
X1062183Y397658D01*
X1076095Y411570D01*
X1078038D01*
X1080121Y412128D01*
X1081989Y413206D01*
X1083514Y414731D01*
X1084592Y416599D01*
X1085150Y418682D01*
Y420838D01*
X1084592Y422921D01*
X1083514Y424789D01*
X1081989Y426314D01*
X1080121Y427392D01*
X1078038Y427950D01*
X1075882D01*
X1073799Y427392D01*
X1071931Y426314D01*
X1070406Y424789D01*
X1069328Y422921D01*
X1068770Y420838D01*
Y418895D01*
X1056375Y406499D01*
X832017D01*
X831791Y407046D01*
X831616Y407770D01*
X832662Y409334D01*
X833056Y411317D01*
X833056Y411317D01*
Y413199D01*
X833069Y413206D01*
X834594Y414731D01*
X835672Y416599D01*
X836230Y418682D01*
Y420838D01*
X835672Y422921D01*
X835026Y424040D01*
X835759Y425310D01*
X891441D01*
X892174Y424040D01*
X891528Y422921D01*
X890970Y420838D01*
Y418682D01*
X891528Y416599D01*
X892606Y414731D01*
X894131Y413206D01*
X895999Y412128D01*
X898082Y411570D01*
X900238D01*
X902321Y412128D01*
X904189Y413206D01*
X905714Y414731D01*
X906792Y416599D01*
X907350Y418682D01*
Y420838D01*
X906792Y422921D01*
X906146Y424040D01*
X906879Y425310D01*
X916841D01*
X917574Y424040D01*
X916928Y422921D01*
X916370Y420838D01*
Y418682D01*
X916928Y416599D01*
X918006Y414731D01*
X919531Y413206D01*
X921399Y412128D01*
X923482Y411570D01*
X925638D01*
X927721Y412128D01*
X929589Y413206D01*
X931114Y414731D01*
X932192Y416599D01*
X932750Y418682D01*
Y420838D01*
X932192Y422921D01*
X931546Y424040D01*
X932279Y425310D01*
X942241D01*
X942974Y424040D01*
X942328Y422921D01*
X941770Y420838D01*
Y418682D01*
X942328Y416599D01*
X943406Y414731D01*
X944931Y413206D01*
X946799Y412128D01*
X948882Y411570D01*
X951038D01*
X953121Y412128D01*
X954989Y413206D01*
X956514Y414731D01*
X957592Y416599D01*
X958150Y418682D01*
Y420838D01*
X957592Y422921D01*
X956946Y424040D01*
X957679Y425310D01*
X967641D01*
X968374Y424040D01*
X967728Y422921D01*
X967170Y420838D01*
Y418682D01*
X967728Y416599D01*
X968806Y414731D01*
X970331Y413206D01*
X972199Y412128D01*
X974282Y411570D01*
X976438D01*
X978521Y412128D01*
X980389Y413206D01*
X981914Y414731D01*
X982992Y416599D01*
X983550Y418682D01*
Y420838D01*
X982992Y422921D01*
X982346Y424040D01*
X983079Y425310D01*
X993041D01*
X993774Y424040D01*
X993128Y422921D01*
X992570Y420838D01*
Y418682D01*
X993128Y416599D01*
X994206Y414731D01*
X995731Y413206D01*
X997599Y412128D01*
X999682Y411570D01*
X1001838D01*
X1003921Y412128D01*
X1005789Y413206D01*
X1007314Y414731D01*
X1008392Y416599D01*
X1008950Y418682D01*
Y420838D01*
X1008392Y422921D01*
X1007746Y424040D01*
X1008479Y425310D01*
X1018441D01*
X1019174Y424040D01*
X1018528Y422921D01*
X1017970Y420838D01*
Y418682D01*
X1018528Y416599D01*
X1019606Y414731D01*
X1021131Y413206D01*
X1022999Y412128D01*
X1025082Y411570D01*
X1027238D01*
X1029321Y412128D01*
X1031189Y413206D01*
X1032714Y414731D01*
X1033792Y416599D01*
X1034350Y418682D01*
Y420838D01*
X1033792Y422921D01*
X1033146Y424040D01*
X1033879Y425310D01*
X1038685D01*
X1043370Y420625D01*
Y418682D01*
X1043928Y416599D01*
X1045006Y414731D01*
X1046531Y413206D01*
X1048399Y412128D01*
X1050482Y411570D01*
X1052638D01*
X1054721Y412128D01*
X1056589Y413206D01*
X1058114Y414731D01*
X1059192Y416599D01*
X1059750Y418682D01*
Y420625D01*
X1071857Y432732D01*
X1218297D01*
X1218689Y432054D01*
X1220465Y430278D01*
X1222640Y429022D01*
X1225067Y428372D01*
X1227579D01*
X1230005Y429022D01*
X1232180Y430278D01*
X1233957Y432054D01*
X1234348Y432732D01*
X1244092D01*
X1244578Y431559D01*
X1244089Y431069D01*
X1242833Y428894D01*
X1242186Y426482D01*
X1251723D01*
X1261259D01*
X1260612Y428894D01*
X1259357Y431069D01*
X1258867Y431559D01*
X1259353Y432732D01*
X1292089D01*
X1318149Y406672D01*
X1317550Y405552D01*
X1317049Y405652D01*
X1313397D01*
X1309815Y404939D01*
X1306441Y403542D01*
X1303404Y401513D01*
X1300822Y398930D01*
X1298793Y395894D01*
X1297395Y392520D01*
X1296683Y388938D01*
Y385286D01*
X1297395Y381704D01*
X1298793Y378330D01*
X1300822Y375293D01*
X1303404Y372711D01*
X1306441Y370682D01*
X1309815Y369284D01*
X1313397Y368572D01*
X1317049D01*
X1320631Y369284D01*
X1324005Y370682D01*
X1327041Y372711D01*
X1329624Y375293D01*
X1331653Y378330D01*
X1333050Y381704D01*
X1333763Y385286D01*
Y388938D01*
X1333663Y389439D01*
X1334783Y390038D01*
X1336393Y388428D01*
Y307711D01*
X1334717Y306743D01*
X1332638Y304664D01*
X1331169Y302118D01*
X1330408Y299279D01*
Y296339D01*
X1331169Y293499D01*
X1332638Y290953D01*
X1334717Y288875D01*
X1337263Y287405D01*
X1340103Y286644D01*
X1343042D01*
X1345882Y287405D01*
X1348428Y288875D01*
X1350507Y290953D01*
X1351977Y293499D01*
X1352738Y296339D01*
Y299279D01*
X1351977Y302118D01*
X1350507Y304664D01*
X1348428Y306743D01*
X1346752Y307711D01*
Y390573D01*
X1346358Y392555D01*
X1345235Y394236D01*
X1297897Y441574D01*
X1296216Y442697D01*
X1294234Y443091D01*
X1259353D01*
X1258867Y444265D01*
X1259357Y444754D01*
X1260612Y446930D01*
X1261259Y449342D01*
X1251723D01*
Y451882D01*
X1261259D01*
X1260612Y454294D01*
X1259357Y456469D01*
X1258867Y456959D01*
X1259353Y458132D01*
X1284603D01*
X1361793Y380942D01*
Y307711D01*
X1360117Y306743D01*
X1358038Y304664D01*
X1356568Y302118D01*
X1355808Y299279D01*
Y296339D01*
X1356568Y293499D01*
X1358038Y290953D01*
X1360117Y288875D01*
X1362663Y287405D01*
X1365503Y286644D01*
X1368443D01*
X1371282Y287405D01*
X1373828Y288875D01*
X1375907Y290953D01*
X1377377Y293499D01*
X1378138Y296339D01*
Y299279D01*
X1377377Y302118D01*
X1375907Y304664D01*
X1373828Y306743D01*
X1372152Y307711D01*
Y383087D01*
X1372152Y383087D01*
X1371758Y385070D01*
X1370635Y386750D01*
X1290411Y466974D01*
X1289092Y467855D01*
X1289477Y469125D01*
X1304090D01*
X1387193Y386022D01*
Y307711D01*
X1385517Y306743D01*
X1383438Y304664D01*
X1381969Y302118D01*
X1381208Y299279D01*
Y296339D01*
X1381969Y293499D01*
X1383438Y290953D01*
X1385517Y288875D01*
X1388063Y287405D01*
X1390903Y286644D01*
X1393842D01*
X1396682Y287405D01*
X1399228Y288875D01*
X1401307Y290953D01*
X1402777Y293499D01*
X1403538Y296339D01*
Y299279D01*
X1402777Y302118D01*
X1401307Y304664D01*
X1399228Y306743D01*
X1397552Y307711D01*
Y388167D01*
X1397552Y388167D01*
X1397158Y390149D01*
X1396035Y391830D01*
X1309898Y477967D01*
X1308217Y479090D01*
X1306235Y479484D01*
X1260669D01*
X1260612Y479694D01*
X1259357Y481869D01*
X1257580Y483646D01*
X1255405Y484902D01*
X1252979Y485552D01*
X1250467D01*
X1248040Y484902D01*
X1245865Y483646D01*
X1244089Y481869D01*
X1242833Y479694D01*
X1242183Y477268D01*
Y474756D01*
X1242833Y472329D01*
X1244089Y470154D01*
X1244578Y469665D01*
X1244092Y468491D01*
X1234348D01*
X1233957Y469169D01*
X1232180Y470946D01*
X1230005Y472202D01*
X1227579Y472852D01*
X1225067D01*
X1222640Y472202D01*
X1220465Y470946D01*
X1218689Y469169D01*
X1217433Y466994D01*
X1216783Y464568D01*
Y462056D01*
X1217433Y459630D01*
X1218689Y457454D01*
X1219178Y456965D01*
X1218692Y455791D01*
X1176968D01*
X1159591Y473168D01*
X1152266D01*
Y465843D01*
X1171160Y446949D01*
X1172840Y445826D01*
X1174823Y445432D01*
X1218692D01*
X1219178Y444259D01*
X1218689Y443769D01*
X1218297Y443091D01*
X1069712D01*
X1069712Y443091D01*
X1067730Y442697D01*
X1066049Y441574D01*
X1052425Y427950D01*
X1050695D01*
X1044492Y434152D01*
X1042812Y435275D01*
X1040830Y435669D01*
X813370D01*
X811388Y435275D01*
X809707Y434152D01*
X803505Y427950D01*
X801775D01*
X774405Y455320D01*
X772724Y456443D01*
X770742Y456837D01*
X717660D01*
X717173Y458011D01*
X725006Y465843D01*
Y473168D01*
X717681D01*
X708970Y464457D01*
X541088D01*
X537525Y468020D01*
X535844Y469143D01*
X533862Y469537D01*
X503589D01*
X503103Y470711D01*
X503593Y471200D01*
X504849Y473375D01*
X505499Y475802D01*
Y478314D01*
X504849Y480740D01*
X503593Y482915D01*
X501817Y484692D01*
X499641Y485948D01*
X497215Y486598D01*
X494703D01*
X492277Y485948D01*
X490101Y484692D01*
X488325Y482915D01*
X487933Y482237D01*
X480099D01*
Y499298D01*
D02*
G37*
G36*
X1327338Y296539D02*
X1317443D01*
Y286644D01*
X1317643D01*
X1320482Y287405D01*
X1323028Y288875D01*
X1325107Y290953D01*
X1326577Y293499D01*
X1327338Y296339D01*
Y296539D01*
D02*
G37*
G36*
X328639Y296301D02*
X318744D01*
Y296101D01*
X319505Y293262D01*
X320975Y290716D01*
X323054Y288637D01*
X325599Y287167D01*
X328439Y286406D01*
X328639D01*
Y296301D01*
D02*
G37*
%LPD*%
G36*
X532422Y445305D02*
X518555Y431437D01*
X503984D01*
X503593Y432115D01*
X501817Y433892D01*
X499641Y435148D01*
X497215Y435798D01*
X494703D01*
X492277Y435148D01*
X490101Y433892D01*
X488325Y432115D01*
X487933Y431437D01*
X478189D01*
X477703Y432611D01*
X478193Y433100D01*
X479449Y435275D01*
X480095Y437688D01*
X470559D01*
X461023D01*
X461669Y435275D01*
X462925Y433100D01*
X463414Y432611D01*
X462928Y431437D01*
X415347D01*
X413365Y431043D01*
X411685Y429920D01*
X377046Y395282D01*
X375924Y393601D01*
X375529Y391619D01*
Y307473D01*
X373853Y306505D01*
X371775Y304427D01*
X370305Y301881D01*
X369544Y299041D01*
Y296101D01*
X370305Y293262D01*
X371775Y290716D01*
X372271Y290219D01*
X371785Y289046D01*
X364232D01*
X363746Y290219D01*
X364243Y290716D01*
X365713Y293262D01*
X366474Y296101D01*
Y299041D01*
X365713Y301881D01*
X364243Y304427D01*
X362164Y306505D01*
X360488Y307473D01*
Y388723D01*
X418243Y446478D01*
X462928D01*
X463414Y445305D01*
X462925Y444815D01*
X461669Y442640D01*
X461023Y440228D01*
X470559D01*
X480095D01*
X479449Y442640D01*
X478193Y444815D01*
X477703Y445305D01*
X478189Y446478D01*
X487933D01*
X488325Y445800D01*
X490101Y444024D01*
X492277Y442768D01*
X494703Y442118D01*
X497215D01*
X499641Y442768D01*
X501817Y444024D01*
X503593Y445800D01*
X503984Y446478D01*
X531936D01*
X532422Y445305D01*
D02*
G37*
G36*
X794450Y420625D02*
Y418682D01*
X795008Y416599D01*
X796086Y414731D01*
X797611Y413206D01*
X799479Y412128D01*
X801562Y411570D01*
X803718D01*
X805801Y412128D01*
X807669Y413206D01*
X809194Y414731D01*
X810272Y416599D01*
X810830Y418682D01*
Y420625D01*
X815515Y425310D01*
X820321D01*
X821054Y424040D01*
X820408Y422921D01*
X819850Y420838D01*
Y418682D01*
X820408Y416599D01*
X821486Y414731D01*
X822697Y413520D01*
Y413462D01*
X815735Y406499D01*
X776845D01*
X770442Y412903D01*
X770495Y413127D01*
X771892Y413525D01*
X772211Y413206D01*
X774079Y412128D01*
X776162Y411570D01*
X778318D01*
X780401Y412128D01*
X782269Y413206D01*
X783794Y414731D01*
X784872Y416599D01*
X785430Y418682D01*
Y420838D01*
X784872Y422921D01*
X783794Y424789D01*
X782269Y426314D01*
X780401Y427392D01*
X778318Y427950D01*
X776162D01*
X774079Y427392D01*
X772211Y426314D01*
X770990Y425092D01*
X769719Y425521D01*
Y434340D01*
X769325Y436322D01*
X768203Y438003D01*
X760900Y445305D01*
X761386Y446478D01*
X768597D01*
X794450Y420625D01*
D02*
G37*
G36*
X463414Y419905D02*
X462925Y419415D01*
X461669Y417240D01*
X461019Y414814D01*
Y412302D01*
X461669Y409875D01*
X462925Y407700D01*
X464701Y405924D01*
X465379Y405532D01*
Y364166D01*
X409448Y308235D01*
X407579Y308736D01*
X404639D01*
X401799Y307975D01*
X399254Y306505D01*
X397175Y304427D01*
X395705Y301881D01*
X394944Y299041D01*
Y296101D01*
X395705Y293262D01*
X397175Y290716D01*
X397671Y290219D01*
X397185Y289046D01*
X389632D01*
X389146Y290219D01*
X389643Y290716D01*
X391113Y293262D01*
X391874Y296101D01*
Y299041D01*
X391113Y301881D01*
X389643Y304427D01*
X387564Y306505D01*
X385888Y307473D01*
Y389474D01*
X387499Y391084D01*
X388619Y390485D01*
X388519Y389984D01*
Y386332D01*
X389231Y382750D01*
X390629Y379376D01*
X392658Y376339D01*
X395240Y373757D01*
X398277Y371728D01*
X401651Y370330D01*
X405233Y369618D01*
X408885D01*
X412467Y370330D01*
X415841Y371728D01*
X418877Y373757D01*
X421460Y376339D01*
X423489Y379376D01*
X424886Y382750D01*
X425599Y386332D01*
Y389984D01*
X424886Y393566D01*
X423489Y396940D01*
X421460Y399976D01*
X418877Y402559D01*
X415841Y404588D01*
X412467Y405985D01*
X408885Y406698D01*
X405233D01*
X404731Y406598D01*
X404133Y407718D01*
X417493Y421078D01*
X462928D01*
X463414Y419905D01*
D02*
G37*
%LPC*%
G36*
X439065Y383098D02*
X436053D01*
X433099Y382510D01*
X430316Y381358D01*
X427812Y379684D01*
X425682Y377555D01*
X424009Y375050D01*
X422856Y372268D01*
X422269Y369314D01*
Y366302D01*
X422856Y363348D01*
X424009Y360565D01*
X425682Y358061D01*
X427812Y355931D01*
X430316Y354258D01*
X433099Y353105D01*
X436053Y352518D01*
X439065D01*
X442019Y353105D01*
X444801Y354258D01*
X447305Y355931D01*
X449435Y358061D01*
X451109Y360565D01*
X452261Y363348D01*
X452849Y366302D01*
Y369314D01*
X452261Y372268D01*
X451109Y375050D01*
X449435Y377555D01*
X447305Y379684D01*
X444801Y381358D01*
X442019Y382510D01*
X439065Y383098D01*
D02*
G37*
%LPD*%
D31*
X1051560Y419760D02*
X1069712Y437912D01*
X1226323D01*
X772160Y283866D02*
X1021080D01*
X343614D02*
X772160D01*
Y284480D02*
X828040Y340360D01*
X772160Y283866D02*
Y284480D01*
X1021080Y283866D02*
X1302230D01*
X1021080Y284480D02*
X1076960Y340360D01*
X1021080Y283866D02*
Y284480D01*
X1302230Y283866D02*
X1316173Y297809D01*
X329909Y297571D02*
X343614Y283866D01*
X470559Y362021D02*
Y413558D01*
X406109Y297571D02*
X470559Y362021D01*
X431509Y297571D02*
X553698Y419760D01*
X1040830Y430490D02*
X1051560Y419760D01*
X802640D02*
X813370Y430490D01*
X1040830D01*
X817880Y401320D02*
X827877Y411317D01*
X1076357Y418717D02*
X1076740Y419100D01*
X827877Y411317D02*
Y419596D01*
X817880Y401320D02*
X1058520D01*
X827877Y419596D02*
X828040Y419760D01*
X1058520Y401320D02*
X1076960Y419760D01*
X774700Y401320D02*
X817880D01*
X764540Y411480D02*
X774700Y401320D01*
X764540Y411480D02*
Y434340D01*
X538480Y444038D02*
X754842D01*
X764540Y434340D01*
X770742Y451658D02*
X802640Y419760D01*
X495959Y426258D02*
X520700D01*
X538480Y444038D01*
X495959Y451658D02*
X770742D01*
X711116Y459278D02*
X726276Y474438D01*
X538942Y459278D02*
X711116D01*
X533862Y464358D02*
X538942Y459278D01*
X553698Y419760D02*
X650240D01*
X470559Y464358D02*
X533862D01*
X1266892Y347089D02*
X1316173Y297809D01*
X1266892Y347089D02*
Y410042D01*
X1251723Y425212D02*
X1266892Y410042D01*
X1174823Y450612D02*
X1251723D01*
X1150996Y474438D02*
X1174823Y450612D01*
X1386549Y1049311D02*
X1408770D01*
X1320800Y1115060D02*
X1386549Y1049311D01*
X1283830D02*
X1319099Y1084580D01*
X1320800D01*
X1386817Y919503D02*
X1408770D01*
X1320800Y985520D02*
X1386817Y919503D01*
X1283830D02*
X1320800Y956473D01*
Y960120D01*
X1389938Y660475D02*
X1408770D01*
X1318893Y731520D02*
X1389938Y660475D01*
X1283830D02*
X1318893Y695538D01*
Y731520D01*
X1320800Y855980D02*
X1386342Y790438D01*
X1408770D01*
X1283830Y790437D02*
X1318893Y825500D01*
X1320800D01*
X1102360Y645160D02*
X1137920Y609600D01*
Y546100D02*
Y609600D01*
X1104331Y512510D02*
X1137920Y546100D01*
X1087469Y512510D02*
X1104331D01*
X1049396Y474438D02*
X1087469Y512510D01*
X977900Y645160D02*
X1102360D01*
X944880Y612140D02*
X977900Y645160D01*
X876300Y536696D02*
X938558Y474438D01*
X876300Y536696D02*
Y629920D01*
X932180Y685800D01*
X894080Y612140D02*
X932180Y574040D01*
X1105394D02*
X1125596Y553838D01*
X932180Y574040D02*
X1105394D01*
X1133758Y457200D02*
X1150996Y474438D01*
X938558D02*
X955796Y457200D01*
X1133758D01*
X1226323Y437912D02*
X1294234D01*
X416098Y451658D02*
X495959D01*
X1223909Y412512D02*
X1226323D01*
X380709Y297571D02*
Y391619D01*
X1226323Y351017D02*
Y412512D01*
X1288745Y299836D02*
X1290773Y297809D01*
X1277504Y299836D02*
X1288745D01*
X1226323Y351017D02*
X1277504Y299836D01*
X1253429Y474305D02*
X1306235D01*
X1392373Y297809D02*
Y388167D01*
X1306235Y474305D02*
X1392373Y388167D01*
X1226323Y463312D02*
X1286748D01*
X1366973Y297809D02*
Y383087D01*
X1286748Y463312D02*
X1366973Y383087D01*
X1294234Y437912D02*
X1341573Y390573D01*
Y297809D02*
Y390573D01*
X1251723Y476012D02*
X1253429Y474305D01*
X304509Y297571D02*
Y365469D01*
X416098Y477058D02*
X495959D01*
X304509Y365469D02*
X416098Y477058D01*
X355309Y390869D02*
X416098Y451658D01*
X355309Y297571D02*
Y390869D01*
X415347Y426258D02*
X495959D01*
X380709Y391619D02*
X415347Y426258D01*
X807720Y612140D02*
X822595Y597265D01*
Y488802D02*
Y597265D01*
Y488802D02*
X836958Y474438D01*
X764540Y496056D02*
X786158Y474438D01*
X764540Y565230D02*
X782320Y583010D01*
X764540Y496056D02*
Y565230D01*
X782320Y583010D02*
Y612140D01*
X706120Y560765D02*
Y612140D01*
X700876Y555521D02*
X706120Y560765D01*
X700876Y553838D02*
Y555521D01*
X573876Y474438D02*
X586740Y487302D01*
Y568960D02*
X629920Y612140D01*
X586740Y487302D02*
Y568960D01*
X675476Y474438D02*
X688340Y487302D01*
X680720Y612140D02*
X688340Y604520D01*
Y487302D02*
Y604520D01*
X639346Y596166D02*
X655320Y612140D01*
X639346Y489108D02*
Y596166D01*
X624676Y474438D02*
X639346Y489108D01*
X573876Y581496D02*
X604520Y612140D01*
X573876Y553838D02*
Y581496D01*
X564019Y931465D02*
X605519Y972966D01*
X544301Y931465D02*
X564019D01*
X545480Y835040D02*
X593134Y882694D01*
X544196Y826055D02*
X545480Y827339D01*
Y835040D01*
X396240Y980440D02*
X457355Y919325D01*
X393700Y1109980D02*
X454815Y1048865D01*
X481670D01*
X393700Y853440D02*
X456085Y791055D01*
X457355Y919325D02*
X482572D01*
X393700Y980440D02*
X396240D01*
X393700Y699755D02*
X415275Y678180D01*
X466275D02*
X481670Y662785D01*
X415275Y678180D02*
X466275D01*
X356730Y1048865D02*
X392445Y1084580D01*
X393700D01*
X356730Y919325D02*
X393700Y956295D01*
Y957580D01*
X456085Y791055D02*
X481670D01*
X356730D02*
X391175Y825500D01*
X393700D01*
X356730Y662785D02*
X393700Y699755D01*
X769620Y722980D02*
X806800Y685800D01*
X932180D01*
Y739140D01*
Y1051560D02*
Y1104900D01*
Y944880D02*
X934146D01*
X693520Y696134D02*
X742774D01*
X769620Y722980D01*
X693520Y749435D02*
X742874D01*
X769620Y776181D01*
X693520Y802735D02*
X743132D01*
X769620Y829222D01*
X693520Y856034D02*
X742290D01*
X769620Y883364D01*
X693520Y946306D02*
X743106D01*
X769620Y972820D01*
X693520Y999606D02*
X743066D01*
X769620Y1026160D01*
X693520Y1052906D02*
X743026D01*
X769620Y1079500D01*
X693520Y1106206D02*
X742986D01*
X769620Y1132840D01*
X743885Y883029D02*
X744220Y883364D01*
X693855Y883029D02*
X743885D01*
X430670Y745285D02*
X481670D01*
X305730D02*
X356730D01*
X430670Y873555D02*
X481670D01*
X305730D02*
X356730D01*
X431572Y1001825D02*
X482572D01*
X305730D02*
X356730D01*
X305730Y1131365D02*
X356730D01*
X430670D02*
X481670D01*
X959200Y872840D02*
X1008058D01*
X932180Y845820D02*
X959200Y872840D01*
X959508Y1132228D02*
X1008302D01*
X932180Y1104900D02*
X959508Y1132228D01*
X958152Y1078928D02*
X1008302D01*
X932180Y1104900D02*
X958152Y1078928D01*
X958112Y1025628D02*
X1008302D01*
X932180Y1051560D02*
X958112Y1025628D01*
X958072Y972328D02*
X1008302D01*
X932180Y998220D02*
X958072Y972328D01*
X958460Y819540D02*
X1008058D01*
X932180Y845820D02*
X958460Y819540D01*
X958420Y766240D02*
X1008058D01*
X932180Y792480D02*
X958420Y766240D01*
X958380Y712940D02*
X1008058D01*
X932180Y739140D02*
X958380Y712940D01*
X932180Y739140D02*
Y792480D01*
Y845820D01*
Y944880D01*
Y998220D01*
Y1051560D01*
X957580Y685800D02*
X957820Y686040D01*
X1007819D01*
X1008058Y686280D01*
X957580Y739140D02*
X957800Y739360D01*
X1007839D01*
X1008058Y739580D01*
X957580Y792480D02*
X957780Y792680D01*
X1007859D01*
X1008058Y792880D01*
X957580Y845820D02*
X957760Y846000D01*
X1007879D01*
X1008058Y846180D01*
X957580Y944880D02*
X957974Y945274D01*
X1007908D01*
X1008302Y945668D01*
X957580Y998220D02*
X957954Y998594D01*
X1007928D01*
X1008302Y998968D01*
X957580Y1051560D02*
X957934Y1051914D01*
X1007948D01*
X1008302Y1052268D01*
X957580Y1104900D02*
X957914Y1105234D01*
X1007968D01*
X1008302Y1105568D01*
X769620Y722980D02*
Y776181D01*
Y829222D01*
Y883364D01*
Y972820D01*
Y1026160D01*
Y1079500D01*
Y1132840D01*
X693520Y1132866D02*
X693533Y1132853D01*
X744207D01*
X744220Y1132840D01*
X693520Y1079566D02*
X693553Y1079533D01*
X744187D01*
X744220Y1079500D01*
X693520Y1026266D02*
X693573Y1026213D01*
X744167D01*
X744220Y1026160D01*
X693520Y972966D02*
X693593Y972893D01*
X744147D01*
X744220Y972820D01*
X693520Y722795D02*
X693613Y722888D01*
X744128D01*
X744220Y722980D01*
X693520Y776095D02*
X693563Y776138D01*
X744177D01*
X744220Y776181D01*
X693520Y829394D02*
X693606Y829308D01*
X744134D01*
X744220Y829222D01*
X693520Y882694D02*
X693855Y883029D01*
X593335Y722795D02*
X605519D01*
X544196Y673655D02*
X593335Y722795D01*
X593214Y776095D02*
X605519D01*
X544196Y724455D02*
Y726774D01*
X548020Y730599D01*
Y730900D01*
X593214Y776095D01*
X593134Y882694D02*
X605519D01*
X545835Y782055D02*
X593174Y829394D01*
X544196Y775255D02*
X545835Y776895D01*
X593174Y829394D02*
X605519D01*
X545835Y776895D02*
Y782055D01*
X544301Y982265D02*
X561518D01*
X605519Y1026266D01*
X556519Y1083865D02*
X605519Y1132866D01*
X544301Y1083865D02*
X556519D01*
X544301Y1033065D02*
X545900Y1034665D01*
X560618D01*
X605519Y1079566D01*
X1118439Y708660D02*
X1158240D01*
X1096059Y686280D02*
X1118439Y708660D01*
X1115939Y759460D02*
X1158240D01*
X1096059Y739580D02*
X1115939Y759460D01*
X1113439Y810260D02*
X1158240D01*
X1096059Y792880D02*
X1113439Y810260D01*
X1096059Y846180D02*
X1110939Y861060D01*
X1158240D01*
X1118374Y967740D02*
X1158240D01*
X1096302Y945668D02*
X1118374Y967740D01*
X1115874Y1018540D02*
X1158240D01*
X1096302Y998968D02*
X1115874Y1018540D01*
X1113374Y1069340D02*
X1158240D01*
X1096302Y1052268D02*
X1113374Y1069340D01*
X1110874Y1120140D02*
X1158240D01*
X1096302Y1105568D02*
X1110874Y1120140D01*
X1357770Y742975D02*
X1408770D01*
X1232830D02*
X1283830D01*
X1357770Y872937D02*
X1408770D01*
X1232830D02*
X1283830D01*
X1357770Y1002003D02*
X1408770D01*
X1232830D02*
X1283830D01*
X1357770Y1131811D02*
X1408770D01*
X1232830D02*
X1283830D01*
X1077572Y1132228D02*
X1096302D01*
X1054100Y1155700D02*
X1077572Y1132228D01*
X1077532Y1078928D02*
X1096302D01*
X1054100Y1102360D02*
X1077532Y1078928D01*
X1077492Y1025628D02*
X1096302D01*
X1054100Y1049020D02*
X1077492Y1025628D01*
X1077452Y972328D02*
X1096302D01*
X1054100Y995680D02*
X1077452Y972328D01*
X1077880Y872840D02*
X1096059D01*
X1054100Y896620D02*
X1077880Y872840D01*
X1077840Y819540D02*
X1096059D01*
X1054100Y843280D02*
X1077840Y819540D01*
X1054100Y736600D02*
Y789940D01*
X1077800Y766240D02*
X1096059D01*
X1054100Y789940D02*
X1077800Y766240D01*
X1077760Y712940D02*
X1096059D01*
X1054100Y736600D02*
X1077760Y712940D01*
X605519Y696134D02*
X622474D01*
X650414Y724074D02*
Y774874D01*
X622474Y696134D02*
X650414Y724074D01*
X605519Y749435D02*
X624975D01*
X650414Y774874D01*
X605519Y802735D02*
X624935D01*
X650414Y828214D01*
X605519Y856034D02*
X624894D01*
X650414Y881554D01*
X605519Y1106206D02*
X623606D01*
X650414Y1133014D01*
X605519Y1052906D02*
X621280D01*
X650414Y1082040D01*
X605519Y999606D02*
X626400D01*
X650414Y1023620D01*
X605519Y946306D02*
X626440D01*
X650414Y970280D01*
D32*
X508000Y887651D02*
X544196Y851455D01*
X508000Y817880D02*
Y873760D01*
X466127Y884770D02*
X496990D01*
X508000Y873760D01*
Y817880D02*
X525225Y800655D01*
X489600Y1025600D02*
X508000Y1007200D01*
Y887651D02*
Y1007200D01*
X430670Y1048865D02*
X453935Y1025600D01*
X489600D01*
X525225Y800655D02*
X544196D01*
X431572Y919325D02*
X466127Y884770D01*
X490300Y645160D02*
X544196Y699055D01*
X448295Y645160D02*
X490300D01*
X430670Y791055D02*
X450572Y771154D01*
X522897D01*
X544196Y749855D01*
X430670Y662785D02*
X448295Y645160D01*
D33*
X1020666Y1206915D02*
X1160366D01*
X1209040Y1158240D02*
X1308100D01*
X1160366Y1206915D02*
X1209040Y1158240D01*
X1320800Y1115060D02*
Y1145540D01*
Y1084580D02*
Y1115060D01*
Y985520D02*
Y1084580D01*
Y960120D02*
Y985520D01*
Y855980D02*
Y956473D01*
Y825500D02*
Y855980D01*
X1308100Y1158240D02*
X1320800Y1145540D01*
X393700Y1109980D02*
Y1147824D01*
Y1084580D02*
Y1109980D01*
Y980440D02*
Y1084580D01*
Y957580D02*
Y980440D01*
Y853440D02*
Y956295D01*
Y825500D02*
Y853440D01*
X404115Y1158240D02*
X505460D01*
X393700Y1147824D02*
X404115Y1158240D01*
X554134Y1206915D02*
X681134D01*
X505460Y1158240D02*
X554134Y1206915D01*
X1054100Y1155700D02*
Y1173480D01*
Y1102360D02*
Y1155700D01*
Y1049020D02*
Y1102360D01*
Y995680D02*
Y1049020D01*
Y896620D02*
Y995680D01*
Y843280D02*
Y896620D01*
Y789940D02*
Y843280D01*
X1020666Y1206915D02*
X1054100Y1173480D01*
X650414Y774874D02*
Y828214D01*
Y881554D01*
Y970280D01*
Y1133014D02*
Y1176194D01*
Y1082040D02*
Y1133014D01*
Y1023620D02*
Y1082040D01*
Y970280D02*
Y1023620D01*
Y1176194D02*
X681134Y1206915D01*
X844500D01*
X869900D01*
X1020666D01*
D34*
X1318893Y731520D02*
Y825500D01*
X393700Y699755D02*
Y825500D01*
D35*
X899160Y419760D02*
D03*
X924560D02*
D03*
X949960D02*
D03*
X975360D02*
D03*
X1000760D02*
D03*
X1026160D02*
D03*
X1051560D02*
D03*
X1076960D02*
D03*
Y340360D02*
D03*
X1051560D02*
D03*
X1026160D02*
D03*
X1000760D02*
D03*
X975360D02*
D03*
X949960D02*
D03*
X924560D02*
D03*
X650240Y419760D02*
D03*
X675640D02*
D03*
X701040D02*
D03*
X726440D02*
D03*
X751840D02*
D03*
X777240D02*
D03*
X802640D02*
D03*
X828040D02*
D03*
Y340360D02*
D03*
X802640D02*
D03*
X777240D02*
D03*
X751840D02*
D03*
X726440D02*
D03*
X701040D02*
D03*
X675640D02*
D03*
X998596Y553838D02*
D03*
X1023996D02*
D03*
X1049396D02*
D03*
X1074796D02*
D03*
X1100196D02*
D03*
X1125596D02*
D03*
X1150996D02*
D03*
Y474438D02*
D03*
X1125596D02*
D03*
X1100196D02*
D03*
X1074796D02*
D03*
X1049396D02*
D03*
X1023996D02*
D03*
X786158Y553838D02*
D03*
X811558D02*
D03*
X836958D02*
D03*
X862358D02*
D03*
X887758D02*
D03*
X913158D02*
D03*
X938558D02*
D03*
Y474438D02*
D03*
X913158D02*
D03*
X887758D02*
D03*
X862358D02*
D03*
X836958D02*
D03*
X811558D02*
D03*
X573876Y553838D02*
D03*
X599276D02*
D03*
X624676D02*
D03*
X650076D02*
D03*
X675476D02*
D03*
X700876D02*
D03*
X726276D02*
D03*
Y474438D02*
D03*
X700876D02*
D03*
X675476D02*
D03*
X650076D02*
D03*
X624676D02*
D03*
X599276D02*
D03*
D36*
X899160Y340360D02*
D03*
X650240D02*
D03*
X998596Y474438D02*
D03*
X786158D02*
D03*
X573876D02*
D03*
D37*
X1315223Y501412D02*
D03*
Y387112D02*
D03*
X407059Y502458D02*
D03*
Y388158D02*
D03*
D38*
X1284722Y521762D02*
D03*
Y366762D02*
D03*
X437559Y522808D02*
D03*
Y367808D02*
D03*
D39*
X1226323Y488712D02*
D03*
X1251723Y476012D02*
D03*
X1226323Y463312D02*
D03*
X1251723Y450612D02*
D03*
X1226323Y437912D02*
D03*
X1251723Y425212D02*
D03*
X1226323Y412512D02*
D03*
X495959Y477058D02*
D03*
X470559Y464358D02*
D03*
X495959Y451658D02*
D03*
X470559Y438958D02*
D03*
X495959Y426258D02*
D03*
X470559Y413558D02*
D03*
X495959Y400858D02*
D03*
D40*
X1251723Y399812D02*
D03*
X470559Y489758D02*
D03*
D41*
X1419860Y607060D02*
D03*
X307340D02*
D03*
X863600Y896620D02*
D03*
D42*
X544196Y851455D02*
D03*
Y826055D02*
D03*
Y800655D02*
D03*
Y775255D02*
D03*
Y749855D02*
D03*
Y724455D02*
D03*
Y699055D02*
D03*
Y673655D02*
D03*
X1158240Y1120140D02*
D03*
Y1094740D02*
D03*
Y1069340D02*
D03*
Y1043940D02*
D03*
Y1018540D02*
D03*
Y993140D02*
D03*
Y967740D02*
D03*
Y942340D02*
D03*
Y861060D02*
D03*
Y835660D02*
D03*
Y810260D02*
D03*
Y784860D02*
D03*
Y759460D02*
D03*
Y734060D02*
D03*
Y708660D02*
D03*
Y683260D02*
D03*
X544301Y931465D02*
D03*
Y956865D02*
D03*
Y982265D02*
D03*
Y1007665D02*
D03*
Y1033065D02*
D03*
Y1058465D02*
D03*
Y1083865D02*
D03*
Y1109265D02*
D03*
D43*
X1220330Y607060D02*
D03*
X605519Y882694D02*
D03*
X1096302Y945668D02*
D03*
X1096059Y686280D02*
D03*
X605519Y1132866D02*
D03*
D44*
X1361330Y607060D02*
D03*
X605519Y856034D02*
D03*
Y829394D02*
D03*
Y802735D02*
D03*
Y776095D02*
D03*
Y749435D02*
D03*
Y722795D02*
D03*
Y696134D02*
D03*
X693520D02*
D03*
Y722795D02*
D03*
Y749435D02*
D03*
Y776095D02*
D03*
Y802735D02*
D03*
Y829394D02*
D03*
Y856034D02*
D03*
Y882694D02*
D03*
X1096302Y972328D02*
D03*
Y998968D02*
D03*
Y1025628D02*
D03*
Y1052268D02*
D03*
Y1078928D02*
D03*
Y1105568D02*
D03*
Y1132228D02*
D03*
X1008302D02*
D03*
Y1105568D02*
D03*
Y1078928D02*
D03*
Y1052268D02*
D03*
Y1025628D02*
D03*
Y998968D02*
D03*
Y972328D02*
D03*
Y945668D02*
D03*
X1096059Y712940D02*
D03*
Y739580D02*
D03*
Y766240D02*
D03*
Y792880D02*
D03*
Y819540D02*
D03*
Y846180D02*
D03*
Y872840D02*
D03*
X1008058D02*
D03*
Y846180D02*
D03*
Y819540D02*
D03*
Y792880D02*
D03*
Y766240D02*
D03*
Y739580D02*
D03*
Y712940D02*
D03*
Y686280D02*
D03*
X605519Y1106206D02*
D03*
Y1079566D02*
D03*
Y1052906D02*
D03*
Y1026266D02*
D03*
Y999606D02*
D03*
Y972966D02*
D03*
Y946306D02*
D03*
X693520D02*
D03*
Y972966D02*
D03*
Y999606D02*
D03*
Y1026266D02*
D03*
Y1052906D02*
D03*
Y1079566D02*
D03*
Y1106206D02*
D03*
Y1132866D02*
D03*
D45*
X304509Y297571D02*
D03*
X1290773Y297809D02*
D03*
D46*
X329909Y297571D02*
D03*
X355309D02*
D03*
X380709D02*
D03*
X406109D02*
D03*
X431509D02*
D03*
X1316173Y297809D02*
D03*
X1341573D02*
D03*
X1366973D02*
D03*
X1392373D02*
D03*
X1417773D02*
D03*
D47*
X957580Y685800D02*
D03*
X932180D02*
D03*
X957580Y739140D02*
D03*
X932180D02*
D03*
X957580Y792480D02*
D03*
X932180D02*
D03*
X957580Y845820D02*
D03*
X932180D02*
D03*
X957580Y1104900D02*
D03*
X932180D02*
D03*
X957580Y1051560D02*
D03*
X932180D02*
D03*
X957580Y998220D02*
D03*
X932180D02*
D03*
X957580Y944880D02*
D03*
X932180D02*
D03*
X744220Y883364D02*
D03*
X769620D02*
D03*
X744220Y829222D02*
D03*
X769620D02*
D03*
X744220Y776181D02*
D03*
X769620D02*
D03*
X744220Y722980D02*
D03*
X769620D02*
D03*
X744220Y972820D02*
D03*
X769620D02*
D03*
X744220Y1079500D02*
D03*
X769620D02*
D03*
X744220Y1026160D02*
D03*
X769620D02*
D03*
X744220Y1132840D02*
D03*
X769620D02*
D03*
D48*
X1357770Y660475D02*
D03*
X1232830D02*
D03*
Y790437D02*
D03*
X1357770Y790438D02*
D03*
Y919503D02*
D03*
Y1049311D02*
D03*
X1232830Y919503D02*
D03*
Y1049311D02*
D03*
X430670Y662785D02*
D03*
Y791055D02*
D03*
Y1048865D02*
D03*
X431572Y919325D02*
D03*
X305730Y662785D02*
D03*
Y791055D02*
D03*
Y919325D02*
D03*
Y1048865D02*
D03*
D49*
X1408770Y660475D02*
D03*
Y742975D02*
D03*
X1357770D02*
D03*
X1283830Y660475D02*
D03*
Y742975D02*
D03*
X1232830D02*
D03*
X1283830Y790437D02*
D03*
Y872937D02*
D03*
X1232830D02*
D03*
X1408770Y790438D02*
D03*
Y872937D02*
D03*
X1357770D02*
D03*
X1408770Y919503D02*
D03*
Y1002003D02*
D03*
X1357770D02*
D03*
X1408770Y1049311D02*
D03*
Y1131811D02*
D03*
X1357770D02*
D03*
X1283830Y919503D02*
D03*
Y1002003D02*
D03*
X1232830D02*
D03*
X1283830Y1049311D02*
D03*
Y1131811D02*
D03*
X1232830D02*
D03*
X481670Y662785D02*
D03*
Y745285D02*
D03*
X430670D02*
D03*
X481670Y791055D02*
D03*
Y873555D02*
D03*
X430670D02*
D03*
X481670Y1048865D02*
D03*
Y1131365D02*
D03*
X430670D02*
D03*
X482572Y919325D02*
D03*
Y1001825D02*
D03*
X431572D02*
D03*
X356730Y662785D02*
D03*
Y745285D02*
D03*
X305730D02*
D03*
X356730Y791055D02*
D03*
Y873555D02*
D03*
X305730D02*
D03*
X356730Y919325D02*
D03*
Y1001825D02*
D03*
X305730D02*
D03*
X356730Y1048865D02*
D03*
Y1131365D02*
D03*
X305730D02*
D03*
D50*
X869900Y1206915D02*
D03*
X1257300Y1206500D02*
D03*
X1282700D02*
D03*
X1308100D02*
D03*
X1333500D02*
D03*
X1358900D02*
D03*
X1384300D02*
D03*
X1409700D02*
D03*
X330200D02*
D03*
X355600D02*
D03*
X381000D02*
D03*
X406400D02*
D03*
X431800D02*
D03*
X457200D02*
D03*
X482600D02*
D03*
D51*
X844500Y1206915D02*
D03*
X1231900Y1206500D02*
D03*
X304800D02*
D03*
D52*
X1097280Y612140D02*
D03*
X1071880D02*
D03*
X1046480D02*
D03*
X1021080D02*
D03*
X995680D02*
D03*
X970280D02*
D03*
X944880D02*
D03*
X919480D02*
D03*
X894080D02*
D03*
X604520D02*
D03*
X629920D02*
D03*
X655320D02*
D03*
X680720D02*
D03*
X706120D02*
D03*
X731520D02*
D03*
X756920D02*
D03*
X782320D02*
D03*
X807720D02*
D03*
M02*
