G04*
G04 #@! TF.GenerationSoftware,Altium Limited,Altium Designer,23.7.1 (13)*
G04*
G04 Layer_Color=8388736*
%FSLAX44Y44*%
%MOMM*%
G71*
G04*
G04 #@! TF.SameCoordinates,841DD010-D86F-4994-8322-40CE1CBCD204*
G04*
G04*
G04 #@! TF.FilePolarity,Negative*
G04*
G01*
G75*
%ADD13C,4.2032*%
%ADD14C,1.5682*%
%ADD15R,1.6032X1.6032*%
%ADD16C,1.6032*%
%ADD17C,2.7532*%
%ADD18C,1.8032*%
%ADD19R,1.4032X1.4032*%
%ADD20C,1.4032*%
%ADD21R,1.9282X1.9282*%
%ADD22C,1.9282*%
%ADD23R,1.3332X1.3332*%
%ADD24C,1.3332*%
%ADD25C,1.7272*%
%ADD26R,1.3032X1.3032*%
%ADD27C,1.3032*%
%ADD28C,1.9812*%
%ADD29R,1.9812X1.9812*%
%ADD30C,1.6002*%
D13*
X1419860Y607060D02*
D03*
X307340D02*
D03*
X863600Y896620D02*
D03*
D14*
X544196Y851455D02*
D03*
Y826055D02*
D03*
Y800655D02*
D03*
Y775255D02*
D03*
Y749855D02*
D03*
Y724455D02*
D03*
Y699055D02*
D03*
Y673655D02*
D03*
X1158240Y1120140D02*
D03*
Y1094740D02*
D03*
Y1069340D02*
D03*
Y1043940D02*
D03*
Y1018540D02*
D03*
Y993140D02*
D03*
Y967740D02*
D03*
Y942340D02*
D03*
Y861060D02*
D03*
Y835660D02*
D03*
Y810260D02*
D03*
Y784860D02*
D03*
Y759460D02*
D03*
Y734060D02*
D03*
Y708660D02*
D03*
Y683260D02*
D03*
X544301Y931465D02*
D03*
Y956865D02*
D03*
Y982265D02*
D03*
Y1007665D02*
D03*
Y1033065D02*
D03*
Y1058465D02*
D03*
Y1083865D02*
D03*
Y1109265D02*
D03*
D15*
X1251723Y399812D02*
D03*
X470559Y489758D02*
D03*
D16*
X1226323Y412512D02*
D03*
X1251723Y425212D02*
D03*
X1226323Y437912D02*
D03*
X1251723Y450612D02*
D03*
X1226323Y463312D02*
D03*
X1251723Y476012D02*
D03*
X1226323Y488712D02*
D03*
X495959Y477058D02*
D03*
X470559Y464358D02*
D03*
X495959Y451658D02*
D03*
X470559Y438958D02*
D03*
X495959Y426258D02*
D03*
X470559Y413558D02*
D03*
X495959Y400858D02*
D03*
D17*
X1284722Y366762D02*
D03*
Y521762D02*
D03*
X437559Y522808D02*
D03*
Y367808D02*
D03*
D18*
X1315223Y387112D02*
D03*
Y501412D02*
D03*
X407059Y502458D02*
D03*
Y388158D02*
D03*
D19*
X1220330Y607060D02*
D03*
X605519Y882694D02*
D03*
X1096302Y945668D02*
D03*
X1096059Y686280D02*
D03*
X605519Y1132866D02*
D03*
D20*
X1361330Y607060D02*
D03*
X605519Y856034D02*
D03*
Y829394D02*
D03*
Y802735D02*
D03*
Y776095D02*
D03*
Y749435D02*
D03*
Y722795D02*
D03*
Y696134D02*
D03*
X693520D02*
D03*
Y722795D02*
D03*
Y749435D02*
D03*
Y776095D02*
D03*
Y802735D02*
D03*
Y829394D02*
D03*
Y856034D02*
D03*
Y882694D02*
D03*
X1096302Y972328D02*
D03*
Y998968D02*
D03*
Y1025628D02*
D03*
Y1052268D02*
D03*
Y1078928D02*
D03*
Y1105568D02*
D03*
Y1132228D02*
D03*
X1008302D02*
D03*
Y1105568D02*
D03*
Y1078928D02*
D03*
Y1052268D02*
D03*
Y1025628D02*
D03*
Y998968D02*
D03*
Y972328D02*
D03*
Y945668D02*
D03*
X1096059Y712940D02*
D03*
Y739580D02*
D03*
Y766240D02*
D03*
Y792880D02*
D03*
Y819540D02*
D03*
Y846180D02*
D03*
Y872840D02*
D03*
X1008058D02*
D03*
Y846180D02*
D03*
Y819540D02*
D03*
Y792880D02*
D03*
Y766240D02*
D03*
Y739580D02*
D03*
Y712940D02*
D03*
Y686280D02*
D03*
X605519Y1106206D02*
D03*
Y1079566D02*
D03*
Y1052906D02*
D03*
Y1026266D02*
D03*
Y999606D02*
D03*
Y972966D02*
D03*
Y946306D02*
D03*
X693520D02*
D03*
Y972966D02*
D03*
Y999606D02*
D03*
Y1026266D02*
D03*
Y1052906D02*
D03*
Y1079566D02*
D03*
Y1106206D02*
D03*
Y1132866D02*
D03*
D21*
X304509Y297571D02*
D03*
X1290773Y297809D02*
D03*
D22*
X329909Y297571D02*
D03*
X355309D02*
D03*
X380709D02*
D03*
X406109D02*
D03*
X431509D02*
D03*
X1316173Y297809D02*
D03*
X1341573D02*
D03*
X1366973D02*
D03*
X1392373D02*
D03*
X1417773D02*
D03*
D23*
X898941Y339700D02*
D03*
X645160D02*
D03*
X998596Y474438D02*
D03*
X786158D02*
D03*
X573876D02*
D03*
D24*
X924341Y339700D02*
D03*
X949741D02*
D03*
X975141D02*
D03*
X1000540D02*
D03*
X1025940D02*
D03*
X1051340D02*
D03*
X1076740D02*
D03*
Y419100D02*
D03*
X1051340D02*
D03*
X1025940D02*
D03*
X1000540D02*
D03*
X975141D02*
D03*
X949741D02*
D03*
X924341D02*
D03*
X898941D02*
D03*
X670560Y339700D02*
D03*
X695960D02*
D03*
X721360D02*
D03*
X746760D02*
D03*
X772160D02*
D03*
X797560D02*
D03*
X822960D02*
D03*
Y419100D02*
D03*
X797560D02*
D03*
X772160D02*
D03*
X746760D02*
D03*
X721360D02*
D03*
X695960D02*
D03*
X670560D02*
D03*
X645160D02*
D03*
X998596Y553838D02*
D03*
X1023996D02*
D03*
X1049396D02*
D03*
X1074796D02*
D03*
X1100196D02*
D03*
X1125596D02*
D03*
X1150996D02*
D03*
Y474438D02*
D03*
X1125596D02*
D03*
X1100196D02*
D03*
X1074796D02*
D03*
X1049396D02*
D03*
X1023996D02*
D03*
X786158Y553838D02*
D03*
X811558D02*
D03*
X836958D02*
D03*
X862358D02*
D03*
X887758D02*
D03*
X913158D02*
D03*
X938558D02*
D03*
Y474438D02*
D03*
X913158D02*
D03*
X887758D02*
D03*
X862358D02*
D03*
X836958D02*
D03*
X811558D02*
D03*
X573876Y553838D02*
D03*
X599276D02*
D03*
X624676D02*
D03*
X650076D02*
D03*
X675476D02*
D03*
X700876D02*
D03*
X726276D02*
D03*
Y474438D02*
D03*
X700876D02*
D03*
X675476D02*
D03*
X650076D02*
D03*
X624676D02*
D03*
X599276D02*
D03*
D25*
X957580Y685800D02*
D03*
X932180D02*
D03*
X957580Y739140D02*
D03*
X932180D02*
D03*
X957580Y792480D02*
D03*
X932180D02*
D03*
X957580Y845820D02*
D03*
X932180D02*
D03*
X957580Y1104900D02*
D03*
X932180D02*
D03*
X957580Y1051560D02*
D03*
X932180D02*
D03*
X957580Y998220D02*
D03*
X932180D02*
D03*
X957580Y944880D02*
D03*
X932180D02*
D03*
X744220Y883364D02*
D03*
X769620D02*
D03*
X744220Y829222D02*
D03*
X769620D02*
D03*
X744220Y776181D02*
D03*
X769620D02*
D03*
X744220Y722980D02*
D03*
X769620D02*
D03*
X744220Y972820D02*
D03*
X769620D02*
D03*
X744220Y1079500D02*
D03*
X769620D02*
D03*
X744220Y1026160D02*
D03*
X769620D02*
D03*
X744220Y1132840D02*
D03*
X769620D02*
D03*
D26*
X1357770Y660475D02*
D03*
X1232830D02*
D03*
Y790437D02*
D03*
X1357770Y790438D02*
D03*
Y919503D02*
D03*
Y1049311D02*
D03*
X1232830Y919503D02*
D03*
Y1049311D02*
D03*
X430670Y662785D02*
D03*
Y791055D02*
D03*
Y1048865D02*
D03*
X431572Y919325D02*
D03*
X305730Y662785D02*
D03*
Y791055D02*
D03*
Y919325D02*
D03*
Y1048865D02*
D03*
D27*
X1408770Y660475D02*
D03*
Y742975D02*
D03*
X1357770D02*
D03*
X1283830Y660475D02*
D03*
Y742975D02*
D03*
X1232830D02*
D03*
X1283830Y790437D02*
D03*
Y872937D02*
D03*
X1232830D02*
D03*
X1408770Y790438D02*
D03*
Y872937D02*
D03*
X1357770D02*
D03*
X1408770Y919503D02*
D03*
Y1002003D02*
D03*
X1357770D02*
D03*
X1408770Y1049311D02*
D03*
Y1131811D02*
D03*
X1357770D02*
D03*
X1283830Y919503D02*
D03*
Y1002003D02*
D03*
X1232830D02*
D03*
X1283830Y1049311D02*
D03*
Y1131811D02*
D03*
X1232830D02*
D03*
X481670Y662785D02*
D03*
Y745285D02*
D03*
X430670D02*
D03*
X481670Y791055D02*
D03*
Y873555D02*
D03*
X430670D02*
D03*
X481670Y1048865D02*
D03*
Y1131365D02*
D03*
X430670D02*
D03*
X482572Y919325D02*
D03*
Y1001825D02*
D03*
X431572D02*
D03*
X356730Y662785D02*
D03*
Y745285D02*
D03*
X305730D02*
D03*
X356730Y791055D02*
D03*
Y873555D02*
D03*
X305730D02*
D03*
X356730Y919325D02*
D03*
Y1001825D02*
D03*
X305730D02*
D03*
X356730Y1048865D02*
D03*
Y1131365D02*
D03*
X305730D02*
D03*
D28*
X869900Y1206915D02*
D03*
X1257300Y1206500D02*
D03*
X1282700D02*
D03*
X1308100D02*
D03*
X1333500D02*
D03*
X1358900D02*
D03*
X1384300D02*
D03*
X1409700D02*
D03*
X330200D02*
D03*
X355600D02*
D03*
X381000D02*
D03*
X406400D02*
D03*
X431800D02*
D03*
X457200D02*
D03*
X482600D02*
D03*
D29*
X844500Y1206915D02*
D03*
X1231900Y1206500D02*
D03*
X304800D02*
D03*
D30*
X1097280Y612140D02*
D03*
X1071880D02*
D03*
X1046480D02*
D03*
X1021080D02*
D03*
X995680D02*
D03*
X970280D02*
D03*
X944880D02*
D03*
X919480D02*
D03*
X894080D02*
D03*
X604520D02*
D03*
X629920D02*
D03*
X655320D02*
D03*
X680720D02*
D03*
X706120D02*
D03*
X731520D02*
D03*
X756920D02*
D03*
X782320D02*
D03*
X807720D02*
D03*
M02*
