G04*
G04 #@! TF.GenerationSoftware,Altium Limited,Altium Designer,23.7.1 (13)*
G04*
G04 Layer_Physical_Order=3*
G04 Layer_Color=16440176*
%FSLAX44Y44*%
%MOMM*%
G71*
G04*
G04 #@! TF.SameCoordinates,93FF3AC7-ECDF-4BF0-B63B-3C63AFF3D3F3*
G04*
G04*
G04 #@! TF.FilePolarity,Positive*
G04*
G01*
G75*
%ADD32C,0.5080*%
%ADD34C,1.3650*%
%ADD35R,1.4000X1.4000*%
%ADD36C,1.4000*%
%ADD37C,2.5500*%
%ADD38C,1.6000*%
%ADD39R,1.2000X1.2000*%
%ADD40C,1.2000*%
%ADD41R,1.7250X1.7250*%
%ADD42C,1.7250*%
%ADD43R,1.1300X1.1300*%
%ADD44C,1.1300*%
%ADD45C,1.5240*%
%ADD46R,1.1000X1.1000*%
%ADD47C,1.1000*%
%ADD48C,1.7780*%
%ADD49R,1.7780X1.7780*%
%ADD50C,1.3970*%
G36*
X1473200Y254000D02*
X254000D01*
Y1270000D01*
X1473200D01*
Y254000D01*
D02*
G37*
%LPC*%
G36*
X1411205Y1217930D02*
X1408195D01*
X1405288Y1217151D01*
X1402682Y1215646D01*
X1400554Y1213518D01*
X1399049Y1210912D01*
X1398270Y1208005D01*
Y1204995D01*
X1398564Y1203897D01*
X1397426Y1203239D01*
X1395717Y1204948D01*
X1395730Y1204995D01*
Y1208005D01*
X1394951Y1210912D01*
X1393446Y1213518D01*
X1391318Y1215646D01*
X1388712Y1217151D01*
X1385805Y1217930D01*
X1382795D01*
X1379888Y1217151D01*
X1377282Y1215646D01*
X1375154Y1213518D01*
X1373649Y1210912D01*
X1372870Y1208005D01*
Y1204995D01*
X1373649Y1202088D01*
X1375154Y1199482D01*
X1377282Y1197354D01*
X1379888Y1195849D01*
X1382795Y1195070D01*
X1385805D01*
X1388712Y1195849D01*
X1389634Y1196381D01*
X1419760Y1166255D01*
Y859753D01*
X1358485Y798478D01*
X1349730D01*
Y782398D01*
X1365810D01*
Y791153D01*
X1428602Y853945D01*
X1428602Y853945D01*
X1429725Y855626D01*
X1430119Y857608D01*
Y1168400D01*
X1429725Y1170382D01*
X1428602Y1172063D01*
X1406439Y1194226D01*
X1407097Y1195364D01*
X1408195Y1195070D01*
X1411205D01*
X1414112Y1195849D01*
X1415034Y1196381D01*
X1445161Y1166255D01*
Y755190D01*
X1358485Y668515D01*
X1349730D01*
Y652435D01*
X1365810D01*
Y661190D01*
X1454003Y749382D01*
X1455125Y751063D01*
X1455520Y753045D01*
Y1168400D01*
X1455125Y1170382D01*
X1454003Y1172063D01*
X1421117Y1204948D01*
X1421130Y1204995D01*
Y1208005D01*
X1420351Y1210912D01*
X1418846Y1213518D01*
X1416718Y1215646D01*
X1414112Y1217151D01*
X1411205Y1217930D01*
D02*
G37*
G36*
X1335005D02*
X1331995D01*
X1329088Y1217151D01*
X1326482Y1215646D01*
X1324354Y1213518D01*
X1322849Y1210912D01*
X1322070Y1208005D01*
Y1204995D01*
X1322849Y1202088D01*
X1322956Y1201903D01*
X1321922Y1201182D01*
X1319230Y1203875D01*
X1319530Y1204995D01*
Y1208005D01*
X1318751Y1210912D01*
X1317246Y1213518D01*
X1315118Y1215646D01*
X1312512Y1217151D01*
X1309605Y1217930D01*
X1306595D01*
X1303688Y1217151D01*
X1301082Y1215646D01*
X1298954Y1213518D01*
X1297449Y1210912D01*
X1296670Y1208005D01*
Y1204995D01*
X1297449Y1202088D01*
X1297498Y1202003D01*
X1296482Y1201223D01*
X1293830Y1203875D01*
X1294130Y1204995D01*
Y1208005D01*
X1293351Y1210912D01*
X1291846Y1213518D01*
X1289718Y1215646D01*
X1287112Y1217151D01*
X1284205Y1217930D01*
X1281195D01*
X1278288Y1217151D01*
X1275682Y1215646D01*
X1273554Y1213518D01*
X1272049Y1210912D01*
X1271270Y1208005D01*
Y1204995D01*
X1272049Y1202088D01*
X1272156Y1201903D01*
X1271123Y1201182D01*
X1268430Y1203875D01*
X1268730Y1204995D01*
Y1208005D01*
X1267951Y1210912D01*
X1266446Y1213518D01*
X1264318Y1215646D01*
X1261712Y1217151D01*
X1258805Y1217930D01*
X1255795D01*
X1252888Y1217151D01*
X1250282Y1215646D01*
X1248154Y1213518D01*
X1246649Y1210912D01*
X1245870Y1208005D01*
Y1204995D01*
X1246649Y1202088D01*
X1247171Y1201184D01*
X1246154Y1200405D01*
X1243330Y1203229D01*
Y1217930D01*
X1220470D01*
Y1195070D01*
X1236839D01*
X1238231Y1193678D01*
Y1139444D01*
X1236961Y1138710D01*
X1235934Y1139303D01*
X1233889Y1139851D01*
X1231772D01*
X1229727Y1139303D01*
X1227894Y1138245D01*
X1226397Y1136748D01*
X1225338Y1134915D01*
X1224790Y1132870D01*
Y1130753D01*
X1225338Y1128708D01*
X1226397Y1126875D01*
X1227894Y1125378D01*
X1229727Y1124319D01*
X1231772Y1123771D01*
X1233889D01*
X1235934Y1124319D01*
X1236961Y1124912D01*
X1238231Y1124179D01*
Y1062037D01*
X1233545Y1057351D01*
X1224790D01*
Y1041271D01*
X1240870D01*
Y1050026D01*
X1247073Y1056229D01*
X1247073Y1056229D01*
X1248195Y1057909D01*
X1248590Y1059891D01*
X1248590Y1059891D01*
Y1195824D01*
X1248236Y1197604D01*
X1248735Y1198077D01*
X1249283Y1198352D01*
X1250282Y1197354D01*
X1252888Y1195849D01*
X1255795Y1195070D01*
X1258805D01*
X1261144Y1195697D01*
X1262224Y1194851D01*
X1262281Y1194740D01*
Y956278D01*
X1233545Y927543D01*
X1224790D01*
Y911463D01*
X1240870D01*
Y920218D01*
X1271122Y950470D01*
X1271123Y950470D01*
X1272245Y952151D01*
X1272639Y954133D01*
Y1197520D01*
X1272334Y1199054D01*
X1273539Y1199507D01*
X1273554Y1199482D01*
X1275682Y1197354D01*
X1278288Y1195849D01*
X1281195Y1195070D01*
X1284205D01*
X1287112Y1195849D01*
X1287171Y1195883D01*
X1289231Y1193824D01*
Y1139444D01*
X1287961Y1138710D01*
X1286934Y1139303D01*
X1284889Y1139851D01*
X1282772D01*
X1280727Y1139303D01*
X1278894Y1138245D01*
X1277397Y1136748D01*
X1276338Y1134915D01*
X1275790Y1132870D01*
Y1130753D01*
X1276338Y1128708D01*
X1277397Y1126875D01*
X1278894Y1125378D01*
X1280727Y1124319D01*
X1282772Y1123771D01*
X1284889D01*
X1286934Y1124319D01*
X1287961Y1124912D01*
X1289231Y1124179D01*
Y1056943D01*
X1287961Y1056210D01*
X1286934Y1056803D01*
X1284889Y1057351D01*
X1282772D01*
X1280727Y1056803D01*
X1278894Y1055745D01*
X1277397Y1054248D01*
X1276338Y1052414D01*
X1275790Y1050370D01*
Y1048253D01*
X1276338Y1046208D01*
X1277397Y1044374D01*
X1278894Y1042878D01*
X1280727Y1041819D01*
X1282772Y1041271D01*
X1284889D01*
X1286934Y1041819D01*
X1287961Y1042412D01*
X1289231Y1041679D01*
Y1009635D01*
X1287961Y1008902D01*
X1286934Y1009495D01*
X1284889Y1010043D01*
X1282772D01*
X1280727Y1009495D01*
X1278894Y1008436D01*
X1277397Y1006939D01*
X1276338Y1005106D01*
X1275790Y1003061D01*
Y1000944D01*
X1276338Y998899D01*
X1277397Y997066D01*
X1278894Y995569D01*
X1280727Y994510D01*
X1282772Y993963D01*
X1284889D01*
X1286934Y994510D01*
X1287961Y995104D01*
X1289231Y994370D01*
Y927135D01*
X1287961Y926402D01*
X1286934Y926995D01*
X1284889Y927543D01*
X1282772D01*
X1280727Y926995D01*
X1278894Y925937D01*
X1277397Y924439D01*
X1276338Y922606D01*
X1275790Y920561D01*
Y918444D01*
X1276338Y916400D01*
X1277397Y914566D01*
X1278894Y913069D01*
X1280727Y912011D01*
X1282772Y911463D01*
X1284889D01*
X1286934Y912011D01*
X1287961Y912604D01*
X1289231Y911871D01*
Y880570D01*
X1287961Y879837D01*
X1286934Y880430D01*
X1284889Y880977D01*
X1282772D01*
X1280727Y880430D01*
X1278894Y879371D01*
X1277397Y877874D01*
X1276338Y876041D01*
X1275790Y873996D01*
Y871879D01*
X1276338Y869834D01*
X1277397Y868001D01*
X1278894Y866504D01*
X1280727Y865445D01*
X1282772Y864898D01*
X1284889D01*
X1286411Y865305D01*
X1287681Y864540D01*
Y852613D01*
X1233545Y798477D01*
X1224790D01*
Y782397D01*
X1240870D01*
Y791152D01*
X1296523Y846805D01*
X1297645Y848485D01*
X1298040Y850467D01*
Y864859D01*
X1298072Y864892D01*
X1298073Y864892D01*
X1298073Y864893D01*
X1298643Y865745D01*
X1299195Y866572D01*
X1299195Y866572D01*
X1299196Y866573D01*
X1299394Y867568D01*
X1299590Y868554D01*
X1299590Y868555D01*
X1299590Y868555D01*
Y1195970D01*
X1299322Y1197318D01*
X1300492Y1197943D01*
X1301082Y1197354D01*
X1303688Y1195849D01*
X1306595Y1195070D01*
X1309605D01*
X1311944Y1195697D01*
X1313024Y1194851D01*
X1313080Y1194740D01*
Y748051D01*
X1233545Y668515D01*
X1224790D01*
Y652435D01*
X1240870D01*
Y661190D01*
X1321922Y742243D01*
X1323045Y743923D01*
X1323439Y745905D01*
X1323439Y745905D01*
Y1197520D01*
X1323134Y1199054D01*
X1324339Y1199507D01*
X1324354Y1199482D01*
X1326482Y1197354D01*
X1329088Y1195849D01*
X1331995Y1195070D01*
X1335005D01*
X1337056Y1195620D01*
X1366420Y1166255D01*
Y1136118D01*
X1366162Y1135896D01*
X1364535Y1136174D01*
X1364204Y1136748D01*
X1362707Y1138245D01*
X1360874Y1139303D01*
X1358829Y1139851D01*
X1356712D01*
X1354667Y1139303D01*
X1352834Y1138245D01*
X1351337Y1136748D01*
X1350278Y1134915D01*
X1349730Y1132870D01*
Y1130753D01*
X1350278Y1128708D01*
X1351337Y1126875D01*
X1352834Y1125378D01*
X1354667Y1124319D01*
X1356712Y1123771D01*
X1358829D01*
X1360874Y1124319D01*
X1362707Y1125378D01*
X1364204Y1126875D01*
X1364535Y1127449D01*
X1366162Y1127726D01*
X1366420Y1127504D01*
Y1065286D01*
X1358485Y1057351D01*
X1349730D01*
Y1041271D01*
X1365810D01*
Y1050026D01*
X1375262Y1059478D01*
X1376385Y1061159D01*
X1376779Y1063141D01*
Y1168400D01*
X1376385Y1170382D01*
X1375262Y1172063D01*
X1344380Y1202944D01*
X1344930Y1204995D01*
Y1208005D01*
X1344151Y1210912D01*
X1342646Y1213518D01*
X1340518Y1215646D01*
X1337912Y1217151D01*
X1335005Y1217930D01*
D02*
G37*
G36*
X871404Y1218344D02*
X868395D01*
X865488Y1217566D01*
X862881Y1216061D01*
X860753Y1213933D01*
X859249Y1211326D01*
X858470Y1208419D01*
Y1205410D01*
X859249Y1202503D01*
X860753Y1199896D01*
X862881Y1197768D01*
X865488Y1196264D01*
X868395Y1195484D01*
X871404D01*
X874312Y1196264D01*
X876918Y1197768D01*
X879046Y1199896D01*
X880551Y1202503D01*
X881330Y1205410D01*
Y1208419D01*
X880551Y1211326D01*
X879046Y1213933D01*
X876918Y1216061D01*
X874312Y1217566D01*
X871404Y1218344D01*
D02*
G37*
G36*
X855930D02*
X833070D01*
Y1195484D01*
X855930D01*
Y1218344D01*
D02*
G37*
G36*
X484105Y1217930D02*
X481095D01*
X478188Y1217151D01*
X475582Y1215646D01*
X473454Y1213518D01*
X471949Y1210912D01*
X471170Y1208005D01*
Y1204995D01*
X471949Y1202088D01*
X473454Y1199482D01*
X475582Y1197354D01*
X478188Y1195849D01*
X481095Y1195070D01*
X484105D01*
X487012Y1195849D01*
X489618Y1197354D01*
X491746Y1199482D01*
X493251Y1202088D01*
X494030Y1204995D01*
Y1208005D01*
X493251Y1210912D01*
X491746Y1213518D01*
X489618Y1215646D01*
X487012Y1217151D01*
X484105Y1217930D01*
D02*
G37*
G36*
X458705D02*
X455695D01*
X452788Y1217151D01*
X450182Y1215646D01*
X448054Y1213518D01*
X446549Y1210912D01*
X445770Y1208005D01*
Y1204995D01*
X446549Y1202088D01*
X448054Y1199482D01*
X450182Y1197354D01*
X452788Y1195849D01*
X455695Y1195070D01*
X458705D01*
X461612Y1195849D01*
X464218Y1197354D01*
X466346Y1199482D01*
X467851Y1202088D01*
X468630Y1204995D01*
Y1208005D01*
X467851Y1210912D01*
X466346Y1213518D01*
X464218Y1215646D01*
X461612Y1217151D01*
X458705Y1217930D01*
D02*
G37*
G36*
X433305D02*
X430295D01*
X427388Y1217151D01*
X424782Y1215646D01*
X422654Y1213518D01*
X421149Y1210912D01*
X420370Y1208005D01*
Y1204995D01*
X421149Y1202088D01*
X422654Y1199482D01*
X424782Y1197354D01*
X427388Y1195849D01*
X430295Y1195070D01*
X433305D01*
X436212Y1195849D01*
X438818Y1197354D01*
X440946Y1199482D01*
X442451Y1202088D01*
X443230Y1204995D01*
Y1208005D01*
X442451Y1210912D01*
X440946Y1213518D01*
X438818Y1215646D01*
X436212Y1217151D01*
X433305Y1217930D01*
D02*
G37*
G36*
X407905D02*
X404895D01*
X401988Y1217151D01*
X399382Y1215646D01*
X397254Y1213518D01*
X395749Y1210912D01*
X394970Y1208005D01*
Y1204995D01*
X395749Y1202088D01*
X397254Y1199482D01*
X399382Y1197354D01*
X401988Y1195849D01*
X404895Y1195070D01*
X407905D01*
X410812Y1195849D01*
X413418Y1197354D01*
X415546Y1199482D01*
X417051Y1202088D01*
X417830Y1204995D01*
Y1208005D01*
X417051Y1210912D01*
X415546Y1213518D01*
X413418Y1215646D01*
X410812Y1217151D01*
X407905Y1217930D01*
D02*
G37*
G36*
X382505D02*
X379495D01*
X376588Y1217151D01*
X373982Y1215646D01*
X371854Y1213518D01*
X370349Y1210912D01*
X369570Y1208005D01*
Y1204995D01*
X370349Y1202088D01*
X371854Y1199482D01*
X373982Y1197354D01*
X376588Y1195849D01*
X379495Y1195070D01*
X382505D01*
X385412Y1195849D01*
X388018Y1197354D01*
X390146Y1199482D01*
X391651Y1202088D01*
X392430Y1204995D01*
Y1208005D01*
X391651Y1210912D01*
X390146Y1213518D01*
X388018Y1215646D01*
X385412Y1217151D01*
X382505Y1217930D01*
D02*
G37*
G36*
X357105D02*
X354095D01*
X351188Y1217151D01*
X348582Y1215646D01*
X346454Y1213518D01*
X344949Y1210912D01*
X344170Y1208005D01*
Y1204995D01*
X344949Y1202088D01*
X346454Y1199482D01*
X348582Y1197354D01*
X351188Y1195849D01*
X354095Y1195070D01*
X357105D01*
X360012Y1195849D01*
X362618Y1197354D01*
X364746Y1199482D01*
X366251Y1202088D01*
X367030Y1204995D01*
Y1208005D01*
X366251Y1210912D01*
X364746Y1213518D01*
X362618Y1215646D01*
X360012Y1217151D01*
X357105Y1217930D01*
D02*
G37*
G36*
X331705D02*
X328695D01*
X325788Y1217151D01*
X323182Y1215646D01*
X321054Y1213518D01*
X319549Y1210912D01*
X318770Y1208005D01*
Y1204995D01*
X319549Y1202088D01*
X321054Y1199482D01*
X323182Y1197354D01*
X325788Y1195849D01*
X328695Y1195070D01*
X331705D01*
X334612Y1195849D01*
X337218Y1197354D01*
X339346Y1199482D01*
X340851Y1202088D01*
X341630Y1204995D01*
Y1208005D01*
X340851Y1210912D01*
X339346Y1213518D01*
X337218Y1215646D01*
X334612Y1217151D01*
X331705Y1217930D01*
D02*
G37*
G36*
X316230D02*
X293370D01*
Y1195070D01*
X316230D01*
Y1217930D01*
D02*
G37*
G36*
X770958Y1143000D02*
X770890D01*
Y1134110D01*
X779780D01*
Y1134178D01*
X779088Y1136762D01*
X777750Y1139078D01*
X775858Y1140970D01*
X773542Y1142308D01*
X770958Y1143000D01*
D02*
G37*
G36*
X768350D02*
X768282D01*
X765698Y1142308D01*
X763382Y1140970D01*
X761490Y1139078D01*
X760152Y1136762D01*
X759460Y1134178D01*
Y1134110D01*
X768350D01*
Y1143000D01*
D02*
G37*
G36*
X1009572Y1140729D02*
Y1133498D01*
X1016803D01*
X1016260Y1135524D01*
X1015135Y1137471D01*
X1013545Y1139062D01*
X1011598Y1140186D01*
X1009572Y1140729D01*
D02*
G37*
G36*
X1007032D02*
X1005005Y1140186D01*
X1003058Y1139062D01*
X1001468Y1137471D01*
X1000344Y1135524D01*
X999801Y1133498D01*
X1007032D01*
Y1140729D01*
D02*
G37*
G36*
X694644Y1141406D02*
X692395D01*
X690223Y1140824D01*
X688276Y1139700D01*
X686686Y1138110D01*
X685562Y1136162D01*
X684980Y1133990D01*
Y1131742D01*
X685562Y1129570D01*
X686686Y1127622D01*
X688276Y1126032D01*
X690223Y1124908D01*
X692395Y1124326D01*
X694644D01*
X696816Y1124908D01*
X698763Y1126032D01*
X700353Y1127622D01*
X701478Y1129570D01*
X702060Y1131742D01*
Y1133990D01*
X701478Y1136162D01*
X700353Y1138110D01*
X698763Y1139700D01*
X696816Y1140824D01*
X694644Y1141406D01*
D02*
G37*
G36*
X614059D02*
X596979D01*
Y1124326D01*
X614059D01*
Y1141406D01*
D02*
G37*
G36*
X1360405Y1217930D02*
X1357395D01*
X1354488Y1217151D01*
X1351882Y1215646D01*
X1349754Y1213518D01*
X1348249Y1210912D01*
X1347470Y1208005D01*
Y1204995D01*
X1348249Y1202088D01*
X1349754Y1199482D01*
X1351882Y1197354D01*
X1354488Y1195849D01*
X1357395Y1195070D01*
X1360405D01*
X1362455Y1195620D01*
X1391821Y1166255D01*
Y960878D01*
X1358485Y927543D01*
X1349730D01*
Y911463D01*
X1365810D01*
Y920218D01*
X1400662Y955070D01*
X1400663Y955070D01*
X1401785Y956750D01*
X1402180Y958733D01*
X1402180Y958733D01*
Y995427D01*
X1403450Y995953D01*
X1403833Y995569D01*
X1405667Y994510D01*
X1407711Y993963D01*
X1409828D01*
X1411873Y994510D01*
X1413707Y995569D01*
X1415203Y997066D01*
X1416262Y998899D01*
X1416810Y1000944D01*
Y1003061D01*
X1416262Y1005106D01*
X1415203Y1006939D01*
X1413707Y1008436D01*
X1411873Y1009495D01*
X1409828Y1010043D01*
X1407711D01*
X1405667Y1009495D01*
X1403833Y1008436D01*
X1403450Y1008053D01*
X1402180Y1008579D01*
Y1042735D01*
X1403450Y1043261D01*
X1403833Y1042878D01*
X1405667Y1041819D01*
X1407711Y1041271D01*
X1409828D01*
X1411873Y1041819D01*
X1413707Y1042878D01*
X1415203Y1044374D01*
X1416262Y1046208D01*
X1416810Y1048253D01*
Y1050370D01*
X1416262Y1052414D01*
X1415203Y1054248D01*
X1413707Y1055745D01*
X1411873Y1056803D01*
X1409828Y1057351D01*
X1407711D01*
X1405667Y1056803D01*
X1403833Y1055745D01*
X1403450Y1055361D01*
X1402180Y1055887D01*
Y1125235D01*
X1403450Y1125761D01*
X1403833Y1125378D01*
X1405667Y1124319D01*
X1407711Y1123771D01*
X1409828D01*
X1411873Y1124319D01*
X1413707Y1125378D01*
X1415203Y1126875D01*
X1416262Y1128708D01*
X1416810Y1130753D01*
Y1132870D01*
X1416262Y1134915D01*
X1415203Y1136748D01*
X1413707Y1138245D01*
X1411873Y1139303D01*
X1409828Y1139851D01*
X1407711D01*
X1405667Y1139303D01*
X1403833Y1138245D01*
X1403450Y1137861D01*
X1402180Y1138387D01*
Y1168400D01*
X1401785Y1170382D01*
X1400663Y1172063D01*
X1369780Y1202944D01*
X1370330Y1204995D01*
Y1208005D01*
X1369551Y1210912D01*
X1368046Y1213518D01*
X1365918Y1215646D01*
X1363312Y1217151D01*
X1360405Y1217930D01*
D02*
G37*
G36*
X1016803Y1130958D02*
X1009572D01*
Y1123727D01*
X1011598Y1124270D01*
X1013545Y1125394D01*
X1015135Y1126984D01*
X1016260Y1128932D01*
X1016803Y1130958D01*
D02*
G37*
G36*
X1007032D02*
X999801D01*
X1000344Y1128932D01*
X1001468Y1126984D01*
X1003058Y1125394D01*
X1005005Y1124270D01*
X1007032Y1123727D01*
Y1130958D01*
D02*
G37*
G36*
X1097426Y1140768D02*
X1095177D01*
X1093005Y1140186D01*
X1091058Y1139062D01*
X1089468Y1137471D01*
X1088344Y1135524D01*
X1087762Y1133352D01*
Y1131104D01*
X1088344Y1128932D01*
X1089468Y1126984D01*
X1091058Y1125394D01*
X1093005Y1124270D01*
X1095177Y1123688D01*
X1097426D01*
X1099598Y1124270D01*
X1101545Y1125394D01*
X1103135Y1126984D01*
X1104260Y1128932D01*
X1104842Y1131104D01*
Y1133352D01*
X1104260Y1135524D01*
X1103135Y1137471D01*
X1101545Y1139062D01*
X1099598Y1140186D01*
X1097426Y1140768D01*
D02*
G37*
G36*
X482728Y1139405D02*
X480611D01*
X478567Y1138857D01*
X476733Y1137799D01*
X475236Y1136302D01*
X474178Y1134469D01*
X473630Y1132424D01*
Y1130307D01*
X474178Y1128262D01*
X475236Y1126429D01*
X476733Y1124932D01*
X478567Y1123873D01*
X480611Y1123325D01*
X482728D01*
X484773Y1123873D01*
X486606Y1124932D01*
X488103Y1126429D01*
X489162Y1128262D01*
X489710Y1130307D01*
Y1132424D01*
X489162Y1134469D01*
X488103Y1136302D01*
X486606Y1137799D01*
X484773Y1138857D01*
X482728Y1139405D01*
D02*
G37*
G36*
X431729D02*
X429612D01*
X427567Y1138857D01*
X425733Y1137799D01*
X424237Y1136302D01*
X423178Y1134469D01*
X422630Y1132424D01*
Y1130307D01*
X423178Y1128262D01*
X424237Y1126429D01*
X425733Y1124932D01*
X427567Y1123873D01*
X429612Y1123325D01*
X431729D01*
X433773Y1123873D01*
X435607Y1124932D01*
X437104Y1126429D01*
X438162Y1128262D01*
X438710Y1130307D01*
Y1132424D01*
X438162Y1134469D01*
X437104Y1136302D01*
X435607Y1137799D01*
X433773Y1138857D01*
X431729Y1139405D01*
D02*
G37*
G36*
X357789D02*
X355672D01*
X353627Y1138857D01*
X351794Y1137799D01*
X350297Y1136302D01*
X349238Y1134469D01*
X348690Y1132424D01*
Y1130307D01*
X349238Y1128262D01*
X350297Y1126429D01*
X351794Y1124932D01*
X353627Y1123873D01*
X355672Y1123325D01*
X357789D01*
X359834Y1123873D01*
X361667Y1124932D01*
X363164Y1126429D01*
X364222Y1128262D01*
X364770Y1130307D01*
Y1132424D01*
X364222Y1134469D01*
X363164Y1136302D01*
X361667Y1137799D01*
X359834Y1138857D01*
X357789Y1139405D01*
D02*
G37*
G36*
X306789D02*
X304672D01*
X302627Y1138857D01*
X300793Y1137799D01*
X299297Y1136302D01*
X298238Y1134469D01*
X297690Y1132424D01*
Y1130307D01*
X298238Y1128262D01*
X299297Y1126429D01*
X300793Y1124932D01*
X302627Y1123873D01*
X304672Y1123325D01*
X306789D01*
X308834Y1123873D01*
X310667Y1124932D01*
X312164Y1126429D01*
X313222Y1128262D01*
X313770Y1130307D01*
Y1132424D01*
X313222Y1134469D01*
X312164Y1136302D01*
X310667Y1137799D01*
X308834Y1138857D01*
X306789Y1139405D01*
D02*
G37*
G36*
X779780Y1131570D02*
X770890D01*
Y1122680D01*
X770958D01*
X773542Y1123372D01*
X775858Y1124710D01*
X777750Y1126602D01*
X779088Y1128918D01*
X779780Y1131502D01*
Y1131570D01*
D02*
G37*
G36*
X768350D02*
X759460D01*
Y1131502D01*
X760152Y1128918D01*
X761490Y1126602D01*
X763382Y1124710D01*
X765698Y1123372D01*
X768282Y1122680D01*
X768350D01*
Y1131570D01*
D02*
G37*
G36*
X745558Y1143000D02*
X742882D01*
X740298Y1142308D01*
X737982Y1140970D01*
X736090Y1139078D01*
X734752Y1136762D01*
X734060Y1134178D01*
Y1131502D01*
X734752Y1128918D01*
X736090Y1126602D01*
X737982Y1124710D01*
X740298Y1123372D01*
X742882Y1122680D01*
X745558D01*
X748142Y1123372D01*
X750458Y1124710D01*
X752350Y1126602D01*
X753688Y1128918D01*
X754380Y1131502D01*
Y1134178D01*
X753688Y1136762D01*
X752350Y1139078D01*
X750458Y1140970D01*
X748142Y1142308D01*
X745558Y1143000D01*
D02*
G37*
G36*
X1159473Y1129505D02*
X1157007D01*
X1154625Y1128867D01*
X1152490Y1127634D01*
X1150746Y1125890D01*
X1149513Y1123755D01*
X1148875Y1121373D01*
Y1118907D01*
X1149513Y1116525D01*
X1150746Y1114390D01*
X1152490Y1112646D01*
X1154625Y1111413D01*
X1157007Y1110775D01*
X1159473D01*
X1161855Y1111413D01*
X1163990Y1112646D01*
X1165734Y1114390D01*
X1166967Y1116525D01*
X1167605Y1118907D01*
Y1121373D01*
X1166967Y1123755D01*
X1165734Y1125890D01*
X1163990Y1127634D01*
X1161855Y1128867D01*
X1159473Y1129505D01*
D02*
G37*
G36*
X694790Y1114707D02*
Y1107476D01*
X702020D01*
X701478Y1109502D01*
X700353Y1111450D01*
X698763Y1113040D01*
X696816Y1114164D01*
X694790Y1114707D01*
D02*
G37*
G36*
X692250D02*
X690223Y1114164D01*
X688276Y1113040D01*
X686686Y1111450D01*
X685562Y1109502D01*
X685019Y1107476D01*
X692250D01*
Y1114707D01*
D02*
G37*
G36*
X933518Y1115060D02*
X933450D01*
Y1106170D01*
X942340D01*
Y1106238D01*
X941648Y1108822D01*
X940310Y1111138D01*
X938418Y1113030D01*
X936102Y1114368D01*
X933518Y1115060D01*
D02*
G37*
G36*
X930910D02*
X930842D01*
X928258Y1114368D01*
X925942Y1113030D01*
X924050Y1111138D01*
X922712Y1108822D01*
X922020Y1106238D01*
Y1106170D01*
X930910D01*
Y1115060D01*
D02*
G37*
G36*
X545534Y1118630D02*
X543068D01*
X540686Y1117992D01*
X538550Y1116759D01*
X536807Y1115015D01*
X535574Y1112880D01*
X534936Y1110498D01*
Y1108032D01*
X535574Y1105650D01*
X536807Y1103515D01*
X538550Y1101771D01*
X540686Y1100538D01*
X543068Y1099900D01*
X545534D01*
X547915Y1100538D01*
X550051Y1101771D01*
X551795Y1103515D01*
X553027Y1105650D01*
X553666Y1108032D01*
Y1110498D01*
X553027Y1112880D01*
X551795Y1115015D01*
X550051Y1116759D01*
X547915Y1117992D01*
X545534Y1118630D01*
D02*
G37*
G36*
X702020Y1104936D02*
X694790D01*
Y1097705D01*
X696816Y1098248D01*
X698763Y1099372D01*
X700353Y1100962D01*
X701478Y1102910D01*
X702020Y1104936D01*
D02*
G37*
G36*
X692250D02*
X685019D01*
X685562Y1102910D01*
X686686Y1100962D01*
X688276Y1099372D01*
X690223Y1098248D01*
X692250Y1097705D01*
Y1104936D01*
D02*
G37*
G36*
X606643Y1114746D02*
X604395D01*
X602223Y1114164D01*
X600276Y1113040D01*
X598685Y1111450D01*
X597561Y1109502D01*
X596979Y1107330D01*
Y1105082D01*
X597561Y1102910D01*
X598685Y1100962D01*
X600276Y1099372D01*
X602223Y1098248D01*
X604395Y1097666D01*
X606643D01*
X608815Y1098248D01*
X610763Y1099372D01*
X612353Y1100962D01*
X613477Y1102910D01*
X614059Y1105082D01*
Y1107330D01*
X613477Y1109502D01*
X612353Y1111450D01*
X610763Y1113040D01*
X608815Y1114164D01*
X606643Y1114746D01*
D02*
G37*
G36*
X1097426Y1114108D02*
X1095177D01*
X1093005Y1113526D01*
X1091058Y1112402D01*
X1089468Y1110812D01*
X1088344Y1108864D01*
X1087762Y1106692D01*
Y1104444D01*
X1088344Y1102272D01*
X1089468Y1100324D01*
X1091058Y1098734D01*
X1093005Y1097610D01*
X1095177Y1097028D01*
X1097426D01*
X1099598Y1097610D01*
X1101545Y1098734D01*
X1103135Y1100324D01*
X1104260Y1102272D01*
X1104842Y1104444D01*
Y1106692D01*
X1104260Y1108864D01*
X1103135Y1110812D01*
X1101545Y1112402D01*
X1099598Y1113526D01*
X1097426Y1114108D01*
D02*
G37*
G36*
X1009426D02*
X1007178D01*
X1005005Y1113526D01*
X1003058Y1112402D01*
X1001468Y1110812D01*
X1000344Y1108864D01*
X999762Y1106692D01*
Y1104444D01*
X1000344Y1102272D01*
X1001468Y1100324D01*
X1003058Y1098734D01*
X1005005Y1097610D01*
X1007178Y1097028D01*
X1009426D01*
X1011598Y1097610D01*
X1013545Y1098734D01*
X1015135Y1100324D01*
X1016260Y1102272D01*
X1016842Y1104444D01*
Y1106692D01*
X1016260Y1108864D01*
X1015135Y1110812D01*
X1013545Y1112402D01*
X1011598Y1113526D01*
X1009426Y1114108D01*
D02*
G37*
G36*
X958918Y1115060D02*
X956242D01*
X953658Y1114368D01*
X951342Y1113030D01*
X949450Y1111138D01*
X948112Y1108822D01*
X947420Y1106238D01*
Y1103562D01*
X948112Y1100978D01*
X949450Y1098662D01*
X951342Y1096770D01*
X953658Y1095432D01*
X956242Y1094740D01*
X958918D01*
X961502Y1095432D01*
X963818Y1096770D01*
X965710Y1098662D01*
X967048Y1100978D01*
X967740Y1103562D01*
Y1106238D01*
X967048Y1108822D01*
X965710Y1111138D01*
X963818Y1113030D01*
X961502Y1114368D01*
X958918Y1115060D01*
D02*
G37*
G36*
X942340Y1103630D02*
X933450D01*
Y1094740D01*
X933518D01*
X936102Y1095432D01*
X938418Y1096770D01*
X940310Y1098662D01*
X941648Y1100978D01*
X942340Y1103562D01*
Y1103630D01*
D02*
G37*
G36*
X930910D02*
X922020D01*
Y1103562D01*
X922712Y1100978D01*
X924050Y1098662D01*
X925942Y1096770D01*
X928258Y1095432D01*
X930842Y1094740D01*
X930910D01*
Y1103630D01*
D02*
G37*
G36*
X1159473Y1104105D02*
X1157007D01*
X1154625Y1103467D01*
X1152490Y1102234D01*
X1150746Y1100490D01*
X1149513Y1098355D01*
X1148875Y1095973D01*
Y1093507D01*
X1149513Y1091125D01*
X1150746Y1088990D01*
X1152490Y1087246D01*
X1154625Y1086013D01*
X1157007Y1085375D01*
X1159473D01*
X1161855Y1086013D01*
X1163990Y1087246D01*
X1165734Y1088990D01*
X1166967Y1091125D01*
X1167605Y1093507D01*
Y1095973D01*
X1166967Y1098355D01*
X1165734Y1100490D01*
X1163990Y1102234D01*
X1161855Y1103467D01*
X1159473Y1104105D01*
D02*
G37*
G36*
X770958Y1089660D02*
X770890D01*
Y1080770D01*
X779780D01*
Y1080838D01*
X779088Y1083422D01*
X777750Y1085738D01*
X775858Y1087630D01*
X773542Y1088968D01*
X770958Y1089660D01*
D02*
G37*
G36*
X768350D02*
X768282D01*
X765698Y1088968D01*
X763382Y1087630D01*
X761490Y1085738D01*
X760152Y1083422D01*
X759460Y1080838D01*
Y1080770D01*
X768350D01*
Y1089660D01*
D02*
G37*
G36*
X1009572Y1087429D02*
Y1080198D01*
X1016803D01*
X1016260Y1082224D01*
X1015135Y1084172D01*
X1013545Y1085762D01*
X1011598Y1086886D01*
X1009572Y1087429D01*
D02*
G37*
G36*
X1007032D02*
X1005005Y1086886D01*
X1003058Y1085762D01*
X1001468Y1084172D01*
X1000344Y1082224D01*
X999801Y1080198D01*
X1007032D01*
Y1087429D01*
D02*
G37*
G36*
X545534Y1093230D02*
X543068D01*
X540686Y1092592D01*
X538550Y1091359D01*
X536807Y1089615D01*
X535574Y1087480D01*
X534936Y1085098D01*
Y1082632D01*
X535574Y1080250D01*
X536807Y1078115D01*
X538550Y1076371D01*
X540686Y1075138D01*
X543068Y1074500D01*
X545534D01*
X547915Y1075138D01*
X550051Y1076371D01*
X551795Y1078115D01*
X553027Y1080250D01*
X553666Y1082632D01*
Y1085098D01*
X553027Y1087480D01*
X551795Y1089615D01*
X550051Y1091359D01*
X547915Y1092592D01*
X545534Y1093230D01*
D02*
G37*
G36*
X694644Y1088106D02*
X692395D01*
X690223Y1087524D01*
X688276Y1086400D01*
X686686Y1084810D01*
X685562Y1082862D01*
X684980Y1080690D01*
Y1078442D01*
X685562Y1076270D01*
X686686Y1074322D01*
X688276Y1072732D01*
X690223Y1071608D01*
X692395Y1071026D01*
X694644D01*
X696816Y1071608D01*
X698763Y1072732D01*
X700353Y1074322D01*
X701478Y1076270D01*
X702060Y1078442D01*
Y1080690D01*
X701478Y1082862D01*
X700353Y1084810D01*
X698763Y1086400D01*
X696816Y1087524D01*
X694644Y1088106D01*
D02*
G37*
G36*
X606643D02*
X604395D01*
X602223Y1087524D01*
X600276Y1086400D01*
X598685Y1084810D01*
X597561Y1082862D01*
X596979Y1080690D01*
Y1078442D01*
X597561Y1076270D01*
X598685Y1074322D01*
X600276Y1072732D01*
X602223Y1071608D01*
X604395Y1071026D01*
X606643D01*
X608815Y1071608D01*
X610763Y1072732D01*
X612353Y1074322D01*
X613477Y1076270D01*
X614059Y1078442D01*
Y1080690D01*
X613477Y1082862D01*
X612353Y1084810D01*
X610763Y1086400D01*
X608815Y1087524D01*
X606643Y1088106D01*
D02*
G37*
G36*
X1016803Y1077658D02*
X1009572D01*
Y1070427D01*
X1011598Y1070970D01*
X1013545Y1072094D01*
X1015135Y1073684D01*
X1016260Y1075632D01*
X1016803Y1077658D01*
D02*
G37*
G36*
X1007032D02*
X999801D01*
X1000344Y1075632D01*
X1001468Y1073684D01*
X1003058Y1072094D01*
X1005005Y1070970D01*
X1007032Y1070427D01*
Y1077658D01*
D02*
G37*
G36*
X1097426Y1087468D02*
X1095177D01*
X1093005Y1086886D01*
X1091058Y1085762D01*
X1089468Y1084172D01*
X1088344Y1082224D01*
X1087762Y1080052D01*
Y1077804D01*
X1088344Y1075632D01*
X1089468Y1073684D01*
X1091058Y1072094D01*
X1093005Y1070970D01*
X1095177Y1070388D01*
X1097426D01*
X1099598Y1070970D01*
X1101545Y1072094D01*
X1103135Y1073684D01*
X1104260Y1075632D01*
X1104842Y1077804D01*
Y1080052D01*
X1104260Y1082224D01*
X1103135Y1084172D01*
X1101545Y1085762D01*
X1099598Y1086886D01*
X1097426Y1087468D01*
D02*
G37*
G36*
X779780Y1078230D02*
X770890D01*
Y1069340D01*
X770958D01*
X773542Y1070032D01*
X775858Y1071370D01*
X777750Y1073262D01*
X779088Y1075578D01*
X779780Y1078162D01*
Y1078230D01*
D02*
G37*
G36*
X768350D02*
X759460D01*
Y1078162D01*
X760152Y1075578D01*
X761490Y1073262D01*
X763382Y1071370D01*
X765698Y1070032D01*
X768282Y1069340D01*
X768350D01*
Y1078230D01*
D02*
G37*
G36*
X745558Y1089660D02*
X742882D01*
X740298Y1088968D01*
X737982Y1087630D01*
X736090Y1085738D01*
X734752Y1083422D01*
X734060Y1080838D01*
Y1078162D01*
X734752Y1075578D01*
X736090Y1073262D01*
X737982Y1071370D01*
X740298Y1070032D01*
X742882Y1069340D01*
X745558D01*
X748142Y1070032D01*
X750458Y1071370D01*
X752350Y1073262D01*
X753688Y1075578D01*
X754380Y1078162D01*
Y1080838D01*
X753688Y1083422D01*
X752350Y1085738D01*
X750458Y1087630D01*
X748142Y1088968D01*
X745558Y1089660D01*
D02*
G37*
G36*
X1159473Y1078705D02*
X1157007D01*
X1154625Y1078067D01*
X1152490Y1076834D01*
X1150746Y1075090D01*
X1149513Y1072955D01*
X1148875Y1070573D01*
Y1068107D01*
X1149513Y1065725D01*
X1150746Y1063590D01*
X1152490Y1061846D01*
X1154625Y1060613D01*
X1157007Y1059975D01*
X1159473D01*
X1161855Y1060613D01*
X1163990Y1061846D01*
X1165734Y1063590D01*
X1166967Y1065725D01*
X1167605Y1068107D01*
Y1070573D01*
X1166967Y1072955D01*
X1165734Y1075090D01*
X1163990Y1076834D01*
X1161855Y1078067D01*
X1159473Y1078705D01*
D02*
G37*
G36*
X694790Y1061407D02*
Y1054176D01*
X702020D01*
X701478Y1056202D01*
X700353Y1058150D01*
X698763Y1059740D01*
X696816Y1060864D01*
X694790Y1061407D01*
D02*
G37*
G36*
X692250D02*
X690223Y1060864D01*
X688276Y1059740D01*
X686686Y1058150D01*
X685562Y1056202D01*
X685019Y1054176D01*
X692250D01*
Y1061407D01*
D02*
G37*
G36*
X933518Y1061720D02*
X933450D01*
Y1052830D01*
X942340D01*
Y1052898D01*
X941648Y1055482D01*
X940310Y1057798D01*
X938418Y1059690D01*
X936102Y1061028D01*
X933518Y1061720D01*
D02*
G37*
G36*
X930910D02*
X930842D01*
X928258Y1061028D01*
X925942Y1059690D01*
X924050Y1057798D01*
X922712Y1055482D01*
X922020Y1052898D01*
Y1052830D01*
X930910D01*
Y1061720D01*
D02*
G37*
G36*
X545534Y1067830D02*
X543068D01*
X540686Y1067192D01*
X538550Y1065959D01*
X536807Y1064215D01*
X535574Y1062080D01*
X534936Y1059698D01*
Y1057232D01*
X535574Y1054850D01*
X536807Y1052715D01*
X538550Y1050971D01*
X540686Y1049738D01*
X543068Y1049100D01*
X545534D01*
X547915Y1049738D01*
X550051Y1050971D01*
X551795Y1052715D01*
X553027Y1054850D01*
X553666Y1057232D01*
Y1059698D01*
X553027Y1062080D01*
X551795Y1064215D01*
X550051Y1065959D01*
X547915Y1067192D01*
X545534Y1067830D01*
D02*
G37*
G36*
X702020Y1051636D02*
X694790D01*
Y1044405D01*
X696816Y1044948D01*
X698763Y1046072D01*
X700353Y1047663D01*
X701478Y1049610D01*
X702020Y1051636D01*
D02*
G37*
G36*
X692250D02*
X685019D01*
X685562Y1049610D01*
X686686Y1047663D01*
X688276Y1046072D01*
X690223Y1044948D01*
X692250Y1044405D01*
Y1051636D01*
D02*
G37*
G36*
X606643Y1061446D02*
X604395D01*
X602223Y1060864D01*
X600276Y1059740D01*
X598685Y1058150D01*
X597561Y1056202D01*
X596979Y1054031D01*
Y1051782D01*
X597561Y1049610D01*
X598685Y1047663D01*
X600276Y1046072D01*
X602223Y1044948D01*
X604395Y1044366D01*
X606643D01*
X608815Y1044948D01*
X610763Y1046072D01*
X612353Y1047663D01*
X613477Y1049610D01*
X614059Y1051782D01*
Y1054031D01*
X613477Y1056202D01*
X612353Y1058150D01*
X610763Y1059740D01*
X608815Y1060864D01*
X606643Y1061446D01*
D02*
G37*
G36*
X1097426Y1060808D02*
X1095177D01*
X1093005Y1060226D01*
X1091058Y1059101D01*
X1089468Y1057511D01*
X1088344Y1055564D01*
X1087762Y1053392D01*
Y1051143D01*
X1088344Y1048971D01*
X1089468Y1047024D01*
X1091058Y1045434D01*
X1093005Y1044310D01*
X1095177Y1043728D01*
X1097426D01*
X1099598Y1044310D01*
X1101545Y1045434D01*
X1103135Y1047024D01*
X1104260Y1048971D01*
X1104842Y1051143D01*
Y1053392D01*
X1104260Y1055564D01*
X1103135Y1057511D01*
X1101545Y1059101D01*
X1099598Y1060226D01*
X1097426Y1060808D01*
D02*
G37*
G36*
X1009426D02*
X1007178D01*
X1005005Y1060226D01*
X1003058Y1059101D01*
X1001468Y1057511D01*
X1000344Y1055564D01*
X999762Y1053392D01*
Y1051143D01*
X1000344Y1048971D01*
X1001468Y1047024D01*
X1003058Y1045434D01*
X1005005Y1044310D01*
X1007178Y1043728D01*
X1009426D01*
X1011598Y1044310D01*
X1013545Y1045434D01*
X1015135Y1047024D01*
X1016260Y1048971D01*
X1016842Y1051143D01*
Y1053392D01*
X1016260Y1055564D01*
X1015135Y1057511D01*
X1013545Y1059101D01*
X1011598Y1060226D01*
X1009426Y1060808D01*
D02*
G37*
G36*
X958918Y1061720D02*
X956242D01*
X953658Y1061028D01*
X951342Y1059690D01*
X949450Y1057798D01*
X948112Y1055482D01*
X947420Y1052898D01*
Y1050222D01*
X948112Y1047638D01*
X949450Y1045322D01*
X951342Y1043430D01*
X953658Y1042092D01*
X956242Y1041400D01*
X958918D01*
X961502Y1042092D01*
X963818Y1043430D01*
X965710Y1045322D01*
X967048Y1047638D01*
X967740Y1050222D01*
Y1052898D01*
X967048Y1055482D01*
X965710Y1057798D01*
X963818Y1059690D01*
X961502Y1061028D01*
X958918Y1061720D01*
D02*
G37*
G36*
X942340Y1050290D02*
X933450D01*
Y1041400D01*
X933518D01*
X936102Y1042092D01*
X938418Y1043430D01*
X940310Y1045322D01*
X941648Y1047638D01*
X942340Y1050222D01*
Y1050290D01*
D02*
G37*
G36*
X930910D02*
X922020D01*
Y1050222D01*
X922712Y1047638D01*
X924050Y1045322D01*
X925942Y1043430D01*
X928258Y1042092D01*
X930842Y1041400D01*
X930910D01*
Y1050290D01*
D02*
G37*
G36*
X482728Y1056905D02*
X480611D01*
X478567Y1056357D01*
X476733Y1055299D01*
X475236Y1053802D01*
X474178Y1051968D01*
X473630Y1049924D01*
Y1047807D01*
X474178Y1045762D01*
X475236Y1043928D01*
X476733Y1042431D01*
X478567Y1041373D01*
X480611Y1040825D01*
X482728D01*
X484773Y1041373D01*
X486606Y1042431D01*
X488103Y1043928D01*
X489162Y1045762D01*
X489710Y1047807D01*
Y1049924D01*
X489162Y1051968D01*
X488103Y1053802D01*
X486606Y1055299D01*
X484773Y1056357D01*
X482728Y1056905D01*
D02*
G37*
G36*
X438710D02*
X422630D01*
Y1040825D01*
X438710D01*
Y1056905D01*
D02*
G37*
G36*
X357789D02*
X355672D01*
X353627Y1056357D01*
X351794Y1055299D01*
X350297Y1053802D01*
X349238Y1051968D01*
X348690Y1049924D01*
Y1047807D01*
X349238Y1045762D01*
X350297Y1043928D01*
X351794Y1042431D01*
X353627Y1041373D01*
X355672Y1040825D01*
X357789D01*
X359834Y1041373D01*
X361667Y1042431D01*
X363164Y1043928D01*
X364222Y1045762D01*
X364770Y1047807D01*
Y1049924D01*
X364222Y1051968D01*
X363164Y1053802D01*
X361667Y1055299D01*
X359834Y1056357D01*
X357789Y1056905D01*
D02*
G37*
G36*
X313770D02*
X297690D01*
Y1040825D01*
X313770D01*
Y1056905D01*
D02*
G37*
G36*
X1159473Y1053305D02*
X1157007D01*
X1154625Y1052667D01*
X1152490Y1051434D01*
X1150746Y1049690D01*
X1149513Y1047555D01*
X1148875Y1045173D01*
Y1042707D01*
X1149513Y1040325D01*
X1150746Y1038190D01*
X1152490Y1036446D01*
X1154625Y1035213D01*
X1157007Y1034575D01*
X1159473D01*
X1161855Y1035213D01*
X1163990Y1036446D01*
X1165734Y1038190D01*
X1166967Y1040325D01*
X1167605Y1042707D01*
Y1045173D01*
X1166967Y1047555D01*
X1165734Y1049690D01*
X1163990Y1051434D01*
X1161855Y1052667D01*
X1159473Y1053305D01*
D02*
G37*
G36*
X770958Y1036320D02*
X770890D01*
Y1027430D01*
X779780D01*
Y1027498D01*
X779088Y1030082D01*
X777750Y1032398D01*
X775858Y1034290D01*
X773542Y1035628D01*
X770958Y1036320D01*
D02*
G37*
G36*
X768350D02*
X768282D01*
X765698Y1035628D01*
X763382Y1034290D01*
X761490Y1032398D01*
X760152Y1030082D01*
X759460Y1027498D01*
Y1027430D01*
X768350D01*
Y1036320D01*
D02*
G37*
G36*
X1009572Y1034129D02*
Y1026898D01*
X1016803D01*
X1016260Y1028924D01*
X1015135Y1030872D01*
X1013545Y1032462D01*
X1011598Y1033586D01*
X1009572Y1034129D01*
D02*
G37*
G36*
X1007032D02*
X1005005Y1033586D01*
X1003058Y1032462D01*
X1001468Y1030872D01*
X1000344Y1028924D01*
X999801Y1026898D01*
X1007032D01*
Y1034129D01*
D02*
G37*
G36*
X545534Y1042430D02*
X543068D01*
X540686Y1041792D01*
X538550Y1040559D01*
X536807Y1038816D01*
X535574Y1036680D01*
X534936Y1034298D01*
Y1031832D01*
X535574Y1029451D01*
X536807Y1027315D01*
X538550Y1025571D01*
X540686Y1024338D01*
X543068Y1023700D01*
X545534D01*
X547915Y1024338D01*
X550051Y1025571D01*
X551795Y1027315D01*
X553027Y1029451D01*
X553666Y1031832D01*
Y1034298D01*
X553027Y1036680D01*
X551795Y1038816D01*
X550051Y1040559D01*
X547915Y1041792D01*
X545534Y1042430D01*
D02*
G37*
G36*
X694644Y1034806D02*
X692395D01*
X690223Y1034224D01*
X688276Y1033100D01*
X686686Y1031510D01*
X685562Y1029563D01*
X684980Y1027391D01*
Y1025142D01*
X685562Y1022970D01*
X686686Y1021022D01*
X688276Y1019433D01*
X690223Y1018308D01*
X692395Y1017726D01*
X694644D01*
X696816Y1018308D01*
X698763Y1019433D01*
X700353Y1021022D01*
X701478Y1022970D01*
X702060Y1025142D01*
Y1027391D01*
X701478Y1029563D01*
X700353Y1031510D01*
X698763Y1033100D01*
X696816Y1034224D01*
X694644Y1034806D01*
D02*
G37*
G36*
X606643D02*
X604395D01*
X602223Y1034224D01*
X600276Y1033100D01*
X598685Y1031510D01*
X597561Y1029563D01*
X596979Y1027391D01*
Y1025142D01*
X597561Y1022970D01*
X598685Y1021022D01*
X600276Y1019433D01*
X602223Y1018308D01*
X604395Y1017726D01*
X606643D01*
X608815Y1018308D01*
X610763Y1019433D01*
X612353Y1021022D01*
X613477Y1022970D01*
X614059Y1025142D01*
Y1027391D01*
X613477Y1029563D01*
X612353Y1031510D01*
X610763Y1033100D01*
X608815Y1034224D01*
X606643Y1034806D01*
D02*
G37*
G36*
X1016803Y1024358D02*
X1009572D01*
Y1017127D01*
X1011598Y1017670D01*
X1013545Y1018794D01*
X1015135Y1020384D01*
X1016260Y1022332D01*
X1016803Y1024358D01*
D02*
G37*
G36*
X1007032D02*
X999801D01*
X1000344Y1022332D01*
X1001468Y1020384D01*
X1003058Y1018794D01*
X1005005Y1017670D01*
X1007032Y1017127D01*
Y1024358D01*
D02*
G37*
G36*
X1097426Y1034168D02*
X1095177D01*
X1093005Y1033586D01*
X1091058Y1032462D01*
X1089468Y1030872D01*
X1088344Y1028924D01*
X1087762Y1026752D01*
Y1024504D01*
X1088344Y1022332D01*
X1089468Y1020384D01*
X1091058Y1018794D01*
X1093005Y1017670D01*
X1095177Y1017088D01*
X1097426D01*
X1099598Y1017670D01*
X1101545Y1018794D01*
X1103135Y1020384D01*
X1104260Y1022332D01*
X1104842Y1024504D01*
Y1026752D01*
X1104260Y1028924D01*
X1103135Y1030872D01*
X1101545Y1032462D01*
X1099598Y1033586D01*
X1097426Y1034168D01*
D02*
G37*
G36*
X779780Y1024890D02*
X770890D01*
Y1016000D01*
X770958D01*
X773542Y1016692D01*
X775858Y1018030D01*
X777750Y1019922D01*
X779088Y1022238D01*
X779780Y1024822D01*
Y1024890D01*
D02*
G37*
G36*
X768350D02*
X759460D01*
Y1024822D01*
X760152Y1022238D01*
X761490Y1019922D01*
X763382Y1018030D01*
X765698Y1016692D01*
X768282Y1016000D01*
X768350D01*
Y1024890D01*
D02*
G37*
G36*
X745558Y1036320D02*
X742882D01*
X740298Y1035628D01*
X737982Y1034290D01*
X736090Y1032398D01*
X734752Y1030082D01*
X734060Y1027498D01*
Y1024822D01*
X734752Y1022238D01*
X736090Y1019922D01*
X737982Y1018030D01*
X740298Y1016692D01*
X742882Y1016000D01*
X745558D01*
X748142Y1016692D01*
X750458Y1018030D01*
X752350Y1019922D01*
X753688Y1022238D01*
X754380Y1024822D01*
Y1027498D01*
X753688Y1030082D01*
X752350Y1032398D01*
X750458Y1034290D01*
X748142Y1035628D01*
X745558Y1036320D01*
D02*
G37*
G36*
X1159473Y1027905D02*
X1157007D01*
X1154625Y1027267D01*
X1152490Y1026034D01*
X1150746Y1024290D01*
X1149513Y1022155D01*
X1148875Y1019773D01*
Y1017307D01*
X1149513Y1014925D01*
X1150746Y1012790D01*
X1152490Y1011046D01*
X1154625Y1009813D01*
X1157007Y1009175D01*
X1159473D01*
X1161855Y1009813D01*
X1163990Y1011046D01*
X1165734Y1012790D01*
X1166967Y1014925D01*
X1167605Y1017307D01*
Y1019773D01*
X1166967Y1022155D01*
X1165734Y1024290D01*
X1163990Y1026034D01*
X1161855Y1027267D01*
X1159473Y1027905D01*
D02*
G37*
G36*
X694790Y1008107D02*
Y1000876D01*
X702020D01*
X701478Y1002902D01*
X700353Y1004849D01*
X698763Y1006440D01*
X696816Y1007564D01*
X694790Y1008107D01*
D02*
G37*
G36*
X692250D02*
X690223Y1007564D01*
X688276Y1006440D01*
X686686Y1004849D01*
X685562Y1002902D01*
X685019Y1000876D01*
X692250D01*
Y1008107D01*
D02*
G37*
G36*
X933518Y1008380D02*
X933450D01*
Y999490D01*
X942340D01*
Y999558D01*
X941648Y1002142D01*
X940310Y1004458D01*
X938418Y1006350D01*
X936102Y1007688D01*
X933518Y1008380D01*
D02*
G37*
G36*
X930910D02*
X930842D01*
X928258Y1007688D01*
X925942Y1006350D01*
X924050Y1004458D01*
X922712Y1002142D01*
X922020Y999558D01*
Y999490D01*
X930910D01*
Y1008380D01*
D02*
G37*
G36*
X545534Y1017030D02*
X543068D01*
X540686Y1016392D01*
X538550Y1015159D01*
X536807Y1013416D01*
X535574Y1011280D01*
X534936Y1008898D01*
Y1006432D01*
X535574Y1004051D01*
X536807Y1001915D01*
X538550Y1000171D01*
X540686Y998938D01*
X543068Y998300D01*
X545534D01*
X547915Y998938D01*
X550051Y1000171D01*
X551795Y1001915D01*
X553027Y1004051D01*
X553666Y1006432D01*
Y1008898D01*
X553027Y1011280D01*
X551795Y1013416D01*
X550051Y1015159D01*
X547915Y1016392D01*
X545534Y1017030D01*
D02*
G37*
G36*
X1358829Y1010043D02*
X1356712D01*
X1354667Y1009495D01*
X1352834Y1008436D01*
X1351337Y1006939D01*
X1350278Y1005106D01*
X1349730Y1003061D01*
Y1000944D01*
X1350278Y998899D01*
X1351337Y997066D01*
X1352834Y995569D01*
X1354667Y994510D01*
X1356712Y993963D01*
X1358829D01*
X1360874Y994510D01*
X1362707Y995569D01*
X1364204Y997066D01*
X1365262Y998899D01*
X1365810Y1000944D01*
Y1003061D01*
X1365262Y1005106D01*
X1364204Y1006939D01*
X1362707Y1008436D01*
X1360874Y1009495D01*
X1358829Y1010043D01*
D02*
G37*
G36*
X1233889D02*
X1231772D01*
X1229727Y1009495D01*
X1227894Y1008436D01*
X1226397Y1006939D01*
X1225338Y1005106D01*
X1224790Y1003061D01*
Y1000944D01*
X1225338Y998899D01*
X1226397Y997066D01*
X1227894Y995569D01*
X1229727Y994510D01*
X1231772Y993963D01*
X1233889D01*
X1235934Y994510D01*
X1237767Y995569D01*
X1239264Y997066D01*
X1240322Y998899D01*
X1240870Y1000944D01*
Y1003061D01*
X1240322Y1005106D01*
X1239264Y1006939D01*
X1237767Y1008436D01*
X1235934Y1009495D01*
X1233889Y1010043D01*
D02*
G37*
G36*
X483631Y1009865D02*
X481514D01*
X479469Y1009317D01*
X477635Y1008259D01*
X476138Y1006762D01*
X475080Y1004929D01*
X474532Y1002884D01*
Y1000767D01*
X475080Y998722D01*
X476138Y996889D01*
X477635Y995392D01*
X479469Y994333D01*
X481514Y993785D01*
X483631D01*
X485675Y994333D01*
X487509Y995392D01*
X489006Y996889D01*
X490064Y998722D01*
X490612Y1000767D01*
Y1002884D01*
X490064Y1004929D01*
X489006Y1006762D01*
X487509Y1008259D01*
X485675Y1009317D01*
X483631Y1009865D01*
D02*
G37*
G36*
X432630D02*
X430513D01*
X428469Y1009317D01*
X426635Y1008259D01*
X425138Y1006762D01*
X424080Y1004929D01*
X423532Y1002884D01*
Y1000767D01*
X424080Y998722D01*
X425138Y996889D01*
X426635Y995392D01*
X428469Y994333D01*
X430513Y993785D01*
X432630D01*
X434675Y994333D01*
X436509Y995392D01*
X438005Y996889D01*
X439064Y998722D01*
X439612Y1000767D01*
Y1002884D01*
X439064Y1004929D01*
X438005Y1006762D01*
X436509Y1008259D01*
X434675Y1009317D01*
X432630Y1009865D01*
D02*
G37*
G36*
X357788D02*
X355671D01*
X353627Y1009317D01*
X351793Y1008259D01*
X350296Y1006762D01*
X349238Y1004929D01*
X348690Y1002884D01*
Y1000767D01*
X349238Y998722D01*
X350296Y996889D01*
X351793Y995392D01*
X353627Y994333D01*
X355671Y993785D01*
X357788D01*
X359833Y994333D01*
X361666Y995392D01*
X363163Y996889D01*
X364222Y998722D01*
X364770Y1000767D01*
Y1002884D01*
X364222Y1004929D01*
X363163Y1006762D01*
X361666Y1008259D01*
X359833Y1009317D01*
X357788Y1009865D01*
D02*
G37*
G36*
X306789D02*
X304672D01*
X302627Y1009317D01*
X300793Y1008259D01*
X299297Y1006762D01*
X298238Y1004929D01*
X297690Y1002884D01*
Y1000767D01*
X298238Y998722D01*
X299297Y996889D01*
X300793Y995392D01*
X302627Y994333D01*
X304672Y993785D01*
X306789D01*
X308834Y994333D01*
X310667Y995392D01*
X312164Y996889D01*
X313222Y998722D01*
X313770Y1000767D01*
Y1002884D01*
X313222Y1004929D01*
X312164Y1006762D01*
X310667Y1008259D01*
X308834Y1009317D01*
X306789Y1009865D01*
D02*
G37*
G36*
X702020Y998336D02*
X694790D01*
Y991105D01*
X696816Y991648D01*
X698763Y992772D01*
X700353Y994362D01*
X701478Y996310D01*
X702020Y998336D01*
D02*
G37*
G36*
X692250D02*
X685019D01*
X685562Y996310D01*
X686686Y994362D01*
X688276Y992772D01*
X690223Y991648D01*
X692250Y991105D01*
Y998336D01*
D02*
G37*
G36*
X606643Y1008146D02*
X604395D01*
X602223Y1007564D01*
X600276Y1006440D01*
X598685Y1004849D01*
X597561Y1002902D01*
X596979Y1000730D01*
Y998482D01*
X597561Y996310D01*
X598685Y994362D01*
X600276Y992772D01*
X602223Y991648D01*
X604395Y991066D01*
X606643D01*
X608815Y991648D01*
X610763Y992772D01*
X612353Y994362D01*
X613477Y996310D01*
X614059Y998482D01*
Y1000730D01*
X613477Y1002902D01*
X612353Y1004849D01*
X610763Y1006440D01*
X608815Y1007564D01*
X606643Y1008146D01*
D02*
G37*
G36*
X1097426Y1007508D02*
X1095177D01*
X1093005Y1006926D01*
X1091058Y1005801D01*
X1089468Y1004212D01*
X1088344Y1002264D01*
X1087762Y1000092D01*
Y997843D01*
X1088344Y995671D01*
X1089468Y993724D01*
X1091058Y992134D01*
X1093005Y991010D01*
X1095177Y990428D01*
X1097426D01*
X1099598Y991010D01*
X1101545Y992134D01*
X1103135Y993724D01*
X1104260Y995671D01*
X1104842Y997843D01*
Y1000092D01*
X1104260Y1002264D01*
X1103135Y1004212D01*
X1101545Y1005801D01*
X1099598Y1006926D01*
X1097426Y1007508D01*
D02*
G37*
G36*
X1009426D02*
X1007178D01*
X1005005Y1006926D01*
X1003058Y1005801D01*
X1001468Y1004212D01*
X1000344Y1002264D01*
X999762Y1000092D01*
Y997843D01*
X1000344Y995671D01*
X1001468Y993724D01*
X1003058Y992134D01*
X1005005Y991010D01*
X1007178Y990428D01*
X1009426D01*
X1011598Y991010D01*
X1013545Y992134D01*
X1015135Y993724D01*
X1016260Y995671D01*
X1016842Y997843D01*
Y1000092D01*
X1016260Y1002264D01*
X1015135Y1004212D01*
X1013545Y1005801D01*
X1011598Y1006926D01*
X1009426Y1007508D01*
D02*
G37*
G36*
X958918Y1008380D02*
X956242D01*
X953658Y1007688D01*
X951342Y1006350D01*
X949450Y1004458D01*
X948112Y1002142D01*
X947420Y999558D01*
Y996882D01*
X948112Y994298D01*
X949450Y991982D01*
X951342Y990090D01*
X953658Y988752D01*
X956242Y988060D01*
X958918D01*
X961502Y988752D01*
X963818Y990090D01*
X965710Y991982D01*
X967048Y994298D01*
X967740Y996882D01*
Y999558D01*
X967048Y1002142D01*
X965710Y1004458D01*
X963818Y1006350D01*
X961502Y1007688D01*
X958918Y1008380D01*
D02*
G37*
G36*
X942340Y996950D02*
X933450D01*
Y988060D01*
X933518D01*
X936102Y988752D01*
X938418Y990090D01*
X940310Y991982D01*
X941648Y994298D01*
X942340Y996882D01*
Y996950D01*
D02*
G37*
G36*
X930910D02*
X922020D01*
Y996882D01*
X922712Y994298D01*
X924050Y991982D01*
X925942Y990090D01*
X928258Y988752D01*
X930842Y988060D01*
X930910D01*
Y996950D01*
D02*
G37*
G36*
X1159473Y1002505D02*
X1157007D01*
X1154625Y1001867D01*
X1152490Y1000634D01*
X1150746Y998890D01*
X1149513Y996755D01*
X1148875Y994373D01*
Y991907D01*
X1149513Y989525D01*
X1150746Y987390D01*
X1152490Y985646D01*
X1154625Y984413D01*
X1157007Y983775D01*
X1159473D01*
X1161855Y984413D01*
X1163990Y985646D01*
X1165734Y987390D01*
X1166967Y989525D01*
X1167605Y991907D01*
Y994373D01*
X1166967Y996755D01*
X1165734Y998890D01*
X1163990Y1000634D01*
X1161855Y1001867D01*
X1159473Y1002505D01*
D02*
G37*
G36*
X770958Y982980D02*
X770890D01*
Y974090D01*
X779780D01*
Y974158D01*
X779088Y976742D01*
X777750Y979058D01*
X775858Y980950D01*
X773542Y982288D01*
X770958Y982980D01*
D02*
G37*
G36*
X768350D02*
X768282D01*
X765698Y982288D01*
X763382Y980950D01*
X761490Y979058D01*
X760152Y976742D01*
X759460Y974158D01*
Y974090D01*
X768350D01*
Y982980D01*
D02*
G37*
G36*
X1009572Y980829D02*
Y973598D01*
X1016803D01*
X1016260Y975624D01*
X1015135Y977571D01*
X1013545Y979161D01*
X1011598Y980286D01*
X1009572Y980829D01*
D02*
G37*
G36*
X1007032D02*
X1005005Y980286D01*
X1003058Y979161D01*
X1001468Y977571D01*
X1000344Y975624D01*
X999801Y973598D01*
X1007032D01*
Y980829D01*
D02*
G37*
G36*
X545534Y991630D02*
X543068D01*
X540686Y990992D01*
X538550Y989759D01*
X536807Y988016D01*
X535574Y985880D01*
X534936Y983498D01*
Y981032D01*
X535574Y978651D01*
X536807Y976515D01*
X538550Y974771D01*
X540686Y973538D01*
X543068Y972900D01*
X545534D01*
X547915Y973538D01*
X550051Y974771D01*
X551795Y976515D01*
X553027Y978651D01*
X553666Y981032D01*
Y983498D01*
X553027Y985880D01*
X551795Y988016D01*
X550051Y989759D01*
X547915Y990992D01*
X545534Y991630D01*
D02*
G37*
G36*
X694644Y981506D02*
X692395D01*
X690223Y980924D01*
X688276Y979799D01*
X686686Y978210D01*
X685562Y976262D01*
X684980Y974090D01*
Y971842D01*
X685562Y969669D01*
X686686Y967722D01*
X688276Y966132D01*
X690223Y965008D01*
X692395Y964426D01*
X694644D01*
X696816Y965008D01*
X698763Y966132D01*
X700353Y967722D01*
X701478Y969669D01*
X702060Y971842D01*
Y974090D01*
X701478Y976262D01*
X700353Y978210D01*
X698763Y979799D01*
X696816Y980924D01*
X694644Y981506D01*
D02*
G37*
G36*
X606643D02*
X604395D01*
X602223Y980924D01*
X600276Y979799D01*
X598685Y978210D01*
X597561Y976262D01*
X596979Y974090D01*
Y971842D01*
X597561Y969669D01*
X598685Y967722D01*
X600276Y966132D01*
X602223Y965008D01*
X604395Y964426D01*
X606643D01*
X608815Y965008D01*
X610763Y966132D01*
X612353Y967722D01*
X613477Y969669D01*
X614059Y971842D01*
Y974090D01*
X613477Y976262D01*
X612353Y978210D01*
X610763Y979799D01*
X608815Y980924D01*
X606643Y981506D01*
D02*
G37*
G36*
X1016803Y971058D02*
X1009572D01*
Y963827D01*
X1011598Y964370D01*
X1013545Y965494D01*
X1015135Y967084D01*
X1016260Y969031D01*
X1016803Y971058D01*
D02*
G37*
G36*
X1007032D02*
X999801D01*
X1000344Y969031D01*
X1001468Y967084D01*
X1003058Y965494D01*
X1005005Y964370D01*
X1007032Y963827D01*
Y971058D01*
D02*
G37*
G36*
X1097426Y980868D02*
X1095177D01*
X1093005Y980286D01*
X1091058Y979161D01*
X1089468Y977571D01*
X1088344Y975624D01*
X1087762Y973452D01*
Y971203D01*
X1088344Y969031D01*
X1089468Y967084D01*
X1091058Y965494D01*
X1093005Y964370D01*
X1095177Y963788D01*
X1097426D01*
X1099598Y964370D01*
X1101545Y965494D01*
X1103135Y967084D01*
X1104260Y969031D01*
X1104842Y971203D01*
Y973452D01*
X1104260Y975624D01*
X1103135Y977571D01*
X1101545Y979161D01*
X1099598Y980286D01*
X1097426Y980868D01*
D02*
G37*
G36*
X779780Y971550D02*
X770890D01*
Y962660D01*
X770958D01*
X773542Y963352D01*
X775858Y964690D01*
X777750Y966582D01*
X779088Y968898D01*
X779780Y971482D01*
Y971550D01*
D02*
G37*
G36*
X768350D02*
X759460D01*
Y971482D01*
X760152Y968898D01*
X761490Y966582D01*
X763382Y964690D01*
X765698Y963352D01*
X768282Y962660D01*
X768350D01*
Y971550D01*
D02*
G37*
G36*
X745558Y982980D02*
X742882D01*
X740298Y982288D01*
X737982Y980950D01*
X736090Y979058D01*
X734752Y976742D01*
X734060Y974158D01*
Y971482D01*
X734752Y968898D01*
X736090Y966582D01*
X737982Y964690D01*
X740298Y963352D01*
X742882Y962660D01*
X745558D01*
X748142Y963352D01*
X750458Y964690D01*
X752350Y966582D01*
X753688Y968898D01*
X754380Y971482D01*
Y974158D01*
X753688Y976742D01*
X752350Y979058D01*
X750458Y980950D01*
X748142Y982288D01*
X745558Y982980D01*
D02*
G37*
G36*
X1159473Y977105D02*
X1157007D01*
X1154625Y976467D01*
X1152490Y975234D01*
X1150746Y973490D01*
X1149513Y971355D01*
X1148875Y968973D01*
Y966507D01*
X1149513Y964125D01*
X1150746Y961990D01*
X1152490Y960246D01*
X1154625Y959013D01*
X1157007Y958375D01*
X1159473D01*
X1161855Y959013D01*
X1163990Y960246D01*
X1165734Y961990D01*
X1166967Y964125D01*
X1167605Y966507D01*
Y968973D01*
X1166967Y971355D01*
X1165734Y973490D01*
X1163990Y975234D01*
X1161855Y976467D01*
X1159473Y977105D01*
D02*
G37*
G36*
X694790Y954807D02*
Y947576D01*
X702020D01*
X701478Y949602D01*
X700353Y951550D01*
X698763Y953140D01*
X696816Y954264D01*
X694790Y954807D01*
D02*
G37*
G36*
X692250D02*
X690223Y954264D01*
X688276Y953140D01*
X686686Y951550D01*
X685562Y949602D01*
X685019Y947576D01*
X692250D01*
Y954807D01*
D02*
G37*
G36*
X545534Y966230D02*
X543068D01*
X540686Y965592D01*
X538550Y964359D01*
X536807Y962616D01*
X535574Y960480D01*
X534936Y958098D01*
Y955632D01*
X535574Y953251D01*
X536807Y951115D01*
X538550Y949371D01*
X540686Y948138D01*
X543068Y947500D01*
X545534D01*
X547915Y948138D01*
X550051Y949371D01*
X551795Y951115D01*
X553027Y953251D01*
X553666Y955632D01*
Y958098D01*
X553027Y960480D01*
X551795Y962616D01*
X550051Y964359D01*
X547915Y965592D01*
X545534Y966230D01*
D02*
G37*
G36*
X933518Y955040D02*
X933450D01*
Y946150D01*
X942340D01*
Y946218D01*
X941648Y948802D01*
X940310Y951118D01*
X938418Y953010D01*
X936102Y954348D01*
X933518Y955040D01*
D02*
G37*
G36*
X930910D02*
X930842D01*
X928258Y954348D01*
X925942Y953010D01*
X924050Y951118D01*
X922712Y948802D01*
X922020Y946218D01*
Y946150D01*
X930910D01*
Y955040D01*
D02*
G37*
G36*
X702020Y945036D02*
X694790D01*
Y937805D01*
X696816Y938348D01*
X698763Y939472D01*
X700353Y941062D01*
X701478Y943010D01*
X702020Y945036D01*
D02*
G37*
G36*
X692250D02*
X685019D01*
X685562Y943010D01*
X686686Y941062D01*
X688276Y939472D01*
X690223Y938348D01*
X692250Y937805D01*
Y945036D01*
D02*
G37*
G36*
X606643Y954846D02*
X604395D01*
X602223Y954264D01*
X600276Y953140D01*
X598685Y951550D01*
X597561Y949602D01*
X596979Y947430D01*
Y945182D01*
X597561Y943010D01*
X598685Y941062D01*
X600276Y939472D01*
X602223Y938348D01*
X604395Y937766D01*
X606643D01*
X608815Y938348D01*
X610763Y939472D01*
X612353Y941062D01*
X613477Y943010D01*
X614059Y945182D01*
Y947430D01*
X613477Y949602D01*
X612353Y951550D01*
X610763Y953140D01*
X608815Y954264D01*
X606643Y954846D01*
D02*
G37*
G36*
X1104842Y954208D02*
X1087762D01*
Y937128D01*
X1104842D01*
Y954208D01*
D02*
G37*
G36*
X1009426D02*
X1007178D01*
X1005005Y953626D01*
X1003058Y952502D01*
X1001468Y950912D01*
X1000344Y948964D01*
X999762Y946792D01*
Y944544D01*
X1000344Y942372D01*
X1001468Y940424D01*
X1003058Y938834D01*
X1005005Y937710D01*
X1007178Y937128D01*
X1009426D01*
X1011598Y937710D01*
X1013545Y938834D01*
X1015135Y940424D01*
X1016260Y942372D01*
X1016842Y944544D01*
Y946792D01*
X1016260Y948964D01*
X1015135Y950912D01*
X1013545Y952502D01*
X1011598Y953626D01*
X1009426Y954208D01*
D02*
G37*
G36*
X958918Y955040D02*
X956242D01*
X953658Y954348D01*
X951342Y953010D01*
X949450Y951118D01*
X948112Y948802D01*
X947420Y946218D01*
Y943542D01*
X948112Y940958D01*
X949450Y938642D01*
X951342Y936750D01*
X953658Y935412D01*
X956242Y934720D01*
X958918D01*
X961502Y935412D01*
X963818Y936750D01*
X965710Y938642D01*
X967048Y940958D01*
X967740Y943542D01*
Y946218D01*
X967048Y948802D01*
X965710Y951118D01*
X963818Y953010D01*
X961502Y954348D01*
X958918Y955040D01*
D02*
G37*
G36*
X942340Y943610D02*
X933450D01*
Y934720D01*
X933518D01*
X936102Y935412D01*
X938418Y936750D01*
X940310Y938642D01*
X941648Y940958D01*
X942340Y943542D01*
Y943610D01*
D02*
G37*
G36*
X930910D02*
X922020D01*
Y943542D01*
X922712Y940958D01*
X924050Y938642D01*
X925942Y936750D01*
X928258Y935412D01*
X930842Y934720D01*
X930910D01*
Y943610D01*
D02*
G37*
G36*
X1159473Y951705D02*
X1157007D01*
X1154625Y951067D01*
X1152490Y949834D01*
X1150746Y948090D01*
X1149513Y945955D01*
X1148875Y943573D01*
Y941107D01*
X1149513Y938725D01*
X1150746Y936590D01*
X1152490Y934846D01*
X1154625Y933613D01*
X1157007Y932975D01*
X1159473D01*
X1161855Y933613D01*
X1163990Y934846D01*
X1165734Y936590D01*
X1166967Y938725D01*
X1167605Y941107D01*
Y943573D01*
X1166967Y945955D01*
X1165734Y948090D01*
X1163990Y949834D01*
X1161855Y951067D01*
X1159473Y951705D01*
D02*
G37*
G36*
X545534Y940830D02*
X543068D01*
X540686Y940192D01*
X538550Y938959D01*
X536807Y937215D01*
X535574Y935080D01*
X534936Y932698D01*
Y930232D01*
X535574Y927850D01*
X536807Y925715D01*
X538550Y923971D01*
X540686Y922738D01*
X543068Y922100D01*
X545534D01*
X547915Y922738D01*
X550051Y923971D01*
X551795Y925715D01*
X553027Y927850D01*
X553666Y930232D01*
Y932698D01*
X553027Y935080D01*
X551795Y937215D01*
X550051Y938959D01*
X547915Y940192D01*
X545534Y940830D01*
D02*
G37*
G36*
X1409828Y927543D02*
X1407711D01*
X1405667Y926995D01*
X1403833Y925937D01*
X1402336Y924439D01*
X1401278Y922606D01*
X1400730Y920561D01*
Y918444D01*
X1401278Y916400D01*
X1402336Y914566D01*
X1403833Y913069D01*
X1405667Y912011D01*
X1407711Y911463D01*
X1409828D01*
X1411873Y912011D01*
X1413707Y913069D01*
X1415203Y914566D01*
X1416262Y916400D01*
X1416810Y918444D01*
Y920561D01*
X1416262Y922606D01*
X1415203Y924439D01*
X1413707Y925937D01*
X1411873Y926995D01*
X1409828Y927543D01*
D02*
G37*
G36*
X483631Y927365D02*
X481514D01*
X479469Y926817D01*
X477635Y925759D01*
X476138Y924262D01*
X475080Y922428D01*
X474532Y920384D01*
Y918267D01*
X475080Y916222D01*
X476138Y914388D01*
X477635Y912891D01*
X479469Y911833D01*
X481514Y911285D01*
X483631D01*
X485675Y911833D01*
X487509Y912891D01*
X489006Y914388D01*
X490064Y916222D01*
X490612Y918267D01*
Y920384D01*
X490064Y922428D01*
X489006Y924262D01*
X487509Y925759D01*
X485675Y926817D01*
X483631Y927365D01*
D02*
G37*
G36*
X439612D02*
X423532D01*
Y911285D01*
X439612D01*
Y927365D01*
D02*
G37*
G36*
X357788D02*
X355671D01*
X353627Y926817D01*
X351793Y925759D01*
X350296Y924262D01*
X349238Y922428D01*
X348690Y920384D01*
Y918267D01*
X349238Y916222D01*
X350296Y914388D01*
X351793Y912891D01*
X353627Y911833D01*
X355671Y911285D01*
X357788D01*
X359833Y911833D01*
X361666Y912891D01*
X363163Y914388D01*
X364222Y916222D01*
X364770Y918267D01*
Y920384D01*
X364222Y922428D01*
X363163Y924262D01*
X361666Y925759D01*
X359833Y926817D01*
X357788Y927365D01*
D02*
G37*
G36*
X313770D02*
X297690D01*
Y911285D01*
X313770D01*
Y927365D01*
D02*
G37*
G36*
X770958Y893524D02*
X770890D01*
Y884634D01*
X779780D01*
Y884702D01*
X779088Y887286D01*
X777750Y889603D01*
X775858Y891494D01*
X773542Y892832D01*
X770958Y893524D01*
D02*
G37*
G36*
X768350D02*
X768282D01*
X765698Y892832D01*
X763382Y891494D01*
X761490Y889603D01*
X760152Y887286D01*
X759460Y884702D01*
Y884634D01*
X768350D01*
Y893524D01*
D02*
G37*
G36*
X694644Y891234D02*
X692395D01*
X690223Y890652D01*
X688276Y889528D01*
X686686Y887938D01*
X685562Y885991D01*
X684980Y883819D01*
Y881570D01*
X685562Y879398D01*
X686686Y877450D01*
X688276Y875861D01*
X690223Y874736D01*
X692395Y874154D01*
X694644D01*
X696816Y874736D01*
X698763Y875861D01*
X700353Y877450D01*
X701478Y879398D01*
X702060Y881570D01*
Y883819D01*
X701478Y885991D01*
X700353Y887938D01*
X698763Y889528D01*
X696816Y890652D01*
X694644Y891234D01*
D02*
G37*
G36*
X614059D02*
X596979D01*
Y874154D01*
X614059D01*
Y891234D01*
D02*
G37*
G36*
X1009328Y881341D02*
Y874110D01*
X1016559D01*
X1016016Y876136D01*
X1014892Y878084D01*
X1013302Y879674D01*
X1011355Y880798D01*
X1009328Y881341D01*
D02*
G37*
G36*
X1006788D02*
X1004762Y880798D01*
X1002815Y879674D01*
X1001225Y878084D01*
X1000100Y876136D01*
X999557Y874110D01*
X1006788D01*
Y881341D01*
D02*
G37*
G36*
X779780Y882094D02*
X770890D01*
Y873204D01*
X770958D01*
X773542Y873897D01*
X775858Y875234D01*
X777750Y877126D01*
X779088Y879443D01*
X779780Y882027D01*
Y882094D01*
D02*
G37*
G36*
X768350D02*
X759460D01*
Y882027D01*
X760152Y879443D01*
X761490Y877126D01*
X763382Y875234D01*
X765698Y873897D01*
X768282Y873204D01*
X768350D01*
Y882094D01*
D02*
G37*
G36*
X745558Y893524D02*
X742882D01*
X740298Y892832D01*
X737982Y891494D01*
X736090Y889603D01*
X734752Y887286D01*
X734060Y884702D01*
Y882027D01*
X734752Y879443D01*
X736090Y877126D01*
X737982Y875234D01*
X740298Y873897D01*
X742882Y873204D01*
X745558D01*
X748142Y873897D01*
X750458Y875234D01*
X752350Y877126D01*
X753688Y879443D01*
X754380Y882027D01*
Y884702D01*
X753688Y887286D01*
X752350Y889603D01*
X750458Y891494D01*
X748142Y892832D01*
X745558Y893524D01*
D02*
G37*
G36*
X482728Y881595D02*
X480611D01*
X478567Y881047D01*
X476733Y879989D01*
X475236Y878492D01*
X474178Y876659D01*
X473630Y874614D01*
Y872497D01*
X474178Y870452D01*
X475236Y868619D01*
X476733Y867122D01*
X478567Y866063D01*
X480611Y865515D01*
X482728D01*
X484773Y866063D01*
X486606Y867122D01*
X488103Y868619D01*
X489162Y870452D01*
X489710Y872497D01*
Y874614D01*
X489162Y876659D01*
X488103Y878492D01*
X486606Y879989D01*
X484773Y881047D01*
X482728Y881595D01*
D02*
G37*
G36*
X431729D02*
X429612D01*
X427567Y881047D01*
X425733Y879989D01*
X424237Y878492D01*
X423178Y876659D01*
X422630Y874614D01*
Y872497D01*
X423178Y870452D01*
X424237Y868619D01*
X425733Y867122D01*
X427567Y866063D01*
X429612Y865515D01*
X431729D01*
X433773Y866063D01*
X435607Y867122D01*
X437104Y868619D01*
X438162Y870452D01*
X438710Y872497D01*
Y874614D01*
X438162Y876659D01*
X437104Y878492D01*
X435607Y879989D01*
X433773Y881047D01*
X431729Y881595D01*
D02*
G37*
G36*
X357788D02*
X355671D01*
X353627Y881047D01*
X351793Y879989D01*
X350296Y878492D01*
X349238Y876659D01*
X348690Y874614D01*
Y872497D01*
X349238Y870452D01*
X350296Y868619D01*
X351793Y867122D01*
X353627Y866063D01*
X355671Y865515D01*
X357788D01*
X359833Y866063D01*
X361666Y867122D01*
X363163Y868619D01*
X364222Y870452D01*
X364770Y872497D01*
Y874614D01*
X364222Y876659D01*
X363163Y878492D01*
X361666Y879989D01*
X359833Y881047D01*
X357788Y881595D01*
D02*
G37*
G36*
X306789D02*
X304672D01*
X302627Y881047D01*
X300793Y879989D01*
X299297Y878492D01*
X298238Y876659D01*
X297690Y874614D01*
Y872497D01*
X298238Y870452D01*
X299297Y868619D01*
X300793Y867122D01*
X302627Y866063D01*
X304672Y865515D01*
X306789D01*
X308834Y866063D01*
X310667Y867122D01*
X312164Y868619D01*
X313222Y870452D01*
X313770Y872497D01*
Y874614D01*
X313222Y876659D01*
X312164Y878492D01*
X310667Y879989D01*
X308834Y881047D01*
X306789Y881595D01*
D02*
G37*
G36*
X1409828Y880977D02*
X1407711D01*
X1405667Y880430D01*
X1403833Y879371D01*
X1402336Y877874D01*
X1401278Y876041D01*
X1400730Y873996D01*
Y871879D01*
X1401278Y869834D01*
X1402336Y868001D01*
X1403833Y866504D01*
X1405667Y865445D01*
X1407711Y864898D01*
X1409828D01*
X1411873Y865445D01*
X1413707Y866504D01*
X1415203Y868001D01*
X1416262Y869834D01*
X1416810Y871879D01*
Y873996D01*
X1416262Y876041D01*
X1415203Y877874D01*
X1413707Y879371D01*
X1411873Y880430D01*
X1409828Y880977D01*
D02*
G37*
G36*
X1358829D02*
X1356712D01*
X1354667Y880430D01*
X1352834Y879371D01*
X1351337Y877874D01*
X1350278Y876041D01*
X1349730Y873996D01*
Y871879D01*
X1350278Y869834D01*
X1351337Y868001D01*
X1352834Y866504D01*
X1354667Y865445D01*
X1356712Y864898D01*
X1358829D01*
X1360874Y865445D01*
X1362707Y866504D01*
X1364204Y868001D01*
X1365262Y869834D01*
X1365810Y871879D01*
Y873996D01*
X1365262Y876041D01*
X1364204Y877874D01*
X1362707Y879371D01*
X1360874Y880430D01*
X1358829Y880977D01*
D02*
G37*
G36*
X1233889D02*
X1231772D01*
X1229727Y880430D01*
X1227894Y879371D01*
X1226397Y877874D01*
X1225338Y876041D01*
X1224790Y873996D01*
Y871879D01*
X1225338Y869834D01*
X1226397Y868001D01*
X1227894Y866504D01*
X1229727Y865445D01*
X1231772Y864898D01*
X1233889D01*
X1235934Y865445D01*
X1237767Y866504D01*
X1239264Y868001D01*
X1240322Y869834D01*
X1240870Y871879D01*
Y873996D01*
X1240322Y876041D01*
X1239264Y877874D01*
X1237767Y879371D01*
X1235934Y880430D01*
X1233889Y880977D01*
D02*
G37*
G36*
X1016559Y871570D02*
X1009328D01*
Y864339D01*
X1011355Y864882D01*
X1013302Y866006D01*
X1014892Y867596D01*
X1016016Y869544D01*
X1016559Y871570D01*
D02*
G37*
G36*
X1006788D02*
X999557D01*
X1000100Y869544D01*
X1001225Y867596D01*
X1002815Y866006D01*
X1004762Y864882D01*
X1006788Y864339D01*
Y871570D01*
D02*
G37*
G36*
X1097183Y881380D02*
X1094934D01*
X1092763Y880798D01*
X1090815Y879674D01*
X1089225Y878084D01*
X1088101Y876136D01*
X1087519Y873964D01*
Y871716D01*
X1088101Y869544D01*
X1089225Y867596D01*
X1090815Y866006D01*
X1092763Y864882D01*
X1094934Y864300D01*
X1097183D01*
X1099355Y864882D01*
X1101302Y866006D01*
X1102893Y867596D01*
X1104017Y869544D01*
X1104599Y871716D01*
Y873964D01*
X1104017Y876136D01*
X1102893Y878084D01*
X1101302Y879674D01*
X1099355Y880798D01*
X1097183Y881380D01*
D02*
G37*
G36*
X694790Y864535D02*
Y857304D01*
X702020D01*
X701478Y859331D01*
X700353Y861278D01*
X698763Y862868D01*
X696816Y863992D01*
X694790Y864535D01*
D02*
G37*
G36*
X692250D02*
X690223Y863992D01*
X688276Y862868D01*
X686686Y861278D01*
X685562Y859331D01*
X685019Y857304D01*
X692250D01*
Y864535D01*
D02*
G37*
G36*
X1159473Y870425D02*
X1157007D01*
X1154625Y869787D01*
X1152490Y868554D01*
X1150746Y866810D01*
X1149513Y864675D01*
X1148875Y862293D01*
Y859827D01*
X1149513Y857445D01*
X1150746Y855310D01*
X1152490Y853566D01*
X1154625Y852333D01*
X1157007Y851695D01*
X1159473D01*
X1161855Y852333D01*
X1163990Y853566D01*
X1165734Y855310D01*
X1166967Y857445D01*
X1167605Y859827D01*
Y862293D01*
X1166967Y864675D01*
X1165734Y866810D01*
X1163990Y868554D01*
X1161855Y869787D01*
X1159473Y870425D01*
D02*
G37*
G36*
X702020Y854764D02*
X694790D01*
Y847533D01*
X696816Y848076D01*
X698763Y849201D01*
X700353Y850791D01*
X701478Y852738D01*
X702020Y854764D01*
D02*
G37*
G36*
X692250D02*
X685019D01*
X685562Y852738D01*
X686686Y850791D01*
X688276Y849201D01*
X690223Y848076D01*
X692250Y847533D01*
Y854764D01*
D02*
G37*
G36*
X606643Y864574D02*
X604395D01*
X602223Y863992D01*
X600276Y862868D01*
X598685Y861278D01*
X597561Y859331D01*
X596979Y857159D01*
Y854910D01*
X597561Y852738D01*
X598685Y850791D01*
X600276Y849201D01*
X602223Y848076D01*
X604395Y847494D01*
X606643D01*
X608815Y848076D01*
X610763Y849201D01*
X612353Y850791D01*
X613477Y852738D01*
X614059Y854910D01*
Y857159D01*
X613477Y859331D01*
X612353Y861278D01*
X610763Y862868D01*
X608815Y863992D01*
X606643Y864574D01*
D02*
G37*
G36*
X933518Y855980D02*
X933450D01*
Y847090D01*
X942340D01*
Y847158D01*
X941648Y849742D01*
X940310Y852058D01*
X938418Y853950D01*
X936102Y855288D01*
X933518Y855980D01*
D02*
G37*
G36*
X930910D02*
X930842D01*
X928258Y855288D01*
X925942Y853950D01*
X924050Y852058D01*
X922712Y849742D01*
X922020Y847158D01*
Y847090D01*
X930910D01*
Y855980D01*
D02*
G37*
G36*
X545428Y860820D02*
X542963D01*
X540581Y860182D01*
X538445Y858949D01*
X536702Y857206D01*
X535469Y855070D01*
X534831Y852688D01*
Y850222D01*
X535469Y847840D01*
X536702Y845705D01*
X538445Y843961D01*
X540581Y842728D01*
X542963Y842090D01*
X545428D01*
X547810Y842728D01*
X549946Y843961D01*
X551689Y845705D01*
X552922Y847840D01*
X553560Y850222D01*
Y852688D01*
X552922Y855070D01*
X551689Y857206D01*
X549946Y858949D01*
X547810Y860182D01*
X545428Y860820D01*
D02*
G37*
G36*
X1097183Y854720D02*
X1094934D01*
X1092763Y854138D01*
X1090815Y853014D01*
X1089225Y851424D01*
X1088101Y849476D01*
X1087519Y847305D01*
Y845056D01*
X1088101Y842884D01*
X1089225Y840937D01*
X1090815Y839346D01*
X1092763Y838222D01*
X1094934Y837640D01*
X1097183D01*
X1099355Y838222D01*
X1101302Y839346D01*
X1102893Y840937D01*
X1104017Y842884D01*
X1104599Y845056D01*
Y847305D01*
X1104017Y849476D01*
X1102893Y851424D01*
X1101302Y853014D01*
X1099355Y854138D01*
X1097183Y854720D01*
D02*
G37*
G36*
X1009183D02*
X1006934D01*
X1004762Y854138D01*
X1002815Y853014D01*
X1001225Y851424D01*
X1000100Y849476D01*
X999518Y847305D01*
Y845056D01*
X1000100Y842884D01*
X1001225Y840937D01*
X1002815Y839346D01*
X1004762Y838222D01*
X1006934Y837640D01*
X1009183D01*
X1011355Y838222D01*
X1013302Y839346D01*
X1014892Y840937D01*
X1016016Y842884D01*
X1016598Y845056D01*
Y847305D01*
X1016016Y849476D01*
X1014892Y851424D01*
X1013302Y853014D01*
X1011355Y854138D01*
X1009183Y854720D01*
D02*
G37*
G36*
X958918Y855980D02*
X956242D01*
X953658Y855288D01*
X951342Y853950D01*
X949450Y852058D01*
X948112Y849742D01*
X947420Y847158D01*
Y844482D01*
X948112Y841898D01*
X949450Y839582D01*
X951342Y837690D01*
X953658Y836352D01*
X956242Y835660D01*
X958918D01*
X961502Y836352D01*
X963818Y837690D01*
X965710Y839582D01*
X967048Y841898D01*
X967740Y844482D01*
Y847158D01*
X967048Y849742D01*
X965710Y852058D01*
X963818Y853950D01*
X961502Y855288D01*
X958918Y855980D01*
D02*
G37*
G36*
X942340Y844550D02*
X933450D01*
Y835660D01*
X933518D01*
X936102Y836352D01*
X938418Y837690D01*
X940310Y839582D01*
X941648Y841898D01*
X942340Y844482D01*
Y844550D01*
D02*
G37*
G36*
X930910D02*
X922020D01*
Y844482D01*
X922712Y841898D01*
X924050Y839582D01*
X925942Y837690D01*
X928258Y836352D01*
X930842Y835660D01*
X930910D01*
Y844550D01*
D02*
G37*
G36*
X770958Y839382D02*
X770890D01*
Y830492D01*
X779780D01*
Y830560D01*
X779088Y833144D01*
X777750Y835461D01*
X775858Y837352D01*
X773542Y838690D01*
X770958Y839382D01*
D02*
G37*
G36*
X768350D02*
X768282D01*
X765698Y838690D01*
X763382Y837352D01*
X761490Y835461D01*
X760152Y833144D01*
X759460Y830560D01*
Y830492D01*
X768350D01*
Y839382D01*
D02*
G37*
G36*
X1159473Y845025D02*
X1157007D01*
X1154625Y844387D01*
X1152490Y843154D01*
X1150746Y841410D01*
X1149513Y839275D01*
X1148875Y836893D01*
Y834427D01*
X1149513Y832045D01*
X1150746Y829910D01*
X1152490Y828166D01*
X1154625Y826933D01*
X1157007Y826295D01*
X1159473D01*
X1161855Y826933D01*
X1163990Y828166D01*
X1165734Y829910D01*
X1166967Y832045D01*
X1167605Y834427D01*
Y836893D01*
X1166967Y839275D01*
X1165734Y841410D01*
X1163990Y843154D01*
X1161855Y844387D01*
X1159473Y845025D01*
D02*
G37*
G36*
X694644Y837934D02*
X692395D01*
X690223Y837352D01*
X688276Y836228D01*
X686686Y834638D01*
X685562Y832691D01*
X684980Y830519D01*
Y828270D01*
X685562Y826098D01*
X686686Y824151D01*
X688276Y822561D01*
X690223Y821436D01*
X692395Y820854D01*
X694644D01*
X696816Y821436D01*
X698763Y822561D01*
X700353Y824151D01*
X701478Y826098D01*
X702060Y828270D01*
Y830519D01*
X701478Y832691D01*
X700353Y834638D01*
X698763Y836228D01*
X696816Y837352D01*
X694644Y837934D01*
D02*
G37*
G36*
X606643D02*
X604395D01*
X602223Y837352D01*
X600276Y836228D01*
X598685Y834638D01*
X597561Y832691D01*
X596979Y830519D01*
Y828270D01*
X597561Y826098D01*
X598685Y824151D01*
X600276Y822561D01*
X602223Y821436D01*
X604395Y820854D01*
X606643D01*
X608815Y821436D01*
X610763Y822561D01*
X612353Y824151D01*
X613477Y826098D01*
X614059Y828270D01*
Y830519D01*
X613477Y832691D01*
X612353Y834638D01*
X610763Y836228D01*
X608815Y837352D01*
X606643Y837934D01*
D02*
G37*
G36*
X1009328Y828041D02*
Y820810D01*
X1016559D01*
X1016016Y822837D01*
X1014892Y824784D01*
X1013302Y826374D01*
X1011355Y827498D01*
X1009328Y828041D01*
D02*
G37*
G36*
X1006788D02*
X1004762Y827498D01*
X1002815Y826374D01*
X1001225Y824784D01*
X1000100Y822837D01*
X999557Y820810D01*
X1006788D01*
Y828041D01*
D02*
G37*
G36*
X779780Y827952D02*
X770890D01*
Y819062D01*
X770958D01*
X773542Y819754D01*
X775858Y821092D01*
X777750Y822984D01*
X779088Y825301D01*
X779780Y827885D01*
Y827952D01*
D02*
G37*
G36*
X768350D02*
X759460D01*
Y827885D01*
X760152Y825301D01*
X761490Y822984D01*
X763382Y821092D01*
X765698Y819754D01*
X768282Y819062D01*
X768350D01*
Y827952D01*
D02*
G37*
G36*
X745558Y839382D02*
X742882D01*
X740298Y838690D01*
X737982Y837352D01*
X736090Y835461D01*
X734752Y833144D01*
X734060Y830560D01*
Y827885D01*
X734752Y825301D01*
X736090Y822984D01*
X737982Y821092D01*
X740298Y819754D01*
X742882Y819062D01*
X745558D01*
X748142Y819754D01*
X750458Y821092D01*
X752350Y822984D01*
X753688Y825301D01*
X754380Y827885D01*
Y830560D01*
X753688Y833144D01*
X752350Y835461D01*
X750458Y837352D01*
X748142Y838690D01*
X745558Y839382D01*
D02*
G37*
G36*
X545428Y835420D02*
X542963D01*
X540581Y834782D01*
X538445Y833549D01*
X536702Y831805D01*
X535469Y829670D01*
X534831Y827288D01*
Y824822D01*
X535469Y822440D01*
X536702Y820305D01*
X538445Y818561D01*
X540581Y817328D01*
X542963Y816690D01*
X545428D01*
X547810Y817328D01*
X549946Y818561D01*
X551689Y820305D01*
X552922Y822440D01*
X553560Y824822D01*
Y827288D01*
X552922Y829670D01*
X551689Y831805D01*
X549946Y833549D01*
X547810Y834782D01*
X545428Y835420D01*
D02*
G37*
G36*
X1016559Y818270D02*
X1009328D01*
Y811039D01*
X1011355Y811582D01*
X1013302Y812707D01*
X1014892Y814296D01*
X1016016Y816244D01*
X1016559Y818270D01*
D02*
G37*
G36*
X1006788D02*
X999557D01*
X1000100Y816244D01*
X1001225Y814296D01*
X1002815Y812707D01*
X1004762Y811582D01*
X1006788Y811039D01*
Y818270D01*
D02*
G37*
G36*
X1097183Y828080D02*
X1094934D01*
X1092763Y827498D01*
X1090815Y826374D01*
X1089225Y824784D01*
X1088101Y822837D01*
X1087519Y820664D01*
Y818416D01*
X1088101Y816244D01*
X1089225Y814296D01*
X1090815Y812707D01*
X1092763Y811582D01*
X1094934Y811000D01*
X1097183D01*
X1099355Y811582D01*
X1101302Y812707D01*
X1102893Y814296D01*
X1104017Y816244D01*
X1104599Y818416D01*
Y820664D01*
X1104017Y822837D01*
X1102893Y824784D01*
X1101302Y826374D01*
X1099355Y827498D01*
X1097183Y828080D01*
D02*
G37*
G36*
X694790Y811235D02*
Y804005D01*
X702020D01*
X701478Y806031D01*
X700353Y807978D01*
X698763Y809568D01*
X696816Y810693D01*
X694790Y811235D01*
D02*
G37*
G36*
X692250D02*
X690223Y810693D01*
X688276Y809568D01*
X686686Y807978D01*
X685562Y806031D01*
X685019Y804005D01*
X692250D01*
Y811235D01*
D02*
G37*
G36*
X1159473Y819625D02*
X1157007D01*
X1154625Y818987D01*
X1152490Y817754D01*
X1150746Y816010D01*
X1149513Y813875D01*
X1148875Y811493D01*
Y809027D01*
X1149513Y806645D01*
X1150746Y804510D01*
X1152490Y802766D01*
X1154625Y801533D01*
X1157007Y800895D01*
X1159473D01*
X1161855Y801533D01*
X1163990Y802766D01*
X1165734Y804510D01*
X1166967Y806645D01*
X1167605Y809027D01*
Y811493D01*
X1166967Y813875D01*
X1165734Y816010D01*
X1163990Y817754D01*
X1161855Y818987D01*
X1159473Y819625D01*
D02*
G37*
G36*
X702020Y801464D02*
X694790D01*
Y794233D01*
X696816Y794777D01*
X698763Y795901D01*
X700353Y797491D01*
X701478Y799438D01*
X702020Y801464D01*
D02*
G37*
G36*
X692250D02*
X685019D01*
X685562Y799438D01*
X686686Y797491D01*
X688276Y795901D01*
X690223Y794777D01*
X692250Y794233D01*
Y801464D01*
D02*
G37*
G36*
X606643Y811274D02*
X604395D01*
X602223Y810693D01*
X600276Y809568D01*
X598685Y807978D01*
X597561Y806031D01*
X596979Y803859D01*
Y801610D01*
X597561Y799438D01*
X598685Y797491D01*
X600276Y795901D01*
X602223Y794777D01*
X604395Y794194D01*
X606643D01*
X608815Y794777D01*
X610763Y795901D01*
X612353Y797491D01*
X613477Y799438D01*
X614059Y801610D01*
Y803859D01*
X613477Y806031D01*
X612353Y807978D01*
X610763Y809568D01*
X608815Y810693D01*
X606643Y811274D01*
D02*
G37*
G36*
X933518Y802640D02*
X933450D01*
Y793750D01*
X942340D01*
Y793818D01*
X941648Y796402D01*
X940310Y798718D01*
X938418Y800610D01*
X936102Y801948D01*
X933518Y802640D01*
D02*
G37*
G36*
X930910D02*
X930842D01*
X928258Y801948D01*
X925942Y800610D01*
X924050Y798718D01*
X922712Y796402D01*
X922020Y793818D01*
Y793750D01*
X930910D01*
Y802640D01*
D02*
G37*
G36*
X545428Y810020D02*
X542963D01*
X540581Y809382D01*
X538445Y808149D01*
X536702Y806405D01*
X535469Y804270D01*
X534831Y801888D01*
Y799422D01*
X535469Y797040D01*
X536702Y794905D01*
X538445Y793161D01*
X540581Y791928D01*
X542963Y791290D01*
X545428D01*
X547810Y791928D01*
X549946Y793161D01*
X551689Y794905D01*
X552922Y797040D01*
X553560Y799422D01*
Y801888D01*
X552922Y804270D01*
X551689Y806405D01*
X549946Y808149D01*
X547810Y809382D01*
X545428Y810020D01*
D02*
G37*
G36*
X1097183Y801420D02*
X1094934D01*
X1092763Y800838D01*
X1090815Y799714D01*
X1089225Y798123D01*
X1088101Y796176D01*
X1087519Y794004D01*
Y791756D01*
X1088101Y789584D01*
X1089225Y787636D01*
X1090815Y786046D01*
X1092763Y784922D01*
X1094934Y784340D01*
X1097183D01*
X1099355Y784922D01*
X1101302Y786046D01*
X1102893Y787636D01*
X1104017Y789584D01*
X1104599Y791756D01*
Y794004D01*
X1104017Y796176D01*
X1102893Y798123D01*
X1101302Y799714D01*
X1099355Y800838D01*
X1097183Y801420D01*
D02*
G37*
G36*
X1009183D02*
X1006934D01*
X1004762Y800838D01*
X1002815Y799714D01*
X1001225Y798123D01*
X1000100Y796176D01*
X999518Y794004D01*
Y791756D01*
X1000100Y789584D01*
X1001225Y787636D01*
X1002815Y786046D01*
X1004762Y784922D01*
X1006934Y784340D01*
X1009183D01*
X1011355Y784922D01*
X1013302Y786046D01*
X1014892Y787636D01*
X1016016Y789584D01*
X1016598Y791756D01*
Y794004D01*
X1016016Y796176D01*
X1014892Y798123D01*
X1013302Y799714D01*
X1011355Y800838D01*
X1009183Y801420D01*
D02*
G37*
G36*
X482728Y799095D02*
X480611D01*
X478567Y798547D01*
X476733Y797489D01*
X475236Y795992D01*
X474178Y794158D01*
X473630Y792114D01*
Y789997D01*
X474178Y787952D01*
X475236Y786118D01*
X476733Y784622D01*
X478567Y783563D01*
X480611Y783015D01*
X482728D01*
X484773Y783563D01*
X486606Y784622D01*
X488103Y786118D01*
X489162Y787952D01*
X489710Y789997D01*
Y792114D01*
X489162Y794158D01*
X488103Y795992D01*
X486606Y797489D01*
X484773Y798547D01*
X482728Y799095D01*
D02*
G37*
G36*
X438710D02*
X422630D01*
Y783015D01*
X438710D01*
Y799095D01*
D02*
G37*
G36*
X357788D02*
X355671D01*
X353627Y798547D01*
X351793Y797489D01*
X350296Y795992D01*
X349238Y794158D01*
X348690Y792114D01*
Y789997D01*
X349238Y787952D01*
X350296Y786118D01*
X351793Y784622D01*
X353627Y783563D01*
X355671Y783015D01*
X357788D01*
X359833Y783563D01*
X361666Y784622D01*
X363163Y786118D01*
X364222Y787952D01*
X364770Y789997D01*
Y792114D01*
X364222Y794158D01*
X363163Y795992D01*
X361666Y797489D01*
X359833Y798547D01*
X357788Y799095D01*
D02*
G37*
G36*
X313770D02*
X297690D01*
Y783015D01*
X313770D01*
Y799095D01*
D02*
G37*
G36*
X1409828Y798478D02*
X1407711D01*
X1405667Y797930D01*
X1403833Y796871D01*
X1402336Y795375D01*
X1401278Y793541D01*
X1400730Y791496D01*
Y789379D01*
X1401278Y787335D01*
X1402336Y785501D01*
X1403833Y784004D01*
X1405667Y782946D01*
X1407711Y782398D01*
X1409828D01*
X1411873Y782946D01*
X1413707Y784004D01*
X1415203Y785501D01*
X1416262Y787335D01*
X1416810Y789379D01*
Y791496D01*
X1416262Y793541D01*
X1415203Y795375D01*
X1413707Y796871D01*
X1411873Y797930D01*
X1409828Y798478D01*
D02*
G37*
G36*
X1284889Y798477D02*
X1282772D01*
X1280727Y797929D01*
X1278894Y796871D01*
X1277397Y795374D01*
X1276338Y793541D01*
X1275790Y791496D01*
Y789379D01*
X1276338Y787334D01*
X1277397Y785501D01*
X1278894Y784004D01*
X1280727Y782945D01*
X1282772Y782397D01*
X1284889D01*
X1286934Y782945D01*
X1288767Y784004D01*
X1290264Y785501D01*
X1291322Y787334D01*
X1291870Y789379D01*
Y791496D01*
X1291322Y793541D01*
X1290264Y795374D01*
X1288767Y796871D01*
X1286934Y797929D01*
X1284889Y798477D01*
D02*
G37*
G36*
X958918Y802640D02*
X956242D01*
X953658Y801948D01*
X951342Y800610D01*
X949450Y798718D01*
X948112Y796402D01*
X947420Y793818D01*
Y791142D01*
X948112Y788558D01*
X949450Y786242D01*
X951342Y784350D01*
X953658Y783012D01*
X956242Y782320D01*
X958918D01*
X961502Y783012D01*
X963818Y784350D01*
X965710Y786242D01*
X967048Y788558D01*
X967740Y791142D01*
Y793818D01*
X967048Y796402D01*
X965710Y798718D01*
X963818Y800610D01*
X961502Y801948D01*
X958918Y802640D01*
D02*
G37*
G36*
X942340Y791210D02*
X933450D01*
Y782320D01*
X933518D01*
X936102Y783012D01*
X938418Y784350D01*
X940310Y786242D01*
X941648Y788558D01*
X942340Y791142D01*
Y791210D01*
D02*
G37*
G36*
X930910D02*
X922020D01*
Y791142D01*
X922712Y788558D01*
X924050Y786242D01*
X925942Y784350D01*
X928258Y783012D01*
X930842Y782320D01*
X930910D01*
Y791210D01*
D02*
G37*
G36*
X770958Y786341D02*
X770890D01*
Y777451D01*
X779780D01*
Y777518D01*
X779088Y780102D01*
X777750Y782419D01*
X775858Y784311D01*
X773542Y785648D01*
X770958Y786341D01*
D02*
G37*
G36*
X768350D02*
X768282D01*
X765698Y785648D01*
X763382Y784311D01*
X761490Y782419D01*
X760152Y780102D01*
X759460Y777518D01*
Y777451D01*
X768350D01*
Y786341D01*
D02*
G37*
G36*
X1159473Y794225D02*
X1157007D01*
X1154625Y793587D01*
X1152490Y792354D01*
X1150746Y790610D01*
X1149513Y788475D01*
X1148875Y786093D01*
Y783627D01*
X1149513Y781245D01*
X1150746Y779110D01*
X1152490Y777366D01*
X1154625Y776133D01*
X1157007Y775495D01*
X1159473D01*
X1161855Y776133D01*
X1163990Y777366D01*
X1165734Y779110D01*
X1166967Y781245D01*
X1167605Y783627D01*
Y786093D01*
X1166967Y788475D01*
X1165734Y790610D01*
X1163990Y792354D01*
X1161855Y793587D01*
X1159473Y794225D01*
D02*
G37*
G36*
X694644Y784634D02*
X692395D01*
X690223Y784053D01*
X688276Y782928D01*
X686686Y781338D01*
X685562Y779391D01*
X684980Y777219D01*
Y774970D01*
X685562Y772798D01*
X686686Y770851D01*
X688276Y769261D01*
X690223Y768137D01*
X692395Y767554D01*
X694644D01*
X696816Y768137D01*
X698763Y769261D01*
X700353Y770851D01*
X701478Y772798D01*
X702060Y774970D01*
Y777219D01*
X701478Y779391D01*
X700353Y781338D01*
X698763Y782928D01*
X696816Y784053D01*
X694644Y784634D01*
D02*
G37*
G36*
X606643D02*
X604395D01*
X602223Y784053D01*
X600276Y782928D01*
X598685Y781338D01*
X597561Y779391D01*
X596979Y777219D01*
Y774970D01*
X597561Y772798D01*
X598685Y770851D01*
X600276Y769261D01*
X602223Y768137D01*
X604395Y767554D01*
X606643D01*
X608815Y768137D01*
X610763Y769261D01*
X612353Y770851D01*
X613477Y772798D01*
X614059Y774970D01*
Y777219D01*
X613477Y779391D01*
X612353Y781338D01*
X610763Y782928D01*
X608815Y784053D01*
X606643Y784634D01*
D02*
G37*
G36*
X1009328Y774741D02*
Y767510D01*
X1016559D01*
X1016016Y769537D01*
X1014892Y771484D01*
X1013302Y773074D01*
X1011355Y774198D01*
X1009328Y774741D01*
D02*
G37*
G36*
X1006788D02*
X1004762Y774198D01*
X1002815Y773074D01*
X1001225Y771484D01*
X1000100Y769537D01*
X999557Y767510D01*
X1006788D01*
Y774741D01*
D02*
G37*
G36*
X779780Y774911D02*
X770890D01*
Y766021D01*
X770958D01*
X773542Y766713D01*
X775858Y768051D01*
X777750Y769942D01*
X779088Y772259D01*
X779780Y774843D01*
Y774911D01*
D02*
G37*
G36*
X768350D02*
X759460D01*
Y774843D01*
X760152Y772259D01*
X761490Y769942D01*
X763382Y768051D01*
X765698Y766713D01*
X768282Y766021D01*
X768350D01*
Y774911D01*
D02*
G37*
G36*
X745558Y786341D02*
X742882D01*
X740298Y785648D01*
X737982Y784311D01*
X736090Y782419D01*
X734752Y780102D01*
X734060Y777518D01*
Y774843D01*
X734752Y772259D01*
X736090Y769942D01*
X737982Y768051D01*
X740298Y766713D01*
X742882Y766021D01*
X745558D01*
X748142Y766713D01*
X750458Y768051D01*
X752350Y769942D01*
X753688Y772259D01*
X754380Y774843D01*
Y777518D01*
X753688Y780102D01*
X752350Y782419D01*
X750458Y784311D01*
X748142Y785648D01*
X745558Y786341D01*
D02*
G37*
G36*
X545428Y784620D02*
X542963D01*
X540581Y783982D01*
X538445Y782749D01*
X536702Y781005D01*
X535469Y778870D01*
X534831Y776488D01*
Y774022D01*
X535469Y771640D01*
X536702Y769505D01*
X538445Y767761D01*
X540581Y766528D01*
X542963Y765890D01*
X545428D01*
X547810Y766528D01*
X549946Y767761D01*
X551689Y769505D01*
X552922Y771640D01*
X553560Y774022D01*
Y776488D01*
X552922Y778870D01*
X551689Y781005D01*
X549946Y782749D01*
X547810Y783982D01*
X545428Y784620D01*
D02*
G37*
G36*
X1016559Y764970D02*
X1009328D01*
Y757739D01*
X1011355Y758282D01*
X1013302Y759407D01*
X1014892Y760997D01*
X1016016Y762944D01*
X1016559Y764970D01*
D02*
G37*
G36*
X1006788D02*
X999557D01*
X1000100Y762944D01*
X1001225Y760997D01*
X1002815Y759407D01*
X1004762Y758282D01*
X1006788Y757739D01*
Y764970D01*
D02*
G37*
G36*
X1097183Y774780D02*
X1094934D01*
X1092763Y774198D01*
X1090815Y773074D01*
X1089225Y771484D01*
X1088101Y769537D01*
X1087519Y767365D01*
Y765116D01*
X1088101Y762944D01*
X1089225Y760997D01*
X1090815Y759407D01*
X1092763Y758282D01*
X1094934Y757700D01*
X1097183D01*
X1099355Y758282D01*
X1101302Y759407D01*
X1102893Y760997D01*
X1104017Y762944D01*
X1104599Y765116D01*
Y767365D01*
X1104017Y769537D01*
X1102893Y771484D01*
X1101302Y773074D01*
X1099355Y774198D01*
X1097183Y774780D01*
D02*
G37*
G36*
X694790Y757936D02*
Y750705D01*
X702020D01*
X701478Y752731D01*
X700353Y754678D01*
X698763Y756268D01*
X696816Y757393D01*
X694790Y757936D01*
D02*
G37*
G36*
X692250D02*
X690223Y757393D01*
X688276Y756268D01*
X686686Y754678D01*
X685562Y752731D01*
X685019Y750705D01*
X692250D01*
Y757936D01*
D02*
G37*
G36*
X1159473Y768825D02*
X1157007D01*
X1154625Y768187D01*
X1152490Y766954D01*
X1150746Y765210D01*
X1149513Y763075D01*
X1148875Y760693D01*
Y758227D01*
X1149513Y755845D01*
X1150746Y753710D01*
X1152490Y751966D01*
X1154625Y750733D01*
X1157007Y750095D01*
X1159473D01*
X1161855Y750733D01*
X1163990Y751966D01*
X1165734Y753710D01*
X1166967Y755845D01*
X1167605Y758227D01*
Y760693D01*
X1166967Y763075D01*
X1165734Y765210D01*
X1163990Y766954D01*
X1161855Y768187D01*
X1159473Y768825D01*
D02*
G37*
G36*
X702020Y748165D02*
X694790D01*
Y740934D01*
X696816Y741477D01*
X698763Y742601D01*
X700353Y744191D01*
X701478Y746138D01*
X702020Y748165D01*
D02*
G37*
G36*
X692250D02*
X685019D01*
X685562Y746138D01*
X686686Y744191D01*
X688276Y742601D01*
X690223Y741477D01*
X692250Y740934D01*
Y748165D01*
D02*
G37*
G36*
X606643Y757975D02*
X604395D01*
X602223Y757393D01*
X600276Y756268D01*
X598685Y754678D01*
X597561Y752731D01*
X596979Y750559D01*
Y748310D01*
X597561Y746138D01*
X598685Y744191D01*
X600276Y742601D01*
X602223Y741477D01*
X604395Y740895D01*
X606643D01*
X608815Y741477D01*
X610763Y742601D01*
X612353Y744191D01*
X613477Y746138D01*
X614059Y748310D01*
Y750559D01*
X613477Y752731D01*
X612353Y754678D01*
X610763Y756268D01*
X608815Y757393D01*
X606643Y757975D01*
D02*
G37*
G36*
X545428Y759220D02*
X542963D01*
X540581Y758582D01*
X538445Y757349D01*
X536702Y755605D01*
X535469Y753470D01*
X534831Y751088D01*
Y748622D01*
X535469Y746240D01*
X536702Y744105D01*
X538445Y742361D01*
X540581Y741128D01*
X542963Y740490D01*
X545428D01*
X547810Y741128D01*
X549946Y742361D01*
X551689Y744105D01*
X552922Y746240D01*
X553560Y748622D01*
Y751088D01*
X552922Y753470D01*
X551689Y755605D01*
X549946Y757349D01*
X547810Y758582D01*
X545428Y759220D01*
D02*
G37*
G36*
X933518Y749300D02*
X933450D01*
Y740410D01*
X942340D01*
Y740478D01*
X941648Y743062D01*
X940310Y745378D01*
X938418Y747270D01*
X936102Y748608D01*
X933518Y749300D01*
D02*
G37*
G36*
X930910D02*
X930842D01*
X928258Y748608D01*
X925942Y747270D01*
X924050Y745378D01*
X922712Y743062D01*
X922020Y740478D01*
Y740410D01*
X930910D01*
Y749300D01*
D02*
G37*
G36*
X482728Y753325D02*
X480611D01*
X478567Y752777D01*
X476733Y751719D01*
X475236Y750222D01*
X474178Y748389D01*
X473630Y746344D01*
Y744227D01*
X474178Y742182D01*
X475236Y740349D01*
X476733Y738852D01*
X478567Y737793D01*
X480611Y737245D01*
X482728D01*
X484773Y737793D01*
X486606Y738852D01*
X488103Y740349D01*
X489162Y742182D01*
X489710Y744227D01*
Y746344D01*
X489162Y748389D01*
X488103Y750222D01*
X486606Y751719D01*
X484773Y752777D01*
X482728Y753325D01*
D02*
G37*
G36*
X431729D02*
X429612D01*
X427567Y752777D01*
X425733Y751719D01*
X424237Y750222D01*
X423178Y748389D01*
X422630Y746344D01*
Y744227D01*
X423178Y742182D01*
X424237Y740349D01*
X425733Y738852D01*
X427567Y737793D01*
X429612Y737245D01*
X431729D01*
X433773Y737793D01*
X435607Y738852D01*
X437104Y740349D01*
X438162Y742182D01*
X438710Y744227D01*
Y746344D01*
X438162Y748389D01*
X437104Y750222D01*
X435607Y751719D01*
X433773Y752777D01*
X431729Y753325D01*
D02*
G37*
G36*
X357788D02*
X355671D01*
X353627Y752777D01*
X351793Y751719D01*
X350296Y750222D01*
X349238Y748389D01*
X348690Y746344D01*
Y744227D01*
X349238Y742182D01*
X350296Y740349D01*
X351793Y738852D01*
X353627Y737793D01*
X355671Y737245D01*
X357788D01*
X359833Y737793D01*
X361666Y738852D01*
X363163Y740349D01*
X364222Y742182D01*
X364770Y744227D01*
Y746344D01*
X364222Y748389D01*
X363163Y750222D01*
X361666Y751719D01*
X359833Y752777D01*
X357788Y753325D01*
D02*
G37*
G36*
X306789D02*
X304672D01*
X302627Y752777D01*
X300793Y751719D01*
X299297Y750222D01*
X298238Y748389D01*
X297690Y746344D01*
Y744227D01*
X298238Y742182D01*
X299297Y740349D01*
X300793Y738852D01*
X302627Y737793D01*
X304672Y737245D01*
X306789D01*
X308834Y737793D01*
X310667Y738852D01*
X312164Y740349D01*
X313222Y742182D01*
X313770Y744227D01*
Y746344D01*
X313222Y748389D01*
X312164Y750222D01*
X310667Y751719D01*
X308834Y752777D01*
X306789Y753325D01*
D02*
G37*
G36*
X1409828Y751015D02*
X1407711D01*
X1405667Y750467D01*
X1403833Y749408D01*
X1402336Y747912D01*
X1401278Y746078D01*
X1400730Y744033D01*
Y741916D01*
X1401278Y739872D01*
X1402336Y738038D01*
X1403833Y736541D01*
X1405667Y735483D01*
X1407711Y734935D01*
X1409828D01*
X1411873Y735483D01*
X1413707Y736541D01*
X1415203Y738038D01*
X1416262Y739872D01*
X1416810Y741916D01*
Y744033D01*
X1416262Y746078D01*
X1415203Y747912D01*
X1413707Y749408D01*
X1411873Y750467D01*
X1409828Y751015D01*
D02*
G37*
G36*
X1358829D02*
X1356712D01*
X1354667Y750467D01*
X1352834Y749408D01*
X1351337Y747912D01*
X1350278Y746078D01*
X1349730Y744033D01*
Y741916D01*
X1350278Y739872D01*
X1351337Y738038D01*
X1352834Y736541D01*
X1354667Y735483D01*
X1356712Y734935D01*
X1358829D01*
X1360874Y735483D01*
X1362707Y736541D01*
X1364204Y738038D01*
X1365262Y739872D01*
X1365810Y741916D01*
Y744033D01*
X1365262Y746078D01*
X1364204Y747912D01*
X1362707Y749408D01*
X1360874Y750467D01*
X1358829Y751015D01*
D02*
G37*
G36*
X1284889D02*
X1282772D01*
X1280727Y750467D01*
X1278894Y749408D01*
X1277397Y747912D01*
X1276338Y746078D01*
X1275790Y744033D01*
Y741916D01*
X1276338Y739872D01*
X1277397Y738038D01*
X1278894Y736541D01*
X1280727Y735483D01*
X1282772Y734935D01*
X1284889D01*
X1286934Y735483D01*
X1288767Y736541D01*
X1290264Y738038D01*
X1291322Y739872D01*
X1291870Y741916D01*
Y744033D01*
X1291322Y746078D01*
X1290264Y747912D01*
X1288767Y749408D01*
X1286934Y750467D01*
X1284889Y751015D01*
D02*
G37*
G36*
X1233889D02*
X1231772D01*
X1229727Y750467D01*
X1227894Y749408D01*
X1226397Y747912D01*
X1225338Y746078D01*
X1224790Y744033D01*
Y741916D01*
X1225338Y739872D01*
X1226397Y738038D01*
X1227894Y736541D01*
X1229727Y735483D01*
X1231772Y734935D01*
X1233889D01*
X1235934Y735483D01*
X1237767Y736541D01*
X1239264Y738038D01*
X1240322Y739872D01*
X1240870Y741916D01*
Y744033D01*
X1240322Y746078D01*
X1239264Y747912D01*
X1237767Y749408D01*
X1235934Y750467D01*
X1233889Y751015D01*
D02*
G37*
G36*
X1097183Y748120D02*
X1094934D01*
X1092763Y747538D01*
X1090815Y746414D01*
X1089225Y744824D01*
X1088101Y742876D01*
X1087519Y740704D01*
Y738456D01*
X1088101Y736284D01*
X1089225Y734336D01*
X1090815Y732746D01*
X1092763Y731622D01*
X1094934Y731040D01*
X1097183D01*
X1099355Y731622D01*
X1101302Y732746D01*
X1102893Y734336D01*
X1104017Y736284D01*
X1104599Y738456D01*
Y740704D01*
X1104017Y742876D01*
X1102893Y744824D01*
X1101302Y746414D01*
X1099355Y747538D01*
X1097183Y748120D01*
D02*
G37*
G36*
X1009183D02*
X1006934D01*
X1004762Y747538D01*
X1002815Y746414D01*
X1001225Y744824D01*
X1000100Y742876D01*
X999518Y740704D01*
Y738456D01*
X1000100Y736284D01*
X1001225Y734336D01*
X1002815Y732746D01*
X1004762Y731622D01*
X1006934Y731040D01*
X1009183D01*
X1011355Y731622D01*
X1013302Y732746D01*
X1014892Y734336D01*
X1016016Y736284D01*
X1016598Y738456D01*
Y740704D01*
X1016016Y742876D01*
X1014892Y744824D01*
X1013302Y746414D01*
X1011355Y747538D01*
X1009183Y748120D01*
D02*
G37*
G36*
X958918Y749300D02*
X956242D01*
X953658Y748608D01*
X951342Y747270D01*
X949450Y745378D01*
X948112Y743062D01*
X947420Y740478D01*
Y737802D01*
X948112Y735218D01*
X949450Y732902D01*
X951342Y731010D01*
X953658Y729672D01*
X956242Y728980D01*
X958918D01*
X961502Y729672D01*
X963818Y731010D01*
X965710Y732902D01*
X967048Y735218D01*
X967740Y737802D01*
Y740478D01*
X967048Y743062D01*
X965710Y745378D01*
X963818Y747270D01*
X961502Y748608D01*
X958918Y749300D01*
D02*
G37*
G36*
X942340Y737870D02*
X933450D01*
Y728980D01*
X933518D01*
X936102Y729672D01*
X938418Y731010D01*
X940310Y732902D01*
X941648Y735218D01*
X942340Y737802D01*
Y737870D01*
D02*
G37*
G36*
X930910D02*
X922020D01*
Y737802D01*
X922712Y735218D01*
X924050Y732902D01*
X925942Y731010D01*
X928258Y729672D01*
X930842Y728980D01*
X930910D01*
Y737870D01*
D02*
G37*
G36*
X1159473Y743425D02*
X1157007D01*
X1154625Y742787D01*
X1152490Y741554D01*
X1150746Y739810D01*
X1149513Y737675D01*
X1148875Y735293D01*
Y732827D01*
X1149513Y730445D01*
X1150746Y728310D01*
X1152490Y726566D01*
X1154625Y725333D01*
X1157007Y724695D01*
X1159473D01*
X1161855Y725333D01*
X1163990Y726566D01*
X1165734Y728310D01*
X1166967Y730445D01*
X1167605Y732827D01*
Y735293D01*
X1166967Y737675D01*
X1165734Y739810D01*
X1163990Y741554D01*
X1161855Y742787D01*
X1159473Y743425D01*
D02*
G37*
G36*
X770958Y733140D02*
X770890D01*
Y724250D01*
X779780D01*
Y724318D01*
X779088Y726902D01*
X777750Y729218D01*
X775858Y731110D01*
X773542Y732448D01*
X770958Y733140D01*
D02*
G37*
G36*
X768350D02*
X768282D01*
X765698Y732448D01*
X763382Y731110D01*
X761490Y729218D01*
X760152Y726902D01*
X759460Y724318D01*
Y724250D01*
X768350D01*
Y733140D01*
D02*
G37*
G36*
X545428Y733820D02*
X542963D01*
X540581Y733182D01*
X538445Y731949D01*
X536702Y730206D01*
X535469Y728070D01*
X534831Y725688D01*
Y723222D01*
X535469Y720841D01*
X536702Y718705D01*
X538445Y716961D01*
X540581Y715728D01*
X542963Y715090D01*
X545428D01*
X547810Y715728D01*
X549946Y716961D01*
X551689Y718705D01*
X552922Y720841D01*
X553560Y723222D01*
Y725688D01*
X552922Y728070D01*
X551689Y730206D01*
X549946Y731949D01*
X547810Y733182D01*
X545428Y733820D01*
D02*
G37*
G36*
X694644Y731335D02*
X692395D01*
X690223Y730753D01*
X688276Y729628D01*
X686686Y728038D01*
X685562Y726091D01*
X684980Y723919D01*
Y721670D01*
X685562Y719498D01*
X686686Y717551D01*
X688276Y715961D01*
X690223Y714837D01*
X692395Y714255D01*
X694644D01*
X696816Y714837D01*
X698763Y715961D01*
X700353Y717551D01*
X701478Y719498D01*
X702060Y721670D01*
Y723919D01*
X701478Y726091D01*
X700353Y728038D01*
X698763Y729628D01*
X696816Y730753D01*
X694644Y731335D01*
D02*
G37*
G36*
X606643D02*
X604395D01*
X602223Y730753D01*
X600276Y729628D01*
X598685Y728038D01*
X597561Y726091D01*
X596979Y723919D01*
Y721670D01*
X597561Y719498D01*
X598685Y717551D01*
X600276Y715961D01*
X602223Y714837D01*
X604395Y714255D01*
X606643D01*
X608815Y714837D01*
X610763Y715961D01*
X612353Y717551D01*
X613477Y719498D01*
X614059Y721670D01*
Y723919D01*
X613477Y726091D01*
X612353Y728038D01*
X610763Y729628D01*
X608815Y730753D01*
X606643Y731335D01*
D02*
G37*
G36*
X1009328Y721441D02*
Y714210D01*
X1016559D01*
X1016016Y716236D01*
X1014892Y718184D01*
X1013302Y719774D01*
X1011355Y720898D01*
X1009328Y721441D01*
D02*
G37*
G36*
X1006788D02*
X1004762Y720898D01*
X1002815Y719774D01*
X1001225Y718184D01*
X1000100Y716236D01*
X999557Y714210D01*
X1006788D01*
Y721441D01*
D02*
G37*
G36*
X779780Y721710D02*
X770890D01*
Y712820D01*
X770958D01*
X773542Y713512D01*
X775858Y714850D01*
X777750Y716742D01*
X779088Y719058D01*
X779780Y721642D01*
Y721710D01*
D02*
G37*
G36*
X768350D02*
X759460D01*
Y721642D01*
X760152Y719058D01*
X761490Y716742D01*
X763382Y714850D01*
X765698Y713512D01*
X768282Y712820D01*
X768350D01*
Y721710D01*
D02*
G37*
G36*
X745558Y733140D02*
X742882D01*
X740298Y732448D01*
X737982Y731110D01*
X736090Y729218D01*
X734752Y726902D01*
X734060Y724318D01*
Y721642D01*
X734752Y719058D01*
X736090Y716742D01*
X737982Y714850D01*
X740298Y713512D01*
X742882Y712820D01*
X745558D01*
X748142Y713512D01*
X750458Y714850D01*
X752350Y716742D01*
X753688Y719058D01*
X754380Y721642D01*
Y724318D01*
X753688Y726902D01*
X752350Y729218D01*
X750458Y731110D01*
X748142Y732448D01*
X745558Y733140D01*
D02*
G37*
G36*
X1016559Y711670D02*
X1009328D01*
Y704439D01*
X1011355Y704982D01*
X1013302Y706106D01*
X1014892Y707696D01*
X1016016Y709644D01*
X1016559Y711670D01*
D02*
G37*
G36*
X1006788D02*
X999557D01*
X1000100Y709644D01*
X1001225Y707696D01*
X1002815Y706106D01*
X1004762Y704982D01*
X1006788Y704439D01*
Y711670D01*
D02*
G37*
G36*
X1097183Y721480D02*
X1094934D01*
X1092763Y720898D01*
X1090815Y719774D01*
X1089225Y718184D01*
X1088101Y716236D01*
X1087519Y714064D01*
Y711816D01*
X1088101Y709644D01*
X1089225Y707696D01*
X1090815Y706106D01*
X1092763Y704982D01*
X1094934Y704400D01*
X1097183D01*
X1099355Y704982D01*
X1101302Y706106D01*
X1102893Y707696D01*
X1104017Y709644D01*
X1104599Y711816D01*
Y714064D01*
X1104017Y716236D01*
X1102893Y718184D01*
X1101302Y719774D01*
X1099355Y720898D01*
X1097183Y721480D01*
D02*
G37*
G36*
X1159473Y718025D02*
X1157007D01*
X1154625Y717387D01*
X1152490Y716154D01*
X1150746Y714410D01*
X1149513Y712275D01*
X1148875Y709893D01*
Y707427D01*
X1149513Y705045D01*
X1150746Y702910D01*
X1152490Y701166D01*
X1154625Y699933D01*
X1157007Y699295D01*
X1159473D01*
X1161855Y699933D01*
X1163990Y701166D01*
X1165734Y702910D01*
X1166967Y705045D01*
X1167605Y707427D01*
Y709893D01*
X1166967Y712275D01*
X1165734Y714410D01*
X1163990Y716154D01*
X1161855Y717387D01*
X1159473Y718025D01*
D02*
G37*
G36*
X694790Y704635D02*
Y697404D01*
X702020D01*
X701478Y699431D01*
X700353Y701378D01*
X698763Y702968D01*
X696816Y704092D01*
X694790Y704635D01*
D02*
G37*
G36*
X692250D02*
X690223Y704092D01*
X688276Y702968D01*
X686686Y701378D01*
X685562Y699431D01*
X685019Y697404D01*
X692250D01*
Y704635D01*
D02*
G37*
G36*
X545428Y708420D02*
X542963D01*
X540581Y707782D01*
X538445Y706549D01*
X536702Y704806D01*
X535469Y702670D01*
X534831Y700288D01*
Y697822D01*
X535469Y695441D01*
X536702Y693305D01*
X538445Y691561D01*
X540581Y690328D01*
X542963Y689690D01*
X545428D01*
X547810Y690328D01*
X549946Y691561D01*
X551689Y693305D01*
X552922Y695441D01*
X553560Y697822D01*
Y700288D01*
X552922Y702670D01*
X551689Y704806D01*
X549946Y706549D01*
X547810Y707782D01*
X545428Y708420D01*
D02*
G37*
G36*
X702020Y694864D02*
X694790D01*
Y687633D01*
X696816Y688176D01*
X698763Y689301D01*
X700353Y690891D01*
X701478Y692838D01*
X702020Y694864D01*
D02*
G37*
G36*
X692250D02*
X685019D01*
X685562Y692838D01*
X686686Y690891D01*
X688276Y689301D01*
X690223Y688176D01*
X692250Y687633D01*
Y694864D01*
D02*
G37*
G36*
X606643Y704674D02*
X604395D01*
X602223Y704092D01*
X600276Y702968D01*
X598685Y701378D01*
X597561Y699431D01*
X596979Y697259D01*
Y695010D01*
X597561Y692838D01*
X598685Y690891D01*
X600276Y689301D01*
X602223Y688176D01*
X604395Y687594D01*
X606643D01*
X608815Y688176D01*
X610763Y689301D01*
X612353Y690891D01*
X613477Y692838D01*
X614059Y695010D01*
Y697259D01*
X613477Y699431D01*
X612353Y701378D01*
X610763Y702968D01*
X608815Y704092D01*
X606643Y704674D01*
D02*
G37*
G36*
X933518Y695960D02*
X933450D01*
Y687070D01*
X942340D01*
Y687138D01*
X941648Y689722D01*
X940310Y692038D01*
X938418Y693930D01*
X936102Y695268D01*
X933518Y695960D01*
D02*
G37*
G36*
X930910D02*
X930842D01*
X928258Y695268D01*
X925942Y693930D01*
X924050Y692038D01*
X922712Y689722D01*
X922020Y687138D01*
Y687070D01*
X930910D01*
Y695960D01*
D02*
G37*
G36*
X1104599Y694820D02*
X1087519D01*
Y677740D01*
X1104599D01*
Y694820D01*
D02*
G37*
G36*
X1009183D02*
X1006934D01*
X1004762Y694238D01*
X1002815Y693114D01*
X1001225Y691524D01*
X1000100Y689576D01*
X999518Y687404D01*
Y685156D01*
X1000100Y682984D01*
X1001225Y681036D01*
X1002815Y679446D01*
X1004762Y678322D01*
X1006934Y677740D01*
X1009183D01*
X1011355Y678322D01*
X1013302Y679446D01*
X1014892Y681036D01*
X1016016Y682984D01*
X1016598Y685156D01*
Y687404D01*
X1016016Y689576D01*
X1014892Y691524D01*
X1013302Y693114D01*
X1011355Y694238D01*
X1009183Y694820D01*
D02*
G37*
G36*
X958918Y695960D02*
X956242D01*
X953658Y695268D01*
X951342Y693930D01*
X949450Y692038D01*
X948112Y689722D01*
X947420Y687138D01*
Y684462D01*
X948112Y681878D01*
X949450Y679562D01*
X951342Y677670D01*
X953658Y676332D01*
X956242Y675640D01*
X958918D01*
X961502Y676332D01*
X963818Y677670D01*
X965710Y679562D01*
X967048Y681878D01*
X967740Y684462D01*
Y687138D01*
X967048Y689722D01*
X965710Y692038D01*
X963818Y693930D01*
X961502Y695268D01*
X958918Y695960D01*
D02*
G37*
G36*
X942340Y684530D02*
X933450D01*
Y675640D01*
X933518D01*
X936102Y676332D01*
X938418Y677670D01*
X940310Y679562D01*
X941648Y681878D01*
X942340Y684462D01*
Y684530D01*
D02*
G37*
G36*
X930910D02*
X922020D01*
Y684462D01*
X922712Y681878D01*
X924050Y679562D01*
X925942Y677670D01*
X928258Y676332D01*
X930842Y675640D01*
X930910D01*
Y684530D01*
D02*
G37*
G36*
X1159473Y692625D02*
X1157007D01*
X1154625Y691987D01*
X1152490Y690754D01*
X1150746Y689010D01*
X1149513Y686875D01*
X1148875Y684493D01*
Y682027D01*
X1149513Y679645D01*
X1150746Y677510D01*
X1152490Y675766D01*
X1154625Y674533D01*
X1157007Y673895D01*
X1159473D01*
X1161855Y674533D01*
X1163990Y675766D01*
X1165734Y677510D01*
X1166967Y679645D01*
X1167605Y682027D01*
Y684493D01*
X1166967Y686875D01*
X1165734Y689010D01*
X1163990Y690754D01*
X1161855Y691987D01*
X1159473Y692625D01*
D02*
G37*
G36*
X545428Y683020D02*
X542963D01*
X540581Y682382D01*
X538445Y681149D01*
X536702Y679406D01*
X535469Y677270D01*
X534831Y674888D01*
Y672422D01*
X535469Y670041D01*
X536702Y667905D01*
X538445Y666161D01*
X540581Y664928D01*
X542963Y664290D01*
X545428D01*
X547810Y664928D01*
X549946Y666161D01*
X551689Y667905D01*
X552922Y670041D01*
X553560Y672422D01*
Y674888D01*
X552922Y677270D01*
X551689Y679406D01*
X549946Y681149D01*
X547810Y682382D01*
X545428Y683020D01*
D02*
G37*
G36*
X482728Y670825D02*
X480611D01*
X478567Y670277D01*
X476733Y669219D01*
X475236Y667722D01*
X474178Y665888D01*
X473630Y663844D01*
Y661727D01*
X474178Y659682D01*
X475236Y657848D01*
X476733Y656351D01*
X478567Y655293D01*
X480611Y654745D01*
X482728D01*
X484773Y655293D01*
X486606Y656351D01*
X488103Y657848D01*
X489162Y659682D01*
X489710Y661727D01*
Y663844D01*
X489162Y665888D01*
X488103Y667722D01*
X486606Y669219D01*
X484773Y670277D01*
X482728Y670825D01*
D02*
G37*
G36*
X438710D02*
X422630D01*
Y654745D01*
X438710D01*
Y670825D01*
D02*
G37*
G36*
X357788D02*
X355671D01*
X353627Y670277D01*
X351793Y669219D01*
X350296Y667722D01*
X349238Y665888D01*
X348690Y663844D01*
Y661727D01*
X349238Y659682D01*
X350296Y657848D01*
X351793Y656351D01*
X353627Y655293D01*
X355671Y654745D01*
X357788D01*
X359833Y655293D01*
X361666Y656351D01*
X363163Y657848D01*
X364222Y659682D01*
X364770Y661727D01*
Y663844D01*
X364222Y665888D01*
X363163Y667722D01*
X361666Y669219D01*
X359833Y670277D01*
X357788Y670825D01*
D02*
G37*
G36*
X313770D02*
X297690D01*
Y654745D01*
X313770D01*
Y670825D01*
D02*
G37*
G36*
X1409828Y668515D02*
X1407711D01*
X1405667Y667967D01*
X1403833Y666909D01*
X1402336Y665412D01*
X1401278Y663578D01*
X1400730Y661534D01*
Y659417D01*
X1401278Y657372D01*
X1402336Y655538D01*
X1403833Y654042D01*
X1405667Y652983D01*
X1407711Y652435D01*
X1409828D01*
X1411873Y652983D01*
X1413707Y654042D01*
X1415203Y655538D01*
X1416262Y657372D01*
X1416810Y659417D01*
Y661534D01*
X1416262Y663578D01*
X1415203Y665412D01*
X1413707Y666909D01*
X1411873Y667967D01*
X1409828Y668515D01*
D02*
G37*
G36*
X1284889D02*
X1282772D01*
X1280727Y667967D01*
X1278894Y666909D01*
X1277397Y665412D01*
X1276338Y663578D01*
X1275790Y661534D01*
Y659417D01*
X1276338Y657372D01*
X1277397Y655538D01*
X1278894Y654042D01*
X1280727Y652983D01*
X1282772Y652435D01*
X1284889D01*
X1286934Y652983D01*
X1288767Y654042D01*
X1290264Y655538D01*
X1291322Y657372D01*
X1291870Y659417D01*
Y661534D01*
X1291322Y663578D01*
X1290264Y665412D01*
X1288767Y666909D01*
X1286934Y667967D01*
X1284889Y668515D01*
D02*
G37*
G36*
X1098534Y621665D02*
X1096026D01*
X1093604Y621016D01*
X1091432Y619762D01*
X1089658Y617989D01*
X1088404Y615816D01*
X1087755Y613394D01*
Y610886D01*
X1088404Y608464D01*
X1089658Y606292D01*
X1091432Y604518D01*
X1093604Y603264D01*
X1096026Y602615D01*
X1098534D01*
X1100956Y603264D01*
X1103129Y604518D01*
X1104902Y606292D01*
X1106156Y608464D01*
X1106805Y610886D01*
Y613394D01*
X1106156Y615816D01*
X1104902Y617989D01*
X1103129Y619762D01*
X1100956Y621016D01*
X1098534Y621665D01*
D02*
G37*
G36*
X1073134D02*
X1070626D01*
X1068204Y621016D01*
X1066031Y619762D01*
X1064258Y617989D01*
X1063004Y615816D01*
X1062355Y613394D01*
Y610886D01*
X1062472Y610450D01*
X1060404Y608382D01*
X1059281Y606701D01*
X1058887Y604719D01*
Y554463D01*
X1058856Y554443D01*
X1058094Y554727D01*
X1057540Y555091D01*
X1057028Y556999D01*
X1055950Y558867D01*
X1054425Y560392D01*
X1052558Y561470D01*
X1050475Y562028D01*
X1048318D01*
X1046235Y561470D01*
X1044368Y560392D01*
X1042843Y558867D01*
X1041765Y556999D01*
X1041206Y554916D01*
Y552760D01*
X1041765Y550677D01*
X1042843Y548809D01*
X1044368Y547284D01*
X1046235Y546206D01*
X1048318Y545648D01*
X1049607D01*
X1050133Y544378D01*
X1031635Y525880D01*
X934020D01*
X932038Y525485D01*
X930358Y524362D01*
X888624Y482628D01*
X886680D01*
X884597Y482070D01*
X882730Y480992D01*
X881205Y479467D01*
X880127Y477599D01*
X879568Y475516D01*
Y473360D01*
X880127Y471277D01*
X881205Y469409D01*
X882730Y467884D01*
X884597Y466806D01*
X886680Y466248D01*
X888837D01*
X890920Y466806D01*
X892787Y467884D01*
X894312Y469409D01*
X895390Y471277D01*
X895948Y473360D01*
Y475303D01*
X936166Y515521D01*
X1033780D01*
X1035762Y515915D01*
X1037442Y517038D01*
X1067729Y547324D01*
X1067973Y547690D01*
X1069237Y547814D01*
X1069768Y547284D01*
X1071635Y546206D01*
X1073718Y545648D01*
X1075875D01*
X1077958Y546206D01*
X1079825Y547284D01*
X1081350Y548809D01*
X1082428Y550677D01*
X1082986Y552760D01*
Y554916D01*
X1082428Y556999D01*
X1081350Y558867D01*
X1079825Y560392D01*
X1077958Y561470D01*
X1075875Y562028D01*
X1073718D01*
X1071635Y561470D01*
X1070516Y560824D01*
X1069246Y561557D01*
Y601670D01*
X1070483Y602653D01*
X1070626Y602615D01*
X1073134D01*
X1075556Y603264D01*
X1077729Y604518D01*
X1079502Y606292D01*
X1080756Y608464D01*
X1081405Y610886D01*
Y613394D01*
X1080756Y615816D01*
X1079502Y617989D01*
X1077729Y619762D01*
X1075556Y621016D01*
X1073134Y621665D01*
D02*
G37*
G36*
X1047734D02*
X1045226D01*
X1042803Y621016D01*
X1040631Y619762D01*
X1038858Y617989D01*
X1037604Y615816D01*
X1036955Y613394D01*
Y610886D01*
X1037155Y610140D01*
X998615Y571600D01*
X925741D01*
X923758Y571205D01*
X922078Y570083D01*
X914024Y562028D01*
X912080D01*
X909997Y561470D01*
X908130Y560392D01*
X906605Y558867D01*
X905527Y556999D01*
X904968Y554916D01*
Y552760D01*
X905527Y550677D01*
X906605Y548809D01*
X908130Y547284D01*
X909997Y546206D01*
X912080Y545648D01*
X914237D01*
X916320Y546206D01*
X918187Y547284D01*
X919712Y548809D01*
X920790Y550677D01*
X921348Y552760D01*
Y554703D01*
X927886Y561241D01*
X932583D01*
X933109Y559971D01*
X932005Y558867D01*
X930927Y556999D01*
X930368Y554916D01*
Y552760D01*
X930927Y550677D01*
X932005Y548809D01*
X933530Y547284D01*
X935397Y546206D01*
X937480Y545648D01*
X939637D01*
X941720Y546206D01*
X943587Y547284D01*
X945112Y548809D01*
X946190Y550677D01*
X946748Y552760D01*
Y554916D01*
X946190Y556999D01*
X945112Y558867D01*
X944008Y559971D01*
X944534Y561241D01*
X992621D01*
X993147Y559971D01*
X992043Y558867D01*
X990965Y556999D01*
X990406Y554916D01*
Y552760D01*
X990965Y550677D01*
X992043Y548809D01*
X993568Y547284D01*
X995435Y546206D01*
X997518Y545648D01*
X999675D01*
X1001758Y546206D01*
X1003625Y547284D01*
X1005150Y548809D01*
X1006228Y550677D01*
X1006786Y552760D01*
Y554916D01*
X1006228Y556999D01*
X1005150Y558867D01*
X1003625Y560392D01*
X1003338Y560557D01*
X1003331Y562028D01*
X1004423Y562757D01*
X1044480Y602815D01*
X1045226Y602615D01*
X1047734D01*
X1050156Y603264D01*
X1052328Y604518D01*
X1054102Y606292D01*
X1055356Y608464D01*
X1056005Y610886D01*
Y613394D01*
X1055356Y615816D01*
X1054102Y617989D01*
X1052328Y619762D01*
X1050156Y621016D01*
X1047734Y621665D01*
D02*
G37*
G36*
X1022334D02*
X1019826D01*
X1017403Y621016D01*
X1015231Y619762D01*
X1013458Y617989D01*
X1012204Y615816D01*
X1011555Y613394D01*
Y610886D01*
X1011755Y610140D01*
X998615Y597000D01*
X900341D01*
X898359Y596605D01*
X896678Y595482D01*
X863223Y562028D01*
X861280D01*
X859197Y561470D01*
X857330Y560392D01*
X855805Y558867D01*
X854727Y556999D01*
X854168Y554916D01*
Y552760D01*
X854727Y550677D01*
X855805Y548809D01*
X857330Y547284D01*
X859197Y546206D01*
X861280Y545648D01*
X863437D01*
X865520Y546206D01*
X867387Y547284D01*
X868912Y548809D01*
X869990Y550677D01*
X870548Y552760D01*
Y554703D01*
X902486Y586641D01*
X1000760D01*
X1002742Y587035D01*
X1004423Y588158D01*
X1019080Y602815D01*
X1019826Y602615D01*
X1022334D01*
X1024756Y603264D01*
X1026928Y604518D01*
X1028702Y606292D01*
X1029956Y608464D01*
X1030605Y610886D01*
Y613394D01*
X1029956Y615816D01*
X1028702Y617989D01*
X1026928Y619762D01*
X1024756Y621016D01*
X1022334Y621665D01*
D02*
G37*
G36*
X977900Y635099D02*
X887641D01*
X885658Y634705D01*
X883978Y633582D01*
X812423Y562028D01*
X810480D01*
X808397Y561470D01*
X806530Y560392D01*
X805005Y558867D01*
X803927Y556999D01*
X803368Y554916D01*
Y552760D01*
X803927Y550677D01*
X805005Y548809D01*
X806530Y547284D01*
X808397Y546206D01*
X810480Y545648D01*
X812637D01*
X814720Y546206D01*
X816587Y547284D01*
X818112Y548809D01*
X819190Y550677D01*
X819748Y552760D01*
Y554703D01*
X889786Y624740D01*
X975755D01*
X986355Y614140D01*
X986155Y613394D01*
Y610886D01*
X986804Y608464D01*
X988058Y606292D01*
X989831Y604518D01*
X992003Y603264D01*
X994426Y602615D01*
X996934D01*
X999357Y603264D01*
X1001528Y604518D01*
X1003302Y606292D01*
X1004556Y608464D01*
X1005205Y610886D01*
Y613394D01*
X1004556Y615816D01*
X1003302Y617989D01*
X1001528Y619762D01*
X999357Y621016D01*
X996934Y621665D01*
X994426D01*
X993680Y621465D01*
X981562Y633582D01*
X979882Y634705D01*
X977900Y635099D01*
D02*
G37*
G36*
X971534Y621665D02*
X969026D01*
X966603Y621016D01*
X964432Y619762D01*
X962658Y617989D01*
X961404Y615816D01*
X960755Y613394D01*
Y610886D01*
X961404Y608464D01*
X962658Y606292D01*
X964432Y604518D01*
X966603Y603264D01*
X969026Y602615D01*
X971534D01*
X973957Y603264D01*
X976128Y604518D01*
X977902Y606292D01*
X979156Y608464D01*
X979805Y610886D01*
Y613394D01*
X979156Y615816D01*
X977902Y617989D01*
X976128Y619762D01*
X973957Y621016D01*
X971534Y621665D01*
D02*
G37*
G36*
X946134D02*
X943626D01*
X941204Y621016D01*
X939032Y619762D01*
X937258Y617989D01*
X936004Y615816D01*
X935355Y613394D01*
Y610886D01*
X936004Y608464D01*
X937258Y606292D01*
X939032Y604518D01*
X941204Y603264D01*
X943626Y602615D01*
X946134D01*
X948557Y603264D01*
X950729Y604518D01*
X952502Y606292D01*
X953756Y608464D01*
X954405Y610886D01*
Y613394D01*
X953756Y615816D01*
X952502Y617989D01*
X950729Y619762D01*
X948557Y621016D01*
X946134Y621665D01*
D02*
G37*
G36*
X920734D02*
X918226D01*
X915804Y621016D01*
X913632Y619762D01*
X911858Y617989D01*
X910604Y615816D01*
X909955Y613394D01*
Y610886D01*
X910604Y608464D01*
X911858Y606292D01*
X913632Y604518D01*
X915804Y603264D01*
X918226Y602615D01*
X920734D01*
X923157Y603264D01*
X925329Y604518D01*
X927102Y606292D01*
X928356Y608464D01*
X929005Y610886D01*
Y613394D01*
X928356Y615816D01*
X927102Y617989D01*
X925329Y619762D01*
X923157Y621016D01*
X920734Y621665D01*
D02*
G37*
G36*
X895334D02*
X892826D01*
X890404Y621016D01*
X888232Y619762D01*
X886458Y617989D01*
X885204Y615816D01*
X884555Y613394D01*
Y610886D01*
X885204Y608464D01*
X886458Y606292D01*
X888232Y604518D01*
X890404Y603264D01*
X892826Y602615D01*
X895334D01*
X897757Y603264D01*
X899929Y604518D01*
X901702Y606292D01*
X902956Y608464D01*
X903605Y610886D01*
Y613394D01*
X902956Y615816D01*
X901702Y617989D01*
X899929Y619762D01*
X897757Y621016D01*
X895334Y621665D01*
D02*
G37*
G36*
X808974D02*
X806466D01*
X804044Y621016D01*
X801871Y619762D01*
X800098Y617989D01*
X798844Y615816D01*
X798195Y613394D01*
Y610886D01*
X798844Y608464D01*
X800098Y606292D01*
X801871Y604518D01*
X804044Y603264D01*
X806466Y602615D01*
X808974D01*
X811396Y603264D01*
X813568Y604518D01*
X815342Y606292D01*
X816596Y608464D01*
X817245Y610886D01*
Y613394D01*
X816596Y615816D01*
X815342Y617989D01*
X813568Y619762D01*
X811396Y621016D01*
X808974Y621665D01*
D02*
G37*
G36*
X783574D02*
X781066D01*
X778643Y621016D01*
X776471Y619762D01*
X774698Y617989D01*
X773444Y615816D01*
X772795Y613394D01*
Y610886D01*
X773444Y608464D01*
X774698Y606292D01*
X776471Y604518D01*
X778643Y603264D01*
X781066Y602615D01*
X783574D01*
X785996Y603264D01*
X788168Y604518D01*
X789942Y606292D01*
X791196Y608464D01*
X791845Y610886D01*
Y613394D01*
X791196Y615816D01*
X789942Y617989D01*
X788168Y619762D01*
X785996Y621016D01*
X783574Y621665D01*
D02*
G37*
G36*
X732774D02*
X730266D01*
X727843Y621016D01*
X725671Y619762D01*
X723898Y617989D01*
X722644Y615816D01*
X721995Y613394D01*
Y610886D01*
X722644Y608464D01*
X723898Y606292D01*
X725671Y604518D01*
X727843Y603264D01*
X730266Y602615D01*
X732774D01*
X735197Y603264D01*
X737368Y604518D01*
X739142Y606292D01*
X740396Y608464D01*
X741045Y610886D01*
Y613394D01*
X740396Y615816D01*
X739142Y617989D01*
X737368Y619762D01*
X735197Y621016D01*
X732774Y621665D01*
D02*
G37*
G36*
X707374D02*
X704866D01*
X702443Y621016D01*
X700272Y619762D01*
X698498Y617989D01*
X697244Y615816D01*
X696595Y613394D01*
Y610886D01*
X697244Y608464D01*
X698498Y606292D01*
X700272Y604518D01*
X702443Y603264D01*
X704866Y602615D01*
X707374D01*
X709797Y603264D01*
X711969Y604518D01*
X713742Y606292D01*
X714996Y608464D01*
X715645Y610886D01*
Y613394D01*
X714996Y615816D01*
X713742Y617989D01*
X711969Y619762D01*
X709797Y621016D01*
X707374Y621665D01*
D02*
G37*
G36*
X681974D02*
X679466D01*
X677044Y621016D01*
X674872Y619762D01*
X673098Y617989D01*
X671844Y615816D01*
X671195Y613394D01*
Y610886D01*
X671844Y608464D01*
X673098Y606292D01*
X674872Y604518D01*
X677044Y603264D01*
X679466Y602615D01*
X681974D01*
X684397Y603264D01*
X686569Y604518D01*
X688342Y606292D01*
X689596Y608464D01*
X690245Y610886D01*
Y613394D01*
X689596Y615816D01*
X688342Y617989D01*
X686569Y619762D01*
X684397Y621016D01*
X681974Y621665D01*
D02*
G37*
G36*
X656574D02*
X654066D01*
X651644Y621016D01*
X649472Y619762D01*
X647698Y617989D01*
X646444Y615816D01*
X645795Y613394D01*
Y610886D01*
X646444Y608464D01*
X647698Y606292D01*
X649472Y604518D01*
X651644Y603264D01*
X654066Y602615D01*
X656574D01*
X658997Y603264D01*
X661169Y604518D01*
X662942Y606292D01*
X664196Y608464D01*
X664845Y610886D01*
Y613394D01*
X664196Y615816D01*
X662942Y617989D01*
X661169Y619762D01*
X658997Y621016D01*
X656574Y621665D01*
D02*
G37*
G36*
X631174D02*
X628666D01*
X626244Y621016D01*
X624072Y619762D01*
X622298Y617989D01*
X621044Y615816D01*
X620395Y613394D01*
Y610886D01*
X621044Y608464D01*
X622298Y606292D01*
X624072Y604518D01*
X626244Y603264D01*
X628666Y602615D01*
X631174D01*
X633596Y603264D01*
X635769Y604518D01*
X637542Y606292D01*
X638796Y608464D01*
X639445Y610886D01*
Y613394D01*
X638796Y615816D01*
X637542Y617989D01*
X635769Y619762D01*
X633596Y621016D01*
X631174Y621665D01*
D02*
G37*
G36*
X605774D02*
X603266D01*
X600844Y621016D01*
X598671Y619762D01*
X596898Y617989D01*
X595644Y615816D01*
X594995Y613394D01*
Y610886D01*
X595644Y608464D01*
X596898Y606292D01*
X598671Y604518D01*
X600844Y603264D01*
X603266Y602615D01*
X605774D01*
X608196Y603264D01*
X610368Y604518D01*
X612142Y606292D01*
X613396Y608464D01*
X614045Y610886D01*
Y613394D01*
X613396Y615816D01*
X612142Y617989D01*
X610368Y619762D01*
X608196Y621016D01*
X605774Y621665D01*
D02*
G37*
G36*
X1362454Y615600D02*
X1360206D01*
X1358033Y615018D01*
X1356086Y613894D01*
X1354496Y612304D01*
X1353372Y610356D01*
X1352790Y608184D01*
Y605936D01*
X1353372Y603764D01*
X1354496Y601816D01*
X1356086Y600226D01*
X1358033Y599102D01*
X1360206Y598520D01*
X1362454D01*
X1364626Y599102D01*
X1366573Y600226D01*
X1368163Y601816D01*
X1369288Y603764D01*
X1369870Y605936D01*
Y608184D01*
X1369288Y610356D01*
X1368163Y612304D01*
X1366573Y613894D01*
X1364626Y615018D01*
X1362454Y615600D01*
D02*
G37*
G36*
X1228870D02*
X1211790D01*
Y598520D01*
X1228870D01*
Y615600D01*
D02*
G37*
G36*
X1126675Y562028D02*
X1124518D01*
X1122435Y561470D01*
X1120568Y560392D01*
X1119043Y558867D01*
X1117965Y556999D01*
X1117406Y554916D01*
Y552760D01*
X1117965Y550677D01*
X1119043Y548809D01*
X1120568Y547284D01*
X1122435Y546206D01*
X1124518Y545648D01*
X1126675D01*
X1128758Y546206D01*
X1130625Y547284D01*
X1132150Y548809D01*
X1133228Y550677D01*
X1133786Y552760D01*
Y554916D01*
X1133228Y556999D01*
X1132150Y558867D01*
X1130625Y560392D01*
X1128758Y561470D01*
X1126675Y562028D01*
D02*
G37*
G36*
X1101275D02*
X1099118D01*
X1097035Y561470D01*
X1095168Y560392D01*
X1093643Y558867D01*
X1092565Y556999D01*
X1092006Y554916D01*
Y552760D01*
X1092565Y550677D01*
X1093643Y548809D01*
X1095168Y547284D01*
X1097035Y546206D01*
X1099118Y545648D01*
X1101275D01*
X1103358Y546206D01*
X1105225Y547284D01*
X1106750Y548809D01*
X1107828Y550677D01*
X1108386Y552760D01*
Y554916D01*
X1107828Y556999D01*
X1106750Y558867D01*
X1105225Y560392D01*
X1103358Y561470D01*
X1101275Y562028D01*
D02*
G37*
G36*
X1025075D02*
X1022918D01*
X1020835Y561470D01*
X1018968Y560392D01*
X1017443Y558867D01*
X1016365Y556999D01*
X1015806Y554916D01*
Y552760D01*
X1016365Y550677D01*
X1017443Y548809D01*
X1018968Y547284D01*
X1020835Y546206D01*
X1022918Y545648D01*
X1025075D01*
X1027158Y546206D01*
X1029025Y547284D01*
X1030550Y548809D01*
X1031628Y550677D01*
X1032186Y552760D01*
Y554916D01*
X1031628Y556999D01*
X1030550Y558867D01*
X1029025Y560392D01*
X1027158Y561470D01*
X1025075Y562028D01*
D02*
G37*
G36*
X888837D02*
X886680D01*
X884597Y561470D01*
X882730Y560392D01*
X881205Y558867D01*
X880127Y556999D01*
X879568Y554916D01*
Y552760D01*
X880127Y550677D01*
X881205Y548809D01*
X882730Y547284D01*
X884597Y546206D01*
X886680Y545648D01*
X888837D01*
X890920Y546206D01*
X892787Y547284D01*
X894312Y548809D01*
X895390Y550677D01*
X895948Y552760D01*
Y554916D01*
X895390Y556999D01*
X894312Y558867D01*
X892787Y560392D01*
X890920Y561470D01*
X888837Y562028D01*
D02*
G37*
G36*
X838037D02*
X835880D01*
X833797Y561470D01*
X831930Y560392D01*
X830405Y558867D01*
X829327Y556999D01*
X828768Y554916D01*
Y552760D01*
X829327Y550677D01*
X830405Y548809D01*
X831930Y547284D01*
X833797Y546206D01*
X835880Y545648D01*
X838037D01*
X840120Y546206D01*
X841987Y547284D01*
X843512Y548809D01*
X844590Y550677D01*
X845148Y552760D01*
Y554916D01*
X844590Y556999D01*
X843512Y558867D01*
X841987Y560392D01*
X840120Y561470D01*
X838037Y562028D01*
D02*
G37*
G36*
X787237D02*
X785080D01*
X782997Y561470D01*
X781130Y560392D01*
X779605Y558867D01*
X778527Y556999D01*
X777968Y554916D01*
Y552760D01*
X778527Y550677D01*
X779605Y548809D01*
X781130Y547284D01*
X782997Y546206D01*
X785080Y545648D01*
X787237D01*
X789320Y546206D01*
X791187Y547284D01*
X792712Y548809D01*
X793790Y550677D01*
X794348Y552760D01*
Y554916D01*
X793790Y556999D01*
X792712Y558867D01*
X791187Y560392D01*
X789320Y561470D01*
X787237Y562028D01*
D02*
G37*
G36*
X758174Y621665D02*
X755666D01*
X753243Y621016D01*
X751071Y619762D01*
X749298Y617989D01*
X748044Y615816D01*
X747395Y613394D01*
Y610886D01*
X748044Y608464D01*
X749298Y606292D01*
X751071Y604518D01*
X751740Y604132D01*
Y596505D01*
X734455Y579220D01*
X619478D01*
X617496Y578825D01*
X615816Y577702D01*
X600141Y562028D01*
X598198D01*
X596115Y561470D01*
X594247Y560392D01*
X592722Y558867D01*
X591644Y556999D01*
X591086Y554916D01*
Y552760D01*
X591644Y550677D01*
X592722Y548809D01*
X594247Y547284D01*
X596115Y546206D01*
X598198Y545648D01*
X600354D01*
X602437Y546206D01*
X604305Y547284D01*
X605830Y548809D01*
X606908Y550677D01*
X607466Y552760D01*
Y554703D01*
X621623Y568861D01*
X630578D01*
X631104Y567590D01*
X625541Y562028D01*
X623598D01*
X621515Y561470D01*
X619647Y560392D01*
X618122Y558867D01*
X617044Y556999D01*
X616486Y554916D01*
Y552760D01*
X617044Y550677D01*
X618122Y548809D01*
X619647Y547284D01*
X621515Y546206D01*
X623598Y545648D01*
X625754D01*
X627837Y546206D01*
X629705Y547284D01*
X631230Y548809D01*
X632308Y550677D01*
X632866Y552760D01*
Y554703D01*
X637551Y559388D01*
X642357D01*
X643090Y558118D01*
X642444Y556999D01*
X641886Y554916D01*
Y552760D01*
X642444Y550677D01*
X643522Y548809D01*
X645047Y547284D01*
X646915Y546206D01*
X648998Y545648D01*
X651154D01*
X653237Y546206D01*
X655105Y547284D01*
X656629Y548809D01*
X657708Y550677D01*
X658266Y552760D01*
Y554916D01*
X657708Y556999D01*
X657062Y558118D01*
X657795Y559388D01*
X667757D01*
X668490Y558118D01*
X667844Y556999D01*
X667286Y554916D01*
Y552760D01*
X667844Y550677D01*
X668922Y548809D01*
X670447Y547284D01*
X672315Y546206D01*
X674398Y545648D01*
X675442D01*
X683160Y537930D01*
Y480048D01*
X682477Y479697D01*
X681890Y479606D01*
X680505Y480992D01*
X678637Y482070D01*
X676554Y482628D01*
X674398D01*
X672315Y482070D01*
X670447Y480992D01*
X668922Y479467D01*
X667844Y477599D01*
X667286Y475516D01*
Y473360D01*
X667844Y471277D01*
X668922Y469409D01*
X670447Y467884D01*
X672315Y466806D01*
X674398Y466248D01*
X676554D01*
X677073Y466387D01*
X678081Y465614D01*
Y424861D01*
X676811Y424432D01*
X675589Y425654D01*
X673721Y426732D01*
X671638Y427290D01*
X669482D01*
X667399Y426732D01*
X665531Y425654D01*
X664006Y424129D01*
X662928Y422261D01*
X662370Y420178D01*
Y418022D01*
X662928Y415939D01*
X664006Y414071D01*
X665531Y412546D01*
X667399Y411468D01*
X669482Y410910D01*
X671638D01*
X673721Y411468D01*
X675589Y412546D01*
X676811Y413768D01*
X678081Y413339D01*
Y377800D01*
X678475Y375818D01*
X679597Y374138D01*
X713170Y340565D01*
Y338622D01*
X713728Y336539D01*
X714806Y334671D01*
X716331Y333147D01*
X718199Y332068D01*
X720282Y331510D01*
X722438D01*
X724521Y332068D01*
X726389Y333147D01*
X727914Y334671D01*
X728992Y336539D01*
X729550Y338622D01*
Y340778D01*
X728992Y342861D01*
X727914Y344729D01*
X726389Y346254D01*
X724521Y347332D01*
X722438Y347890D01*
X720495D01*
X688439Y379945D01*
Y413339D01*
X689709Y413768D01*
X690931Y412546D01*
X692799Y411468D01*
X694882Y410910D01*
X697038D01*
X699121Y411468D01*
X700989Y412546D01*
X702514Y414071D01*
X703592Y415939D01*
X704150Y418022D01*
Y420178D01*
X703592Y422261D01*
X702514Y424129D01*
X700989Y425654D01*
X699121Y426732D01*
X697038Y427290D01*
X694882D01*
X692799Y426732D01*
X690931Y425654D01*
X689709Y424432D01*
X688439Y424861D01*
Y464902D01*
X692002Y468465D01*
X692753Y469588D01*
X694213Y469599D01*
X694322Y469409D01*
X695847Y467884D01*
X697715Y466806D01*
X699798Y466248D01*
X701954D01*
X704037Y466806D01*
X705905Y467884D01*
X707430Y469409D01*
X708508Y471277D01*
X709066Y473360D01*
Y475516D01*
X708508Y477599D01*
X707430Y479467D01*
X705905Y480992D01*
X704037Y482070D01*
X701954Y482628D01*
X699798D01*
X697715Y482070D01*
X695847Y480992D01*
X694790Y479934D01*
X693520Y480460D01*
Y540075D01*
X693520Y540075D01*
X693125Y542057D01*
X692002Y543738D01*
X683521Y552219D01*
X683666Y552760D01*
Y554916D01*
X683108Y556999D01*
X682462Y558118D01*
X683195Y559388D01*
X693157D01*
X693890Y558118D01*
X693244Y556999D01*
X692686Y554916D01*
Y552760D01*
X693244Y550677D01*
X694322Y548809D01*
X695847Y547284D01*
X697715Y546206D01*
X699798Y545648D01*
X701954D01*
X704037Y546206D01*
X705905Y547284D01*
X707430Y548809D01*
X708508Y550677D01*
X709066Y552760D01*
Y554916D01*
X708508Y556999D01*
X707890Y558069D01*
X708906Y558849D01*
X710366Y557389D01*
Y440089D01*
X710761Y438106D01*
X711883Y436426D01*
X719827Y428483D01*
X719447Y427066D01*
X718199Y426732D01*
X716331Y425654D01*
X714806Y424129D01*
X713728Y422261D01*
X713170Y420178D01*
Y418022D01*
X713728Y415939D01*
X714806Y414071D01*
X716331Y412546D01*
X718199Y411468D01*
X720282Y410910D01*
X722438D01*
X724521Y411468D01*
X725640Y412114D01*
X726910Y411381D01*
Y354370D01*
X727305Y352388D01*
X728428Y350708D01*
X738570Y340565D01*
Y338622D01*
X739128Y336539D01*
X740206Y334671D01*
X741731Y333147D01*
X743599Y332068D01*
X745682Y331510D01*
X747838D01*
X749921Y332068D01*
X751789Y333147D01*
X753314Y334671D01*
X754392Y336539D01*
X754950Y338622D01*
Y340778D01*
X754392Y342861D01*
X753314Y344729D01*
X751789Y346254D01*
X749921Y347332D01*
X747838Y347890D01*
X745895D01*
X737270Y356516D01*
Y423545D01*
X736875Y425527D01*
X735752Y427207D01*
X720725Y442234D01*
Y466719D01*
X721995Y467452D01*
X723115Y466806D01*
X725006Y466299D01*
Y474438D01*
Y482577D01*
X723115Y482070D01*
X721995Y481424D01*
X720725Y482157D01*
Y546119D01*
X721995Y546852D01*
X723115Y546206D01*
X725198Y545648D01*
X727354D01*
X729437Y546206D01*
X731305Y547284D01*
X732830Y548809D01*
X733908Y550677D01*
X734466Y552760D01*
Y554916D01*
X733908Y556999D01*
X732830Y558867D01*
X731305Y560392D01*
X729437Y561470D01*
X727354Y562028D01*
X725198D01*
X723115Y561470D01*
X721788Y560704D01*
X720393Y561206D01*
X720331Y561516D01*
X719208Y563196D01*
X714815Y567590D01*
X715340Y568861D01*
X736600D01*
X738582Y569255D01*
X740263Y570378D01*
X760583Y590698D01*
X761705Y592378D01*
X762100Y594360D01*
Y604132D01*
X762768Y604518D01*
X764542Y606292D01*
X765796Y608464D01*
X766445Y610886D01*
Y613394D01*
X765796Y615816D01*
X764542Y617989D01*
X762768Y619762D01*
X760596Y621016D01*
X758174Y621665D01*
D02*
G37*
G36*
X574954Y562028D02*
X572798D01*
X570715Y561470D01*
X568847Y560392D01*
X567322Y558867D01*
X566244Y556999D01*
X565686Y554916D01*
Y552760D01*
X566244Y550677D01*
X567322Y548809D01*
X568847Y547284D01*
X570715Y546206D01*
X572798Y545648D01*
X574954D01*
X577037Y546206D01*
X578905Y547284D01*
X580429Y548809D01*
X581508Y550677D01*
X582066Y552760D01*
Y554916D01*
X581508Y556999D01*
X580429Y558867D01*
X578905Y560392D01*
X577037Y561470D01*
X574954Y562028D01*
D02*
G37*
G36*
X439065Y538098D02*
X436053D01*
X433099Y537510D01*
X430316Y536357D01*
X427812Y534684D01*
X425682Y532555D01*
X424009Y530050D01*
X422856Y527268D01*
X422269Y524314D01*
Y521302D01*
X422856Y518348D01*
X424009Y515565D01*
X425682Y513061D01*
X427812Y510931D01*
X430316Y509258D01*
X433099Y508105D01*
X436053Y507518D01*
X439065D01*
X442019Y508105D01*
X444801Y509258D01*
X447305Y510931D01*
X449435Y513061D01*
X451109Y515565D01*
X452261Y518348D01*
X452849Y521302D01*
Y524314D01*
X452261Y527268D01*
X451109Y530050D01*
X449435Y532555D01*
X447305Y534684D01*
X444801Y536357D01*
X442019Y537510D01*
X439065Y538098D01*
D02*
G37*
G36*
X1286228Y537052D02*
X1283216D01*
X1280262Y536464D01*
X1277480Y535312D01*
X1274976Y533638D01*
X1272846Y531508D01*
X1271172Y529004D01*
X1270020Y526222D01*
X1269432Y523268D01*
Y520256D01*
X1270020Y517302D01*
X1271172Y514519D01*
X1272846Y512015D01*
X1274976Y509885D01*
X1277480Y508212D01*
X1280262Y507059D01*
X1283216Y506472D01*
X1286228D01*
X1289182Y507059D01*
X1291965Y508212D01*
X1294469Y509885D01*
X1296599Y512015D01*
X1298272Y514519D01*
X1299425Y517302D01*
X1300012Y520256D01*
Y523268D01*
X1299425Y526222D01*
X1298272Y529004D01*
X1296599Y531508D01*
X1294469Y533638D01*
X1291965Y535312D01*
X1289182Y536464D01*
X1286228Y537052D01*
D02*
G37*
G36*
X408885Y520998D02*
X405233D01*
X401651Y520285D01*
X398277Y518888D01*
X395240Y516859D01*
X392658Y514276D01*
X390629Y511240D01*
X389231Y507866D01*
X388519Y504284D01*
Y500632D01*
X389231Y497050D01*
X390629Y493676D01*
X392658Y490639D01*
X395240Y488057D01*
X398277Y486028D01*
X401651Y484630D01*
X405233Y483918D01*
X408885D01*
X412467Y484630D01*
X415841Y486028D01*
X418877Y488057D01*
X421460Y490639D01*
X423489Y493676D01*
X424886Y497050D01*
X425599Y500632D01*
Y504284D01*
X424886Y507866D01*
X423489Y511240D01*
X421460Y514276D01*
X418877Y516859D01*
X415841Y518888D01*
X412467Y520285D01*
X408885Y520998D01*
D02*
G37*
G36*
X1317049Y519952D02*
X1313397D01*
X1309815Y519239D01*
X1306441Y517842D01*
X1303404Y515813D01*
X1300822Y513230D01*
X1298793Y510194D01*
X1297395Y506820D01*
X1296683Y503238D01*
Y499586D01*
X1297395Y496004D01*
X1298793Y492630D01*
X1300822Y489593D01*
X1303404Y487011D01*
X1306441Y484982D01*
X1309815Y483584D01*
X1313397Y482872D01*
X1317049D01*
X1320631Y483584D01*
X1324005Y484982D01*
X1327041Y487011D01*
X1329624Y489593D01*
X1331653Y492630D01*
X1333050Y496004D01*
X1333763Y499586D01*
Y503238D01*
X1333050Y506820D01*
X1331653Y510194D01*
X1329624Y513230D01*
X1327041Y515813D01*
X1324005Y517842D01*
X1320631Y519239D01*
X1317049Y519952D01*
D02*
G37*
G36*
X1152075Y562028D02*
X1149918D01*
X1147835Y561470D01*
X1145968Y560392D01*
X1144443Y558867D01*
X1143365Y556999D01*
X1142806Y554916D01*
Y552973D01*
X1132664Y542830D01*
X1131541Y541150D01*
X1131147Y539168D01*
Y482157D01*
X1129877Y481424D01*
X1128758Y482070D01*
X1126675Y482628D01*
X1124518D01*
X1122435Y482070D01*
X1120568Y480992D01*
X1119043Y479467D01*
X1117965Y477599D01*
X1117406Y475516D01*
Y473573D01*
X1096053Y452220D01*
X1071880D01*
X1069898Y451825D01*
X1068217Y450703D01*
X1068217Y450702D01*
X1062348Y444833D01*
X1061225Y443153D01*
X1060831Y441171D01*
Y421919D01*
X1060456Y421632D01*
X1059010Y422122D01*
X1058972Y422261D01*
X1057894Y424129D01*
X1056369Y425654D01*
X1054502Y426732D01*
X1052419Y427290D01*
X1050262D01*
X1048179Y426732D01*
X1046312Y425654D01*
X1044787Y424129D01*
X1044118Y422971D01*
X1042848Y423311D01*
Y435165D01*
X1073931Y466248D01*
X1075875D01*
X1077958Y466806D01*
X1079825Y467884D01*
X1081350Y469409D01*
X1082428Y471277D01*
X1082986Y473360D01*
Y475516D01*
X1082428Y477599D01*
X1081350Y479467D01*
X1079825Y480992D01*
X1077958Y482070D01*
X1075875Y482628D01*
X1073718D01*
X1071635Y482070D01*
X1069768Y480992D01*
X1068243Y479467D01*
X1067165Y477599D01*
X1066606Y475516D01*
Y473573D01*
X1034006Y440973D01*
X1032884Y439292D01*
X1032489Y437310D01*
Y425793D01*
X1031316Y425307D01*
X1030969Y425654D01*
X1029102Y426732D01*
X1027019Y427290D01*
X1024862D01*
X1022779Y426732D01*
X1020912Y425654D01*
X1019387Y424129D01*
X1018309Y422261D01*
X1017750Y420178D01*
Y418022D01*
X1018309Y415939D01*
X1019387Y414071D01*
X1020912Y412546D01*
X1022779Y411468D01*
X1024862Y410910D01*
X1027019D01*
X1029102Y411468D01*
X1030969Y412546D01*
X1031316Y412893D01*
X1032489Y412407D01*
Y409894D01*
X996878Y374283D01*
X996260Y373358D01*
X994990Y373743D01*
Y411381D01*
X996260Y412114D01*
X997379Y411468D01*
X999462Y410910D01*
X1001619D01*
X1003702Y411468D01*
X1005569Y412546D01*
X1007094Y414071D01*
X1008172Y415939D01*
X1008730Y418022D01*
Y420178D01*
X1008172Y422261D01*
X1007094Y424129D01*
X1005569Y425654D01*
X1003702Y426732D01*
X1001619Y427290D01*
X999462D01*
X997379Y426732D01*
X996260Y426086D01*
X994990Y426819D01*
Y438107D01*
X1023131Y466248D01*
X1025075D01*
X1027158Y466806D01*
X1029025Y467884D01*
X1030550Y469409D01*
X1031628Y471277D01*
X1032186Y473360D01*
Y475516D01*
X1031628Y477599D01*
X1030550Y479467D01*
X1029025Y480992D01*
X1027158Y482070D01*
X1025075Y482628D01*
X1022918D01*
X1020835Y482070D01*
X1018968Y480992D01*
X1017443Y479467D01*
X1016365Y477599D01*
X1015806Y475516D01*
Y473573D01*
X1007756Y465522D01*
X1006786Y466349D01*
X1006786Y467476D01*
Y482628D01*
X990406D01*
Y466248D01*
X1005521D01*
X1006685Y466248D01*
X1007512Y465279D01*
X986148Y443915D01*
X985025Y442234D01*
X984631Y440252D01*
Y356516D01*
X976006Y347890D01*
X974062D01*
X971979Y347332D01*
X970112Y346254D01*
X968587Y344729D01*
X967509Y342861D01*
X966951Y340778D01*
Y338622D01*
X967509Y336539D01*
X968587Y334671D01*
X970112Y333147D01*
X971979Y332068D01*
X974062Y331510D01*
X976219D01*
X978302Y332068D01*
X980169Y333147D01*
X981694Y334671D01*
X982772Y336539D01*
X983331Y338622D01*
Y340565D01*
X993473Y350708D01*
X994091Y351632D01*
X995361Y351247D01*
Y346103D01*
X993987Y344729D01*
X992909Y342861D01*
X992350Y340778D01*
Y338622D01*
X992909Y336539D01*
X993987Y334671D01*
X995512Y333147D01*
X997379Y332068D01*
X999462Y331510D01*
X1001619D01*
X1003702Y332068D01*
X1005569Y333147D01*
X1007094Y334671D01*
X1008172Y336539D01*
X1008730Y338622D01*
Y340778D01*
X1008172Y342861D01*
X1007094Y344729D01*
X1005720Y346103D01*
Y368475D01*
X1041331Y404086D01*
X1041331Y404086D01*
X1042454Y405767D01*
X1042848Y407749D01*
X1042848Y407749D01*
Y414889D01*
X1044118Y415229D01*
X1044787Y414071D01*
X1046312Y412546D01*
X1048179Y411468D01*
X1049428Y411134D01*
X1049807Y409717D01*
X1022278Y382188D01*
X1021155Y380508D01*
X1020761Y378526D01*
Y346103D01*
X1019387Y344729D01*
X1018309Y342861D01*
X1017750Y340778D01*
Y338622D01*
X1018309Y336539D01*
X1019387Y334671D01*
X1020912Y333147D01*
X1022779Y332068D01*
X1024862Y331510D01*
X1027019D01*
X1029102Y332068D01*
X1030969Y333147D01*
X1032494Y334671D01*
X1033572Y336539D01*
X1034130Y338622D01*
Y340778D01*
X1033572Y342861D01*
X1032494Y344729D01*
X1031120Y346103D01*
Y376380D01*
X1068754Y414014D01*
X1070187Y414071D01*
X1070310Y413948D01*
X1071712Y412546D01*
X1073579Y411468D01*
X1075662Y410910D01*
X1077819D01*
X1078746Y411158D01*
X1079404Y410020D01*
X1048531Y379147D01*
X1047408Y377466D01*
X1047013Y375484D01*
Y346659D01*
X1046312Y346254D01*
X1044787Y344729D01*
X1043709Y342861D01*
X1043150Y340778D01*
Y338622D01*
X1043709Y336539D01*
X1044787Y334671D01*
X1046312Y333147D01*
X1048179Y332068D01*
X1050262Y331510D01*
X1052419D01*
X1054502Y332068D01*
X1056369Y333147D01*
X1057894Y334671D01*
X1058972Y336539D01*
X1059530Y338622D01*
Y340778D01*
X1058972Y342861D01*
X1057894Y344729D01*
X1057373Y345251D01*
Y373339D01*
X1139989Y455955D01*
X1141112Y457635D01*
X1141506Y459618D01*
Y537022D01*
X1150131Y545648D01*
X1152075D01*
X1154158Y546206D01*
X1156025Y547284D01*
X1157550Y548809D01*
X1158628Y550677D01*
X1159186Y552760D01*
Y554916D01*
X1158628Y556999D01*
X1157550Y558867D01*
X1156025Y560392D01*
X1154158Y561470D01*
X1152075Y562028D01*
D02*
G37*
G36*
X480099Y499298D02*
X461019D01*
Y480218D01*
X480099D01*
Y499298D01*
D02*
G37*
G36*
X1227579Y498252D02*
X1225067D01*
X1222640Y497602D01*
X1220465Y496346D01*
X1218689Y494569D01*
X1217433Y492394D01*
X1216783Y489968D01*
Y487456D01*
X1217433Y485029D01*
X1218689Y482854D01*
X1220465Y481078D01*
X1222640Y479822D01*
X1225067Y479172D01*
X1227579D01*
X1230005Y479822D01*
X1232180Y481078D01*
X1233957Y482854D01*
X1235212Y485029D01*
X1235863Y487456D01*
Y489968D01*
X1235212Y492394D01*
X1233957Y494569D01*
X1232180Y496346D01*
X1230005Y497602D01*
X1227579Y498252D01*
D02*
G37*
G36*
X1152266Y482577D02*
Y475708D01*
X1159135D01*
X1158628Y477599D01*
X1157550Y479467D01*
X1156025Y480992D01*
X1154158Y482070D01*
X1152266Y482577D01*
D02*
G37*
G36*
X939828D02*
Y475708D01*
X946697D01*
X946190Y477599D01*
X945112Y479467D01*
X943587Y480992D01*
X941720Y482070D01*
X939828Y482577D01*
D02*
G37*
G36*
X727546D02*
Y475708D01*
X734415D01*
X733908Y477599D01*
X732830Y479467D01*
X731305Y480992D01*
X729437Y482070D01*
X727546Y482577D01*
D02*
G37*
G36*
X1149726D02*
X1147835Y482070D01*
X1145968Y480992D01*
X1144443Y479467D01*
X1143365Y477599D01*
X1142858Y475708D01*
X1149726D01*
Y482577D01*
D02*
G37*
G36*
X937288D02*
X935397Y482070D01*
X933530Y480992D01*
X932005Y479467D01*
X930927Y477599D01*
X930420Y475708D01*
X937288D01*
Y482577D01*
D02*
G37*
G36*
X497215Y486598D02*
X494703D01*
X492277Y485948D01*
X490101Y484692D01*
X488325Y482915D01*
X487069Y480740D01*
X486419Y478314D01*
Y475802D01*
X487069Y473375D01*
X488325Y471200D01*
X490101Y469424D01*
X492277Y468168D01*
X494703Y467518D01*
X497215D01*
X499641Y468168D01*
X501817Y469424D01*
X503593Y471200D01*
X504849Y473375D01*
X505499Y475802D01*
Y478314D01*
X504849Y480740D01*
X503593Y482915D01*
X501817Y484692D01*
X499641Y485948D01*
X497215Y486598D01*
D02*
G37*
G36*
X1252979Y485552D02*
X1250467D01*
X1248040Y484902D01*
X1245865Y483646D01*
X1244089Y481869D01*
X1242833Y479694D01*
X1242183Y477268D01*
Y474756D01*
X1242833Y472329D01*
X1244089Y470154D01*
X1245865Y468378D01*
X1248040Y467122D01*
X1250467Y466472D01*
X1252979D01*
X1255405Y467122D01*
X1257580Y468378D01*
X1259357Y470154D01*
X1260612Y472329D01*
X1261263Y474756D01*
Y477268D01*
X1260612Y479694D01*
X1259357Y481869D01*
X1257580Y483646D01*
X1255405Y484902D01*
X1252979Y485552D01*
D02*
G37*
G36*
X946697Y473168D02*
X939828D01*
Y466299D01*
X941720Y466806D01*
X943587Y467884D01*
X945112Y469409D01*
X946190Y471277D01*
X946697Y473168D01*
D02*
G37*
G36*
X734415D02*
X727546D01*
Y466299D01*
X729437Y466806D01*
X731305Y467884D01*
X732830Y469409D01*
X733908Y471277D01*
X734415Y473168D01*
D02*
G37*
G36*
X1149726D02*
X1142858D01*
X1143365Y471277D01*
X1144443Y469409D01*
X1145968Y467884D01*
X1147835Y466806D01*
X1149726Y466299D01*
Y473168D01*
D02*
G37*
G36*
X937288D02*
X930420D01*
X930927Y471277D01*
X932005Y469409D01*
X933530Y467884D01*
X935397Y466806D01*
X937288Y466299D01*
Y473168D01*
D02*
G37*
G36*
X1101275Y482628D02*
X1099118D01*
X1097035Y482070D01*
X1095168Y480992D01*
X1093643Y479467D01*
X1092565Y477599D01*
X1092006Y475516D01*
Y473360D01*
X1092565Y471277D01*
X1093643Y469409D01*
X1095168Y467884D01*
X1097035Y466806D01*
X1099118Y466248D01*
X1101275D01*
X1103358Y466806D01*
X1105225Y467884D01*
X1106750Y469409D01*
X1107828Y471277D01*
X1108386Y473360D01*
Y475516D01*
X1107828Y477599D01*
X1106750Y479467D01*
X1105225Y480992D01*
X1103358Y482070D01*
X1101275Y482628D01*
D02*
G37*
G36*
X1050475D02*
X1048318D01*
X1046235Y482070D01*
X1044368Y480992D01*
X1042843Y479467D01*
X1041765Y477599D01*
X1041206Y475516D01*
Y473360D01*
X1041765Y471277D01*
X1042843Y469409D01*
X1044368Y467884D01*
X1046235Y466806D01*
X1048318Y466248D01*
X1050475D01*
X1052558Y466806D01*
X1054425Y467884D01*
X1055950Y469409D01*
X1057028Y471277D01*
X1057586Y473360D01*
Y475516D01*
X1057028Y477599D01*
X1055950Y479467D01*
X1054425Y480992D01*
X1052558Y482070D01*
X1050475Y482628D01*
D02*
G37*
G36*
X838037D02*
X835880D01*
X833797Y482070D01*
X831930Y480992D01*
X830405Y479467D01*
X829327Y477599D01*
X828768Y475516D01*
Y473360D01*
X829327Y471277D01*
X830405Y469409D01*
X831930Y467884D01*
X833797Y466806D01*
X835880Y466248D01*
X838037D01*
X840120Y466806D01*
X841987Y467884D01*
X843512Y469409D01*
X844590Y471277D01*
X845148Y473360D01*
Y475516D01*
X844590Y477599D01*
X843512Y479467D01*
X841987Y480992D01*
X840120Y482070D01*
X838037Y482628D01*
D02*
G37*
G36*
X794348D02*
X777968D01*
Y466248D01*
X794348D01*
Y482628D01*
D02*
G37*
G36*
X651154D02*
X648998D01*
X646915Y482070D01*
X645047Y480992D01*
X643522Y479467D01*
X642444Y477599D01*
X641886Y475516D01*
Y473360D01*
X642444Y471277D01*
X643522Y469409D01*
X645047Y467884D01*
X646915Y466806D01*
X648998Y466248D01*
X651154D01*
X653237Y466806D01*
X655105Y467884D01*
X656629Y469409D01*
X657708Y471277D01*
X658266Y473360D01*
Y475516D01*
X657708Y477599D01*
X656629Y479467D01*
X655105Y480992D01*
X653237Y482070D01*
X651154Y482628D01*
D02*
G37*
G36*
X625754D02*
X623598D01*
X621515Y482070D01*
X619647Y480992D01*
X618122Y479467D01*
X617044Y477599D01*
X616486Y475516D01*
Y473360D01*
X617044Y471277D01*
X618122Y469409D01*
X619647Y467884D01*
X621515Y466806D01*
X623598Y466248D01*
X625754D01*
X627837Y466806D01*
X629705Y467884D01*
X631230Y469409D01*
X632308Y471277D01*
X632866Y473360D01*
Y475516D01*
X632308Y477599D01*
X631230Y479467D01*
X629705Y480992D01*
X627837Y482070D01*
X625754Y482628D01*
D02*
G37*
G36*
X600354D02*
X598198D01*
X596115Y482070D01*
X594247Y480992D01*
X592722Y479467D01*
X591644Y477599D01*
X591086Y475516D01*
Y473360D01*
X591644Y471277D01*
X592722Y469409D01*
X594247Y467884D01*
X596115Y466806D01*
X598198Y466248D01*
X600354D01*
X602437Y466806D01*
X604305Y467884D01*
X605830Y469409D01*
X606908Y471277D01*
X607466Y473360D01*
Y475516D01*
X606908Y477599D01*
X605830Y479467D01*
X604305Y480992D01*
X602437Y482070D01*
X600354Y482628D01*
D02*
G37*
G36*
X582066D02*
X565686D01*
Y466248D01*
X582066D01*
Y482628D01*
D02*
G37*
G36*
X471829Y473894D02*
Y465628D01*
X480095D01*
X479449Y468040D01*
X478193Y470215D01*
X476417Y471992D01*
X474241Y473248D01*
X471829Y473894D01*
D02*
G37*
G36*
X469289D02*
X466877Y473248D01*
X464701Y471992D01*
X462925Y470215D01*
X461669Y468040D01*
X461023Y465628D01*
X469289D01*
Y473894D01*
D02*
G37*
G36*
X1252993Y460148D02*
Y451882D01*
X1261259D01*
X1260612Y454294D01*
X1259357Y456469D01*
X1257580Y458246D01*
X1255405Y459502D01*
X1252993Y460148D01*
D02*
G37*
G36*
X497215Y461198D02*
X494703D01*
X492277Y460548D01*
X490101Y459292D01*
X488325Y457515D01*
X487069Y455340D01*
X486419Y452914D01*
Y450402D01*
X487069Y447975D01*
X488325Y445800D01*
X490101Y444024D01*
X492277Y442768D01*
X494703Y442118D01*
X497215D01*
X499641Y442768D01*
X501817Y444024D01*
X503593Y445800D01*
X504849Y447975D01*
X505499Y450402D01*
Y452914D01*
X504849Y455340D01*
X503593Y457515D01*
X501817Y459292D01*
X499641Y460548D01*
X497215Y461198D01*
D02*
G37*
G36*
X480095Y437688D02*
X471829D01*
Y429422D01*
X474241Y430068D01*
X476417Y431324D01*
X478193Y433100D01*
X479449Y435275D01*
X480095Y437688D01*
D02*
G37*
G36*
Y463088D02*
X470559D01*
X461023D01*
X461669Y460675D01*
X462925Y458500D01*
X464701Y456724D01*
X465379Y456332D01*
Y446983D01*
X464701Y446592D01*
X462925Y444815D01*
X462533Y444137D01*
X416098D01*
X414116Y443743D01*
X412435Y442620D01*
X326246Y356431D01*
X325124Y354751D01*
X324729Y352769D01*
Y307473D01*
X323054Y306505D01*
X320975Y304427D01*
X319505Y301881D01*
X318744Y299041D01*
Y298841D01*
X341074D01*
Y299041D01*
X340313Y301881D01*
X338843Y304427D01*
X336764Y306505D01*
X335088Y307473D01*
Y350624D01*
X418243Y433778D01*
X462533D01*
X462925Y433100D01*
X464701Y431324D01*
X466877Y430068D01*
X469289Y429422D01*
Y438958D01*
X470559D01*
Y440228D01*
X480095D01*
X479449Y442640D01*
X478193Y444815D01*
X476417Y446592D01*
X475738Y446983D01*
Y456332D01*
X476417Y456724D01*
X478193Y458500D01*
X479449Y460675D01*
X480095Y463088D01*
D02*
G37*
G36*
X1159591Y473168D02*
X1152266D01*
Y465843D01*
X1171160Y446949D01*
X1172840Y445826D01*
X1173596Y445676D01*
X1174014Y444298D01*
X1078010Y348295D01*
Y340970D01*
X1085335D01*
X1189798Y445432D01*
X1218692D01*
X1219178Y444259D01*
X1218689Y443769D01*
X1217433Y441594D01*
X1216783Y439168D01*
Y436656D01*
X1217433Y434230D01*
X1218689Y432054D01*
X1220465Y430278D01*
X1222640Y429022D01*
X1225067Y428372D01*
X1227579D01*
X1230005Y429022D01*
X1232180Y430278D01*
X1233957Y432054D01*
X1235212Y434230D01*
X1235863Y436656D01*
Y439168D01*
X1235212Y441594D01*
X1233957Y443769D01*
X1233467Y444259D01*
X1233953Y445432D01*
X1243697D01*
X1244089Y444754D01*
X1245865Y442978D01*
X1246543Y442586D01*
Y433237D01*
X1245865Y432846D01*
X1244089Y431069D01*
X1242833Y428894D01*
X1242186Y426482D01*
X1251723D01*
X1261259D01*
X1260612Y428894D01*
X1259357Y431069D01*
X1257580Y432846D01*
X1256902Y433237D01*
Y442586D01*
X1257580Y442978D01*
X1259357Y444754D01*
X1260612Y446930D01*
X1261259Y449342D01*
X1251723D01*
Y450612D01*
X1250453D01*
Y460148D01*
X1248040Y459502D01*
X1245865Y458246D01*
X1244089Y456469D01*
X1243697Y455791D01*
X1233953D01*
X1233467Y456965D01*
X1233957Y457454D01*
X1235212Y459630D01*
X1235863Y462056D01*
Y464568D01*
X1235212Y466994D01*
X1233957Y469169D01*
X1232180Y470946D01*
X1230005Y472202D01*
X1227579Y472852D01*
X1225067D01*
X1222640Y472202D01*
X1220465Y470946D01*
X1218689Y469169D01*
X1217433Y466994D01*
X1216783Y464568D01*
Y462056D01*
X1217433Y459630D01*
X1218689Y457454D01*
X1219178Y456965D01*
X1218692Y455791D01*
X1176968D01*
X1159591Y473168D01*
D02*
G37*
G36*
X863437Y482628D02*
X861280D01*
X859197Y482070D01*
X857330Y480992D01*
X855805Y479467D01*
X854727Y477599D01*
X854168Y475516D01*
Y473360D01*
X854727Y471277D01*
X855805Y469409D01*
X857179Y468035D01*
Y458104D01*
X830027Y430952D01*
X828905Y429272D01*
X828511Y427290D01*
Y426819D01*
X827241Y426086D01*
X826121Y426732D01*
X824038Y427290D01*
X821882D01*
X819799Y426732D01*
X817931Y425654D01*
X816406Y424129D01*
X815328Y422261D01*
X814770Y420178D01*
Y418022D01*
X815328Y415939D01*
X816406Y414071D01*
X817931Y412546D01*
X819799Y411468D01*
X821882Y410910D01*
X824038D01*
X826121Y411468D01*
X827240Y412114D01*
X828511Y411381D01*
Y377976D01*
X798425Y347890D01*
X796482D01*
X794399Y347332D01*
X792531Y346254D01*
X791006Y344729D01*
X789928Y342861D01*
X789370Y340778D01*
Y338622D01*
X789928Y336539D01*
X791006Y334671D01*
X792531Y333147D01*
X794399Y332068D01*
X796482Y331510D01*
X798638D01*
X800721Y332068D01*
X802589Y333147D01*
X804114Y334671D01*
X805192Y336539D01*
X805750Y338622D01*
Y340565D01*
X837353Y372168D01*
X838475Y373848D01*
X838869Y375830D01*
Y425145D01*
X866021Y452296D01*
X866021Y452296D01*
X867144Y453976D01*
X867538Y455958D01*
X867538Y455959D01*
Y468035D01*
X868912Y469409D01*
X869990Y471277D01*
X870548Y473360D01*
Y475516D01*
X869990Y477599D01*
X868912Y479467D01*
X867387Y480992D01*
X865520Y482070D01*
X863437Y482628D01*
D02*
G37*
G36*
X812637D02*
X810480D01*
X808397Y482070D01*
X806530Y480992D01*
X805005Y479467D01*
X803927Y477599D01*
X803368Y475516D01*
Y473360D01*
X803927Y471277D01*
X805005Y469409D01*
X806379Y468035D01*
Y458104D01*
X781198Y432923D01*
X780075Y431242D01*
X779680Y429260D01*
Y424861D01*
X778410Y424432D01*
X777189Y425654D01*
X775321Y426732D01*
X773238Y427290D01*
X771082D01*
X768999Y426732D01*
X767131Y425654D01*
X765606Y424129D01*
X764528Y422261D01*
X763970Y420178D01*
Y418022D01*
X764528Y415939D01*
X765606Y414071D01*
X767131Y412546D01*
X768999Y411468D01*
X771082Y410910D01*
X773238D01*
X775321Y411468D01*
X777189Y412546D01*
X778410Y413768D01*
X779680Y413339D01*
Y354546D01*
X773025Y347890D01*
X771082D01*
X768999Y347332D01*
X767131Y346254D01*
X765606Y344729D01*
X764528Y342861D01*
X763970Y340778D01*
Y338622D01*
X764528Y336539D01*
X765606Y334671D01*
X767131Y333147D01*
X768999Y332068D01*
X771082Y331510D01*
X773238D01*
X775321Y332068D01*
X777189Y333147D01*
X778714Y334671D01*
X779792Y336539D01*
X780350Y338622D01*
Y340565D01*
X788522Y348738D01*
X789645Y350418D01*
X790040Y352400D01*
Y413339D01*
X791310Y413768D01*
X792531Y412546D01*
X794399Y411468D01*
X796482Y410910D01*
X798638D01*
X800721Y411468D01*
X802589Y412546D01*
X804114Y414071D01*
X805192Y415939D01*
X805750Y418022D01*
Y420178D01*
X805192Y422261D01*
X804114Y424129D01*
X802589Y425654D01*
X800721Y426732D01*
X798638Y427290D01*
X796482D01*
X794399Y426732D01*
X792531Y425654D01*
X791310Y424432D01*
X790040Y424861D01*
Y427115D01*
X815221Y452296D01*
X816344Y453976D01*
X816738Y455958D01*
Y468035D01*
X818112Y469409D01*
X819190Y471277D01*
X819748Y473360D01*
Y475516D01*
X819190Y477599D01*
X818112Y479467D01*
X816587Y480992D01*
X814720Y482070D01*
X812637Y482628D01*
D02*
G37*
G36*
X914237D02*
X912080D01*
X909997Y482070D01*
X908130Y480992D01*
X906605Y479467D01*
X905527Y477599D01*
X904968Y475516D01*
Y473360D01*
X905527Y471277D01*
X906605Y469409D01*
X907979Y468035D01*
Y421919D01*
X906709Y421752D01*
X906572Y422261D01*
X905494Y424129D01*
X903969Y425654D01*
X902102Y426732D01*
X900019Y427290D01*
X897862D01*
X895779Y426732D01*
X893912Y425654D01*
X892387Y424129D01*
X891309Y422261D01*
X890751Y420178D01*
Y418022D01*
X891309Y415939D01*
X892387Y414071D01*
X893912Y412546D01*
X895779Y411468D01*
X897862Y410910D01*
X900019D01*
X902102Y411468D01*
X903969Y412546D01*
X905494Y414071D01*
X906572Y415939D01*
X906709Y416448D01*
X907979Y416281D01*
Y356063D01*
X899806Y347890D01*
X890751D01*
Y331510D01*
X907131D01*
Y340565D01*
X916821Y350256D01*
X917944Y351936D01*
X918338Y353918D01*
Y411888D01*
X919608Y412375D01*
X921179Y411468D01*
X923262Y410910D01*
X925419D01*
X927502Y411468D01*
X929369Y412546D01*
X930894Y414071D01*
X931972Y415939D01*
X932531Y418022D01*
Y420178D01*
X931972Y422261D01*
X930894Y424129D01*
X929369Y425654D01*
X927502Y426732D01*
X925419Y427290D01*
X923262D01*
X921179Y426732D01*
X919608Y425825D01*
X918338Y426312D01*
Y468035D01*
X919712Y469409D01*
X920790Y471277D01*
X921348Y473360D01*
Y475516D01*
X920790Y477599D01*
X919712Y479467D01*
X918187Y480992D01*
X916320Y482070D01*
X914237Y482628D01*
D02*
G37*
G36*
X497215Y435798D02*
X494703D01*
X492277Y435148D01*
X490101Y433892D01*
X488325Y432115D01*
X487069Y429940D01*
X486419Y427514D01*
Y425002D01*
X487069Y422575D01*
X488325Y420400D01*
X490101Y418624D01*
X492277Y417368D01*
X494703Y416718D01*
X497215D01*
X499641Y417368D01*
X501817Y418624D01*
X503593Y420400D01*
X504849Y422575D01*
X505499Y425002D01*
Y427514D01*
X504849Y429940D01*
X503593Y432115D01*
X501817Y433892D01*
X499641Y435148D01*
X497215Y435798D01*
D02*
G37*
G36*
X1250453Y423942D02*
X1242186D01*
X1242833Y421530D01*
X1244089Y419354D01*
X1245865Y417578D01*
X1248040Y416322D01*
X1250453Y415676D01*
Y423942D01*
D02*
G37*
G36*
X976219Y427290D02*
X974062D01*
X971979Y426732D01*
X970112Y425654D01*
X968587Y424129D01*
X967509Y422261D01*
X966951Y420178D01*
Y418022D01*
X967509Y415939D01*
X968587Y414071D01*
X970112Y412546D01*
X971979Y411468D01*
X974062Y410910D01*
X976219D01*
X978302Y411468D01*
X980169Y412546D01*
X981694Y414071D01*
X982772Y415939D01*
X983331Y418022D01*
Y420178D01*
X982772Y422261D01*
X981694Y424129D01*
X980169Y425654D01*
X978302Y426732D01*
X976219Y427290D01*
D02*
G37*
G36*
X950819D02*
X948662D01*
X946579Y426732D01*
X944712Y425654D01*
X943187Y424129D01*
X942109Y422261D01*
X941551Y420178D01*
Y418022D01*
X942109Y415939D01*
X943187Y414071D01*
X944712Y412546D01*
X946579Y411468D01*
X948662Y410910D01*
X950819D01*
X952902Y411468D01*
X954769Y412546D01*
X956294Y414071D01*
X957372Y415939D01*
X957931Y418022D01*
Y420178D01*
X957372Y422261D01*
X956294Y424129D01*
X954769Y425654D01*
X952902Y426732D01*
X950819Y427290D01*
D02*
G37*
G36*
X747838D02*
X745682D01*
X743599Y426732D01*
X741731Y425654D01*
X740206Y424129D01*
X739128Y422261D01*
X738570Y420178D01*
Y418022D01*
X739128Y415939D01*
X740206Y414071D01*
X741731Y412546D01*
X743599Y411468D01*
X745682Y410910D01*
X747838D01*
X749921Y411468D01*
X751789Y412546D01*
X753314Y414071D01*
X754392Y415939D01*
X754950Y418022D01*
Y420178D01*
X754392Y422261D01*
X753314Y424129D01*
X751789Y425654D01*
X749921Y426732D01*
X747838Y427290D01*
D02*
G37*
G36*
X646238D02*
X644082D01*
X641999Y426732D01*
X640131Y425654D01*
X638606Y424129D01*
X637528Y422261D01*
X636970Y420178D01*
Y418022D01*
X637528Y415939D01*
X638606Y414071D01*
X640131Y412546D01*
X641999Y411468D01*
X644082Y410910D01*
X646238D01*
X648321Y411468D01*
X650189Y412546D01*
X651714Y414071D01*
X652792Y415939D01*
X653350Y418022D01*
Y420178D01*
X652792Y422261D01*
X651714Y424129D01*
X650189Y425654D01*
X648321Y426732D01*
X646238Y427290D01*
D02*
G37*
G36*
X471815Y423098D02*
X469303D01*
X466877Y422448D01*
X464701Y421192D01*
X462925Y419415D01*
X461669Y417240D01*
X461019Y414814D01*
Y412302D01*
X461669Y409875D01*
X462925Y407700D01*
X464701Y405924D01*
X466877Y404668D01*
X469303Y404018D01*
X471815D01*
X474241Y404668D01*
X476417Y405924D01*
X478193Y407700D01*
X479449Y409875D01*
X480099Y412302D01*
Y414814D01*
X479449Y417240D01*
X478193Y419415D01*
X476417Y421192D01*
X474241Y422448D01*
X471815Y423098D01*
D02*
G37*
G36*
X1227579Y422052D02*
X1225067D01*
X1222640Y421402D01*
X1220465Y420146D01*
X1218689Y418369D01*
X1217433Y416194D01*
X1216783Y413768D01*
Y411256D01*
X1217433Y408829D01*
X1218689Y406654D01*
X1220465Y404878D01*
X1222640Y403622D01*
X1225067Y402972D01*
X1227579D01*
X1230005Y403622D01*
X1232180Y404878D01*
X1233957Y406654D01*
X1235212Y408829D01*
X1235863Y411256D01*
Y413768D01*
X1235212Y416194D01*
X1233957Y418369D01*
X1232180Y420146D01*
X1230005Y421402D01*
X1227579Y422052D01*
D02*
G37*
G36*
X497215Y410398D02*
X494703D01*
X492277Y409748D01*
X490101Y408492D01*
X488325Y406715D01*
X487069Y404540D01*
X486419Y402114D01*
Y399602D01*
X487069Y397175D01*
X488325Y395000D01*
X490101Y393224D01*
X492277Y391968D01*
X494703Y391318D01*
X497215D01*
X499641Y391968D01*
X501817Y393224D01*
X503593Y395000D01*
X504849Y397175D01*
X505499Y399602D01*
Y402114D01*
X504849Y404540D01*
X503593Y406715D01*
X501817Y408492D01*
X499641Y409748D01*
X497215Y410398D01*
D02*
G37*
G36*
X408885Y406698D02*
X405233D01*
X401651Y405985D01*
X398277Y404588D01*
X395240Y402559D01*
X392658Y399976D01*
X390629Y396940D01*
X389231Y393566D01*
X388519Y389984D01*
Y386332D01*
X389231Y382750D01*
X390629Y379376D01*
X392658Y376339D01*
X395240Y373757D01*
X398277Y371728D01*
X401651Y370330D01*
X405233Y369618D01*
X408885D01*
X412467Y370330D01*
X415841Y371728D01*
X418877Y373757D01*
X421460Y376339D01*
X423489Y379376D01*
X424886Y382750D01*
X425599Y386332D01*
Y389984D01*
X424886Y393566D01*
X423489Y396940D01*
X421460Y399976D01*
X418877Y402559D01*
X415841Y404588D01*
X412467Y405985D01*
X408885Y406698D01*
D02*
G37*
G36*
X1317049Y405652D02*
X1313397D01*
X1309815Y404939D01*
X1306441Y403542D01*
X1303404Y401513D01*
X1300822Y398930D01*
X1298793Y395894D01*
X1297395Y392520D01*
X1296683Y388938D01*
Y385286D01*
X1297395Y381704D01*
X1298793Y378330D01*
X1300822Y375293D01*
X1303404Y372711D01*
X1306441Y370682D01*
X1309815Y369284D01*
X1313397Y368572D01*
X1317049D01*
X1320631Y369284D01*
X1324005Y370682D01*
X1327041Y372711D01*
X1329624Y375293D01*
X1331653Y378330D01*
X1333050Y381704D01*
X1333763Y385286D01*
Y388938D01*
X1333050Y392520D01*
X1331653Y395894D01*
X1329624Y398930D01*
X1327041Y401513D01*
X1324005Y403542D01*
X1320631Y404939D01*
X1317049Y405652D01*
D02*
G37*
G36*
X439065Y383098D02*
X436053D01*
X433099Y382510D01*
X430316Y381358D01*
X427812Y379684D01*
X425682Y377555D01*
X424009Y375050D01*
X422856Y372268D01*
X422269Y369314D01*
Y366302D01*
X422856Y363348D01*
X424009Y360565D01*
X425682Y358061D01*
X427812Y355931D01*
X430316Y354258D01*
X433099Y353105D01*
X436053Y352518D01*
X439065D01*
X442019Y353105D01*
X444801Y354258D01*
X447305Y355931D01*
X449435Y358061D01*
X451109Y360565D01*
X452261Y363348D01*
X452849Y366302D01*
Y369314D01*
X452261Y372268D01*
X451109Y375050D01*
X449435Y377555D01*
X447305Y379684D01*
X444801Y381358D01*
X442019Y382510D01*
X439065Y383098D01*
D02*
G37*
G36*
X1261259Y423942D02*
X1252993D01*
Y415676D01*
X1253735Y415874D01*
X1259084Y410525D01*
X1258598Y409352D01*
X1242183D01*
Y390272D01*
X1261263D01*
X1261713Y389188D01*
Y347089D01*
X1262107Y345107D01*
X1263230Y343427D01*
X1296509Y310147D01*
X1296023Y308974D01*
X1279608D01*
Y286644D01*
X1301938D01*
Y303060D01*
X1303111Y303546D01*
X1305509Y301148D01*
X1305008Y299279D01*
Y299079D01*
X1314903D01*
Y308974D01*
X1314703D01*
X1312833Y308473D01*
X1272072Y349234D01*
Y355993D01*
X1273342Y356519D01*
X1274976Y354885D01*
X1277480Y353212D01*
X1280262Y352059D01*
X1283216Y351472D01*
X1286228D01*
X1289182Y352059D01*
X1291965Y353212D01*
X1294469Y354885D01*
X1296599Y357015D01*
X1298272Y359519D01*
X1299425Y362302D01*
X1300012Y365256D01*
Y368268D01*
X1299425Y371222D01*
X1298272Y374004D01*
X1296599Y376509D01*
X1294469Y378638D01*
X1291965Y380312D01*
X1289182Y381464D01*
X1286228Y382052D01*
X1283216D01*
X1280262Y381464D01*
X1277480Y380312D01*
X1274976Y378638D01*
X1273342Y377005D01*
X1272072Y377531D01*
Y410042D01*
X1271678Y412024D01*
X1270555Y413704D01*
X1261060Y423199D01*
X1261259Y423942D01*
D02*
G37*
G36*
X824230Y347839D02*
Y340970D01*
X831099D01*
X830592Y342861D01*
X829514Y344729D01*
X827989Y346254D01*
X826121Y347332D01*
X824230Y347839D01*
D02*
G37*
G36*
X1075471D02*
X1073579Y347332D01*
X1071712Y346254D01*
X1070187Y344729D01*
X1069109Y342861D01*
X1068602Y340970D01*
X1075471D01*
Y347839D01*
D02*
G37*
G36*
X821690D02*
X819799Y347332D01*
X817931Y346254D01*
X816406Y344729D01*
X815328Y342861D01*
X814821Y340970D01*
X821690D01*
Y347839D01*
D02*
G37*
G36*
X1084879Y338430D02*
X1078010D01*
Y331562D01*
X1079902Y332068D01*
X1081769Y333147D01*
X1083294Y334671D01*
X1084372Y336539D01*
X1084879Y338430D01*
D02*
G37*
G36*
X831099D02*
X824230D01*
Y331562D01*
X826121Y332068D01*
X827989Y333147D01*
X829514Y334671D01*
X830592Y336539D01*
X831099Y338430D01*
D02*
G37*
G36*
X1075471D02*
X1068602D01*
X1069109Y336539D01*
X1070187Y334671D01*
X1071712Y333147D01*
X1073579Y332068D01*
X1075471Y331562D01*
Y338430D01*
D02*
G37*
G36*
X821690D02*
X814821D01*
X815328Y336539D01*
X816406Y334671D01*
X817931Y333147D01*
X819799Y332068D01*
X821690Y331562D01*
Y338430D01*
D02*
G37*
G36*
X950819Y347890D02*
X948662D01*
X946579Y347332D01*
X944712Y346254D01*
X943187Y344729D01*
X942109Y342861D01*
X941551Y340778D01*
Y338622D01*
X942109Y336539D01*
X943187Y334671D01*
X944712Y333147D01*
X946579Y332068D01*
X948662Y331510D01*
X950819D01*
X952902Y332068D01*
X954769Y333147D01*
X956294Y334671D01*
X957372Y336539D01*
X957931Y338622D01*
Y340778D01*
X957372Y342861D01*
X956294Y344729D01*
X954769Y346254D01*
X952902Y347332D01*
X950819Y347890D01*
D02*
G37*
G36*
X925419D02*
X923262D01*
X921179Y347332D01*
X919312Y346254D01*
X917787Y344729D01*
X916709Y342861D01*
X916151Y340778D01*
Y338622D01*
X916709Y336539D01*
X917787Y334671D01*
X919312Y333147D01*
X921179Y332068D01*
X923262Y331510D01*
X925419D01*
X927502Y332068D01*
X929369Y333147D01*
X930894Y334671D01*
X931972Y336539D01*
X932531Y338622D01*
Y340778D01*
X931972Y342861D01*
X930894Y344729D01*
X929369Y346254D01*
X927502Y347332D01*
X925419Y347890D01*
D02*
G37*
G36*
X697038D02*
X694882D01*
X692799Y347332D01*
X690931Y346254D01*
X689406Y344729D01*
X688328Y342861D01*
X687770Y340778D01*
Y338622D01*
X688328Y336539D01*
X689406Y334671D01*
X690931Y333147D01*
X692799Y332068D01*
X694882Y331510D01*
X697038D01*
X699121Y332068D01*
X700989Y333147D01*
X702514Y334671D01*
X703592Y336539D01*
X704150Y338622D01*
Y340778D01*
X703592Y342861D01*
X702514Y344729D01*
X700989Y346254D01*
X699121Y347332D01*
X697038Y347890D01*
D02*
G37*
G36*
X671638D02*
X669482D01*
X667399Y347332D01*
X665531Y346254D01*
X664006Y344729D01*
X662928Y342861D01*
X662370Y340778D01*
Y338622D01*
X662928Y336539D01*
X664006Y334671D01*
X665531Y333147D01*
X667399Y332068D01*
X669482Y331510D01*
X671638D01*
X673721Y332068D01*
X675589Y333147D01*
X677114Y334671D01*
X678192Y336539D01*
X678750Y338622D01*
Y340778D01*
X678192Y342861D01*
X677114Y344729D01*
X675589Y346254D01*
X673721Y347332D01*
X671638Y347890D01*
D02*
G37*
G36*
X653350D02*
X636970D01*
Y331510D01*
X653350D01*
Y347890D01*
D02*
G37*
G36*
X1317643Y308974D02*
X1317443D01*
Y299079D01*
X1327338D01*
Y299279D01*
X1326577Y302118D01*
X1325107Y304664D01*
X1323028Y306743D01*
X1320482Y308213D01*
X1317643Y308974D01*
D02*
G37*
G36*
X1419243D02*
X1416303D01*
X1413463Y308213D01*
X1410917Y306743D01*
X1408838Y304664D01*
X1407368Y302118D01*
X1406608Y299279D01*
Y296339D01*
X1407368Y293499D01*
X1408838Y290953D01*
X1410917Y288875D01*
X1413463Y287405D01*
X1416303Y286644D01*
X1419243D01*
X1422082Y287405D01*
X1424628Y288875D01*
X1426707Y290953D01*
X1428177Y293499D01*
X1428938Y296339D01*
Y299279D01*
X1428177Y302118D01*
X1426707Y304664D01*
X1424628Y306743D01*
X1422082Y308213D01*
X1419243Y308974D01*
D02*
G37*
G36*
X1393842D02*
X1390903D01*
X1388063Y308213D01*
X1385517Y306743D01*
X1383438Y304664D01*
X1381969Y302118D01*
X1381208Y299279D01*
Y296339D01*
X1381969Y293499D01*
X1383438Y290953D01*
X1385517Y288875D01*
X1388063Y287405D01*
X1390903Y286644D01*
X1393842D01*
X1396682Y287405D01*
X1399228Y288875D01*
X1401307Y290953D01*
X1402777Y293499D01*
X1403538Y296339D01*
Y299279D01*
X1402777Y302118D01*
X1401307Y304664D01*
X1399228Y306743D01*
X1396682Y308213D01*
X1393842Y308974D01*
D02*
G37*
G36*
X1368443D02*
X1365503D01*
X1362663Y308213D01*
X1360117Y306743D01*
X1358038Y304664D01*
X1356568Y302118D01*
X1355808Y299279D01*
Y296339D01*
X1356568Y293499D01*
X1358038Y290953D01*
X1360117Y288875D01*
X1362663Y287405D01*
X1365503Y286644D01*
X1368443D01*
X1371282Y287405D01*
X1373828Y288875D01*
X1375907Y290953D01*
X1377377Y293499D01*
X1378138Y296339D01*
Y299279D01*
X1377377Y302118D01*
X1375907Y304664D01*
X1373828Y306743D01*
X1371282Y308213D01*
X1368443Y308974D01*
D02*
G37*
G36*
X1343042D02*
X1340103D01*
X1337263Y308213D01*
X1334717Y306743D01*
X1332638Y304664D01*
X1331169Y302118D01*
X1330408Y299279D01*
Y296339D01*
X1331169Y293499D01*
X1332638Y290953D01*
X1334717Y288875D01*
X1337263Y287405D01*
X1340103Y286644D01*
X1343042D01*
X1345882Y287405D01*
X1348428Y288875D01*
X1350507Y290953D01*
X1351977Y293499D01*
X1352738Y296339D01*
Y299279D01*
X1351977Y302118D01*
X1350507Y304664D01*
X1348428Y306743D01*
X1345882Y308213D01*
X1343042Y308974D01*
D02*
G37*
G36*
X1327338Y296539D02*
X1317443D01*
Y286644D01*
X1317643D01*
X1320482Y287405D01*
X1323028Y288875D01*
X1325107Y290953D01*
X1326577Y293499D01*
X1327338Y296339D01*
Y296539D01*
D02*
G37*
G36*
X1314903D02*
X1305008D01*
Y296339D01*
X1305768Y293499D01*
X1307238Y290953D01*
X1309317Y288875D01*
X1311863Y287405D01*
X1314703Y286644D01*
X1314903D01*
Y296539D01*
D02*
G37*
G36*
X432979Y308736D02*
X430039D01*
X427199Y307975D01*
X424654Y306505D01*
X422575Y304427D01*
X421105Y301881D01*
X420344Y299041D01*
Y296101D01*
X421105Y293262D01*
X422575Y290716D01*
X424654Y288637D01*
X427199Y287167D01*
X430039Y286406D01*
X432979D01*
X435818Y287167D01*
X438364Y288637D01*
X440443Y290716D01*
X441913Y293262D01*
X442674Y296101D01*
Y299041D01*
X441913Y301881D01*
X440443Y304427D01*
X438364Y306505D01*
X435818Y307975D01*
X432979Y308736D01*
D02*
G37*
G36*
X407579D02*
X404639D01*
X401799Y307975D01*
X399254Y306505D01*
X397175Y304427D01*
X395705Y301881D01*
X394944Y299041D01*
Y296101D01*
X395705Y293262D01*
X397175Y290716D01*
X399254Y288637D01*
X401799Y287167D01*
X404639Y286406D01*
X407579D01*
X410419Y287167D01*
X412964Y288637D01*
X415043Y290716D01*
X416513Y293262D01*
X417274Y296101D01*
Y299041D01*
X416513Y301881D01*
X415043Y304427D01*
X412964Y306505D01*
X410419Y307975D01*
X407579Y308736D01*
D02*
G37*
G36*
X382179D02*
X379239D01*
X376399Y307975D01*
X373853Y306505D01*
X371775Y304427D01*
X370305Y301881D01*
X369544Y299041D01*
Y296101D01*
X370305Y293262D01*
X371775Y290716D01*
X373853Y288637D01*
X376399Y287167D01*
X379239Y286406D01*
X382179D01*
X385019Y287167D01*
X387564Y288637D01*
X389643Y290716D01*
X391113Y293262D01*
X391874Y296101D01*
Y299041D01*
X391113Y301881D01*
X389643Y304427D01*
X387564Y306505D01*
X385019Y307975D01*
X382179Y308736D01*
D02*
G37*
G36*
X356779D02*
X353839D01*
X350999Y307975D01*
X348453Y306505D01*
X346375Y304427D01*
X344905Y301881D01*
X344144Y299041D01*
Y296101D01*
X344905Y293262D01*
X346375Y290716D01*
X348453Y288637D01*
X350999Y287167D01*
X353839Y286406D01*
X356779D01*
X359618Y287167D01*
X362164Y288637D01*
X364243Y290716D01*
X365713Y293262D01*
X366474Y296101D01*
Y299041D01*
X365713Y301881D01*
X364243Y304427D01*
X362164Y306505D01*
X359618Y307975D01*
X356779Y308736D01*
D02*
G37*
G36*
X341074Y296301D02*
X331179D01*
Y286406D01*
X331379D01*
X334218Y287167D01*
X336764Y288637D01*
X338843Y290716D01*
X340313Y293262D01*
X341074Y296101D01*
Y296301D01*
D02*
G37*
G36*
X328639D02*
X318744D01*
Y296101D01*
X319505Y293262D01*
X320975Y290716D01*
X323054Y288637D01*
X325599Y287167D01*
X328439Y286406D01*
X328639D01*
Y296301D01*
D02*
G37*
G36*
X315674Y308736D02*
X293344D01*
Y286406D01*
X315674D01*
Y308736D01*
D02*
G37*
%LPD*%
G36*
X1131147Y466719D02*
Y461763D01*
X1085821Y416437D01*
X1084682Y417094D01*
X1084930Y418022D01*
Y420178D01*
X1084372Y422261D01*
X1083294Y424129D01*
X1081769Y425654D01*
X1079902Y426732D01*
X1077819Y427290D01*
X1075662D01*
X1073579Y426732D01*
X1072460Y426086D01*
X1071190Y426819D01*
Y439025D01*
X1074025Y441861D01*
X1098198D01*
X1100181Y442255D01*
X1101861Y443377D01*
X1124731Y466248D01*
X1126675D01*
X1128758Y466806D01*
X1129877Y467452D01*
X1131147Y466719D01*
D02*
G37*
D32*
X1308100Y1207680D02*
X1318260Y1197520D01*
X1282700Y1207680D02*
X1294410Y1195970D01*
X1257300Y1207680D02*
X1267460Y1197520D01*
X1450340Y753045D02*
Y1168400D01*
X1409700Y1206500D02*
X1412240D01*
X1450340Y1168400D01*
X1424940Y857608D02*
Y1168400D01*
X1384300Y1206500D02*
X1386840D01*
X1424940Y1168400D01*
X1397000Y958733D02*
Y1168400D01*
X1358900Y1206500D02*
X1397000Y1168400D01*
X1371600Y1063141D02*
Y1168400D01*
X1333500Y1206500D02*
X1371600Y1168400D01*
X1357770Y1049311D02*
X1371600Y1063141D01*
X1232830Y660475D02*
X1318260Y745905D01*
X1308100Y1207680D02*
Y1211580D01*
X1318260Y745905D02*
Y1197520D01*
X1232830Y790437D02*
X1292860Y850467D01*
X1282700Y1207680D02*
Y1211580D01*
X1292860Y867005D02*
X1294410Y868555D01*
Y1195970D01*
X1292860Y850467D02*
Y867005D01*
X1232830Y919503D02*
X1267460Y954133D01*
X1257300Y1207680D02*
Y1211580D01*
X1267460Y954133D02*
Y1197520D01*
X1231900Y1206500D02*
Y1211580D01*
Y1206500D02*
X1238250Y1200150D01*
X1239084D01*
X1243410Y1195824D01*
Y1059891D02*
Y1195824D01*
X1232830Y1049311D02*
X1243410Y1059891D01*
X1357770Y660475D02*
X1450340Y753045D01*
X1357770Y790438D02*
X1424940Y857608D01*
X1357770Y919503D02*
X1397000Y958733D01*
X887758Y474438D02*
X934020Y520700D01*
X1033780D02*
X1064066Y550987D01*
X934020Y520700D02*
X1033780D01*
X1071487Y612140D02*
X1071880D01*
X1064066Y604719D02*
X1071487Y612140D01*
X1064066Y550987D02*
Y604719D01*
X1000760Y566420D02*
X1046480Y612140D01*
X913158Y553838D02*
X925741Y566420D01*
X1000760D01*
Y591820D02*
X1021080Y612140D01*
X900341Y591820D02*
X1000760D01*
X862358Y553838D02*
X900341Y591820D01*
X811558Y553838D02*
X887641Y629920D01*
X977900D02*
X995680Y612140D01*
X887641Y629920D02*
X977900D01*
X1136326Y459618D02*
Y539168D01*
X1052193Y375484D02*
X1136326Y459618D01*
X1076740Y339700D02*
X1187652Y450612D01*
X1052193Y340552D02*
Y375484D01*
X1051340Y339700D02*
X1052193Y340552D01*
X1136326Y539168D02*
X1150996Y553838D01*
X1000540Y339700D02*
Y370620D01*
X1037669Y407749D02*
Y437310D01*
X1000540Y370620D02*
X1037669Y407749D01*
X1066011Y418596D02*
Y441171D01*
X1071880Y447040D02*
X1098198D01*
X1066011Y441171D02*
X1071880Y447040D01*
X1098198D02*
X1125596Y474438D01*
X1025940Y378526D02*
X1066011Y418596D01*
X1076740Y418201D02*
Y419100D01*
X1025940Y339700D02*
Y378526D01*
X1037669Y437310D02*
X1074796Y474438D01*
X989811Y440252D02*
X1023996Y474438D01*
X989811Y354370D02*
Y440252D01*
X975141Y339700D02*
X989811Y354370D01*
X756920Y594360D02*
Y612140D01*
X736600Y574040D02*
X756920Y594360D01*
X599276Y553838D02*
X619478Y574040D01*
X736600D01*
X683260Y377800D02*
Y467048D01*
Y377800D02*
X721360Y339700D01*
X683260Y467048D02*
X688340Y472128D01*
X913158Y353918D02*
Y474438D01*
X898941Y339700D02*
X913158Y353918D01*
X784860Y352400D02*
Y429260D01*
X811558Y455958D02*
Y474438D01*
X784860Y429260D02*
X811558Y455958D01*
X772160Y339700D02*
X784860Y352400D01*
X833690Y375830D02*
Y427290D01*
X862358Y455958D02*
Y474438D01*
X833690Y427290D02*
X862358Y455958D01*
X797560Y339700D02*
X833690Y375830D01*
X635406Y564568D02*
X710512D01*
X715546Y440089D02*
Y559534D01*
X710512Y564568D02*
X715546Y559534D01*
X624676Y553838D02*
X635406Y564568D01*
X715546Y440089D02*
X732090Y423545D01*
X688340Y472128D02*
Y540075D01*
X675476Y552939D02*
X688340Y540075D01*
X732090Y354370D02*
X746760Y339700D01*
X732090Y354370D02*
Y423545D01*
X675476Y552939D02*
Y553838D01*
X329909Y297571D02*
Y352769D01*
X416098Y438958D02*
X470559D01*
X329909Y352769D02*
X416098Y438958D01*
X1266893Y347089D02*
X1316173Y297809D01*
X1266893Y347089D02*
Y410042D01*
X1251723Y425212D02*
X1266893Y410042D01*
X1251723Y425212D02*
Y450612D01*
X470559Y438958D02*
Y464358D01*
X1187652Y450612D02*
X1251723D01*
X1174823D02*
X1187652D01*
X1150996Y474438D02*
X1174823Y450612D01*
D34*
X544196Y851455D02*
D03*
Y826055D02*
D03*
Y800655D02*
D03*
Y775255D02*
D03*
Y749855D02*
D03*
Y724455D02*
D03*
Y699055D02*
D03*
Y673655D02*
D03*
X1158240Y1120140D02*
D03*
Y1094740D02*
D03*
Y1069340D02*
D03*
Y1043940D02*
D03*
Y1018540D02*
D03*
Y993140D02*
D03*
Y967740D02*
D03*
Y942340D02*
D03*
Y861060D02*
D03*
Y835660D02*
D03*
Y810260D02*
D03*
Y784860D02*
D03*
Y759460D02*
D03*
Y734060D02*
D03*
Y708660D02*
D03*
Y683260D02*
D03*
X544301Y931465D02*
D03*
Y956865D02*
D03*
Y982265D02*
D03*
Y1007665D02*
D03*
Y1033065D02*
D03*
Y1058465D02*
D03*
Y1083865D02*
D03*
Y1109265D02*
D03*
D35*
X1251723Y399812D02*
D03*
X470559Y489758D02*
D03*
D36*
X1226323Y412512D02*
D03*
X1251723Y425212D02*
D03*
X1226323Y437912D02*
D03*
X1251723Y450612D02*
D03*
X1226323Y463312D02*
D03*
X1251723Y476012D02*
D03*
X1226323Y488712D02*
D03*
X495959Y477058D02*
D03*
X470559Y464358D02*
D03*
X495959Y451658D02*
D03*
X470559Y438958D02*
D03*
X495959Y426258D02*
D03*
X470559Y413558D02*
D03*
X495959Y400858D02*
D03*
D37*
X1284722Y366762D02*
D03*
Y521762D02*
D03*
X437559Y522808D02*
D03*
Y367808D02*
D03*
D38*
X1315223Y387112D02*
D03*
Y501412D02*
D03*
X407059Y502458D02*
D03*
Y388158D02*
D03*
D39*
X1220330Y607060D02*
D03*
X605519Y882694D02*
D03*
X1096302Y945668D02*
D03*
X1096059Y686280D02*
D03*
X605519Y1132866D02*
D03*
D40*
X1361330Y607060D02*
D03*
X605519Y856034D02*
D03*
Y829394D02*
D03*
Y802735D02*
D03*
Y776095D02*
D03*
Y749435D02*
D03*
Y722795D02*
D03*
Y696134D02*
D03*
X693520D02*
D03*
Y722795D02*
D03*
Y749435D02*
D03*
Y776095D02*
D03*
Y802735D02*
D03*
Y829394D02*
D03*
Y856034D02*
D03*
Y882694D02*
D03*
X1096302Y972328D02*
D03*
Y998968D02*
D03*
Y1025628D02*
D03*
Y1052268D02*
D03*
Y1078928D02*
D03*
Y1105568D02*
D03*
Y1132228D02*
D03*
X1008302D02*
D03*
Y1105568D02*
D03*
Y1078928D02*
D03*
Y1052268D02*
D03*
Y1025628D02*
D03*
Y998968D02*
D03*
Y972328D02*
D03*
Y945668D02*
D03*
X1096059Y712940D02*
D03*
Y739580D02*
D03*
Y766240D02*
D03*
Y792880D02*
D03*
Y819540D02*
D03*
Y846180D02*
D03*
Y872840D02*
D03*
X1008058D02*
D03*
Y846180D02*
D03*
Y819540D02*
D03*
Y792880D02*
D03*
Y766240D02*
D03*
Y739580D02*
D03*
Y712940D02*
D03*
Y686280D02*
D03*
X605519Y1106206D02*
D03*
Y1079566D02*
D03*
Y1052906D02*
D03*
Y1026266D02*
D03*
Y999606D02*
D03*
Y972966D02*
D03*
Y946306D02*
D03*
X693520D02*
D03*
Y972966D02*
D03*
Y999606D02*
D03*
Y1026266D02*
D03*
Y1052906D02*
D03*
Y1079566D02*
D03*
Y1106206D02*
D03*
Y1132866D02*
D03*
D41*
X304509Y297571D02*
D03*
X1290773Y297809D02*
D03*
D42*
X329909Y297571D02*
D03*
X355309D02*
D03*
X380709D02*
D03*
X406109D02*
D03*
X431509D02*
D03*
X1316173Y297809D02*
D03*
X1341573D02*
D03*
X1366973D02*
D03*
X1392373D02*
D03*
X1417773D02*
D03*
D43*
X898941Y339700D02*
D03*
X645160D02*
D03*
X998596Y474438D02*
D03*
X786158D02*
D03*
X573876D02*
D03*
D44*
X924341Y339700D02*
D03*
X949741D02*
D03*
X975141D02*
D03*
X1000540D02*
D03*
X1025940D02*
D03*
X1051340D02*
D03*
X1076740D02*
D03*
Y419100D02*
D03*
X1051340D02*
D03*
X1025940D02*
D03*
X1000540D02*
D03*
X975141D02*
D03*
X949741D02*
D03*
X924341D02*
D03*
X898941D02*
D03*
X670560Y339700D02*
D03*
X695960D02*
D03*
X721360D02*
D03*
X746760D02*
D03*
X772160D02*
D03*
X797560D02*
D03*
X822960D02*
D03*
Y419100D02*
D03*
X797560D02*
D03*
X772160D02*
D03*
X746760D02*
D03*
X721360D02*
D03*
X695960D02*
D03*
X670560D02*
D03*
X645160D02*
D03*
X998596Y553838D02*
D03*
X1023996D02*
D03*
X1049396D02*
D03*
X1074796D02*
D03*
X1100196D02*
D03*
X1125596D02*
D03*
X1150996D02*
D03*
Y474438D02*
D03*
X1125596D02*
D03*
X1100196D02*
D03*
X1074796D02*
D03*
X1049396D02*
D03*
X1023996D02*
D03*
X786158Y553838D02*
D03*
X811558D02*
D03*
X836958D02*
D03*
X862358D02*
D03*
X887758D02*
D03*
X913158D02*
D03*
X938558D02*
D03*
Y474438D02*
D03*
X913158D02*
D03*
X887758D02*
D03*
X862358D02*
D03*
X836958D02*
D03*
X811558D02*
D03*
X573876Y553838D02*
D03*
X599276D02*
D03*
X624676D02*
D03*
X650076D02*
D03*
X675476D02*
D03*
X700876D02*
D03*
X726276D02*
D03*
Y474438D02*
D03*
X700876D02*
D03*
X675476D02*
D03*
X650076D02*
D03*
X624676D02*
D03*
X599276D02*
D03*
D45*
X957580Y685800D02*
D03*
X932180D02*
D03*
X957580Y739140D02*
D03*
X932180D02*
D03*
X957580Y792480D02*
D03*
X932180D02*
D03*
X957580Y845820D02*
D03*
X932180D02*
D03*
X957580Y1104900D02*
D03*
X932180D02*
D03*
X957580Y1051560D02*
D03*
X932180D02*
D03*
X957580Y998220D02*
D03*
X932180D02*
D03*
X957580Y944880D02*
D03*
X932180D02*
D03*
X744220Y883364D02*
D03*
X769620D02*
D03*
X744220Y829222D02*
D03*
X769620D02*
D03*
X744220Y776181D02*
D03*
X769620D02*
D03*
X744220Y722980D02*
D03*
X769620D02*
D03*
X744220Y972820D02*
D03*
X769620D02*
D03*
X744220Y1079500D02*
D03*
X769620D02*
D03*
X744220Y1026160D02*
D03*
X769620D02*
D03*
X744220Y1132840D02*
D03*
X769620D02*
D03*
D46*
X1357770Y660475D02*
D03*
X1232830D02*
D03*
Y790437D02*
D03*
X1357770Y790438D02*
D03*
Y919503D02*
D03*
Y1049311D02*
D03*
X1232830Y919503D02*
D03*
Y1049311D02*
D03*
X430670Y662785D02*
D03*
Y791055D02*
D03*
Y1048865D02*
D03*
X431572Y919325D02*
D03*
X305730Y662785D02*
D03*
Y791055D02*
D03*
Y919325D02*
D03*
Y1048865D02*
D03*
D47*
X1408770Y660475D02*
D03*
Y742975D02*
D03*
X1357770D02*
D03*
X1283830Y660475D02*
D03*
Y742975D02*
D03*
X1232830D02*
D03*
X1283830Y790437D02*
D03*
Y872937D02*
D03*
X1232830D02*
D03*
X1408770Y790438D02*
D03*
Y872937D02*
D03*
X1357770D02*
D03*
X1408770Y919503D02*
D03*
Y1002003D02*
D03*
X1357770D02*
D03*
X1408770Y1049311D02*
D03*
Y1131811D02*
D03*
X1357770D02*
D03*
X1283830Y919503D02*
D03*
Y1002003D02*
D03*
X1232830D02*
D03*
X1283830Y1049311D02*
D03*
Y1131811D02*
D03*
X1232830D02*
D03*
X481670Y662785D02*
D03*
Y745285D02*
D03*
X430670D02*
D03*
X481670Y791055D02*
D03*
Y873555D02*
D03*
X430670D02*
D03*
X481670Y1048865D02*
D03*
Y1131365D02*
D03*
X430670D02*
D03*
X482572Y919325D02*
D03*
Y1001825D02*
D03*
X431572D02*
D03*
X356730Y662785D02*
D03*
Y745285D02*
D03*
X305730D02*
D03*
X356730Y791055D02*
D03*
Y873555D02*
D03*
X305730D02*
D03*
X356730Y919325D02*
D03*
Y1001825D02*
D03*
X305730D02*
D03*
X356730Y1048865D02*
D03*
Y1131365D02*
D03*
X305730D02*
D03*
D48*
X869900Y1206915D02*
D03*
X1257300Y1206500D02*
D03*
X1282700D02*
D03*
X1308100D02*
D03*
X1333500D02*
D03*
X1358900D02*
D03*
X1384300D02*
D03*
X1409700D02*
D03*
X330200D02*
D03*
X355600D02*
D03*
X381000D02*
D03*
X406400D02*
D03*
X431800D02*
D03*
X457200D02*
D03*
X482600D02*
D03*
D49*
X844500Y1206915D02*
D03*
X1231900Y1206500D02*
D03*
X304800D02*
D03*
D50*
X1097280Y612140D02*
D03*
X1071880D02*
D03*
X1046480D02*
D03*
X1021080D02*
D03*
X995680D02*
D03*
X970280D02*
D03*
X944880D02*
D03*
X919480D02*
D03*
X894080D02*
D03*
X604520D02*
D03*
X629920D02*
D03*
X655320D02*
D03*
X680720D02*
D03*
X706120D02*
D03*
X731520D02*
D03*
X756920D02*
D03*
X782320D02*
D03*
X807720D02*
D03*
M02*
