G04*
G04 #@! TF.GenerationSoftware,Altium Limited,Altium Designer,23.7.1 (13)*
G04*
G04 Layer_Physical_Order=1*
G04 Layer_Color=255*
%FSLAX44Y44*%
%MOMM*%
G71*
G04*
G04 #@! TF.SameCoordinates,0CFD8679-3099-4179-8082-645FB237851B*
G04*
G04*
G04 #@! TF.FilePolarity,Positive*
G04*
G01*
G75*
%ADD33C,0.5080*%
%ADD34C,1.7780*%
%ADD35C,1.2700*%
%ADD36C,0.6350*%
%ADD37C,1.5240*%
%ADD38C,4.0000*%
%ADD39C,4.3180*%
%ADD40C,1.1300*%
%ADD41C,1.1000*%
%ADD42R,1.7780X1.7780*%
%ADD43C,1.7780*%
%ADD44C,1.3970*%
%ADD45R,1.1300X1.1300*%
%ADD46R,1.1300X1.1300*%
%ADD47C,1.6000*%
%ADD48C,2.5500*%
%ADD49C,1.4000*%
%ADD50R,1.4000X1.4000*%
%ADD51C,1.3650*%
%ADD52R,1.2000X1.2000*%
%ADD53C,1.2000*%
%ADD54R,1.7250X1.7250*%
%ADD55C,1.7250*%
%ADD56R,1.1000X1.1000*%
G36*
X1473200Y254000D02*
X254000D01*
Y1270000D01*
X1473200D01*
Y254000D01*
D02*
G37*
%LPC*%
G36*
X681134Y1218443D02*
X681134Y1218443D01*
X554135D01*
X554134Y1218443D01*
X551151Y1218050D01*
X548370Y1216899D01*
X545983Y1215067D01*
X500685Y1169769D01*
X404115D01*
X401132Y1169376D01*
X398351Y1168224D01*
X395964Y1166392D01*
X395964Y1166392D01*
X385548Y1155976D01*
X383716Y1153589D01*
X382564Y1150808D01*
X382171Y1147824D01*
Y1109980D01*
Y1084580D01*
Y1081631D01*
X357445Y1056905D01*
X355672D01*
X353627Y1056357D01*
X351794Y1055299D01*
X350297Y1053802D01*
X349238Y1051968D01*
X348690Y1049924D01*
Y1047807D01*
X349238Y1045762D01*
X350297Y1043928D01*
X351794Y1042431D01*
X353627Y1041373D01*
X355672Y1040825D01*
X357789D01*
X359834Y1041373D01*
X361667Y1042431D01*
X363164Y1043928D01*
X364222Y1045762D01*
X364770Y1047807D01*
Y1049580D01*
X380998Y1065808D01*
X382171Y1065322D01*
Y980440D01*
Y957580D01*
X382256Y956938D01*
X382171Y956295D01*
Y952092D01*
X357445Y927365D01*
X355671D01*
X353627Y926817D01*
X351793Y925759D01*
X350296Y924262D01*
X349238Y922428D01*
X348690Y920384D01*
Y918267D01*
X349238Y916222D01*
X350296Y914388D01*
X351793Y912891D01*
X353627Y911833D01*
X355671Y911285D01*
X357788D01*
X359833Y911833D01*
X361666Y912891D01*
X363163Y914388D01*
X364222Y916222D01*
X364770Y918267D01*
Y920040D01*
X380998Y936268D01*
X382171Y935782D01*
Y853440D01*
Y825500D01*
X382367Y824017D01*
X357445Y799095D01*
X355671D01*
X353627Y798547D01*
X351793Y797489D01*
X350296Y795992D01*
X349238Y794158D01*
X348690Y792114D01*
Y789997D01*
X349238Y787952D01*
X350296Y786118D01*
X351793Y784622D01*
X353627Y783563D01*
X355671Y783015D01*
X357788D01*
X359833Y783563D01*
X361666Y784622D01*
X363163Y786118D01*
X364222Y787952D01*
X364770Y789997D01*
Y791770D01*
X383560Y810560D01*
X384733Y810074D01*
Y699755D01*
X384924Y698305D01*
X357445Y670825D01*
X355671D01*
X353627Y670277D01*
X351793Y669219D01*
X350296Y667722D01*
X349238Y665888D01*
X348690Y663844D01*
Y661727D01*
X349238Y659682D01*
X350296Y657848D01*
X351793Y656351D01*
X353627Y655293D01*
X355671Y654745D01*
X357788D01*
X359833Y655293D01*
X361666Y656351D01*
X363163Y657848D01*
X364222Y659682D01*
X364770Y661727D01*
Y663500D01*
X392249Y690980D01*
X393700Y690789D01*
X395151Y690980D01*
X411613Y674518D01*
X413293Y673395D01*
X415275Y673000D01*
X464129D01*
X473630Y663500D01*
Y661727D01*
X474178Y659682D01*
X475236Y657848D01*
X476733Y656351D01*
X478567Y655293D01*
X480611Y654745D01*
X482728D01*
X484773Y655293D01*
X486606Y656351D01*
X488103Y657848D01*
X489162Y659682D01*
X489710Y661727D01*
Y663844D01*
X489162Y665888D01*
X488103Y667722D01*
X486606Y669219D01*
X484773Y670277D01*
X482728Y670825D01*
X480955D01*
X469937Y681842D01*
X468257Y682965D01*
X466275Y683360D01*
X417421D01*
X402476Y698305D01*
X402667Y699755D01*
Y818410D01*
X403684Y819736D01*
X404836Y822516D01*
X405229Y825500D01*
Y832927D01*
X406402Y833413D01*
X452422Y787393D01*
X454103Y786270D01*
X456085Y785875D01*
X475479D01*
X476733Y784622D01*
X478567Y783563D01*
X480611Y783015D01*
X482728D01*
X484773Y783563D01*
X486606Y784622D01*
X488103Y786118D01*
X489162Y787952D01*
X489710Y789997D01*
Y792114D01*
X489162Y794158D01*
X488103Y795992D01*
X486606Y797489D01*
X484773Y798547D01*
X482728Y799095D01*
X480611D01*
X478567Y798547D01*
X476733Y797489D01*
X475479Y796235D01*
X458230D01*
X405229Y849236D01*
Y853440D01*
Y956295D01*
X405144Y956938D01*
X405229Y957580D01*
Y962467D01*
X406402Y962953D01*
X453693Y915663D01*
X455373Y914540D01*
X457355Y914146D01*
X476381D01*
X477635Y912891D01*
X479469Y911833D01*
X481514Y911285D01*
X483631D01*
X485675Y911833D01*
X487509Y912891D01*
X489006Y914388D01*
X490064Y916222D01*
X490612Y918267D01*
Y920384D01*
X490064Y922428D01*
X489006Y924262D01*
X487509Y925759D01*
X485675Y926817D01*
X483631Y927365D01*
X481514D01*
X479469Y926817D01*
X477635Y925759D01*
X476381Y924505D01*
X459500D01*
X405229Y978776D01*
Y980440D01*
Y1084580D01*
Y1089467D01*
X406402Y1089953D01*
X438180Y1058175D01*
X437654Y1056905D01*
X422630D01*
Y1040825D01*
X430470D01*
X449815Y1021480D01*
X451705Y1020217D01*
X453935Y1019773D01*
X487187D01*
X502173Y1004787D01*
Y889411D01*
X500903Y889029D01*
X499220Y890154D01*
X496990Y890597D01*
X468540D01*
X439612Y919526D01*
Y927365D01*
X423532D01*
Y911285D01*
X431371D01*
X462006Y880650D01*
X462972Y880005D01*
X462587Y878735D01*
X436861D01*
X435607Y879989D01*
X433773Y881047D01*
X431729Y881595D01*
X429612D01*
X427567Y881047D01*
X425733Y879989D01*
X424237Y878492D01*
X423178Y876659D01*
X422630Y874614D01*
Y872497D01*
X423178Y870452D01*
X424237Y868619D01*
X425733Y867122D01*
X427567Y866063D01*
X429612Y865515D01*
X431729D01*
X433773Y866063D01*
X435607Y867122D01*
X436861Y868376D01*
X475479D01*
X476733Y867122D01*
X478567Y866063D01*
X480611Y865515D01*
X482728D01*
X484773Y866063D01*
X486606Y867122D01*
X488103Y868619D01*
X489162Y870452D01*
X489710Y872497D01*
Y874614D01*
X489162Y876659D01*
X488576Y877673D01*
X489309Y878943D01*
X494576D01*
X502173Y871346D01*
Y817880D01*
X502617Y815650D01*
X503880Y813760D01*
X521105Y796535D01*
X522995Y795272D01*
X525225Y794828D01*
X536778D01*
X538445Y793161D01*
X540581Y791928D01*
X542963Y791290D01*
X545428D01*
X546140Y791481D01*
X546797Y790342D01*
X542173Y785718D01*
X541107Y784123D01*
X540581Y783982D01*
X538445Y782749D01*
X536702Y781005D01*
X535469Y778870D01*
X534831Y776488D01*
Y774022D01*
X535469Y771640D01*
X536702Y769505D01*
X538445Y767761D01*
X540581Y766528D01*
X542963Y765890D01*
X545428D01*
X547810Y766528D01*
X549946Y767761D01*
X551689Y769505D01*
X552922Y771640D01*
X553560Y774022D01*
Y776488D01*
X552922Y778870D01*
X551843Y780739D01*
X593440Y822335D01*
X603417D01*
X604791Y820961D01*
X606658Y819882D01*
X608741Y819324D01*
X610898D01*
X612981Y819882D01*
X614848Y820961D01*
X616373Y822486D01*
X617451Y824353D01*
X618009Y826436D01*
Y828593D01*
X617451Y830675D01*
X616373Y832543D01*
X614848Y834068D01*
X612981Y835146D01*
X610898Y835704D01*
X608741D01*
X606658Y835146D01*
X604791Y834068D01*
X603417Y832694D01*
X591294D01*
X589312Y832299D01*
X587632Y831177D01*
X554509Y798054D01*
X553370Y798711D01*
X553560Y799422D01*
Y801888D01*
X552922Y804270D01*
X551689Y806405D01*
X549946Y808149D01*
X547810Y809382D01*
X545428Y810020D01*
X542963D01*
X540581Y809382D01*
X538445Y808149D01*
X536778Y806482D01*
X527638D01*
X513827Y820294D01*
Y871924D01*
X515000Y872410D01*
X534831Y852580D01*
Y850222D01*
X535469Y847840D01*
X536702Y845705D01*
X538445Y843961D01*
X540581Y842728D01*
X542963Y842090D01*
X543546D01*
X544032Y840917D01*
X541817Y838702D01*
X540695Y837022D01*
X540300Y835040D01*
Y834620D01*
X538445Y833549D01*
X536702Y831805D01*
X535469Y829670D01*
X534831Y827288D01*
Y824822D01*
X535469Y822440D01*
X536702Y820305D01*
X538445Y818561D01*
X540581Y817328D01*
X542963Y816690D01*
X545428D01*
X547810Y817328D01*
X549946Y818561D01*
X551689Y820305D01*
X552922Y822440D01*
X553560Y824822D01*
Y827288D01*
X552922Y829670D01*
X551689Y831805D01*
X550659Y832836D01*
Y832894D01*
X590900Y873135D01*
X601629D01*
Y870124D01*
X618009D01*
Y886504D01*
X601629D01*
Y883494D01*
X588754D01*
X586772Y883100D01*
X585092Y881977D01*
X554734Y851619D01*
X553560Y852105D01*
Y852688D01*
X552922Y855070D01*
X551689Y857206D01*
X549946Y858949D01*
X547810Y860182D01*
X545428Y860820D01*
X543071D01*
X513827Y890064D01*
Y1007200D01*
X513383Y1009430D01*
X512120Y1011321D01*
X493721Y1029721D01*
X491830Y1030984D01*
X489600Y1031427D01*
X456349D01*
X438710Y1049066D01*
Y1055849D01*
X439980Y1056375D01*
X451152Y1045203D01*
X452833Y1044080D01*
X454815Y1043686D01*
X475479D01*
X476733Y1042431D01*
X478567Y1041373D01*
X480611Y1040825D01*
X482728D01*
X484773Y1041373D01*
X486606Y1042431D01*
X488103Y1043928D01*
X489162Y1045762D01*
X489710Y1047807D01*
Y1049924D01*
X489162Y1051968D01*
X488103Y1053802D01*
X486606Y1055299D01*
X484773Y1056357D01*
X482728Y1056905D01*
X480611D01*
X478567Y1056357D01*
X476733Y1055299D01*
X475479Y1054045D01*
X456960D01*
X405229Y1105776D01*
Y1109980D01*
Y1143049D01*
X408891Y1146711D01*
X505460D01*
X508444Y1147104D01*
X511224Y1148256D01*
X513612Y1150088D01*
X558910Y1195386D01*
X651643D01*
X652129Y1194213D01*
X642262Y1184346D01*
X640430Y1181959D01*
X639278Y1179178D01*
X638886Y1176194D01*
Y1133014D01*
Y1128811D01*
X618341Y1108266D01*
X616222D01*
X614848Y1109640D01*
X612981Y1110718D01*
X610898Y1111276D01*
X608741D01*
X606658Y1110718D01*
X604791Y1109640D01*
X603266Y1108115D01*
X602188Y1106247D01*
X601629Y1104164D01*
Y1102008D01*
X602188Y1099925D01*
X603266Y1098057D01*
X604791Y1096532D01*
X606658Y1095454D01*
X608741Y1094896D01*
X610898D01*
X612981Y1095454D01*
X614848Y1096532D01*
X616222Y1097906D01*
X620486D01*
X622468Y1098301D01*
X624148Y1099424D01*
X637712Y1112987D01*
X638886Y1112501D01*
Y1082040D01*
Y1077836D01*
X619135Y1058086D01*
X615602D01*
X614848Y1058840D01*
X612981Y1059918D01*
X610898Y1060476D01*
X608741D01*
X606658Y1059918D01*
X604791Y1058840D01*
X603266Y1057315D01*
X602188Y1055447D01*
X601629Y1053364D01*
Y1051208D01*
X602188Y1049125D01*
X603266Y1047257D01*
X604791Y1045732D01*
X606658Y1044654D01*
X608741Y1044096D01*
X610898D01*
X612981Y1044654D01*
X614848Y1045732D01*
X616373Y1047257D01*
X616644Y1047727D01*
X621280D01*
X623263Y1048121D01*
X624943Y1049244D01*
X637712Y1062013D01*
X638886Y1061527D01*
Y1023620D01*
Y1019416D01*
X626135Y1006666D01*
X616222D01*
X614848Y1008040D01*
X612981Y1009118D01*
X610898Y1009676D01*
X608741D01*
X606658Y1009118D01*
X604791Y1008040D01*
X603266Y1006515D01*
X602188Y1004647D01*
X601629Y1002564D01*
Y1000408D01*
X602188Y998325D01*
X603266Y996457D01*
X604791Y994932D01*
X606658Y993854D01*
X608741Y993296D01*
X610898D01*
X612981Y993854D01*
X614848Y994932D01*
X616222Y996307D01*
X628280D01*
X630262Y996701D01*
X631943Y997824D01*
X637712Y1003593D01*
X638886Y1003107D01*
Y970280D01*
Y966076D01*
X628675Y955866D01*
X616222D01*
X614848Y957240D01*
X612981Y958318D01*
X610898Y958876D01*
X608741D01*
X606658Y958318D01*
X604791Y957240D01*
X603266Y955715D01*
X602188Y953847D01*
X601629Y951764D01*
Y949608D01*
X602188Y947525D01*
X603266Y945657D01*
X604791Y944132D01*
X606658Y943054D01*
X608741Y942496D01*
X610898D01*
X612981Y943054D01*
X614848Y944132D01*
X616222Y945507D01*
X630820D01*
X632802Y945901D01*
X634483Y947024D01*
X637712Y950253D01*
X638886Y949767D01*
Y881554D01*
Y877351D01*
X619629Y858094D01*
X616222D01*
X614848Y859468D01*
X612981Y860546D01*
X610898Y861104D01*
X608741D01*
X606658Y860546D01*
X604791Y859468D01*
X603266Y857943D01*
X602188Y856075D01*
X601629Y853992D01*
Y851836D01*
X602188Y849753D01*
X603266Y847886D01*
X604791Y846361D01*
X606658Y845282D01*
X608741Y844724D01*
X610898D01*
X612981Y845282D01*
X614848Y846361D01*
X616222Y847735D01*
X621774D01*
X623756Y848129D01*
X625437Y849252D01*
X637712Y861527D01*
X638886Y861041D01*
Y828214D01*
Y824011D01*
X622789Y807914D01*
X615602D01*
X614848Y808668D01*
X612981Y809746D01*
X610898Y810304D01*
X608741D01*
X606658Y809746D01*
X604791Y808668D01*
X603266Y807143D01*
X602188Y805275D01*
X601629Y803192D01*
Y801036D01*
X602188Y798953D01*
X603266Y797085D01*
X604791Y795561D01*
X606658Y794482D01*
X608741Y793924D01*
X610898D01*
X612981Y794482D01*
X614848Y795561D01*
X616373Y797085D01*
X616644Y797555D01*
X624935D01*
X626917Y797949D01*
X628597Y799072D01*
X637712Y808187D01*
X638886Y807701D01*
Y774874D01*
X639278Y771890D01*
X639521Y771306D01*
X624709Y756494D01*
X616222D01*
X614848Y757868D01*
X612981Y758946D01*
X610898Y759504D01*
X608741D01*
X606658Y758946D01*
X604791Y757868D01*
X603266Y756343D01*
X602188Y754475D01*
X601629Y752392D01*
Y750236D01*
X602188Y748153D01*
X603266Y746285D01*
X604791Y744761D01*
X606658Y743682D01*
X608741Y743124D01*
X610898D01*
X612981Y743682D01*
X614848Y744761D01*
X616222Y746135D01*
X626854D01*
X628836Y746529D01*
X630517Y747652D01*
X644061Y761196D01*
X645235Y760710D01*
Y726220D01*
X624709Y705694D01*
X616222D01*
X614848Y707068D01*
X612981Y708146D01*
X610898Y708704D01*
X608741D01*
X606658Y708146D01*
X604791Y707068D01*
X603266Y705543D01*
X602188Y703675D01*
X601969Y702860D01*
X601726Y702496D01*
X601332Y700514D01*
X601726Y698532D01*
X601969Y698169D01*
X602188Y697353D01*
X603266Y695486D01*
X604791Y693961D01*
X606658Y692882D01*
X608741Y692324D01*
X610898D01*
X612981Y692882D01*
X614848Y693961D01*
X616222Y695335D01*
X626854D01*
X628836Y695729D01*
X630517Y696852D01*
X654077Y720412D01*
X655200Y722092D01*
X655594Y724074D01*
Y764648D01*
X656179Y764890D01*
X658566Y766722D01*
X660398Y769110D01*
X661550Y771890D01*
X661943Y774874D01*
Y828214D01*
Y881554D01*
Y970280D01*
Y1023620D01*
Y1082040D01*
Y1133014D01*
Y1171419D01*
X685910Y1195386D01*
X1015890D01*
X1042571Y1168705D01*
Y1155700D01*
Y1102360D01*
Y1049020D01*
Y995680D01*
Y896620D01*
Y843280D01*
Y789940D01*
X1042964Y786956D01*
X1044116Y784176D01*
X1045948Y781788D01*
X1048336Y779956D01*
X1048921Y779714D01*
Y736600D01*
X1049315Y734618D01*
X1050437Y732937D01*
X1070977Y712398D01*
X1072658Y711275D01*
X1074640Y710881D01*
X1085356D01*
X1086730Y709506D01*
X1088597Y708428D01*
X1090680Y707870D01*
X1092837D01*
X1094920Y708428D01*
X1096787Y709506D01*
X1098312Y711031D01*
X1099390Y712899D01*
X1099949Y714982D01*
Y717138D01*
X1099390Y719221D01*
X1098312Y721089D01*
X1096787Y722614D01*
X1094920Y723692D01*
X1092837Y724250D01*
X1090680D01*
X1088597Y723692D01*
X1086730Y722614D01*
X1085356Y721240D01*
X1076785D01*
X1059279Y738745D01*
Y775776D01*
X1060453Y776262D01*
X1074137Y762578D01*
X1075818Y761455D01*
X1077800Y761061D01*
X1085975D01*
X1086730Y760306D01*
X1088597Y759228D01*
X1090680Y758670D01*
X1092837D01*
X1094920Y759228D01*
X1096787Y760306D01*
X1098312Y761831D01*
X1099390Y763699D01*
X1099949Y765782D01*
Y767938D01*
X1099390Y770021D01*
X1098312Y771889D01*
X1096787Y773414D01*
X1094920Y774492D01*
X1092837Y775050D01*
X1090680D01*
X1088597Y774492D01*
X1086730Y773414D01*
X1085205Y771889D01*
X1084934Y771420D01*
X1079945D01*
X1064994Y786371D01*
X1065236Y786956D01*
X1065629Y789940D01*
Y822767D01*
X1066802Y823253D01*
X1076058Y813998D01*
X1077738Y812875D01*
X1079720Y812480D01*
X1079720Y812480D01*
X1085356D01*
X1086730Y811106D01*
X1088597Y810028D01*
X1090680Y809470D01*
X1092837D01*
X1094920Y810028D01*
X1096787Y811106D01*
X1098312Y812631D01*
X1099390Y814499D01*
X1099949Y816582D01*
Y818738D01*
X1099390Y820821D01*
X1098312Y822689D01*
X1096787Y824214D01*
X1094920Y825292D01*
X1092837Y825850D01*
X1090680D01*
X1088597Y825292D01*
X1086730Y824214D01*
X1085356Y822840D01*
X1081865D01*
X1065629Y839076D01*
Y843280D01*
Y876107D01*
X1066802Y876593D01*
X1078597Y864798D01*
X1080278Y863675D01*
X1082260Y863280D01*
X1085356D01*
X1086730Y861906D01*
X1088597Y860828D01*
X1090680Y860270D01*
X1092837D01*
X1094920Y860828D01*
X1096787Y861906D01*
X1098312Y863431D01*
X1099390Y865299D01*
X1099949Y867382D01*
Y869538D01*
X1099390Y871621D01*
X1098312Y873489D01*
X1096787Y875014D01*
X1094920Y876092D01*
X1092837Y876650D01*
X1090680D01*
X1088597Y876092D01*
X1086730Y875014D01*
X1085356Y873640D01*
X1084405D01*
X1065629Y892416D01*
Y896620D01*
Y975167D01*
X1066802Y975653D01*
X1070670Y971785D01*
X1072350Y970663D01*
X1074332Y970268D01*
X1085599D01*
X1086973Y968894D01*
X1088840Y967816D01*
X1090923Y967258D01*
X1093080D01*
X1095163Y967816D01*
X1097030Y968894D01*
X1098555Y970419D01*
X1099633Y972287D01*
X1100191Y974370D01*
Y976526D01*
X1099633Y978609D01*
X1098555Y980477D01*
X1097030Y982001D01*
X1095163Y983080D01*
X1093080Y983638D01*
X1090923D01*
X1088840Y983080D01*
X1086973Y982001D01*
X1085599Y980627D01*
X1076478D01*
X1065629Y991476D01*
Y995680D01*
Y1028507D01*
X1066802Y1028993D01*
X1073829Y1021966D01*
X1075510Y1020843D01*
X1077492Y1020449D01*
X1086218D01*
X1086973Y1019694D01*
X1088840Y1018616D01*
X1090923Y1018058D01*
X1093080D01*
X1095163Y1018616D01*
X1097030Y1019694D01*
X1098555Y1021219D01*
X1099633Y1023087D01*
X1100191Y1025170D01*
Y1027326D01*
X1099633Y1029409D01*
X1098555Y1031277D01*
X1097030Y1032802D01*
X1095163Y1033880D01*
X1093080Y1034438D01*
X1090923D01*
X1088840Y1033880D01*
X1086973Y1032802D01*
X1085448Y1031277D01*
X1085177Y1030808D01*
X1079637D01*
X1065629Y1044816D01*
Y1049020D01*
Y1081847D01*
X1066802Y1082333D01*
X1075750Y1073385D01*
X1077430Y1072263D01*
X1079412Y1071868D01*
X1085599D01*
X1086973Y1070494D01*
X1088840Y1069416D01*
X1090923Y1068858D01*
X1093080D01*
X1095163Y1069416D01*
X1097030Y1070494D01*
X1098555Y1072019D01*
X1099633Y1073887D01*
X1100191Y1075970D01*
Y1078126D01*
X1099633Y1080209D01*
X1098555Y1082077D01*
X1097030Y1083602D01*
X1095163Y1084680D01*
X1093080Y1085238D01*
X1090923D01*
X1088840Y1084680D01*
X1086973Y1083602D01*
X1085599Y1082227D01*
X1081558D01*
X1065629Y1098156D01*
Y1102360D01*
Y1135187D01*
X1066802Y1135673D01*
X1078290Y1124185D01*
X1079970Y1123063D01*
X1081952Y1122668D01*
X1085599D01*
X1086973Y1121294D01*
X1088840Y1120216D01*
X1090923Y1119658D01*
X1093080D01*
X1095163Y1120216D01*
X1097030Y1121294D01*
X1098555Y1122819D01*
X1099633Y1124687D01*
X1100191Y1126770D01*
Y1128926D01*
X1099633Y1131009D01*
X1098555Y1132877D01*
X1097030Y1134401D01*
X1095163Y1135480D01*
X1093080Y1136038D01*
X1090923D01*
X1088840Y1135480D01*
X1086973Y1134401D01*
X1085599Y1133027D01*
X1084098D01*
X1065629Y1151496D01*
Y1155700D01*
Y1173480D01*
X1065629Y1173480D01*
X1065236Y1176464D01*
X1064084Y1179244D01*
X1062252Y1181632D01*
X1062252Y1181632D01*
X1049671Y1194213D01*
X1050157Y1195386D01*
X1155590D01*
X1200888Y1150088D01*
X1203276Y1148256D01*
X1206056Y1147104D01*
X1209040Y1146711D01*
X1209040Y1146711D01*
X1303325D01*
X1309271Y1140765D01*
Y1115060D01*
Y1084580D01*
Y1082077D01*
X1284545Y1057351D01*
X1282772D01*
X1280727Y1056803D01*
X1278894Y1055745D01*
X1277397Y1054248D01*
X1276338Y1052414D01*
X1275790Y1050370D01*
Y1048253D01*
X1276338Y1046208D01*
X1277397Y1044374D01*
X1278894Y1042878D01*
X1280727Y1041819D01*
X1282772Y1041271D01*
X1284889D01*
X1286934Y1041819D01*
X1288767Y1042878D01*
X1290264Y1044374D01*
X1291322Y1046208D01*
X1291870Y1048253D01*
Y1050026D01*
X1308098Y1066254D01*
X1309271Y1065768D01*
Y985520D01*
Y960120D01*
X1309512Y958296D01*
X1309271Y956473D01*
Y952269D01*
X1284545Y927543D01*
X1282772D01*
X1280727Y926995D01*
X1278894Y925937D01*
X1277397Y924439D01*
X1276338Y922606D01*
X1275790Y920561D01*
Y918444D01*
X1276338Y916400D01*
X1277397Y914566D01*
X1278894Y913069D01*
X1280727Y912011D01*
X1282772Y911463D01*
X1284889D01*
X1286934Y912011D01*
X1288767Y913069D01*
X1290264Y914566D01*
X1291322Y916400D01*
X1291870Y918444D01*
Y920218D01*
X1308098Y936446D01*
X1309271Y935960D01*
Y855980D01*
Y825500D01*
X1309539Y823471D01*
X1284545Y798477D01*
X1282772D01*
X1280727Y797929D01*
X1278894Y796871D01*
X1277397Y795374D01*
X1276338Y793541D01*
X1275790Y791496D01*
Y789379D01*
X1276338Y787334D01*
X1277397Y785501D01*
X1278894Y784004D01*
X1280727Y782945D01*
X1282772Y782397D01*
X1284889D01*
X1286934Y782945D01*
X1288767Y784004D01*
X1290264Y785501D01*
X1291322Y787334D01*
X1291870Y789379D01*
Y791152D01*
X1308753Y808035D01*
X1309926Y807549D01*
Y731520D01*
X1310232Y729199D01*
X1311128Y727037D01*
X1312552Y725180D01*
X1313714Y724289D01*
Y697683D01*
X1284545Y668515D01*
X1282772D01*
X1280727Y667967D01*
X1278894Y666909D01*
X1277397Y665412D01*
X1276338Y663578D01*
X1275790Y661534D01*
Y659417D01*
X1276338Y657372D01*
X1277397Y655538D01*
X1278894Y654042D01*
X1280727Y652983D01*
X1282772Y652435D01*
X1284889D01*
X1286934Y652983D01*
X1288767Y654042D01*
X1290264Y655538D01*
X1291322Y657372D01*
X1291870Y659417D01*
Y661190D01*
X1322555Y691875D01*
X1323678Y693556D01*
X1324073Y695538D01*
X1324073Y695538D01*
Y717356D01*
X1325246Y717842D01*
X1386275Y656813D01*
X1387956Y655690D01*
X1389938Y655296D01*
X1402579D01*
X1403833Y654042D01*
X1405667Y652983D01*
X1407711Y652435D01*
X1409828D01*
X1411873Y652983D01*
X1413707Y654042D01*
X1415203Y655538D01*
X1416262Y657372D01*
X1416810Y659417D01*
Y661534D01*
X1416262Y663578D01*
X1415203Y665412D01*
X1413707Y666909D01*
X1411873Y667967D01*
X1409828Y668515D01*
X1407711D01*
X1405667Y667967D01*
X1403833Y666909D01*
X1402579Y665655D01*
X1392083D01*
X1327669Y730069D01*
X1327860Y731520D01*
Y816510D01*
X1328952Y817348D01*
X1330784Y819736D01*
X1331936Y822516D01*
X1332329Y825500D01*
Y835467D01*
X1333502Y835953D01*
X1382680Y786775D01*
X1384360Y785653D01*
X1386342Y785258D01*
X1386342Y785258D01*
X1402579D01*
X1403833Y784004D01*
X1405667Y782946D01*
X1407711Y782398D01*
X1409828D01*
X1411873Y782946D01*
X1413707Y784004D01*
X1415203Y785501D01*
X1416262Y787335D01*
X1416810Y789379D01*
Y791496D01*
X1416262Y793541D01*
X1415203Y795375D01*
X1413707Y796871D01*
X1411873Y797930D01*
X1409828Y798478D01*
X1407711D01*
X1405667Y797930D01*
X1403833Y796871D01*
X1402579Y795617D01*
X1388488D01*
X1332329Y851776D01*
Y855980D01*
Y956473D01*
X1332088Y958296D01*
X1332329Y960120D01*
Y965007D01*
X1333502Y965493D01*
X1383155Y915841D01*
X1383155Y915840D01*
X1384835Y914718D01*
X1386817Y914323D01*
X1402579D01*
X1403833Y913069D01*
X1405667Y912011D01*
X1407711Y911463D01*
X1409828D01*
X1411873Y912011D01*
X1413707Y913069D01*
X1415203Y914566D01*
X1416262Y916400D01*
X1416810Y918444D01*
Y920561D01*
X1416262Y922606D01*
X1415203Y924439D01*
X1413707Y925937D01*
X1411873Y926995D01*
X1409828Y927543D01*
X1407711D01*
X1405667Y926995D01*
X1403833Y925937D01*
X1402579Y924682D01*
X1388963D01*
X1332329Y981316D01*
Y985520D01*
Y1084580D01*
Y1094547D01*
X1333502Y1095033D01*
X1382886Y1045649D01*
X1384567Y1044526D01*
X1386549Y1044132D01*
X1402579D01*
X1403833Y1042878D01*
X1405667Y1041819D01*
X1407711Y1041271D01*
X1409828D01*
X1411873Y1041819D01*
X1413707Y1042878D01*
X1415203Y1044374D01*
X1416262Y1046208D01*
X1416810Y1048253D01*
Y1050370D01*
X1416262Y1052414D01*
X1415203Y1054248D01*
X1413707Y1055745D01*
X1411873Y1056803D01*
X1409828Y1057351D01*
X1407711D01*
X1405667Y1056803D01*
X1403833Y1055745D01*
X1402579Y1054491D01*
X1388694D01*
X1332329Y1110856D01*
Y1115060D01*
Y1145540D01*
X1332329Y1145540D01*
X1331936Y1148524D01*
X1330784Y1151304D01*
X1328952Y1153692D01*
X1316252Y1166392D01*
X1313864Y1168224D01*
X1311084Y1169376D01*
X1308100Y1169769D01*
X1213815D01*
X1168517Y1215067D01*
X1166130Y1216899D01*
X1163349Y1218050D01*
X1160366Y1218443D01*
X681135D01*
X681134Y1218443D01*
D02*
G37*
G36*
X1411205Y1217930D02*
X1408195D01*
X1405288Y1217151D01*
X1402682Y1215646D01*
X1400554Y1213518D01*
X1399049Y1210912D01*
X1398270Y1208005D01*
Y1204995D01*
X1399049Y1202088D01*
X1400554Y1199482D01*
X1402682Y1197354D01*
X1405288Y1195849D01*
X1408195Y1195070D01*
X1411205D01*
X1414112Y1195849D01*
X1416718Y1197354D01*
X1418846Y1199482D01*
X1420351Y1202088D01*
X1421130Y1204995D01*
Y1208005D01*
X1420351Y1210912D01*
X1418846Y1213518D01*
X1416718Y1215646D01*
X1414112Y1217151D01*
X1411205Y1217930D01*
D02*
G37*
G36*
X1385805D02*
X1382795D01*
X1379888Y1217151D01*
X1377282Y1215646D01*
X1375154Y1213518D01*
X1373649Y1210912D01*
X1372870Y1208005D01*
Y1204995D01*
X1373649Y1202088D01*
X1375154Y1199482D01*
X1377282Y1197354D01*
X1379888Y1195849D01*
X1382795Y1195070D01*
X1385805D01*
X1388712Y1195849D01*
X1391318Y1197354D01*
X1393446Y1199482D01*
X1394951Y1202088D01*
X1395730Y1204995D01*
Y1208005D01*
X1394951Y1210912D01*
X1393446Y1213518D01*
X1391318Y1215646D01*
X1388712Y1217151D01*
X1385805Y1217930D01*
D02*
G37*
G36*
X1360405D02*
X1357395D01*
X1354488Y1217151D01*
X1351882Y1215646D01*
X1349754Y1213518D01*
X1348249Y1210912D01*
X1347470Y1208005D01*
Y1204995D01*
X1348249Y1202088D01*
X1349754Y1199482D01*
X1351882Y1197354D01*
X1354488Y1195849D01*
X1357395Y1195070D01*
X1360405D01*
X1363312Y1195849D01*
X1365918Y1197354D01*
X1368046Y1199482D01*
X1369551Y1202088D01*
X1370330Y1204995D01*
Y1208005D01*
X1369551Y1210912D01*
X1368046Y1213518D01*
X1365918Y1215646D01*
X1363312Y1217151D01*
X1360405Y1217930D01*
D02*
G37*
G36*
X1335005D02*
X1331995D01*
X1329088Y1217151D01*
X1326482Y1215646D01*
X1324354Y1213518D01*
X1322849Y1210912D01*
X1322070Y1208005D01*
Y1204995D01*
X1322849Y1202088D01*
X1324354Y1199482D01*
X1326482Y1197354D01*
X1329088Y1195849D01*
X1331995Y1195070D01*
X1335005D01*
X1337912Y1195849D01*
X1340518Y1197354D01*
X1342646Y1199482D01*
X1344151Y1202088D01*
X1344930Y1204995D01*
Y1208005D01*
X1344151Y1210912D01*
X1342646Y1213518D01*
X1340518Y1215646D01*
X1337912Y1217151D01*
X1335005Y1217930D01*
D02*
G37*
G36*
X1309605D02*
X1306595D01*
X1303688Y1217151D01*
X1301082Y1215646D01*
X1298954Y1213518D01*
X1297449Y1210912D01*
X1296670Y1208005D01*
Y1204995D01*
X1297449Y1202088D01*
X1298954Y1199482D01*
X1301082Y1197354D01*
X1303688Y1195849D01*
X1306595Y1195070D01*
X1309605D01*
X1312512Y1195849D01*
X1315118Y1197354D01*
X1317246Y1199482D01*
X1318751Y1202088D01*
X1319530Y1204995D01*
Y1208005D01*
X1318751Y1210912D01*
X1317246Y1213518D01*
X1315118Y1215646D01*
X1312512Y1217151D01*
X1309605Y1217930D01*
D02*
G37*
G36*
X1284205D02*
X1281195D01*
X1278288Y1217151D01*
X1275682Y1215646D01*
X1273554Y1213518D01*
X1272049Y1210912D01*
X1271270Y1208005D01*
Y1204995D01*
X1272049Y1202088D01*
X1273554Y1199482D01*
X1275682Y1197354D01*
X1278288Y1195849D01*
X1281195Y1195070D01*
X1284205D01*
X1287112Y1195849D01*
X1289718Y1197354D01*
X1291846Y1199482D01*
X1293351Y1202088D01*
X1294130Y1204995D01*
Y1208005D01*
X1293351Y1210912D01*
X1291846Y1213518D01*
X1289718Y1215646D01*
X1287112Y1217151D01*
X1284205Y1217930D01*
D02*
G37*
G36*
X1258805D02*
X1255795D01*
X1252888Y1217151D01*
X1250282Y1215646D01*
X1248154Y1213518D01*
X1246649Y1210912D01*
X1245870Y1208005D01*
Y1204995D01*
X1246649Y1202088D01*
X1248154Y1199482D01*
X1250282Y1197354D01*
X1252888Y1195849D01*
X1255795Y1195070D01*
X1258805D01*
X1261712Y1195849D01*
X1264318Y1197354D01*
X1266446Y1199482D01*
X1267951Y1202088D01*
X1268730Y1204995D01*
Y1208005D01*
X1267951Y1210912D01*
X1266446Y1213518D01*
X1264318Y1215646D01*
X1261712Y1217151D01*
X1258805Y1217930D01*
D02*
G37*
G36*
X1243330D02*
X1220470D01*
Y1195070D01*
X1243330D01*
Y1217930D01*
D02*
G37*
G36*
X484105D02*
X481095D01*
X478188Y1217151D01*
X475582Y1215646D01*
X473454Y1213518D01*
X471949Y1210912D01*
X471170Y1208005D01*
Y1204995D01*
X471949Y1202088D01*
X473454Y1199482D01*
X475582Y1197354D01*
X478188Y1195849D01*
X481095Y1195070D01*
X484105D01*
X487012Y1195849D01*
X489618Y1197354D01*
X491746Y1199482D01*
X493251Y1202088D01*
X494030Y1204995D01*
Y1208005D01*
X493251Y1210912D01*
X491746Y1213518D01*
X489618Y1215646D01*
X487012Y1217151D01*
X484105Y1217930D01*
D02*
G37*
G36*
X458705D02*
X455695D01*
X452788Y1217151D01*
X450182Y1215646D01*
X448054Y1213518D01*
X446549Y1210912D01*
X445770Y1208005D01*
Y1204995D01*
X446549Y1202088D01*
X448054Y1199482D01*
X450182Y1197354D01*
X452788Y1195849D01*
X455695Y1195070D01*
X458705D01*
X461612Y1195849D01*
X464218Y1197354D01*
X466346Y1199482D01*
X467851Y1202088D01*
X468630Y1204995D01*
Y1208005D01*
X467851Y1210912D01*
X466346Y1213518D01*
X464218Y1215646D01*
X461612Y1217151D01*
X458705Y1217930D01*
D02*
G37*
G36*
X433305D02*
X430295D01*
X427388Y1217151D01*
X424782Y1215646D01*
X422654Y1213518D01*
X421149Y1210912D01*
X420370Y1208005D01*
Y1204995D01*
X421149Y1202088D01*
X422654Y1199482D01*
X424782Y1197354D01*
X427388Y1195849D01*
X430295Y1195070D01*
X433305D01*
X436212Y1195849D01*
X438818Y1197354D01*
X440946Y1199482D01*
X442451Y1202088D01*
X443230Y1204995D01*
Y1208005D01*
X442451Y1210912D01*
X440946Y1213518D01*
X438818Y1215646D01*
X436212Y1217151D01*
X433305Y1217930D01*
D02*
G37*
G36*
X407905D02*
X404895D01*
X401988Y1217151D01*
X399382Y1215646D01*
X397254Y1213518D01*
X395749Y1210912D01*
X394970Y1208005D01*
Y1204995D01*
X395749Y1202088D01*
X397254Y1199482D01*
X399382Y1197354D01*
X401988Y1195849D01*
X404895Y1195070D01*
X407905D01*
X410812Y1195849D01*
X413418Y1197354D01*
X415546Y1199482D01*
X417051Y1202088D01*
X417830Y1204995D01*
Y1208005D01*
X417051Y1210912D01*
X415546Y1213518D01*
X413418Y1215646D01*
X410812Y1217151D01*
X407905Y1217930D01*
D02*
G37*
G36*
X382505D02*
X379495D01*
X376588Y1217151D01*
X373982Y1215646D01*
X371854Y1213518D01*
X370349Y1210912D01*
X369570Y1208005D01*
Y1204995D01*
X370349Y1202088D01*
X371854Y1199482D01*
X373982Y1197354D01*
X376588Y1195849D01*
X379495Y1195070D01*
X382505D01*
X385412Y1195849D01*
X388018Y1197354D01*
X390146Y1199482D01*
X391651Y1202088D01*
X392430Y1204995D01*
Y1208005D01*
X391651Y1210912D01*
X390146Y1213518D01*
X388018Y1215646D01*
X385412Y1217151D01*
X382505Y1217930D01*
D02*
G37*
G36*
X357105D02*
X354095D01*
X351188Y1217151D01*
X348582Y1215646D01*
X346454Y1213518D01*
X344949Y1210912D01*
X344170Y1208005D01*
Y1204995D01*
X344949Y1202088D01*
X346454Y1199482D01*
X348582Y1197354D01*
X351188Y1195849D01*
X354095Y1195070D01*
X357105D01*
X360012Y1195849D01*
X362618Y1197354D01*
X364746Y1199482D01*
X366251Y1202088D01*
X367030Y1204995D01*
Y1208005D01*
X366251Y1210912D01*
X364746Y1213518D01*
X362618Y1215646D01*
X360012Y1217151D01*
X357105Y1217930D01*
D02*
G37*
G36*
X331705D02*
X328695D01*
X325788Y1217151D01*
X323182Y1215646D01*
X321054Y1213518D01*
X319549Y1210912D01*
X318770Y1208005D01*
Y1204995D01*
X319549Y1202088D01*
X321054Y1199482D01*
X323182Y1197354D01*
X325788Y1195849D01*
X328695Y1195070D01*
X331705D01*
X334612Y1195849D01*
X337218Y1197354D01*
X339346Y1199482D01*
X340851Y1202088D01*
X341630Y1204995D01*
Y1208005D01*
X340851Y1210912D01*
X339346Y1213518D01*
X337218Y1215646D01*
X334612Y1217151D01*
X331705Y1217930D01*
D02*
G37*
G36*
X316230D02*
X293370D01*
Y1195070D01*
X316230D01*
Y1217930D01*
D02*
G37*
G36*
X1409828Y1139851D02*
X1407711D01*
X1405667Y1139303D01*
X1403833Y1138245D01*
X1402579Y1136991D01*
X1363961D01*
X1362707Y1138245D01*
X1360874Y1139303D01*
X1358829Y1139851D01*
X1356712D01*
X1354667Y1139303D01*
X1352834Y1138245D01*
X1351337Y1136748D01*
X1350278Y1134915D01*
X1349730Y1132870D01*
Y1130753D01*
X1350278Y1128708D01*
X1351337Y1126875D01*
X1352834Y1125378D01*
X1354667Y1124319D01*
X1356712Y1123771D01*
X1358829D01*
X1360874Y1124319D01*
X1362707Y1125378D01*
X1363961Y1126632D01*
X1402579D01*
X1403833Y1125378D01*
X1405667Y1124319D01*
X1407711Y1123771D01*
X1409828D01*
X1411873Y1124319D01*
X1413707Y1125378D01*
X1415203Y1126875D01*
X1416262Y1128708D01*
X1416810Y1130753D01*
Y1132870D01*
X1416262Y1134915D01*
X1415203Y1136748D01*
X1413707Y1138245D01*
X1411873Y1139303D01*
X1409828Y1139851D01*
D02*
G37*
G36*
X1284889D02*
X1282772D01*
X1280727Y1139303D01*
X1278894Y1138245D01*
X1277640Y1136991D01*
X1239021D01*
X1237767Y1138245D01*
X1235934Y1139303D01*
X1233889Y1139851D01*
X1231772D01*
X1229727Y1139303D01*
X1227894Y1138245D01*
X1226397Y1136748D01*
X1225338Y1134915D01*
X1224790Y1132870D01*
Y1130753D01*
X1225338Y1128708D01*
X1226397Y1126875D01*
X1227894Y1125378D01*
X1229727Y1124319D01*
X1231772Y1123771D01*
X1233889D01*
X1235934Y1124319D01*
X1237767Y1125378D01*
X1239021Y1126632D01*
X1277640D01*
X1278894Y1125378D01*
X1280727Y1124319D01*
X1282772Y1123771D01*
X1284889D01*
X1286934Y1124319D01*
X1288767Y1125378D01*
X1290264Y1126875D01*
X1291322Y1128708D01*
X1291870Y1130753D01*
Y1132870D01*
X1291322Y1134915D01*
X1290264Y1136748D01*
X1288767Y1138245D01*
X1286934Y1139303D01*
X1284889Y1139851D01*
D02*
G37*
G36*
X482728Y1139405D02*
X480611D01*
X478567Y1138857D01*
X476733Y1137799D01*
X475479Y1136545D01*
X436861D01*
X435607Y1137799D01*
X433773Y1138857D01*
X431729Y1139405D01*
X429612D01*
X427567Y1138857D01*
X425733Y1137799D01*
X424237Y1136302D01*
X423178Y1134469D01*
X422630Y1132424D01*
Y1130307D01*
X423178Y1128262D01*
X424237Y1126429D01*
X425733Y1124932D01*
X427567Y1123873D01*
X429612Y1123325D01*
X431729D01*
X433773Y1123873D01*
X435607Y1124932D01*
X436861Y1126186D01*
X475479D01*
X476733Y1124932D01*
X478567Y1123873D01*
X480611Y1123325D01*
X482728D01*
X484773Y1123873D01*
X486606Y1124932D01*
X488103Y1126429D01*
X489162Y1128262D01*
X489710Y1130307D01*
Y1132424D01*
X489162Y1134469D01*
X488103Y1136302D01*
X486606Y1137799D01*
X484773Y1138857D01*
X482728Y1139405D01*
D02*
G37*
G36*
X357789D02*
X355672D01*
X353627Y1138857D01*
X351794Y1137799D01*
X350540Y1136545D01*
X311921D01*
X310667Y1137799D01*
X308834Y1138857D01*
X306789Y1139405D01*
X304672D01*
X302627Y1138857D01*
X300793Y1137799D01*
X299297Y1136302D01*
X298238Y1134469D01*
X297690Y1132424D01*
Y1130307D01*
X298238Y1128262D01*
X299297Y1126429D01*
X300793Y1124932D01*
X302627Y1123873D01*
X304672Y1123325D01*
X306789D01*
X308834Y1123873D01*
X310667Y1124932D01*
X311921Y1126186D01*
X350540D01*
X351794Y1124932D01*
X353627Y1123873D01*
X355672Y1123325D01*
X357789D01*
X359834Y1123873D01*
X361667Y1124932D01*
X363164Y1126429D01*
X364222Y1128262D01*
X364770Y1130307D01*
Y1132424D01*
X364222Y1134469D01*
X363164Y1136302D01*
X361667Y1137799D01*
X359834Y1138857D01*
X357789Y1139405D01*
D02*
G37*
G36*
X745558Y1138740D02*
X742882D01*
X740298Y1138047D01*
X737982Y1136710D01*
X736090Y1134818D01*
X735452Y1133712D01*
X695575D01*
X694248Y1135040D01*
X692381Y1136118D01*
X690298Y1136676D01*
X688141D01*
X686058Y1136118D01*
X684191Y1135040D01*
X682666Y1133515D01*
X681588Y1131647D01*
X681029Y1129564D01*
Y1127408D01*
X681588Y1125325D01*
X682666Y1123457D01*
X684191Y1121932D01*
X686058Y1120854D01*
X688141Y1120296D01*
X690298D01*
X692381Y1120854D01*
X694248Y1121932D01*
X695669Y1123353D01*
X735506D01*
X736090Y1122341D01*
X737982Y1120450D01*
X740298Y1119112D01*
X742882Y1118420D01*
X745558D01*
X748142Y1119112D01*
X750458Y1120450D01*
X752350Y1122341D01*
X753688Y1124658D01*
X754380Y1127242D01*
Y1129917D01*
X753688Y1132501D01*
X752350Y1134818D01*
X750458Y1136710D01*
X748142Y1138047D01*
X745558Y1138740D01*
D02*
G37*
G36*
X770958D02*
X770890D01*
Y1129850D01*
X779780D01*
Y1129917D01*
X779088Y1132501D01*
X777750Y1134818D01*
X775858Y1136710D01*
X773542Y1138047D01*
X770958Y1138740D01*
D02*
G37*
G36*
X768350D02*
X768282D01*
X765698Y1138047D01*
X763382Y1136710D01*
X761490Y1134818D01*
X760152Y1132501D01*
X759460Y1129917D01*
Y1129850D01*
X768350D01*
Y1138740D01*
D02*
G37*
G36*
X1013872Y1135986D02*
Y1129118D01*
X1020740D01*
X1020233Y1131009D01*
X1019155Y1132877D01*
X1017630Y1134401D01*
X1015763Y1135480D01*
X1013872Y1135986D01*
D02*
G37*
G36*
X1011331D02*
X1009440Y1135480D01*
X1007573Y1134401D01*
X1006048Y1132877D01*
X1004970Y1131009D01*
X1004463Y1129118D01*
X1011331D01*
Y1135986D01*
D02*
G37*
G36*
X1020740Y1126578D02*
X1013872D01*
Y1119709D01*
X1015763Y1120216D01*
X1017630Y1121294D01*
X1019155Y1122819D01*
X1020233Y1124687D01*
X1020740Y1126578D01*
D02*
G37*
G36*
X1011331D02*
X1004463D01*
X1004970Y1124687D01*
X1006048Y1122819D01*
X1007573Y1121294D01*
X1009440Y1120216D01*
X1011331Y1119709D01*
Y1126578D01*
D02*
G37*
G36*
X779780Y1127310D02*
X770890D01*
Y1118420D01*
X770958D01*
X773542Y1119112D01*
X775858Y1120450D01*
X777750Y1122341D01*
X779088Y1124658D01*
X779780Y1127242D01*
Y1127310D01*
D02*
G37*
G36*
X768350D02*
X759460D01*
Y1127242D01*
X760152Y1124658D01*
X761490Y1122341D01*
X763382Y1120450D01*
X765698Y1119112D01*
X768282Y1118420D01*
X768350D01*
Y1127310D01*
D02*
G37*
G36*
X1159473Y1129505D02*
X1157007D01*
X1154625Y1128867D01*
X1152490Y1127634D01*
X1150746Y1125890D01*
X1150417Y1125320D01*
X1109694D01*
X1107712Y1124925D01*
X1106031Y1123802D01*
X1106031Y1123802D01*
X1092867Y1110638D01*
X1090923D01*
X1088840Y1110080D01*
X1086973Y1109001D01*
X1085448Y1107477D01*
X1084370Y1105609D01*
X1083811Y1103526D01*
Y1101370D01*
X1084370Y1099287D01*
X1085448Y1097419D01*
X1086973Y1095894D01*
X1088840Y1094816D01*
X1090923Y1094258D01*
X1093080D01*
X1095163Y1094816D01*
X1097030Y1095894D01*
X1098555Y1097419D01*
X1099633Y1099287D01*
X1100191Y1101370D01*
Y1103313D01*
X1111839Y1114960D01*
X1150417D01*
X1150746Y1114390D01*
X1152490Y1112646D01*
X1154625Y1111413D01*
X1157007Y1110775D01*
X1159473D01*
X1161855Y1111413D01*
X1163990Y1112646D01*
X1165734Y1114390D01*
X1166967Y1116525D01*
X1167605Y1118907D01*
Y1121373D01*
X1166967Y1123755D01*
X1165734Y1125890D01*
X1163990Y1127634D01*
X1161855Y1128867D01*
X1159473Y1129505D01*
D02*
G37*
G36*
X690489Y1111225D02*
Y1104356D01*
X697358D01*
X696851Y1106247D01*
X695773Y1108115D01*
X694248Y1109640D01*
X692381Y1110718D01*
X690489Y1111225D01*
D02*
G37*
G36*
X687949D02*
X686058Y1110718D01*
X684191Y1109640D01*
X682666Y1108115D01*
X681588Y1106247D01*
X681081Y1104356D01*
X687949D01*
Y1111225D01*
D02*
G37*
G36*
X933518Y1112669D02*
X933450D01*
Y1103779D01*
X942340D01*
Y1103846D01*
X941648Y1106430D01*
X940310Y1108747D01*
X938418Y1110639D01*
X936102Y1111976D01*
X933518Y1112669D01*
D02*
G37*
G36*
X930910D02*
X930842D01*
X928258Y1111976D01*
X925942Y1110639D01*
X924050Y1108747D01*
X922712Y1106430D01*
X922020Y1103846D01*
Y1103779D01*
X930910D01*
Y1112669D01*
D02*
G37*
G36*
X545534Y1118630D02*
X543068D01*
X540686Y1117992D01*
X538550Y1116759D01*
X536807Y1115015D01*
X535574Y1112880D01*
X534936Y1110498D01*
Y1108032D01*
X535574Y1105650D01*
X536807Y1103515D01*
X538550Y1101771D01*
X540686Y1100538D01*
X543068Y1099900D01*
X545534D01*
X547915Y1100538D01*
X550051Y1101771D01*
X551795Y1103515D01*
X553027Y1105650D01*
X553666Y1108032D01*
Y1110498D01*
X553027Y1112880D01*
X551795Y1115015D01*
X550051Y1116759D01*
X547915Y1117992D01*
X545534Y1118630D01*
D02*
G37*
G36*
X697358Y1101816D02*
X690489D01*
Y1094947D01*
X692381Y1095454D01*
X694248Y1096532D01*
X695773Y1098057D01*
X696851Y1099925D01*
X697358Y1101816D01*
D02*
G37*
G36*
X687949D02*
X681081D01*
X681588Y1099925D01*
X682666Y1098057D01*
X684191Y1096532D01*
X686058Y1095454D01*
X687949Y1094947D01*
Y1101816D01*
D02*
G37*
G36*
X958918Y1112669D02*
X956242D01*
X953658Y1111976D01*
X951342Y1110639D01*
X949450Y1108747D01*
X948112Y1106430D01*
X947420Y1103846D01*
Y1101171D01*
X948112Y1098587D01*
X949450Y1096270D01*
X951342Y1094379D01*
X953658Y1093041D01*
X956242Y1092349D01*
X958918D01*
X961502Y1093041D01*
X963818Y1094379D01*
X965710Y1096270D01*
X966304Y1097299D01*
X1006168D01*
X1007573Y1095894D01*
X1009440Y1094816D01*
X1011523Y1094258D01*
X1013680D01*
X1015763Y1094816D01*
X1017630Y1095894D01*
X1019155Y1097419D01*
X1020233Y1099287D01*
X1020791Y1101370D01*
Y1103526D01*
X1020233Y1105609D01*
X1019155Y1107477D01*
X1017630Y1109001D01*
X1015763Y1110080D01*
X1013680Y1110638D01*
X1011523D01*
X1009440Y1110080D01*
X1007573Y1109001D01*
X1006229Y1107658D01*
X966339D01*
X965710Y1108747D01*
X963818Y1110639D01*
X961502Y1111976D01*
X958918Y1112669D01*
D02*
G37*
G36*
X942340Y1101239D02*
X933450D01*
Y1092349D01*
X933518D01*
X936102Y1093041D01*
X938418Y1094379D01*
X940310Y1096270D01*
X941648Y1098587D01*
X942340Y1101171D01*
Y1101239D01*
D02*
G37*
G36*
X930910D02*
X922020D01*
Y1101171D01*
X922712Y1098587D01*
X924050Y1096270D01*
X925942Y1094379D01*
X928258Y1093041D01*
X930842Y1092349D01*
X930910D01*
Y1101239D01*
D02*
G37*
G36*
X618009Y1136676D02*
X601629D01*
Y1127621D01*
X563053Y1089045D01*
X552124D01*
X551795Y1089615D01*
X550051Y1091359D01*
X547915Y1092592D01*
X545534Y1093230D01*
X543068D01*
X540686Y1092592D01*
X538550Y1091359D01*
X536807Y1089615D01*
X535574Y1087480D01*
X534936Y1085098D01*
Y1082632D01*
X535574Y1080250D01*
X536807Y1078115D01*
X538550Y1076371D01*
X540686Y1075138D01*
X543068Y1074500D01*
X545534D01*
X547915Y1075138D01*
X550051Y1076371D01*
X551795Y1078115D01*
X552124Y1078686D01*
X565199D01*
X567181Y1079080D01*
X568861Y1080203D01*
X608954Y1120296D01*
X618009D01*
Y1136676D01*
D02*
G37*
G36*
X1159473Y1104105D02*
X1157007D01*
X1154625Y1103467D01*
X1152490Y1102234D01*
X1150746Y1100490D01*
X1149513Y1098355D01*
X1148875Y1095973D01*
Y1093507D01*
X1149513Y1091125D01*
X1150746Y1088990D01*
X1152490Y1087246D01*
X1154625Y1086013D01*
X1157007Y1085375D01*
X1159473D01*
X1161855Y1086013D01*
X1163990Y1087246D01*
X1165734Y1088990D01*
X1166967Y1091125D01*
X1167605Y1093507D01*
Y1095973D01*
X1166967Y1098355D01*
X1165734Y1100490D01*
X1163990Y1102234D01*
X1161855Y1103467D01*
X1159473Y1104105D01*
D02*
G37*
G36*
X745558Y1087957D02*
X742882D01*
X740298Y1087264D01*
X737982Y1085927D01*
X736090Y1084035D01*
X735447Y1082921D01*
X695567D01*
X694248Y1084240D01*
X692381Y1085318D01*
X690298Y1085876D01*
X688141D01*
X686058Y1085318D01*
X684191Y1084240D01*
X682666Y1082715D01*
X681588Y1080847D01*
X681029Y1078764D01*
Y1076608D01*
X681588Y1074525D01*
X682666Y1072657D01*
X684191Y1071132D01*
X686058Y1070054D01*
X688141Y1069496D01*
X690298D01*
X692381Y1070054D01*
X694248Y1071132D01*
X695678Y1072562D01*
X735511D01*
X736090Y1071558D01*
X737982Y1069667D01*
X740298Y1068329D01*
X742882Y1067637D01*
X745558D01*
X748142Y1068329D01*
X750458Y1069667D01*
X752350Y1071558D01*
X753688Y1073875D01*
X754380Y1076459D01*
Y1079134D01*
X753688Y1081718D01*
X752350Y1084035D01*
X750458Y1085927D01*
X748142Y1087264D01*
X745558Y1087957D01*
D02*
G37*
G36*
X770958D02*
X770890D01*
Y1079067D01*
X779780D01*
Y1079134D01*
X779088Y1081718D01*
X777750Y1084035D01*
X775858Y1085927D01*
X773542Y1087264D01*
X770958Y1087957D01*
D02*
G37*
G36*
X768350D02*
X768282D01*
X765698Y1087264D01*
X763382Y1085927D01*
X761490Y1084035D01*
X760152Y1081718D01*
X759460Y1079134D01*
Y1079067D01*
X768350D01*
Y1087957D01*
D02*
G37*
G36*
X1013872Y1085186D02*
Y1078318D01*
X1020740D01*
X1020233Y1080209D01*
X1019155Y1082077D01*
X1017630Y1083602D01*
X1015763Y1084680D01*
X1013872Y1085186D01*
D02*
G37*
G36*
X1011331D02*
X1009440Y1084680D01*
X1007573Y1083602D01*
X1006048Y1082077D01*
X1004970Y1080209D01*
X1004463Y1078318D01*
X1011331D01*
Y1085186D01*
D02*
G37*
G36*
X1020740Y1075778D02*
X1013872D01*
Y1068909D01*
X1015763Y1069416D01*
X1017630Y1070494D01*
X1019155Y1072019D01*
X1020233Y1073887D01*
X1020740Y1075778D01*
D02*
G37*
G36*
X1011331D02*
X1004463D01*
X1004970Y1073887D01*
X1006048Y1072019D01*
X1007573Y1070494D01*
X1009440Y1069416D01*
X1011331Y1068909D01*
Y1075778D01*
D02*
G37*
G36*
X779780Y1076527D02*
X770890D01*
Y1067637D01*
X770958D01*
X773542Y1068329D01*
X775858Y1069667D01*
X777750Y1071558D01*
X779088Y1073875D01*
X779780Y1076459D01*
Y1076527D01*
D02*
G37*
G36*
X768350D02*
X759460D01*
Y1076459D01*
X760152Y1073875D01*
X761490Y1071558D01*
X763382Y1069667D01*
X765698Y1068329D01*
X768282Y1067637D01*
X768350D01*
Y1076527D01*
D02*
G37*
G36*
X1159473Y1078705D02*
X1157007D01*
X1154625Y1078067D01*
X1152490Y1076834D01*
X1150746Y1075090D01*
X1150417Y1074520D01*
X1109694D01*
X1107712Y1074125D01*
X1106031Y1073002D01*
X1092867Y1059838D01*
X1090923D01*
X1088840Y1059280D01*
X1086973Y1058202D01*
X1085448Y1056677D01*
X1084370Y1054809D01*
X1083811Y1052726D01*
Y1050570D01*
X1084370Y1048487D01*
X1085448Y1046619D01*
X1086973Y1045094D01*
X1088840Y1044016D01*
X1090923Y1043458D01*
X1093080D01*
X1095163Y1044016D01*
X1097030Y1045094D01*
X1098555Y1046619D01*
X1099633Y1048487D01*
X1100191Y1050570D01*
Y1052513D01*
X1111839Y1064161D01*
X1150417D01*
X1150746Y1063590D01*
X1152490Y1061846D01*
X1154625Y1060613D01*
X1157007Y1059975D01*
X1159473D01*
X1161855Y1060613D01*
X1163990Y1061846D01*
X1165734Y1063590D01*
X1166967Y1065725D01*
X1167605Y1068107D01*
Y1070573D01*
X1166967Y1072955D01*
X1165734Y1075090D01*
X1163990Y1076834D01*
X1161855Y1078067D01*
X1159473Y1078705D01*
D02*
G37*
G36*
X690489Y1060424D02*
Y1053556D01*
X697358D01*
X696851Y1055447D01*
X695773Y1057315D01*
X694248Y1058840D01*
X692381Y1059918D01*
X690489Y1060424D01*
D02*
G37*
G36*
X687949D02*
X686058Y1059918D01*
X684191Y1058840D01*
X682666Y1057315D01*
X681588Y1055447D01*
X681081Y1053556D01*
X687949D01*
Y1060424D01*
D02*
G37*
G36*
X933518Y1061772D02*
X933450D01*
Y1052882D01*
X942340D01*
Y1052950D01*
X941648Y1055534D01*
X940310Y1057850D01*
X938418Y1059742D01*
X936102Y1061080D01*
X933518Y1061772D01*
D02*
G37*
G36*
X930910D02*
X930842D01*
X928258Y1061080D01*
X925942Y1059742D01*
X924050Y1057850D01*
X922712Y1055534D01*
X922020Y1052950D01*
Y1052882D01*
X930910D01*
Y1061772D01*
D02*
G37*
G36*
X545534Y1067830D02*
X543068D01*
X540686Y1067192D01*
X538550Y1065959D01*
X536807Y1064215D01*
X535574Y1062080D01*
X534936Y1059698D01*
Y1057232D01*
X535574Y1054850D01*
X536807Y1052715D01*
X538550Y1050971D01*
X540686Y1049738D01*
X543068Y1049100D01*
X545534D01*
X547915Y1049738D01*
X550051Y1050971D01*
X551795Y1052715D01*
X553027Y1054850D01*
X553666Y1057232D01*
Y1059698D01*
X553027Y1062080D01*
X551795Y1064215D01*
X550051Y1065959D01*
X547915Y1067192D01*
X545534Y1067830D01*
D02*
G37*
G36*
X697358Y1051016D02*
X690489D01*
Y1044147D01*
X692381Y1044654D01*
X694248Y1045732D01*
X695773Y1047257D01*
X696851Y1049125D01*
X697358Y1051016D01*
D02*
G37*
G36*
X687949D02*
X681081D01*
X681588Y1049125D01*
X682666Y1047257D01*
X684191Y1045732D01*
X686058Y1044654D01*
X687949Y1044147D01*
Y1051016D01*
D02*
G37*
G36*
X958918Y1061772D02*
X956242D01*
X953658Y1061080D01*
X951342Y1059742D01*
X949450Y1057850D01*
X948112Y1055534D01*
X947420Y1052950D01*
Y1050275D01*
X948112Y1047691D01*
X949450Y1045374D01*
X951342Y1043482D01*
X953658Y1042144D01*
X956242Y1041452D01*
X958918D01*
X961502Y1042144D01*
X963818Y1043482D01*
X965710Y1045374D01*
X966332Y1046451D01*
X1006217D01*
X1007573Y1045094D01*
X1009440Y1044016D01*
X1011523Y1043458D01*
X1013680D01*
X1015763Y1044016D01*
X1017630Y1045094D01*
X1019155Y1046619D01*
X1020233Y1048487D01*
X1020791Y1050570D01*
Y1052726D01*
X1020233Y1054809D01*
X1019155Y1056677D01*
X1017630Y1058202D01*
X1015763Y1059280D01*
X1013680Y1059838D01*
X1011523D01*
X1009440Y1059280D01*
X1007573Y1058202D01*
X1006181Y1056809D01*
X966311D01*
X965710Y1057850D01*
X963818Y1059742D01*
X961502Y1061080D01*
X958918Y1061772D01*
D02*
G37*
G36*
X942340Y1050342D02*
X933450D01*
Y1041452D01*
X933518D01*
X936102Y1042144D01*
X938418Y1043482D01*
X940310Y1045374D01*
X941648Y1047691D01*
X942340Y1050275D01*
Y1050342D01*
D02*
G37*
G36*
X930910D02*
X922020D01*
Y1050275D01*
X922712Y1047691D01*
X924050Y1045374D01*
X925942Y1043482D01*
X928258Y1042144D01*
X930842Y1041452D01*
X930910D01*
Y1050342D01*
D02*
G37*
G36*
X1365810Y1057351D02*
X1349730D01*
Y1041271D01*
X1365810D01*
Y1057351D01*
D02*
G37*
G36*
X1240870D02*
X1224790D01*
Y1041271D01*
X1240870D01*
Y1057351D01*
D02*
G37*
G36*
X313770Y1056905D02*
X297690D01*
Y1040825D01*
X313770D01*
Y1056905D01*
D02*
G37*
G36*
X610898Y1085876D02*
X608741D01*
X606658Y1085318D01*
X604791Y1084240D01*
X603266Y1082715D01*
X602188Y1080847D01*
X601629Y1078764D01*
Y1076821D01*
X564653Y1039845D01*
X550766D01*
X550051Y1040559D01*
X547915Y1041792D01*
X545534Y1042430D01*
X543068D01*
X540686Y1041792D01*
X538550Y1040559D01*
X536807Y1038816D01*
X535574Y1036680D01*
X534936Y1034298D01*
Y1031832D01*
X535574Y1029451D01*
X536807Y1027315D01*
X538550Y1025571D01*
X540686Y1024338D01*
X543068Y1023700D01*
X545534D01*
X547915Y1024338D01*
X550051Y1025571D01*
X551795Y1027315D01*
X553027Y1029451D01*
X553037Y1029485D01*
X566798D01*
X568781Y1029880D01*
X570461Y1031003D01*
X608954Y1069496D01*
X610898D01*
X612981Y1070054D01*
X614848Y1071132D01*
X616373Y1072657D01*
X617451Y1074525D01*
X618009Y1076608D01*
Y1078764D01*
X617451Y1080847D01*
X616373Y1082715D01*
X614848Y1084240D01*
X612981Y1085318D01*
X610898Y1085876D01*
D02*
G37*
G36*
X1159473Y1053305D02*
X1157007D01*
X1154625Y1052667D01*
X1152490Y1051434D01*
X1150746Y1049690D01*
X1149513Y1047555D01*
X1148875Y1045173D01*
Y1042707D01*
X1149513Y1040325D01*
X1150746Y1038190D01*
X1152490Y1036446D01*
X1154625Y1035213D01*
X1157007Y1034575D01*
X1159473D01*
X1161855Y1035213D01*
X1163990Y1036446D01*
X1165734Y1038190D01*
X1166967Y1040325D01*
X1167605Y1042707D01*
Y1045173D01*
X1166967Y1047555D01*
X1165734Y1049690D01*
X1163990Y1051434D01*
X1161855Y1052667D01*
X1159473Y1053305D01*
D02*
G37*
G36*
X745558Y1036888D02*
X742882D01*
X740298Y1036196D01*
X737982Y1034858D01*
X736090Y1032966D01*
X735524Y1031986D01*
X695701D01*
X694248Y1033440D01*
X692381Y1034518D01*
X690298Y1035076D01*
X688141D01*
X686058Y1034518D01*
X684191Y1033440D01*
X682666Y1031915D01*
X681588Y1030047D01*
X681029Y1027964D01*
Y1025808D01*
X681588Y1023725D01*
X682666Y1021857D01*
X684191Y1020332D01*
X686058Y1019254D01*
X688141Y1018696D01*
X690298D01*
X692381Y1019254D01*
X694248Y1020332D01*
X695543Y1021628D01*
X735433D01*
X736090Y1020490D01*
X737982Y1018598D01*
X740298Y1017260D01*
X742882Y1016568D01*
X745558D01*
X748142Y1017260D01*
X750458Y1018598D01*
X752350Y1020490D01*
X753688Y1022806D01*
X754380Y1025390D01*
Y1028066D01*
X753688Y1030650D01*
X752350Y1032966D01*
X750458Y1034858D01*
X748142Y1036196D01*
X745558Y1036888D01*
D02*
G37*
G36*
X770958D02*
X770890D01*
Y1027998D01*
X779780D01*
Y1028066D01*
X779088Y1030650D01*
X777750Y1032966D01*
X775858Y1034858D01*
X773542Y1036196D01*
X770958Y1036888D01*
D02*
G37*
G36*
X768350D02*
X768282D01*
X765698Y1036196D01*
X763382Y1034858D01*
X761490Y1032966D01*
X760152Y1030650D01*
X759460Y1028066D01*
Y1027998D01*
X768350D01*
Y1036888D01*
D02*
G37*
G36*
X1013872Y1034387D02*
Y1027518D01*
X1020740D01*
X1020233Y1029409D01*
X1019155Y1031277D01*
X1017630Y1032802D01*
X1015763Y1033880D01*
X1013872Y1034387D01*
D02*
G37*
G36*
X1011331D02*
X1009440Y1033880D01*
X1007573Y1032802D01*
X1006048Y1031277D01*
X1004970Y1029409D01*
X1004463Y1027518D01*
X1011331D01*
Y1034387D01*
D02*
G37*
G36*
X1020740Y1024978D02*
X1013872D01*
Y1018109D01*
X1015763Y1018616D01*
X1017630Y1019694D01*
X1019155Y1021219D01*
X1020233Y1023087D01*
X1020740Y1024978D01*
D02*
G37*
G36*
X1011331D02*
X1004463D01*
X1004970Y1023087D01*
X1006048Y1021219D01*
X1007573Y1019694D01*
X1009440Y1018616D01*
X1011331Y1018109D01*
Y1024978D01*
D02*
G37*
G36*
X779780Y1025458D02*
X770890D01*
Y1016568D01*
X770958D01*
X773542Y1017260D01*
X775858Y1018598D01*
X777750Y1020490D01*
X779088Y1022806D01*
X779780Y1025390D01*
Y1025458D01*
D02*
G37*
G36*
X768350D02*
X759460D01*
Y1025390D01*
X760152Y1022806D01*
X761490Y1020490D01*
X763382Y1018598D01*
X765698Y1017260D01*
X768282Y1016568D01*
X768350D01*
Y1025458D01*
D02*
G37*
G36*
X1159473Y1027905D02*
X1157007D01*
X1154625Y1027267D01*
X1152490Y1026034D01*
X1150746Y1024290D01*
X1150417Y1023719D01*
X1109694D01*
X1107712Y1023325D01*
X1106031Y1022203D01*
X1092867Y1009038D01*
X1090923D01*
X1088840Y1008480D01*
X1086973Y1007402D01*
X1085448Y1005877D01*
X1084370Y1004009D01*
X1083811Y1001926D01*
Y999770D01*
X1084370Y997687D01*
X1085448Y995819D01*
X1086973Y994294D01*
X1088840Y993216D01*
X1090923Y992658D01*
X1093080D01*
X1095163Y993216D01*
X1097030Y994294D01*
X1098555Y995819D01*
X1099633Y997687D01*
X1100191Y999770D01*
Y1001713D01*
X1111839Y1013361D01*
X1150417D01*
X1150746Y1012790D01*
X1152490Y1011046D01*
X1154625Y1009813D01*
X1157007Y1009175D01*
X1159473D01*
X1161855Y1009813D01*
X1163990Y1011046D01*
X1165734Y1012790D01*
X1166967Y1014925D01*
X1167605Y1017307D01*
Y1019773D01*
X1166967Y1022155D01*
X1165734Y1024290D01*
X1163990Y1026034D01*
X1161855Y1027267D01*
X1159473Y1027905D01*
D02*
G37*
G36*
X1409828Y1010043D02*
X1407711D01*
X1405667Y1009495D01*
X1403833Y1008436D01*
X1402579Y1007182D01*
X1363961D01*
X1362707Y1008436D01*
X1360874Y1009495D01*
X1358829Y1010043D01*
X1356712D01*
X1354667Y1009495D01*
X1352834Y1008436D01*
X1351337Y1006939D01*
X1350278Y1005106D01*
X1349730Y1003061D01*
Y1000944D01*
X1350278Y998899D01*
X1351337Y997066D01*
X1352834Y995569D01*
X1354667Y994510D01*
X1356712Y993963D01*
X1358829D01*
X1360874Y994510D01*
X1362707Y995569D01*
X1363961Y996823D01*
X1402579D01*
X1403833Y995569D01*
X1405667Y994510D01*
X1407711Y993963D01*
X1409828D01*
X1411873Y994510D01*
X1413707Y995569D01*
X1415203Y997066D01*
X1416262Y998899D01*
X1416810Y1000944D01*
Y1003061D01*
X1416262Y1005106D01*
X1415203Y1006939D01*
X1413707Y1008436D01*
X1411873Y1009495D01*
X1409828Y1010043D01*
D02*
G37*
G36*
X1284889D02*
X1282772D01*
X1280727Y1009495D01*
X1278894Y1008436D01*
X1277640Y1007182D01*
X1239021D01*
X1237767Y1008436D01*
X1235934Y1009495D01*
X1233889Y1010043D01*
X1231772D01*
X1229727Y1009495D01*
X1227894Y1008436D01*
X1226397Y1006939D01*
X1225338Y1005106D01*
X1224790Y1003061D01*
Y1000944D01*
X1225338Y998899D01*
X1226397Y997066D01*
X1227894Y995569D01*
X1229727Y994510D01*
X1231772Y993963D01*
X1233889D01*
X1235934Y994510D01*
X1237767Y995569D01*
X1239021Y996823D01*
X1277640D01*
X1278894Y995569D01*
X1280727Y994510D01*
X1282772Y993963D01*
X1284889D01*
X1286934Y994510D01*
X1288767Y995569D01*
X1290264Y997066D01*
X1291322Y998899D01*
X1291870Y1000944D01*
Y1003061D01*
X1291322Y1005106D01*
X1290264Y1006939D01*
X1288767Y1008436D01*
X1286934Y1009495D01*
X1284889Y1010043D01*
D02*
G37*
G36*
X483631Y1009865D02*
X481514D01*
X479469Y1009317D01*
X477635Y1008259D01*
X476381Y1007005D01*
X437763D01*
X436509Y1008259D01*
X434675Y1009317D01*
X432630Y1009865D01*
X430513D01*
X428469Y1009317D01*
X426635Y1008259D01*
X425138Y1006762D01*
X424080Y1004929D01*
X423532Y1002884D01*
Y1000767D01*
X424080Y998722D01*
X425138Y996889D01*
X426635Y995392D01*
X428469Y994333D01*
X430513Y993785D01*
X432630D01*
X434675Y994333D01*
X436509Y995392D01*
X437763Y996646D01*
X476381D01*
X477635Y995392D01*
X479469Y994333D01*
X481514Y993785D01*
X483631D01*
X485675Y994333D01*
X487509Y995392D01*
X489006Y996889D01*
X490064Y998722D01*
X490612Y1000767D01*
Y1002884D01*
X490064Y1004929D01*
X489006Y1006762D01*
X487509Y1008259D01*
X485675Y1009317D01*
X483631Y1009865D01*
D02*
G37*
G36*
X357788D02*
X355671D01*
X353627Y1009317D01*
X351793Y1008259D01*
X350539Y1007005D01*
X311921D01*
X310667Y1008259D01*
X308834Y1009317D01*
X306789Y1009865D01*
X304672D01*
X302627Y1009317D01*
X300793Y1008259D01*
X299297Y1006762D01*
X298238Y1004929D01*
X297690Y1002884D01*
Y1000767D01*
X298238Y998722D01*
X299297Y996889D01*
X300793Y995392D01*
X302627Y994333D01*
X304672Y993785D01*
X306789D01*
X308834Y994333D01*
X310667Y995392D01*
X311921Y996646D01*
X350539D01*
X351793Y995392D01*
X353627Y994333D01*
X355671Y993785D01*
X357788D01*
X359833Y994333D01*
X361666Y995392D01*
X363163Y996889D01*
X364222Y998722D01*
X364770Y1000767D01*
Y1002884D01*
X364222Y1004929D01*
X363163Y1006762D01*
X361666Y1008259D01*
X359833Y1009317D01*
X357788Y1009865D01*
D02*
G37*
G36*
X690489Y1009624D02*
Y1002756D01*
X697358D01*
X696851Y1004647D01*
X695773Y1006515D01*
X694248Y1008040D01*
X692381Y1009118D01*
X690489Y1009624D01*
D02*
G37*
G36*
X687949D02*
X686058Y1009118D01*
X684191Y1008040D01*
X682666Y1006515D01*
X681588Y1004647D01*
X681081Y1002756D01*
X687949D01*
Y1009624D01*
D02*
G37*
G36*
X933518Y1011160D02*
X933450D01*
Y1002270D01*
X942340D01*
Y1002338D01*
X941648Y1004922D01*
X940310Y1007238D01*
X938418Y1009130D01*
X936102Y1010468D01*
X933518Y1011160D01*
D02*
G37*
G36*
X930910D02*
X930842D01*
X928258Y1010468D01*
X925942Y1009130D01*
X924050Y1007238D01*
X922712Y1004922D01*
X922020Y1002338D01*
Y1002270D01*
X930910D01*
Y1011160D01*
D02*
G37*
G36*
X545534Y1017030D02*
X543068D01*
X540686Y1016392D01*
X538550Y1015159D01*
X536807Y1013416D01*
X535574Y1011280D01*
X534936Y1008898D01*
Y1006432D01*
X535574Y1004051D01*
X536807Y1001915D01*
X538550Y1000171D01*
X540686Y998938D01*
X543068Y998300D01*
X545534D01*
X547915Y998938D01*
X550051Y1000171D01*
X551795Y1001915D01*
X553027Y1004051D01*
X553666Y1006432D01*
Y1008898D01*
X553027Y1011280D01*
X551795Y1013416D01*
X550051Y1015159D01*
X547915Y1016392D01*
X545534Y1017030D01*
D02*
G37*
G36*
X697358Y1000216D02*
X690489D01*
Y993347D01*
X692381Y993854D01*
X694248Y994932D01*
X695773Y996457D01*
X696851Y998325D01*
X697358Y1000216D01*
D02*
G37*
G36*
X687949D02*
X681081D01*
X681588Y998325D01*
X682666Y996457D01*
X684191Y994932D01*
X686058Y993854D01*
X687949Y993347D01*
Y1000216D01*
D02*
G37*
G36*
X958918Y1011160D02*
X956242D01*
X953658Y1010468D01*
X951342Y1009130D01*
X949450Y1007238D01*
X948112Y1004922D01*
X947420Y1002338D01*
Y999662D01*
X948112Y997078D01*
X949450Y994762D01*
X951342Y992870D01*
X953658Y991532D01*
X956242Y990840D01*
X958918D01*
X961502Y991532D01*
X963818Y992870D01*
X965710Y994762D01*
X966277Y995744D01*
X1006123D01*
X1007573Y994294D01*
X1009440Y993216D01*
X1011523Y992658D01*
X1013680D01*
X1015763Y993216D01*
X1017630Y994294D01*
X1019155Y995819D01*
X1020233Y997687D01*
X1020791Y999770D01*
Y1001926D01*
X1020233Y1004009D01*
X1019155Y1005877D01*
X1017630Y1007402D01*
X1015763Y1008480D01*
X1013680Y1009038D01*
X1011523D01*
X1009440Y1008480D01*
X1007573Y1007402D01*
X1006275Y1006103D01*
X966365D01*
X965710Y1007238D01*
X963818Y1009130D01*
X961502Y1010468D01*
X958918Y1011160D01*
D02*
G37*
G36*
X942340Y999730D02*
X933450D01*
Y990840D01*
X933518D01*
X936102Y991532D01*
X938418Y992870D01*
X940310Y994762D01*
X941648Y997078D01*
X942340Y999662D01*
Y999730D01*
D02*
G37*
G36*
X930910D02*
X922020D01*
Y999662D01*
X922712Y997078D01*
X924050Y994762D01*
X925942Y992870D01*
X928258Y991532D01*
X930842Y990840D01*
X930910D01*
Y999730D01*
D02*
G37*
G36*
X610898Y1035076D02*
X608741D01*
X606658Y1034518D01*
X604791Y1033440D01*
X603266Y1031915D01*
X602188Y1030047D01*
X601629Y1027964D01*
Y1026021D01*
X563053Y987445D01*
X552124D01*
X551795Y988016D01*
X550051Y989759D01*
X547915Y990992D01*
X545534Y991630D01*
X543068D01*
X540686Y990992D01*
X538550Y989759D01*
X536807Y988016D01*
X535574Y985880D01*
X534936Y983498D01*
Y981032D01*
X535574Y978651D01*
X536807Y976515D01*
X538550Y974771D01*
X540686Y973538D01*
X543068Y972900D01*
X545534D01*
X547915Y973538D01*
X550051Y974771D01*
X551795Y976515D01*
X552124Y977086D01*
X565199D01*
X567181Y977480D01*
X568861Y978603D01*
X608954Y1018696D01*
X610898D01*
X612981Y1019254D01*
X614848Y1020332D01*
X616373Y1021857D01*
X617451Y1023725D01*
X618009Y1025808D01*
Y1027964D01*
X617451Y1030047D01*
X616373Y1031915D01*
X614848Y1033440D01*
X612981Y1034518D01*
X610898Y1035076D01*
D02*
G37*
G36*
X1159473Y1002505D02*
X1157007D01*
X1154625Y1001867D01*
X1152490Y1000634D01*
X1150746Y998890D01*
X1149513Y996755D01*
X1148875Y994373D01*
Y991907D01*
X1149513Y989525D01*
X1150746Y987390D01*
X1152490Y985646D01*
X1154625Y984413D01*
X1157007Y983775D01*
X1159473D01*
X1161855Y984413D01*
X1163990Y985646D01*
X1165734Y987390D01*
X1166967Y989525D01*
X1167605Y991907D01*
Y994373D01*
X1166967Y996755D01*
X1165734Y998890D01*
X1163990Y1000634D01*
X1161855Y1001867D01*
X1159473Y1002505D01*
D02*
G37*
G36*
X745558Y986632D02*
X742882D01*
X740298Y985939D01*
X737982Y984602D01*
X736090Y982710D01*
X735367Y981458D01*
X695429D01*
X694248Y982640D01*
X692381Y983718D01*
X690298Y984276D01*
X688141D01*
X686058Y983718D01*
X684191Y982640D01*
X682666Y981115D01*
X681588Y979247D01*
X681029Y977164D01*
Y975008D01*
X681588Y972925D01*
X682666Y971057D01*
X684191Y969532D01*
X686058Y968454D01*
X688141Y967896D01*
X690298D01*
X692381Y968454D01*
X694248Y969532D01*
X695773Y971057D01*
X695797Y971099D01*
X735590D01*
X736090Y970233D01*
X737982Y968342D01*
X740298Y967004D01*
X742882Y966312D01*
X745558D01*
X748142Y967004D01*
X750458Y968342D01*
X752350Y970233D01*
X753688Y972550D01*
X754380Y975134D01*
Y977809D01*
X753688Y980393D01*
X752350Y982710D01*
X750458Y984602D01*
X748142Y985939D01*
X745558Y986632D01*
D02*
G37*
G36*
X770958D02*
X770890D01*
Y977742D01*
X779780D01*
Y977809D01*
X779088Y980393D01*
X777750Y982710D01*
X775858Y984602D01*
X773542Y985939D01*
X770958Y986632D01*
D02*
G37*
G36*
X768350D02*
X768282D01*
X765698Y985939D01*
X763382Y984602D01*
X761490Y982710D01*
X760152Y980393D01*
X759460Y977809D01*
Y977742D01*
X768350D01*
Y986632D01*
D02*
G37*
G36*
X1013872Y983587D02*
Y976718D01*
X1020740D01*
X1020233Y978609D01*
X1019155Y980477D01*
X1017630Y982001D01*
X1015763Y983080D01*
X1013872Y983587D01*
D02*
G37*
G36*
X1011331D02*
X1009440Y983080D01*
X1007573Y982001D01*
X1006048Y980477D01*
X1004970Y978609D01*
X1004463Y976718D01*
X1011331D01*
Y983587D01*
D02*
G37*
G36*
X1020740Y974178D02*
X1013872D01*
Y967309D01*
X1015763Y967816D01*
X1017630Y968894D01*
X1019155Y970419D01*
X1020233Y972287D01*
X1020740Y974178D01*
D02*
G37*
G36*
X1011331D02*
X1004463D01*
X1004970Y972287D01*
X1006048Y970419D01*
X1007573Y968894D01*
X1009440Y967816D01*
X1011331Y967309D01*
Y974178D01*
D02*
G37*
G36*
X779780Y975202D02*
X770890D01*
Y966312D01*
X770958D01*
X773542Y967004D01*
X775858Y968342D01*
X777750Y970233D01*
X779088Y972550D01*
X779780Y975134D01*
Y975202D01*
D02*
G37*
G36*
X768350D02*
X759460D01*
Y975134D01*
X760152Y972550D01*
X761490Y970233D01*
X763382Y968342D01*
X765698Y967004D01*
X768282Y966312D01*
X768350D01*
Y975202D01*
D02*
G37*
G36*
X1159473Y977105D02*
X1157007D01*
X1154625Y976467D01*
X1152490Y975234D01*
X1150746Y973490D01*
X1150417Y972919D01*
X1109694D01*
X1107712Y972525D01*
X1106031Y971403D01*
X1092867Y958238D01*
X1083811D01*
Y941858D01*
X1100191D01*
Y950913D01*
X1111839Y962561D01*
X1150417D01*
X1150746Y961990D01*
X1152490Y960246D01*
X1154625Y959013D01*
X1157007Y958375D01*
X1159473D01*
X1161855Y959013D01*
X1163990Y960246D01*
X1165734Y961990D01*
X1166967Y964125D01*
X1167605Y966507D01*
Y968973D01*
X1166967Y971355D01*
X1165734Y973490D01*
X1163990Y975234D01*
X1161855Y976467D01*
X1159473Y977105D01*
D02*
G37*
G36*
X690489Y958824D02*
Y951956D01*
X697358D01*
X696851Y953847D01*
X695773Y955715D01*
X694248Y957240D01*
X692381Y958318D01*
X690489Y958824D01*
D02*
G37*
G36*
X687949D02*
X686058Y958318D01*
X684191Y957240D01*
X682666Y955715D01*
X681588Y953847D01*
X681081Y951956D01*
X687949D01*
Y958824D01*
D02*
G37*
G36*
X933518Y959837D02*
X933450D01*
Y950947D01*
X942340D01*
Y951015D01*
X941648Y953599D01*
X940310Y955915D01*
X938418Y957807D01*
X936102Y959145D01*
X933518Y959837D01*
D02*
G37*
G36*
X930910D02*
X930842D01*
X928258Y959145D01*
X925942Y957807D01*
X924050Y955915D01*
X922712Y953599D01*
X922020Y951015D01*
Y950947D01*
X930910D01*
Y959837D01*
D02*
G37*
G36*
X545534Y966230D02*
X543068D01*
X540686Y965592D01*
X538550Y964359D01*
X536807Y962616D01*
X535574Y960480D01*
X534936Y958098D01*
Y955632D01*
X535574Y953251D01*
X536807Y951115D01*
X538550Y949371D01*
X540686Y948138D01*
X543068Y947500D01*
X545534D01*
X547915Y948138D01*
X550051Y949371D01*
X551795Y951115D01*
X553027Y953251D01*
X553666Y955632D01*
Y958098D01*
X553027Y960480D01*
X551795Y962616D01*
X550051Y964359D01*
X547915Y965592D01*
X545534Y966230D01*
D02*
G37*
G36*
X697358Y949416D02*
X690489D01*
Y942547D01*
X692381Y943054D01*
X694248Y944132D01*
X695773Y945657D01*
X696851Y947525D01*
X697358Y949416D01*
D02*
G37*
G36*
X687949D02*
X681081D01*
X681588Y947525D01*
X682666Y945657D01*
X684191Y944132D01*
X686058Y943054D01*
X687949Y942547D01*
Y949416D01*
D02*
G37*
G36*
X958918Y959837D02*
X956242D01*
X953658Y959145D01*
X951342Y957807D01*
X949450Y955915D01*
X948112Y953599D01*
X947420Y951015D01*
Y948339D01*
X948112Y945755D01*
X949450Y943439D01*
X951342Y941547D01*
X953658Y940209D01*
X956242Y939517D01*
X958918D01*
X961502Y940209D01*
X963818Y941547D01*
X965710Y943439D01*
X966428Y944683D01*
X1006384D01*
X1007573Y943494D01*
X1009440Y942416D01*
X1011523Y941858D01*
X1013680D01*
X1015763Y942416D01*
X1017630Y943494D01*
X1019155Y945019D01*
X1020233Y946887D01*
X1020791Y948970D01*
Y951126D01*
X1020233Y953209D01*
X1019155Y955077D01*
X1017630Y956601D01*
X1015763Y957680D01*
X1013680Y958238D01*
X1011523D01*
X1009440Y957680D01*
X1007573Y956601D01*
X1006048Y955077D01*
X1006028Y955042D01*
X966214D01*
X965710Y955915D01*
X963818Y957807D01*
X961502Y959145D01*
X958918Y959837D01*
D02*
G37*
G36*
X942340Y948407D02*
X933450D01*
Y939517D01*
X933518D01*
X936102Y940209D01*
X938418Y941547D01*
X940310Y943439D01*
X941648Y945755D01*
X942340Y948339D01*
Y948407D01*
D02*
G37*
G36*
X930910D02*
X922020D01*
Y948339D01*
X922712Y945755D01*
X924050Y943439D01*
X925942Y941547D01*
X928258Y940209D01*
X930842Y939517D01*
X930910D01*
Y948407D01*
D02*
G37*
G36*
X610898Y984276D02*
X608741D01*
X606658Y983718D01*
X604791Y982640D01*
X603266Y981115D01*
X602188Y979247D01*
X601629Y977164D01*
Y975221D01*
X563053Y936645D01*
X552124D01*
X551795Y937215D01*
X550051Y938959D01*
X547915Y940192D01*
X545534Y940830D01*
X543068D01*
X540686Y940192D01*
X538550Y938959D01*
X536807Y937215D01*
X535574Y935080D01*
X534936Y932698D01*
Y930232D01*
X535574Y927850D01*
X536807Y925715D01*
X538550Y923971D01*
X540686Y922738D01*
X543068Y922100D01*
X545534D01*
X547915Y922738D01*
X550051Y923971D01*
X551795Y925715D01*
X552124Y926286D01*
X565199D01*
X567181Y926680D01*
X568861Y927803D01*
X608954Y967896D01*
X610898D01*
X612981Y968454D01*
X614848Y969532D01*
X616373Y971057D01*
X617451Y972925D01*
X618009Y975008D01*
Y977164D01*
X617451Y979247D01*
X616373Y981115D01*
X614848Y982640D01*
X612981Y983718D01*
X610898Y984276D01*
D02*
G37*
G36*
X1159473Y951705D02*
X1157007D01*
X1154625Y951067D01*
X1152490Y949834D01*
X1150746Y948090D01*
X1149513Y945955D01*
X1148875Y943573D01*
Y941107D01*
X1149513Y938725D01*
X1150746Y936590D01*
X1152490Y934846D01*
X1154625Y933613D01*
X1157007Y932975D01*
X1159473D01*
X1161855Y933613D01*
X1163990Y934846D01*
X1165734Y936590D01*
X1166967Y938725D01*
X1167605Y941107D01*
Y943573D01*
X1166967Y945955D01*
X1165734Y948090D01*
X1163990Y949834D01*
X1161855Y951067D01*
X1159473Y951705D01*
D02*
G37*
G36*
X1365810Y927543D02*
X1349730D01*
Y911463D01*
X1365810D01*
Y927543D01*
D02*
G37*
G36*
X1240870D02*
X1224790D01*
Y911463D01*
X1240870D01*
Y927543D01*
D02*
G37*
G36*
X313770Y927365D02*
X297690D01*
Y911285D01*
X313770D01*
Y927365D01*
D02*
G37*
G36*
X865977Y920750D02*
X864870D01*
Y897890D01*
X887730D01*
Y898997D01*
X886803Y903659D01*
X884984Y908050D01*
X882343Y912002D01*
X878982Y915363D01*
X875030Y918004D01*
X870639Y919823D01*
X865977Y920750D01*
D02*
G37*
G36*
X862330D02*
X861223D01*
X856562Y919823D01*
X852170Y918004D01*
X848218Y915363D01*
X844857Y912002D01*
X842216Y908050D01*
X840397Y903659D01*
X839470Y898997D01*
Y897890D01*
X862330D01*
Y920750D01*
D02*
G37*
G36*
X770776Y888355D02*
X770708D01*
Y879465D01*
X779598D01*
Y879533D01*
X778906Y882117D01*
X777568Y884434D01*
X775676Y886325D01*
X773360Y887663D01*
X770776Y888355D01*
D02*
G37*
G36*
X768168D02*
X768100D01*
X765516Y887663D01*
X763200Y886325D01*
X761308Y884434D01*
X759970Y882117D01*
X759278Y879533D01*
Y879465D01*
X768168D01*
Y888355D01*
D02*
G37*
G36*
X357788Y881595D02*
X355671D01*
X353627Y881047D01*
X351793Y879989D01*
X350539Y878735D01*
X311921D01*
X310667Y879989D01*
X308834Y881047D01*
X306789Y881595D01*
X304672D01*
X302627Y881047D01*
X300793Y879989D01*
X299297Y878492D01*
X298238Y876659D01*
X297690Y874614D01*
Y872497D01*
X298238Y870452D01*
X299297Y868619D01*
X300793Y867122D01*
X302627Y866063D01*
X304672Y865515D01*
X306789D01*
X308834Y866063D01*
X310667Y867122D01*
X311921Y868376D01*
X350539D01*
X351793Y867122D01*
X353627Y866063D01*
X355671Y865515D01*
X357788D01*
X359833Y866063D01*
X361666Y867122D01*
X363163Y868619D01*
X364222Y870452D01*
X364770Y872497D01*
Y874614D01*
X364222Y876659D01*
X363163Y878492D01*
X361666Y879989D01*
X359833Y881047D01*
X357788Y881595D01*
D02*
G37*
G36*
X1409828Y880977D02*
X1407711D01*
X1405667Y880430D01*
X1403833Y879371D01*
X1402579Y878117D01*
X1363961D01*
X1362707Y879371D01*
X1360874Y880430D01*
X1358829Y880977D01*
X1356712D01*
X1354667Y880430D01*
X1352834Y879371D01*
X1351337Y877874D01*
X1350278Y876041D01*
X1349730Y873996D01*
Y871879D01*
X1350278Y869834D01*
X1351337Y868001D01*
X1352834Y866504D01*
X1354667Y865445D01*
X1356712Y864898D01*
X1358829D01*
X1360874Y865445D01*
X1362707Y866504D01*
X1363961Y867758D01*
X1402579D01*
X1403833Y866504D01*
X1405667Y865445D01*
X1407711Y864898D01*
X1409828D01*
X1411873Y865445D01*
X1413707Y866504D01*
X1415203Y868001D01*
X1416262Y869834D01*
X1416810Y871879D01*
Y873996D01*
X1416262Y876041D01*
X1415203Y877874D01*
X1413707Y879371D01*
X1411873Y880430D01*
X1409828Y880977D01*
D02*
G37*
G36*
X1284889D02*
X1282772D01*
X1280727Y880430D01*
X1278894Y879371D01*
X1277640Y878117D01*
X1239021D01*
X1237767Y879371D01*
X1235934Y880430D01*
X1233889Y880977D01*
X1231772D01*
X1229727Y880430D01*
X1227894Y879371D01*
X1226397Y877874D01*
X1225338Y876041D01*
X1224790Y873996D01*
Y871879D01*
X1225338Y869834D01*
X1226397Y868001D01*
X1227894Y866504D01*
X1229727Y865445D01*
X1231772Y864898D01*
X1233889D01*
X1235934Y865445D01*
X1237767Y866504D01*
X1239021Y867758D01*
X1277640D01*
X1278894Y866504D01*
X1280727Y865445D01*
X1282772Y864898D01*
X1284889D01*
X1286934Y865445D01*
X1288767Y866504D01*
X1290264Y868001D01*
X1291322Y869834D01*
X1291870Y871879D01*
Y873996D01*
X1291322Y876041D01*
X1290264Y877874D01*
X1288767Y879371D01*
X1286934Y880430D01*
X1284889Y880977D01*
D02*
G37*
G36*
X887730Y895350D02*
X864870D01*
Y872490D01*
X865977D01*
X870639Y873417D01*
X875030Y875236D01*
X878982Y877877D01*
X882343Y881238D01*
X884984Y885190D01*
X886803Y889582D01*
X887730Y894243D01*
Y895350D01*
D02*
G37*
G36*
X862330D02*
X839470D01*
Y894243D01*
X840397Y889582D01*
X842216Y885190D01*
X844857Y881238D01*
X848218Y877877D01*
X852170Y875236D01*
X856562Y873417D01*
X861223Y872490D01*
X862330D01*
Y895350D01*
D02*
G37*
G36*
X690298Y886504D02*
X688141D01*
X686058Y885946D01*
X684191Y884868D01*
X682666Y883343D01*
X681588Y881475D01*
X681029Y879392D01*
Y877236D01*
X681588Y875153D01*
X682666Y873286D01*
X684191Y871761D01*
X686058Y870682D01*
X688141Y870124D01*
X690298D01*
X692381Y870682D01*
X694248Y871761D01*
X695773Y873286D01*
X696851Y875153D01*
X697409Y877236D01*
Y879392D01*
X696851Y881475D01*
X695773Y883343D01*
X694248Y884868D01*
X692381Y885946D01*
X690298Y886504D01*
D02*
G37*
G36*
X1013629Y876599D02*
Y869730D01*
X1020497D01*
X1019990Y871621D01*
X1018912Y873489D01*
X1017387Y875014D01*
X1015520Y876092D01*
X1013629Y876599D01*
D02*
G37*
G36*
X1011089D02*
X1009197Y876092D01*
X1007330Y875014D01*
X1005805Y873489D01*
X1004727Y871621D01*
X1004220Y869730D01*
X1011089D01*
Y876599D01*
D02*
G37*
G36*
X779598Y876925D02*
X770708D01*
Y868035D01*
X770776D01*
X773360Y868728D01*
X775676Y870065D01*
X777568Y871957D01*
X778906Y874274D01*
X779598Y876858D01*
Y876925D01*
D02*
G37*
G36*
X768168D02*
X759278D01*
Y876858D01*
X759970Y874274D01*
X761308Y871957D01*
X763200Y870065D01*
X765516Y868728D01*
X768100Y868035D01*
X768168D01*
Y876925D01*
D02*
G37*
G36*
X745376Y888355D02*
X742700D01*
X740116Y887663D01*
X737800Y886325D01*
X735908Y884434D01*
X734570Y882117D01*
X733878Y879533D01*
Y876858D01*
X734194Y875677D01*
X727676Y869158D01*
X726553Y867477D01*
X726159Y865495D01*
Y620043D01*
X725671Y619762D01*
X723898Y617989D01*
X722644Y615816D01*
X721995Y613394D01*
Y610886D01*
X722644Y608464D01*
X723898Y606292D01*
X725671Y604518D01*
X727843Y603264D01*
X730266Y602615D01*
X732774D01*
X735197Y603264D01*
X737368Y604518D01*
X739142Y606292D01*
X740396Y608464D01*
X741045Y610886D01*
Y613394D01*
X740396Y615816D01*
X739142Y617989D01*
X737368Y619762D01*
X736518Y620253D01*
Y717296D01*
X737691Y717782D01*
X737982Y717492D01*
X740298Y716154D01*
X742882Y715462D01*
X745558D01*
X748142Y716154D01*
X750458Y717492D01*
X752350Y719383D01*
X753688Y721700D01*
X754380Y724284D01*
Y726959D01*
X753688Y729543D01*
X752350Y731860D01*
X750458Y733752D01*
X748142Y735089D01*
X745558Y735781D01*
X742882D01*
X740298Y735089D01*
X737982Y733752D01*
X737691Y733461D01*
X736518Y733947D01*
Y768094D01*
X737691Y768580D01*
X737800Y768471D01*
X740116Y767133D01*
X742700Y766441D01*
X745376D01*
X747960Y767133D01*
X750276Y768471D01*
X752168Y770363D01*
X753506Y772680D01*
X754198Y775264D01*
Y777939D01*
X753506Y780523D01*
X752168Y782840D01*
X750276Y784731D01*
X747960Y786069D01*
X745376Y786761D01*
X742700D01*
X740116Y786069D01*
X737800Y784731D01*
X737691Y784622D01*
X736518Y785108D01*
Y819256D01*
X737691Y819742D01*
X737982Y819451D01*
X740298Y818113D01*
X742882Y817421D01*
X745558D01*
X748142Y818113D01*
X750458Y819451D01*
X752350Y821343D01*
X753688Y823659D01*
X754380Y826243D01*
Y828919D01*
X753688Y831503D01*
X752350Y833819D01*
X750458Y835711D01*
X748142Y837049D01*
X745558Y837741D01*
X742882D01*
X740298Y837049D01*
X737982Y835711D01*
X737691Y835420D01*
X736518Y835906D01*
Y863350D01*
X741519Y868352D01*
X742700Y868035D01*
X745376D01*
X747960Y868728D01*
X750276Y870065D01*
X752168Y871957D01*
X753506Y874274D01*
X754198Y876858D01*
Y879533D01*
X753506Y882117D01*
X752168Y884434D01*
X750276Y886325D01*
X747960Y887663D01*
X745376Y888355D01*
D02*
G37*
G36*
X1159473Y870425D02*
X1157007D01*
X1154625Y869787D01*
X1152490Y868554D01*
X1150746Y866810D01*
X1150417Y866239D01*
X1110939D01*
X1110939Y866239D01*
X1108957Y865845D01*
X1107276Y864723D01*
X1093599Y851046D01*
X1092837Y851250D01*
X1090680D01*
X1088597Y850692D01*
X1086730Y849614D01*
X1085205Y848089D01*
X1084127Y846221D01*
X1083568Y844138D01*
Y841982D01*
X1084127Y839899D01*
X1085205Y838031D01*
X1086730Y836506D01*
X1088597Y835428D01*
X1090680Y834870D01*
X1092837D01*
X1094920Y835428D01*
X1096787Y836506D01*
X1098312Y838031D01*
X1099390Y839899D01*
X1099949Y841982D01*
Y842745D01*
X1113084Y855881D01*
X1150417D01*
X1150746Y855310D01*
X1152490Y853566D01*
X1154625Y852333D01*
X1157007Y851695D01*
X1159473D01*
X1161855Y852333D01*
X1163990Y853566D01*
X1165734Y855310D01*
X1166967Y857445D01*
X1167605Y859827D01*
Y862293D01*
X1166967Y864675D01*
X1165734Y866810D01*
X1163990Y868554D01*
X1161855Y869787D01*
X1159473Y870425D01*
D02*
G37*
G36*
X1020497Y867190D02*
X1013629D01*
Y860321D01*
X1015520Y860828D01*
X1017387Y861906D01*
X1018912Y863431D01*
X1019990Y865299D01*
X1020497Y867190D01*
D02*
G37*
G36*
X1011089D02*
X1004220D01*
X1004727Y865299D01*
X1005805Y863431D01*
X1007330Y861906D01*
X1009197Y860828D01*
X1011089Y860321D01*
Y867190D01*
D02*
G37*
G36*
X690489Y861053D02*
Y854184D01*
X697358D01*
X696851Y856075D01*
X695773Y857943D01*
X694248Y859468D01*
X692381Y860546D01*
X690489Y861053D01*
D02*
G37*
G36*
X687949D02*
X686058Y860546D01*
X684191Y859468D01*
X682666Y857943D01*
X681588Y856075D01*
X681081Y854184D01*
X687949D01*
Y861053D01*
D02*
G37*
G36*
X697358Y851644D02*
X690489D01*
Y844776D01*
X692381Y845282D01*
X694248Y846361D01*
X695773Y847886D01*
X696851Y849753D01*
X697358Y851644D01*
D02*
G37*
G36*
X687949D02*
X681081D01*
X681588Y849753D01*
X682666Y847886D01*
X684191Y846361D01*
X686058Y845282D01*
X687949Y844776D01*
Y851644D01*
D02*
G37*
G36*
X933518Y852776D02*
X933450D01*
Y843886D01*
X942340D01*
Y843954D01*
X941648Y846538D01*
X940310Y848855D01*
X938418Y850746D01*
X936102Y852084D01*
X933518Y852776D01*
D02*
G37*
G36*
X930910D02*
X930842D01*
X928258Y852084D01*
X925942Y850746D01*
X924050Y848855D01*
X922712Y846538D01*
X922020Y843954D01*
Y843886D01*
X930910D01*
Y852776D01*
D02*
G37*
G36*
X958918D02*
X956242D01*
X953658Y852084D01*
X951342Y850746D01*
X949450Y848855D01*
X948112Y846538D01*
X947420Y843954D01*
Y841279D01*
X948112Y838695D01*
X949450Y836378D01*
X951342Y834486D01*
X953658Y833149D01*
X956242Y832456D01*
X958918D01*
X961502Y833149D01*
X963818Y834486D01*
X965710Y836378D01*
X966449Y837659D01*
X1006178D01*
X1007330Y836506D01*
X1009197Y835428D01*
X1011280Y834870D01*
X1013437D01*
X1015520Y835428D01*
X1017387Y836506D01*
X1018912Y838031D01*
X1019990Y839899D01*
X1020549Y841982D01*
Y844138D01*
X1019990Y846221D01*
X1018912Y848089D01*
X1017387Y849614D01*
X1015520Y850692D01*
X1013437Y851250D01*
X1011280D01*
X1009197Y850692D01*
X1007330Y849614D01*
X1005805Y848089D01*
X1005764Y848018D01*
X966193D01*
X965710Y848855D01*
X963818Y850746D01*
X961502Y852084D01*
X958918Y852776D01*
D02*
G37*
G36*
X942340Y841346D02*
X933450D01*
Y832456D01*
X933518D01*
X936102Y833149D01*
X938418Y834486D01*
X940310Y836378D01*
X941648Y838695D01*
X942340Y841279D01*
Y841346D01*
D02*
G37*
G36*
X930910D02*
X922020D01*
Y841279D01*
X922712Y838695D01*
X924050Y836378D01*
X925942Y834486D01*
X928258Y833149D01*
X930842Y832456D01*
X930910D01*
Y841346D01*
D02*
G37*
G36*
X770958Y837741D02*
X770890D01*
Y828851D01*
X779780D01*
Y828919D01*
X779088Y831503D01*
X777750Y833819D01*
X775858Y835711D01*
X773542Y837049D01*
X770958Y837741D01*
D02*
G37*
G36*
X768350D02*
X768282D01*
X765698Y837049D01*
X763382Y835711D01*
X761490Y833819D01*
X760152Y831503D01*
X759460Y828919D01*
Y828851D01*
X768350D01*
Y837741D01*
D02*
G37*
G36*
X1159473Y845025D02*
X1157007D01*
X1154625Y844387D01*
X1152490Y843154D01*
X1150746Y841410D01*
X1149513Y839275D01*
X1148875Y836893D01*
Y834427D01*
X1149513Y832045D01*
X1150746Y829910D01*
X1152490Y828166D01*
X1154625Y826933D01*
X1157007Y826295D01*
X1159473D01*
X1161855Y826933D01*
X1163990Y828166D01*
X1165734Y829910D01*
X1166967Y832045D01*
X1167605Y834427D01*
Y836893D01*
X1166967Y839275D01*
X1165734Y841410D01*
X1163990Y843154D01*
X1161855Y844387D01*
X1159473Y845025D01*
D02*
G37*
G36*
X690298Y835704D02*
X688141D01*
X686058Y835146D01*
X684191Y834068D01*
X682666Y832543D01*
X681588Y830675D01*
X681029Y828593D01*
Y826436D01*
X681588Y824353D01*
X682666Y822486D01*
X684191Y820961D01*
X686058Y819882D01*
X688141Y819324D01*
X690298D01*
X692381Y819882D01*
X694248Y820961D01*
X695773Y822486D01*
X696851Y824353D01*
X697409Y826436D01*
Y828593D01*
X696851Y830675D01*
X695773Y832543D01*
X694248Y834068D01*
X692381Y835146D01*
X690298Y835704D01*
D02*
G37*
G36*
X1013629Y825799D02*
Y818930D01*
X1020497D01*
X1019990Y820821D01*
X1018912Y822689D01*
X1017387Y824214D01*
X1015520Y825292D01*
X1013629Y825799D01*
D02*
G37*
G36*
X1011089D02*
X1009197Y825292D01*
X1007330Y824214D01*
X1005805Y822689D01*
X1004727Y820821D01*
X1004220Y818930D01*
X1011089D01*
Y825799D01*
D02*
G37*
G36*
X779780Y826311D02*
X770890D01*
Y817421D01*
X770958D01*
X773542Y818113D01*
X775858Y819451D01*
X777750Y821343D01*
X779088Y823659D01*
X779780Y826243D01*
Y826311D01*
D02*
G37*
G36*
X768350D02*
X759460D01*
Y826243D01*
X760152Y823659D01*
X761490Y821343D01*
X763382Y819451D01*
X765698Y818113D01*
X768282Y817421D01*
X768350D01*
Y826311D01*
D02*
G37*
G36*
X1020497Y816390D02*
X1013629D01*
Y809521D01*
X1015520Y810028D01*
X1017387Y811106D01*
X1018912Y812631D01*
X1019990Y814499D01*
X1020497Y816390D01*
D02*
G37*
G36*
X1011089D02*
X1004220D01*
X1004727Y814499D01*
X1005805Y812631D01*
X1007330Y811106D01*
X1009197Y810028D01*
X1011089Y809521D01*
Y816390D01*
D02*
G37*
G36*
X690489Y810253D02*
Y803384D01*
X697358D01*
X696851Y805275D01*
X695773Y807143D01*
X694248Y808668D01*
X692381Y809746D01*
X690489Y810253D01*
D02*
G37*
G36*
X687949D02*
X686058Y809746D01*
X684191Y808668D01*
X682666Y807143D01*
X681588Y805275D01*
X681081Y803384D01*
X687949D01*
Y810253D01*
D02*
G37*
G36*
X1159473Y819625D02*
X1157007D01*
X1154625Y818987D01*
X1152490Y817754D01*
X1150746Y816010D01*
X1150417Y815440D01*
X1113439D01*
X1111457Y815045D01*
X1109777Y813923D01*
X1095443Y799589D01*
X1094920Y799892D01*
X1092837Y800450D01*
X1090680D01*
X1088597Y799892D01*
X1086730Y798814D01*
X1085205Y797289D01*
X1084127Y795421D01*
X1083568Y793338D01*
Y791182D01*
X1084127Y789099D01*
X1085205Y787231D01*
X1086730Y785706D01*
X1088597Y784628D01*
X1090680Y784070D01*
X1092837D01*
X1094920Y784628D01*
X1096787Y785706D01*
X1098312Y787231D01*
X1099294Y788932D01*
X1099721Y789217D01*
X1115584Y805080D01*
X1150417D01*
X1150746Y804510D01*
X1152490Y802766D01*
X1154625Y801533D01*
X1157007Y800895D01*
X1159473D01*
X1161855Y801533D01*
X1163990Y802766D01*
X1165734Y804510D01*
X1166967Y806645D01*
X1167605Y809027D01*
Y811493D01*
X1166967Y813875D01*
X1165734Y816010D01*
X1163990Y817754D01*
X1161855Y818987D01*
X1159473Y819625D01*
D02*
G37*
G36*
X697358Y800844D02*
X690489D01*
Y793976D01*
X692381Y794482D01*
X694248Y795561D01*
X695773Y797085D01*
X696851Y798953D01*
X697358Y800844D01*
D02*
G37*
G36*
X687949D02*
X681081D01*
X681588Y798953D01*
X682666Y797085D01*
X684191Y795561D01*
X686058Y794482D01*
X687949Y793976D01*
Y800844D01*
D02*
G37*
G36*
X933518Y802101D02*
X933450D01*
Y793211D01*
X942340D01*
Y793279D01*
X941648Y795863D01*
X940310Y798179D01*
X938418Y800071D01*
X936102Y801408D01*
X933518Y802101D01*
D02*
G37*
G36*
X930910D02*
X930842D01*
X928258Y801408D01*
X925942Y800071D01*
X924050Y798179D01*
X922712Y795863D01*
X922020Y793279D01*
Y793211D01*
X930910D01*
Y802101D01*
D02*
G37*
G36*
X958918D02*
X956242D01*
X953658Y801408D01*
X951342Y800071D01*
X949450Y798179D01*
X948112Y795863D01*
X947420Y793279D01*
Y790603D01*
X948112Y788019D01*
X949450Y785703D01*
X951342Y783811D01*
X953658Y782473D01*
X956242Y781781D01*
X958918D01*
X961502Y782473D01*
X963818Y783811D01*
X965710Y785703D01*
X966413Y786921D01*
X1006115D01*
X1007330Y785706D01*
X1009197Y784628D01*
X1011280Y784070D01*
X1013437D01*
X1015520Y784628D01*
X1017387Y785706D01*
X1018912Y787231D01*
X1019990Y789099D01*
X1020549Y791182D01*
Y793338D01*
X1019990Y795421D01*
X1018912Y797289D01*
X1017387Y798814D01*
X1015520Y799892D01*
X1013437Y800450D01*
X1011280D01*
X1009197Y799892D01*
X1007330Y798814D01*
X1005805Y797289D01*
X1005800Y797280D01*
X966229D01*
X965710Y798179D01*
X963818Y800071D01*
X961502Y801408D01*
X958918Y802101D01*
D02*
G37*
G36*
X313770Y799095D02*
X297690D01*
Y783015D01*
X313770D01*
Y799095D01*
D02*
G37*
G36*
X1365810Y798478D02*
X1349730D01*
Y782398D01*
X1365810D01*
Y798478D01*
D02*
G37*
G36*
X1240870Y798477D02*
X1224790D01*
Y782397D01*
X1240870D01*
Y798477D01*
D02*
G37*
G36*
X942340Y790671D02*
X933450D01*
Y781781D01*
X933518D01*
X936102Y782473D01*
X938418Y783811D01*
X940310Y785703D01*
X941648Y788019D01*
X942340Y790603D01*
Y790671D01*
D02*
G37*
G36*
X930910D02*
X922020D01*
Y790603D01*
X922712Y788019D01*
X924050Y785703D01*
X925942Y783811D01*
X928258Y782473D01*
X930842Y781781D01*
X930910D01*
Y790671D01*
D02*
G37*
G36*
X770776Y786761D02*
X770708D01*
Y777871D01*
X779598D01*
Y777939D01*
X778906Y780523D01*
X777568Y782840D01*
X775676Y784731D01*
X773360Y786069D01*
X770776Y786761D01*
D02*
G37*
G36*
X768168D02*
X768100D01*
X765516Y786069D01*
X763200Y784731D01*
X761308Y782840D01*
X759970Y780523D01*
X759278Y777939D01*
Y777871D01*
X768168D01*
Y786761D01*
D02*
G37*
G36*
X1159473Y794225D02*
X1157007D01*
X1154625Y793587D01*
X1152490Y792354D01*
X1150746Y790610D01*
X1149513Y788475D01*
X1148875Y786093D01*
Y783627D01*
X1149513Y781245D01*
X1150746Y779110D01*
X1152490Y777366D01*
X1154625Y776133D01*
X1157007Y775495D01*
X1159473D01*
X1161855Y776133D01*
X1163990Y777366D01*
X1165734Y779110D01*
X1166967Y781245D01*
X1167605Y783627D01*
Y786093D01*
X1166967Y788475D01*
X1165734Y790610D01*
X1163990Y792354D01*
X1161855Y793587D01*
X1159473Y794225D01*
D02*
G37*
G36*
X690298Y784904D02*
X688141D01*
X686058Y784346D01*
X684191Y783268D01*
X682666Y781743D01*
X681588Y779875D01*
X681029Y777792D01*
Y775636D01*
X681588Y773553D01*
X682666Y771685D01*
X684191Y770161D01*
X686058Y769082D01*
X688141Y768524D01*
X690298D01*
X692381Y769082D01*
X694248Y770161D01*
X695773Y771685D01*
X696851Y773553D01*
X697409Y775636D01*
Y777792D01*
X696851Y779875D01*
X695773Y781743D01*
X694248Y783268D01*
X692381Y784346D01*
X690298Y784904D01*
D02*
G37*
G36*
X610898D02*
X608741D01*
X606658Y784346D01*
X604791Y783268D01*
X603417Y781894D01*
X593834D01*
X591852Y781499D01*
X590172Y780377D01*
X544357Y734562D01*
X543862Y733820D01*
X542963D01*
X540581Y733182D01*
X538445Y731949D01*
X536702Y730206D01*
X535469Y728070D01*
X534831Y725688D01*
Y723222D01*
X535469Y720841D01*
X536702Y718705D01*
X538445Y716961D01*
X540581Y715728D01*
X542963Y715090D01*
X545428D01*
X547810Y715728D01*
X549946Y716961D01*
X551689Y718705D01*
X552922Y720841D01*
X553560Y723222D01*
Y725688D01*
X552922Y728070D01*
X552773Y728328D01*
X595980Y771535D01*
X603417D01*
X604791Y770161D01*
X606658Y769082D01*
X608741Y768524D01*
X610898D01*
X612981Y769082D01*
X614848Y770161D01*
X616373Y771685D01*
X617451Y773553D01*
X618009Y775636D01*
Y777792D01*
X617451Y779875D01*
X616373Y781743D01*
X614848Y783268D01*
X612981Y784346D01*
X610898Y784904D01*
D02*
G37*
G36*
X1013629Y774999D02*
Y768130D01*
X1020497D01*
X1019990Y770021D01*
X1018912Y771889D01*
X1017387Y773414D01*
X1015520Y774492D01*
X1013629Y774999D01*
D02*
G37*
G36*
X1011089D02*
X1009197Y774492D01*
X1007330Y773414D01*
X1005805Y771889D01*
X1004727Y770021D01*
X1004220Y768130D01*
X1011089D01*
Y774999D01*
D02*
G37*
G36*
X779598Y775331D02*
X770708D01*
Y766441D01*
X770776D01*
X773360Y767133D01*
X775676Y768471D01*
X777568Y770363D01*
X778906Y772680D01*
X779598Y775264D01*
Y775331D01*
D02*
G37*
G36*
X768168D02*
X759278D01*
Y775264D01*
X759970Y772680D01*
X761308Y770363D01*
X763200Y768471D01*
X765516Y767133D01*
X768100Y766441D01*
X768168D01*
Y775331D01*
D02*
G37*
G36*
X1159473Y768825D02*
X1157007D01*
X1154625Y768187D01*
X1152490Y766954D01*
X1150746Y765210D01*
X1150417Y764640D01*
X1115939D01*
X1115939Y764640D01*
X1113957Y764245D01*
X1112276Y763122D01*
X1096977Y747823D01*
X1096787Y748014D01*
X1094920Y749092D01*
X1092837Y749650D01*
X1090680D01*
X1088597Y749092D01*
X1086730Y748014D01*
X1085205Y746489D01*
X1084127Y744621D01*
X1083568Y742538D01*
Y740382D01*
X1084127Y738299D01*
X1085205Y736431D01*
X1086730Y734906D01*
X1088597Y733828D01*
X1090680Y733270D01*
X1092837D01*
X1094920Y733828D01*
X1095949Y734422D01*
X1096059Y734400D01*
X1098041Y734795D01*
X1099721Y735918D01*
X1118084Y754280D01*
X1150417D01*
X1150746Y753710D01*
X1152490Y751966D01*
X1154625Y750733D01*
X1157007Y750095D01*
X1159473D01*
X1161855Y750733D01*
X1163990Y751966D01*
X1165734Y753710D01*
X1166967Y755845D01*
X1167605Y758227D01*
Y760693D01*
X1166967Y763075D01*
X1165734Y765210D01*
X1163990Y766954D01*
X1161855Y768187D01*
X1159473Y768825D01*
D02*
G37*
G36*
X1020497Y765590D02*
X1013629D01*
Y758721D01*
X1015520Y759228D01*
X1017387Y760306D01*
X1018912Y761831D01*
X1019990Y763699D01*
X1020497Y765590D01*
D02*
G37*
G36*
X1011089D02*
X1004220D01*
X1004727Y763699D01*
X1005805Y761831D01*
X1007330Y760306D01*
X1009197Y759228D01*
X1011089Y758721D01*
Y765590D01*
D02*
G37*
G36*
X690489Y759453D02*
Y752584D01*
X697358D01*
X696851Y754475D01*
X695773Y756343D01*
X694248Y757868D01*
X692381Y758946D01*
X690489Y759453D01*
D02*
G37*
G36*
X687949D02*
X686058Y758946D01*
X684191Y757868D01*
X682666Y756343D01*
X681588Y754475D01*
X681081Y752584D01*
X687949D01*
Y759453D01*
D02*
G37*
G36*
X482728Y753325D02*
X480611D01*
X478567Y752777D01*
X476733Y751719D01*
X475479Y750465D01*
X436861D01*
X435607Y751719D01*
X433773Y752777D01*
X431729Y753325D01*
X429612D01*
X427567Y752777D01*
X425733Y751719D01*
X424237Y750222D01*
X423178Y748389D01*
X422630Y746344D01*
Y744227D01*
X423178Y742182D01*
X424237Y740349D01*
X425733Y738852D01*
X427567Y737793D01*
X429612Y737245D01*
X431729D01*
X433773Y737793D01*
X435607Y738852D01*
X436861Y740106D01*
X475479D01*
X476733Y738852D01*
X478567Y737793D01*
X480611Y737245D01*
X482728D01*
X484773Y737793D01*
X486606Y738852D01*
X488103Y740349D01*
X489162Y742182D01*
X489710Y744227D01*
Y746344D01*
X489162Y748389D01*
X488103Y750222D01*
X486606Y751719D01*
X484773Y752777D01*
X482728Y753325D01*
D02*
G37*
G36*
X357788D02*
X355671D01*
X353627Y752777D01*
X351793Y751719D01*
X350539Y750465D01*
X311921D01*
X310667Y751719D01*
X308834Y752777D01*
X306789Y753325D01*
X304672D01*
X302627Y752777D01*
X300793Y751719D01*
X299297Y750222D01*
X298238Y748389D01*
X297690Y746344D01*
Y744227D01*
X298238Y742182D01*
X299297Y740349D01*
X300793Y738852D01*
X302627Y737793D01*
X304672Y737245D01*
X306789D01*
X308834Y737793D01*
X310667Y738852D01*
X311921Y740106D01*
X350539D01*
X351793Y738852D01*
X353627Y737793D01*
X355671Y737245D01*
X357788D01*
X359833Y737793D01*
X361666Y738852D01*
X363163Y740349D01*
X364222Y742182D01*
X364770Y744227D01*
Y746344D01*
X364222Y748389D01*
X363163Y750222D01*
X361666Y751719D01*
X359833Y752777D01*
X357788Y753325D01*
D02*
G37*
G36*
X1409828Y751015D02*
X1407711D01*
X1405667Y750467D01*
X1403833Y749408D01*
X1402579Y748154D01*
X1363961D01*
X1362707Y749408D01*
X1360874Y750467D01*
X1358829Y751015D01*
X1356712D01*
X1354667Y750467D01*
X1352834Y749408D01*
X1351337Y747912D01*
X1350278Y746078D01*
X1349730Y744033D01*
Y741916D01*
X1350278Y739872D01*
X1351337Y738038D01*
X1352834Y736541D01*
X1354667Y735483D01*
X1356712Y734935D01*
X1358829D01*
X1360874Y735483D01*
X1362707Y736541D01*
X1363961Y737795D01*
X1402579D01*
X1403833Y736541D01*
X1405667Y735483D01*
X1407711Y734935D01*
X1409828D01*
X1411873Y735483D01*
X1413707Y736541D01*
X1415203Y738038D01*
X1416262Y739872D01*
X1416810Y741916D01*
Y744033D01*
X1416262Y746078D01*
X1415203Y747912D01*
X1413707Y749408D01*
X1411873Y750467D01*
X1409828Y751015D01*
D02*
G37*
G36*
X1284889D02*
X1282772D01*
X1280727Y750467D01*
X1278894Y749408D01*
X1277640Y748154D01*
X1239021D01*
X1237767Y749408D01*
X1235934Y750467D01*
X1233889Y751015D01*
X1231772D01*
X1229727Y750467D01*
X1227894Y749408D01*
X1226397Y747912D01*
X1225338Y746078D01*
X1224790Y744033D01*
Y741916D01*
X1225338Y739872D01*
X1226397Y738038D01*
X1227894Y736541D01*
X1229727Y735483D01*
X1231772Y734935D01*
X1233889D01*
X1235934Y735483D01*
X1237767Y736541D01*
X1239021Y737795D01*
X1277640D01*
X1278894Y736541D01*
X1280727Y735483D01*
X1282772Y734935D01*
X1284889D01*
X1286934Y735483D01*
X1288767Y736541D01*
X1290264Y738038D01*
X1291322Y739872D01*
X1291870Y741916D01*
Y744033D01*
X1291322Y746078D01*
X1290264Y747912D01*
X1288767Y749408D01*
X1286934Y750467D01*
X1284889Y751015D01*
D02*
G37*
G36*
X697358Y750044D02*
X690489D01*
Y743176D01*
X692381Y743682D01*
X694248Y744761D01*
X695773Y746285D01*
X696851Y748153D01*
X697358Y750044D01*
D02*
G37*
G36*
X687949D02*
X681081D01*
X681588Y748153D01*
X682666Y746285D01*
X684191Y744761D01*
X686058Y743682D01*
X687949Y743176D01*
Y750044D01*
D02*
G37*
G36*
X933518Y751679D02*
X933450D01*
Y742789D01*
X942340D01*
Y742856D01*
X941648Y745440D01*
X940310Y747757D01*
X938418Y749649D01*
X936102Y750986D01*
X933518Y751679D01*
D02*
G37*
G36*
X930910D02*
X930842D01*
X928258Y750986D01*
X925942Y749649D01*
X924050Y747757D01*
X922712Y745440D01*
X922020Y742856D01*
Y742789D01*
X930910D01*
Y751679D01*
D02*
G37*
G36*
X438710Y799095D02*
X422630D01*
Y783015D01*
X430470D01*
X446451Y767033D01*
X448342Y765770D01*
X450572Y765327D01*
X520484D01*
X534831Y750980D01*
Y748622D01*
X535469Y746240D01*
X536702Y744105D01*
X538445Y742361D01*
X540581Y741128D01*
X542963Y740490D01*
X545428D01*
X547810Y741128D01*
X549946Y742361D01*
X551689Y744105D01*
X552922Y746240D01*
X553560Y748622D01*
Y751088D01*
X552922Y753470D01*
X551689Y755605D01*
X549946Y757349D01*
X547810Y758582D01*
X545428Y759220D01*
X543071D01*
X527017Y775274D01*
X525127Y776537D01*
X522897Y776981D01*
X452985D01*
X438710Y791256D01*
Y799095D01*
D02*
G37*
G36*
X958918Y751679D02*
X956242D01*
X953658Y750986D01*
X951342Y749649D01*
X949450Y747757D01*
X948112Y745440D01*
X947420Y742856D01*
Y740181D01*
X948112Y737597D01*
X949450Y735280D01*
X951342Y733389D01*
X953658Y732051D01*
X956242Y731359D01*
X958918D01*
X961502Y732051D01*
X963818Y733389D01*
X965710Y735280D01*
X966304Y736310D01*
X1005926D01*
X1007330Y734906D01*
X1009197Y733828D01*
X1011280Y733270D01*
X1013437D01*
X1015520Y733828D01*
X1017387Y734906D01*
X1018912Y736431D01*
X1019990Y738299D01*
X1020549Y740382D01*
Y742538D01*
X1019990Y744621D01*
X1018912Y746489D01*
X1017387Y748014D01*
X1015520Y749092D01*
X1013437Y749650D01*
X1011280D01*
X1009197Y749092D01*
X1007330Y748014D01*
X1005985Y746669D01*
X966338D01*
X965710Y747757D01*
X963818Y749649D01*
X961502Y750986D01*
X958918Y751679D01*
D02*
G37*
G36*
X942340Y740249D02*
X933450D01*
Y731359D01*
X933518D01*
X936102Y732051D01*
X938418Y733389D01*
X940310Y735280D01*
X941648Y737597D01*
X942340Y740181D01*
Y740249D01*
D02*
G37*
G36*
X930910D02*
X922020D01*
Y740181D01*
X922712Y737597D01*
X924050Y735280D01*
X925942Y733389D01*
X928258Y732051D01*
X930842Y731359D01*
X930910D01*
Y740249D01*
D02*
G37*
G36*
X770958Y735781D02*
X770890D01*
Y726891D01*
X779780D01*
Y726959D01*
X779088Y729543D01*
X777750Y731860D01*
X775858Y733752D01*
X773542Y735089D01*
X770958Y735781D01*
D02*
G37*
G36*
X768350D02*
X768282D01*
X765698Y735089D01*
X763382Y733752D01*
X761490Y731860D01*
X760152Y729543D01*
X759460Y726959D01*
Y726891D01*
X768350D01*
Y735781D01*
D02*
G37*
G36*
X1159473Y743425D02*
X1157007D01*
X1154625Y742787D01*
X1152490Y741554D01*
X1150746Y739810D01*
X1149513Y737675D01*
X1148875Y735293D01*
Y732827D01*
X1149513Y730445D01*
X1150746Y728310D01*
X1152490Y726566D01*
X1154625Y725333D01*
X1157007Y724695D01*
X1159473D01*
X1161855Y725333D01*
X1163990Y726566D01*
X1165734Y728310D01*
X1166967Y730445D01*
X1167605Y732827D01*
Y735293D01*
X1166967Y737675D01*
X1165734Y739810D01*
X1163990Y741554D01*
X1161855Y742787D01*
X1159473Y743425D01*
D02*
G37*
G36*
X690298Y734104D02*
X688141D01*
X686058Y733546D01*
X684191Y732468D01*
X682666Y730943D01*
X681588Y729075D01*
X681029Y726992D01*
Y724836D01*
X681588Y722753D01*
X682666Y720885D01*
X684191Y719361D01*
X686058Y718282D01*
X688141Y717724D01*
X690298D01*
X692381Y718282D01*
X694248Y719361D01*
X695773Y720885D01*
X696851Y722753D01*
X697409Y724836D01*
Y726992D01*
X696851Y729075D01*
X695773Y730943D01*
X694248Y732468D01*
X692381Y733546D01*
X690298Y734104D01*
D02*
G37*
G36*
X610898D02*
X608741D01*
X606658Y733546D01*
X604791Y732468D01*
X603417Y731094D01*
X594157D01*
X592175Y730699D01*
X590495Y729577D01*
X543938Y683020D01*
X542963D01*
X540581Y682382D01*
X538445Y681149D01*
X536702Y679406D01*
X535469Y677270D01*
X534831Y674888D01*
Y672422D01*
X535469Y670041D01*
X536702Y667905D01*
X538445Y666161D01*
X540581Y664928D01*
X542963Y664290D01*
X545428D01*
X547810Y664928D01*
X549946Y666161D01*
X551689Y667905D01*
X552922Y670041D01*
X553560Y672422D01*
Y674888D01*
X552922Y677270D01*
X552891Y677324D01*
X596302Y720735D01*
X603417D01*
X604791Y719361D01*
X606658Y718282D01*
X608741Y717724D01*
X610898D01*
X612981Y718282D01*
X614848Y719361D01*
X616373Y720885D01*
X617451Y722753D01*
X618009Y724836D01*
Y726992D01*
X617451Y729075D01*
X616373Y730943D01*
X614848Y732468D01*
X612981Y733546D01*
X610898Y734104D01*
D02*
G37*
G36*
X1013629Y724199D02*
Y717330D01*
X1020497D01*
X1019990Y719221D01*
X1018912Y721089D01*
X1017387Y722614D01*
X1015520Y723692D01*
X1013629Y724199D01*
D02*
G37*
G36*
X1011089D02*
X1009197Y723692D01*
X1007330Y722614D01*
X1005805Y721089D01*
X1004727Y719221D01*
X1004220Y717330D01*
X1011089D01*
Y724199D01*
D02*
G37*
G36*
X779780Y724352D02*
X770890D01*
Y715462D01*
X770958D01*
X773542Y716154D01*
X775858Y717492D01*
X777750Y719383D01*
X779088Y721700D01*
X779780Y724284D01*
Y724352D01*
D02*
G37*
G36*
X768350D02*
X759460D01*
Y724284D01*
X760152Y721700D01*
X761490Y719383D01*
X763382Y717492D01*
X765698Y716154D01*
X768282Y715462D01*
X768350D01*
Y724352D01*
D02*
G37*
G36*
X1159473Y718025D02*
X1157007D01*
X1154625Y717387D01*
X1152490Y716154D01*
X1150746Y714410D01*
X1150417Y713839D01*
X1118439D01*
X1118439Y713839D01*
X1116457Y713445D01*
X1114776Y712322D01*
X1114776Y712322D01*
X1100907Y698453D01*
X1099949Y698850D01*
Y698850D01*
X1083568D01*
Y682470D01*
X1092617D01*
X1094077Y681495D01*
X1096059Y681100D01*
X1098041Y681495D01*
X1099500Y682470D01*
X1099949D01*
Y682845D01*
X1120584Y703481D01*
X1150417D01*
X1150746Y702910D01*
X1152490Y701166D01*
X1154625Y699933D01*
X1157007Y699295D01*
X1159473D01*
X1161855Y699933D01*
X1163990Y701166D01*
X1165734Y702910D01*
X1166967Y705045D01*
X1167605Y707427D01*
Y709893D01*
X1166967Y712275D01*
X1165734Y714410D01*
X1163990Y716154D01*
X1161855Y717387D01*
X1159473Y718025D01*
D02*
G37*
G36*
X1020497Y714790D02*
X1013629D01*
Y707921D01*
X1015520Y708428D01*
X1017387Y709506D01*
X1018912Y711031D01*
X1019990Y712899D01*
X1020497Y714790D01*
D02*
G37*
G36*
X1011089D02*
X1004220D01*
X1004727Y712899D01*
X1005805Y711031D01*
X1007330Y709506D01*
X1009197Y708428D01*
X1011089Y707921D01*
Y714790D01*
D02*
G37*
G36*
X690489Y708653D02*
Y701784D01*
X697358D01*
X696851Y703675D01*
X695773Y705543D01*
X694248Y707068D01*
X692381Y708146D01*
X690489Y708653D01*
D02*
G37*
G36*
X687949D02*
X686058Y708146D01*
X684191Y707068D01*
X682666Y705543D01*
X681588Y703675D01*
X681081Y701784D01*
X687949D01*
Y708653D01*
D02*
G37*
G36*
X697358Y699244D02*
X690489D01*
Y692376D01*
X692381Y692882D01*
X694248Y693961D01*
X695773Y695486D01*
X696851Y697353D01*
X697358Y699244D01*
D02*
G37*
G36*
X687949D02*
X681081D01*
X681588Y697353D01*
X682666Y695486D01*
X684191Y693961D01*
X686058Y692882D01*
X687949Y692376D01*
Y699244D01*
D02*
G37*
G36*
X933518Y700243D02*
X933450D01*
Y691353D01*
X942340D01*
Y691421D01*
X941648Y694005D01*
X940310Y696321D01*
X938418Y698213D01*
X936102Y699551D01*
X933518Y700243D01*
D02*
G37*
G36*
X930910D02*
X930842D01*
X928258Y699551D01*
X925942Y698213D01*
X924050Y696321D01*
X922712Y694005D01*
X922020Y691421D01*
Y691353D01*
X930910D01*
Y700243D01*
D02*
G37*
G36*
X958918D02*
X956242D01*
X953658Y699551D01*
X951342Y698213D01*
X949450Y696321D01*
X948112Y694005D01*
X947420Y691421D01*
Y688745D01*
X948112Y686161D01*
X949450Y683845D01*
X951342Y681953D01*
X953658Y680615D01*
X956242Y679923D01*
X958918D01*
X961502Y680615D01*
X963818Y681953D01*
X965710Y683845D01*
X966488Y685192D01*
X1006244D01*
X1007330Y684106D01*
X1009197Y683028D01*
X1011280Y682470D01*
X1013437D01*
X1015520Y683028D01*
X1017387Y684106D01*
X1018912Y685631D01*
X1019990Y687499D01*
X1020549Y689582D01*
Y691738D01*
X1019990Y693821D01*
X1018912Y695689D01*
X1017387Y697214D01*
X1015520Y698292D01*
X1013437Y698850D01*
X1011280D01*
X1009197Y698292D01*
X1007330Y697214D01*
X1005805Y695689D01*
X1005725Y695551D01*
X966155D01*
X965710Y696321D01*
X963818Y698213D01*
X961502Y699551D01*
X958918Y700243D01*
D02*
G37*
G36*
X942340Y688813D02*
X933450D01*
Y679923D01*
X933518D01*
X936102Y680615D01*
X938418Y681953D01*
X940310Y683845D01*
X941648Y686161D01*
X942340Y688745D01*
Y688813D01*
D02*
G37*
G36*
X930910D02*
X922020D01*
Y688745D01*
X922712Y686161D01*
X924050Y683845D01*
X925942Y681953D01*
X928258Y680615D01*
X930842Y679923D01*
X930910D01*
Y688813D01*
D02*
G37*
G36*
X1159473Y692625D02*
X1157007D01*
X1154625Y691987D01*
X1152490Y690754D01*
X1150746Y689010D01*
X1149513Y686875D01*
X1148875Y684493D01*
Y682027D01*
X1149513Y679645D01*
X1150746Y677510D01*
X1152490Y675766D01*
X1154625Y674533D01*
X1157007Y673895D01*
X1159473D01*
X1161855Y674533D01*
X1163990Y675766D01*
X1165734Y677510D01*
X1166967Y679645D01*
X1167605Y682027D01*
Y684493D01*
X1166967Y686875D01*
X1165734Y689010D01*
X1163990Y690754D01*
X1161855Y691987D01*
X1159473Y692625D01*
D02*
G37*
G36*
X313770Y670825D02*
X297690D01*
Y654745D01*
X313770D01*
Y670825D01*
D02*
G37*
G36*
X1365810Y668515D02*
X1349730D01*
Y652435D01*
X1365810D01*
Y668515D01*
D02*
G37*
G36*
X1240870D02*
X1224790D01*
Y652435D01*
X1240870D01*
Y668515D01*
D02*
G37*
G36*
X545428Y708420D02*
X542963D01*
X540581Y707782D01*
X538445Y706549D01*
X536702Y704806D01*
X535469Y702670D01*
X534831Y700288D01*
Y697931D01*
X487887Y650987D01*
X450709D01*
X438710Y662986D01*
Y670825D01*
X422630D01*
Y654745D01*
X430470D01*
X444175Y641040D01*
X446065Y639777D01*
X448295Y639333D01*
X490300D01*
X492530Y639777D01*
X494421Y641040D01*
X543071Y689690D01*
X545428D01*
X547810Y690328D01*
X549946Y691561D01*
X551689Y693305D01*
X552922Y695441D01*
X553560Y697822D01*
Y700288D01*
X552922Y702670D01*
X551689Y704806D01*
X549946Y706549D01*
X547810Y707782D01*
X545428Y708420D01*
D02*
G37*
G36*
X1422080Y629600D02*
X1421130D01*
Y608330D01*
X1442400D01*
Y609280D01*
X1441534Y613635D01*
X1439835Y617737D01*
X1437368Y621428D01*
X1434228Y624568D01*
X1430537Y627035D01*
X1426435Y628734D01*
X1422080Y629600D01*
D02*
G37*
G36*
X1418590D02*
X1417640D01*
X1413285Y628734D01*
X1409183Y627035D01*
X1405492Y624568D01*
X1402352Y621428D01*
X1399885Y617737D01*
X1398186Y613635D01*
X1397320Y609280D01*
Y608330D01*
X1418590D01*
Y629600D01*
D02*
G37*
G36*
X309560D02*
X308610D01*
Y608330D01*
X329880D01*
Y609280D01*
X329014Y613635D01*
X327315Y617737D01*
X324848Y621428D01*
X321708Y624568D01*
X318017Y627035D01*
X313915Y628734D01*
X309560Y629600D01*
D02*
G37*
G36*
X306070D02*
X305120D01*
X300765Y628734D01*
X296663Y627035D01*
X292972Y624568D01*
X289832Y621428D01*
X287365Y617737D01*
X285666Y613635D01*
X284800Y609280D01*
Y608330D01*
X306070D01*
Y629600D01*
D02*
G37*
G36*
X1098534Y621665D02*
X1096026D01*
X1093604Y621016D01*
X1091432Y619762D01*
X1089658Y617989D01*
X1088404Y615816D01*
X1087755Y613394D01*
Y610886D01*
X1088404Y608464D01*
X1089658Y606292D01*
X1091432Y604518D01*
X1093604Y603264D01*
X1096026Y602615D01*
X1098534D01*
X1100956Y603264D01*
X1103129Y604518D01*
X1104902Y606292D01*
X1106156Y608464D01*
X1106805Y610886D01*
Y613394D01*
X1106156Y615816D01*
X1104902Y617989D01*
X1103129Y619762D01*
X1100956Y621016D01*
X1098534Y621665D01*
D02*
G37*
G36*
X1073134D02*
X1070626D01*
X1068204Y621016D01*
X1066031Y619762D01*
X1064258Y617989D01*
X1063004Y615816D01*
X1062355Y613394D01*
Y610886D01*
X1063004Y608464D01*
X1064258Y606292D01*
X1066031Y604518D01*
X1068204Y603264D01*
X1070626Y602615D01*
X1073134D01*
X1075556Y603264D01*
X1077729Y604518D01*
X1079502Y606292D01*
X1080756Y608464D01*
X1081405Y610886D01*
Y613394D01*
X1080756Y615816D01*
X1079502Y617989D01*
X1077729Y619762D01*
X1075556Y621016D01*
X1073134Y621665D01*
D02*
G37*
G36*
X1047734D02*
X1045226D01*
X1042803Y621016D01*
X1040631Y619762D01*
X1038858Y617989D01*
X1037604Y615816D01*
X1036955Y613394D01*
Y610886D01*
X1037604Y608464D01*
X1038858Y606292D01*
X1040631Y604518D01*
X1042803Y603264D01*
X1045226Y602615D01*
X1047734D01*
X1050156Y603264D01*
X1052328Y604518D01*
X1054102Y606292D01*
X1055356Y608464D01*
X1056005Y610886D01*
Y613394D01*
X1055356Y615816D01*
X1054102Y617989D01*
X1052328Y619762D01*
X1050156Y621016D01*
X1047734Y621665D01*
D02*
G37*
G36*
X1022334D02*
X1019826D01*
X1017403Y621016D01*
X1015231Y619762D01*
X1013458Y617989D01*
X1012204Y615816D01*
X1011555Y613394D01*
Y610886D01*
X1012204Y608464D01*
X1013458Y606292D01*
X1015231Y604518D01*
X1017403Y603264D01*
X1019826Y602615D01*
X1022334D01*
X1024756Y603264D01*
X1026928Y604518D01*
X1028702Y606292D01*
X1029956Y608464D01*
X1030605Y610886D01*
Y613394D01*
X1029956Y615816D01*
X1028702Y617989D01*
X1026928Y619762D01*
X1024756Y621016D01*
X1022334Y621665D01*
D02*
G37*
G36*
X996934D02*
X994426D01*
X992003Y621016D01*
X989831Y619762D01*
X988058Y617989D01*
X986804Y615816D01*
X986155Y613394D01*
Y610886D01*
X986804Y608464D01*
X988058Y606292D01*
X989831Y604518D01*
X992003Y603264D01*
X994426Y602615D01*
X996934D01*
X999357Y603264D01*
X1001528Y604518D01*
X1003302Y606292D01*
X1004556Y608464D01*
X1005205Y610886D01*
Y613394D01*
X1004556Y615816D01*
X1003302Y617989D01*
X1001528Y619762D01*
X999357Y621016D01*
X996934Y621665D01*
D02*
G37*
G36*
X971534D02*
X969026D01*
X966603Y621016D01*
X964432Y619762D01*
X962658Y617989D01*
X961404Y615816D01*
X960755Y613394D01*
Y610886D01*
X961404Y608464D01*
X962658Y606292D01*
X964432Y604518D01*
X966603Y603264D01*
X969026Y602615D01*
X971534D01*
X973957Y603264D01*
X976128Y604518D01*
X977902Y606292D01*
X979156Y608464D01*
X979805Y610886D01*
Y613394D01*
X979156Y615816D01*
X977902Y617989D01*
X976128Y619762D01*
X973957Y621016D01*
X971534Y621665D01*
D02*
G37*
G36*
X920734D02*
X918226D01*
X915804Y621016D01*
X913632Y619762D01*
X911858Y617989D01*
X910604Y615816D01*
X909955Y613394D01*
Y610886D01*
X910604Y608464D01*
X911858Y606292D01*
X913632Y604518D01*
X915804Y603264D01*
X918226Y602615D01*
X920734D01*
X923157Y603264D01*
X925329Y604518D01*
X927102Y606292D01*
X928356Y608464D01*
X929005Y610886D01*
Y613394D01*
X928356Y615816D01*
X927102Y617989D01*
X925329Y619762D01*
X923157Y621016D01*
X920734Y621665D01*
D02*
G37*
G36*
X758174D02*
X755666D01*
X753243Y621016D01*
X751071Y619762D01*
X749298Y617989D01*
X748044Y615816D01*
X747395Y613394D01*
Y610886D01*
X748044Y608464D01*
X749298Y606292D01*
X751071Y604518D01*
X753243Y603264D01*
X755666Y602615D01*
X758174D01*
X760596Y603264D01*
X762768Y604518D01*
X764542Y606292D01*
X765796Y608464D01*
X766445Y610886D01*
Y613394D01*
X765796Y615816D01*
X764542Y617989D01*
X762768Y619762D01*
X760596Y621016D01*
X758174Y621665D01*
D02*
G37*
G36*
X656574D02*
X654066D01*
X651644Y621016D01*
X649472Y619762D01*
X647698Y617989D01*
X646444Y615816D01*
X645795Y613394D01*
Y610886D01*
X645995Y610140D01*
X635684Y599828D01*
X634561Y598148D01*
X634166Y596166D01*
Y491253D01*
X625541Y482628D01*
X623598D01*
X621515Y482070D01*
X619647Y480992D01*
X618122Y479467D01*
X617044Y477599D01*
X616486Y475516D01*
Y473360D01*
X617044Y471277D01*
X618122Y469409D01*
X619647Y467884D01*
X621515Y466806D01*
X623598Y466248D01*
X625754D01*
X627837Y466806D01*
X629705Y467884D01*
X631230Y469409D01*
X632308Y471277D01*
X632866Y473360D01*
Y475303D01*
X643008Y485446D01*
X644131Y487126D01*
X644526Y489108D01*
Y546119D01*
X645796Y546852D01*
X646915Y546206D01*
X648998Y545648D01*
X651154D01*
X653237Y546206D01*
X655105Y547284D01*
X656629Y548809D01*
X657708Y550677D01*
X658266Y552760D01*
Y554916D01*
X657708Y556999D01*
X656629Y558867D01*
X655105Y560392D01*
X653237Y561470D01*
X651154Y562028D01*
X648998D01*
X646915Y561470D01*
X645796Y560824D01*
X644526Y561557D01*
Y594021D01*
X653320Y602815D01*
X654066Y602615D01*
X656574D01*
X658997Y603264D01*
X661169Y604518D01*
X662942Y606292D01*
X664196Y608464D01*
X664845Y610886D01*
Y613394D01*
X664196Y615816D01*
X662942Y617989D01*
X661169Y619762D01*
X658997Y621016D01*
X656574Y621665D01*
D02*
G37*
G36*
X631174D02*
X628666D01*
X626244Y621016D01*
X624072Y619762D01*
X622298Y617989D01*
X621044Y615816D01*
X620395Y613394D01*
Y610886D01*
X620595Y610140D01*
X583078Y572622D01*
X581955Y570942D01*
X581561Y568960D01*
Y559448D01*
X580877Y559096D01*
X580290Y559006D01*
X579055Y560241D01*
Y579351D01*
X602520Y602815D01*
X603266Y602615D01*
X605774D01*
X608196Y603264D01*
X610368Y604518D01*
X612142Y606292D01*
X613396Y608464D01*
X614045Y610886D01*
Y613394D01*
X613396Y615816D01*
X612142Y617989D01*
X610368Y619762D01*
X608196Y621016D01*
X605774Y621665D01*
X603266D01*
X600844Y621016D01*
X598671Y619762D01*
X596898Y617989D01*
X595644Y615816D01*
X594995Y613394D01*
Y610886D01*
X595195Y610140D01*
X570213Y585158D01*
X569091Y583478D01*
X568696Y581496D01*
Y560241D01*
X567322Y558867D01*
X566244Y556999D01*
X565686Y554916D01*
Y552760D01*
X566244Y550677D01*
X567322Y548809D01*
X568847Y547284D01*
X570715Y546206D01*
X572798Y545648D01*
X574954D01*
X577037Y546206D01*
X578905Y547284D01*
X580290Y548670D01*
X580877Y548579D01*
X581561Y548228D01*
Y489448D01*
X574741Y482628D01*
X565686D01*
Y466248D01*
X582066D01*
Y475303D01*
X590402Y483640D01*
X591525Y485320D01*
X591920Y487302D01*
X591920Y487302D01*
Y547816D01*
X593190Y548342D01*
X594247Y547284D01*
X596115Y546206D01*
X598198Y545648D01*
X600354D01*
X602437Y546206D01*
X604305Y547284D01*
X605830Y548809D01*
X606908Y550677D01*
X607466Y552760D01*
Y554916D01*
X606908Y556999D01*
X605830Y558867D01*
X604305Y560392D01*
X602437Y561470D01*
X600354Y562028D01*
X598198D01*
X596115Y561470D01*
X594247Y560392D01*
X593190Y559334D01*
X591920Y559860D01*
Y566815D01*
X627920Y602815D01*
X628666Y602615D01*
X631174D01*
X633596Y603264D01*
X635769Y604518D01*
X637542Y606292D01*
X638796Y608464D01*
X639445Y610886D01*
Y613394D01*
X638796Y615816D01*
X637542Y617989D01*
X635769Y619762D01*
X633596Y621016D01*
X631174Y621665D01*
D02*
G37*
G36*
X1362454Y615600D02*
X1360206D01*
X1358033Y615018D01*
X1356086Y613894D01*
X1354496Y612304D01*
X1353372Y610356D01*
X1352790Y608184D01*
Y605936D01*
X1353372Y603764D01*
X1354496Y601816D01*
X1356086Y600226D01*
X1358033Y599102D01*
X1360206Y598520D01*
X1362454D01*
X1364626Y599102D01*
X1366573Y600226D01*
X1368163Y601816D01*
X1369288Y603764D01*
X1369870Y605936D01*
Y608184D01*
X1369288Y610356D01*
X1368163Y612304D01*
X1366573Y613894D01*
X1364626Y615018D01*
X1362454Y615600D01*
D02*
G37*
G36*
X1228870D02*
X1211790D01*
Y598520D01*
X1228870D01*
Y615600D01*
D02*
G37*
G36*
X1442400Y605790D02*
X1421130D01*
Y584520D01*
X1422080D01*
X1426435Y585386D01*
X1430537Y587085D01*
X1434228Y589552D01*
X1437368Y592692D01*
X1439835Y596383D01*
X1441534Y600485D01*
X1442400Y604840D01*
Y605790D01*
D02*
G37*
G36*
X1418590D02*
X1397320D01*
Y604840D01*
X1398186Y600485D01*
X1399885Y596383D01*
X1402352Y592692D01*
X1405492Y589552D01*
X1409183Y587085D01*
X1413285Y585386D01*
X1417640Y584520D01*
X1418590D01*
Y605790D01*
D02*
G37*
G36*
X329880D02*
X308610D01*
Y584520D01*
X309560D01*
X313915Y585386D01*
X318017Y587085D01*
X321708Y589552D01*
X324848Y592692D01*
X327315Y596383D01*
X329014Y600485D01*
X329880Y604840D01*
Y605790D01*
D02*
G37*
G36*
X306070D02*
X284800D01*
Y604840D01*
X285666Y600485D01*
X287365Y596383D01*
X289832Y592692D01*
X292972Y589552D01*
X296663Y587085D01*
X300765Y585386D01*
X305120Y584520D01*
X306070D01*
Y605790D01*
D02*
G37*
G36*
X808974Y621665D02*
X806466D01*
X804044Y621016D01*
X801871Y619762D01*
X800098Y617989D01*
X798844Y615816D01*
X798195Y613394D01*
Y610886D01*
X798844Y608464D01*
X800098Y606292D01*
X801871Y604518D01*
X804044Y603264D01*
X806466Y602615D01*
X808974D01*
X809720Y602815D01*
X817415Y595120D01*
Y561240D01*
X816145Y560647D01*
X814720Y561470D01*
X812637Y562028D01*
X810480D01*
X808397Y561470D01*
X806530Y560392D01*
X805005Y558867D01*
X803927Y556999D01*
X803368Y554916D01*
Y552760D01*
X803927Y550677D01*
X805005Y548809D01*
X806530Y547284D01*
X808397Y546206D01*
X810480Y545648D01*
X812637D01*
X814720Y546206D01*
X816145Y547029D01*
X817415Y546436D01*
Y488802D01*
X817810Y486819D01*
X818932Y485139D01*
X828768Y475303D01*
Y473360D01*
X829327Y471277D01*
X830405Y469409D01*
X831930Y467884D01*
X833797Y466806D01*
X835880Y466248D01*
X838037D01*
X840120Y466806D01*
X841987Y467884D01*
X843512Y469409D01*
X844590Y471277D01*
X845148Y473360D01*
Y475516D01*
X844590Y477599D01*
X843512Y479467D01*
X841987Y480992D01*
X840120Y482070D01*
X838037Y482628D01*
X836093D01*
X827774Y490947D01*
Y551563D01*
X829044Y551730D01*
X829327Y550677D01*
X830405Y548809D01*
X831930Y547284D01*
X833797Y546206D01*
X835880Y545648D01*
X838037D01*
X840120Y546206D01*
X841987Y547284D01*
X843512Y548809D01*
X844590Y550677D01*
X845148Y552760D01*
Y554916D01*
X844590Y556999D01*
X843512Y558867D01*
X841987Y560392D01*
X840120Y561470D01*
X838037Y562028D01*
X835880D01*
X833797Y561470D01*
X831930Y560392D01*
X830405Y558867D01*
X829327Y556999D01*
X829044Y555945D01*
X827774Y556113D01*
Y597265D01*
X827380Y599247D01*
X826257Y600928D01*
X817045Y610140D01*
X817245Y610886D01*
Y613394D01*
X816596Y615816D01*
X815342Y617989D01*
X813568Y619762D01*
X811396Y621016D01*
X808974Y621665D01*
D02*
G37*
G36*
X977900Y650340D02*
X975918Y649945D01*
X974238Y648822D01*
X946880Y621465D01*
X946134Y621665D01*
X943626D01*
X941204Y621016D01*
X939032Y619762D01*
X937258Y617989D01*
X936004Y615816D01*
X935355Y613394D01*
Y610886D01*
X936004Y608464D01*
X937258Y606292D01*
X939032Y604518D01*
X941204Y603264D01*
X943626Y602615D01*
X946134D01*
X948557Y603264D01*
X950729Y604518D01*
X952502Y606292D01*
X953756Y608464D01*
X954405Y610886D01*
Y613394D01*
X954205Y614140D01*
X980045Y639981D01*
X1100215D01*
X1132740Y607455D01*
Y560072D01*
X1131470Y559546D01*
X1130625Y560392D01*
X1128758Y561470D01*
X1126675Y562028D01*
X1124731D01*
X1109057Y577702D01*
X1107376Y578825D01*
X1105394Y579220D01*
X934325D01*
X903405Y610140D01*
X903605Y610886D01*
Y613394D01*
X902956Y615816D01*
X901702Y617989D01*
X899929Y619762D01*
X897757Y621016D01*
X895334Y621665D01*
X892826D01*
X890404Y621016D01*
X888232Y619762D01*
X886458Y617989D01*
X885204Y615816D01*
X884555Y613394D01*
Y610886D01*
X885204Y608464D01*
X886458Y606292D01*
X888232Y604518D01*
X890404Y603264D01*
X892826Y602615D01*
X895334D01*
X896080Y602815D01*
X928518Y570378D01*
X930198Y569255D01*
X932180Y568861D01*
X1103249D01*
X1117406Y554703D01*
Y552760D01*
X1117965Y550677D01*
X1119043Y548809D01*
X1120568Y547284D01*
X1122435Y546206D01*
X1124518Y545648D01*
X1126675D01*
X1128758Y546206D01*
X1129106Y546407D01*
X1129886Y545391D01*
X1102185Y517690D01*
X1087469D01*
X1085487Y517296D01*
X1083807Y516173D01*
X1050262Y482628D01*
X1048318D01*
X1046235Y482070D01*
X1044368Y480992D01*
X1042843Y479467D01*
X1041765Y477599D01*
X1041206Y475516D01*
Y473360D01*
X1041765Y471277D01*
X1042843Y469409D01*
X1044368Y467884D01*
X1046235Y466806D01*
X1048318Y466248D01*
X1050475D01*
X1052558Y466806D01*
X1054425Y467884D01*
X1055950Y469409D01*
X1057028Y471277D01*
X1057586Y473360D01*
Y475303D01*
X1089614Y507331D01*
X1104331D01*
X1106313Y507725D01*
X1107993Y508848D01*
X1141582Y542438D01*
X1142705Y544118D01*
X1143100Y546100D01*
Y548596D01*
X1144370Y548936D01*
X1144443Y548809D01*
X1145968Y547284D01*
X1147835Y546206D01*
X1149918Y545648D01*
X1152075D01*
X1154158Y546206D01*
X1156025Y547284D01*
X1157550Y548809D01*
X1158628Y550677D01*
X1159186Y552760D01*
Y554916D01*
X1158628Y556999D01*
X1157550Y558867D01*
X1156025Y560392D01*
X1154158Y561470D01*
X1152075Y562028D01*
X1149918D01*
X1147835Y561470D01*
X1145968Y560392D01*
X1144443Y558867D01*
X1144370Y558740D01*
X1143100Y559080D01*
Y609600D01*
X1142705Y611582D01*
X1141582Y613262D01*
X1106022Y648822D01*
X1104342Y649945D01*
X1102360Y650340D01*
X977900D01*
X977900Y650340D01*
D02*
G37*
G36*
X707374Y621665D02*
X704866D01*
X702443Y621016D01*
X700272Y619762D01*
X698498Y617989D01*
X697244Y615816D01*
X696595Y613394D01*
Y610886D01*
X697244Y608464D01*
X698498Y606292D01*
X700272Y604518D01*
X700940Y604132D01*
Y562910D01*
X700058Y562028D01*
X699798D01*
X697715Y561470D01*
X695847Y560392D01*
X694790Y559334D01*
X693520Y559860D01*
Y604520D01*
X693125Y606502D01*
X692002Y608182D01*
X690045Y610140D01*
X690245Y610886D01*
Y613394D01*
X689596Y615816D01*
X688342Y617989D01*
X686569Y619762D01*
X684397Y621016D01*
X681974Y621665D01*
X679466D01*
X677044Y621016D01*
X674872Y619762D01*
X673098Y617989D01*
X671844Y615816D01*
X671195Y613394D01*
Y610886D01*
X671844Y608464D01*
X673098Y606292D01*
X674872Y604518D01*
X677044Y603264D01*
X679466Y602615D01*
X681974D01*
X681992Y602620D01*
X683160Y601674D01*
Y559448D01*
X682477Y559096D01*
X681890Y559006D01*
X680505Y560392D01*
X678637Y561470D01*
X676554Y562028D01*
X674398D01*
X672315Y561470D01*
X670447Y560392D01*
X668922Y558867D01*
X667844Y556999D01*
X667286Y554916D01*
Y552760D01*
X667844Y550677D01*
X668922Y548809D01*
X670447Y547284D01*
X672315Y546206D01*
X674398Y545648D01*
X676554D01*
X678637Y546206D01*
X680505Y547284D01*
X681890Y548670D01*
X682477Y548579D01*
X683160Y548228D01*
Y489448D01*
X676341Y482628D01*
X674398D01*
X672315Y482070D01*
X670447Y480992D01*
X668922Y479467D01*
X667844Y477599D01*
X667286Y475516D01*
Y473360D01*
X667844Y471277D01*
X668922Y469409D01*
X670447Y467884D01*
X672315Y466806D01*
X674398Y466248D01*
X676554D01*
X678637Y466806D01*
X680505Y467884D01*
X682029Y469409D01*
X683108Y471277D01*
X683666Y473360D01*
Y475303D01*
X692002Y483640D01*
X693125Y485320D01*
X693520Y487302D01*
X693520Y487302D01*
Y547816D01*
X694790Y548342D01*
X695847Y547284D01*
X697715Y546206D01*
X699798Y545648D01*
X701954D01*
X704037Y546206D01*
X705905Y547284D01*
X707430Y548809D01*
X708508Y550677D01*
X709066Y552760D01*
Y554916D01*
X708755Y556075D01*
X709782Y557102D01*
X709782Y557103D01*
X710905Y558783D01*
X711300Y560765D01*
X711300Y560765D01*
Y604132D01*
X711969Y604518D01*
X713742Y606292D01*
X714996Y608464D01*
X715645Y610886D01*
Y613394D01*
X714996Y615816D01*
X713742Y617989D01*
X711969Y619762D01*
X709797Y621016D01*
X707374Y621665D01*
D02*
G37*
G36*
X1101275Y562028D02*
X1099118D01*
X1097035Y561470D01*
X1095168Y560392D01*
X1093643Y558867D01*
X1092565Y556999D01*
X1092006Y554916D01*
Y552760D01*
X1092565Y550677D01*
X1093643Y548809D01*
X1095168Y547284D01*
X1097035Y546206D01*
X1099118Y545648D01*
X1101275D01*
X1103358Y546206D01*
X1105225Y547284D01*
X1106750Y548809D01*
X1107828Y550677D01*
X1108386Y552760D01*
Y554916D01*
X1107828Y556999D01*
X1106750Y558867D01*
X1105225Y560392D01*
X1103358Y561470D01*
X1101275Y562028D01*
D02*
G37*
G36*
X1075875D02*
X1073718D01*
X1071635Y561470D01*
X1069768Y560392D01*
X1068243Y558867D01*
X1067165Y556999D01*
X1066606Y554916D01*
Y552760D01*
X1067165Y550677D01*
X1068243Y548809D01*
X1069768Y547284D01*
X1071635Y546206D01*
X1073718Y545648D01*
X1075875D01*
X1077958Y546206D01*
X1079825Y547284D01*
X1081350Y548809D01*
X1082428Y550677D01*
X1082986Y552760D01*
Y554916D01*
X1082428Y556999D01*
X1081350Y558867D01*
X1079825Y560392D01*
X1077958Y561470D01*
X1075875Y562028D01*
D02*
G37*
G36*
X1050475D02*
X1048318D01*
X1046235Y561470D01*
X1044368Y560392D01*
X1042843Y558867D01*
X1041765Y556999D01*
X1041206Y554916D01*
Y552760D01*
X1041765Y550677D01*
X1042843Y548809D01*
X1044368Y547284D01*
X1046235Y546206D01*
X1048318Y545648D01*
X1050475D01*
X1052558Y546206D01*
X1054425Y547284D01*
X1055950Y548809D01*
X1057028Y550677D01*
X1057586Y552760D01*
Y554916D01*
X1057028Y556999D01*
X1055950Y558867D01*
X1054425Y560392D01*
X1052558Y561470D01*
X1050475Y562028D01*
D02*
G37*
G36*
X1025075D02*
X1022918D01*
X1020835Y561470D01*
X1018968Y560392D01*
X1017443Y558867D01*
X1016365Y556999D01*
X1015806Y554916D01*
Y552760D01*
X1016365Y550677D01*
X1017443Y548809D01*
X1018968Y547284D01*
X1020835Y546206D01*
X1022918Y545648D01*
X1025075D01*
X1027158Y546206D01*
X1029025Y547284D01*
X1030550Y548809D01*
X1031628Y550677D01*
X1032186Y552760D01*
Y554916D01*
X1031628Y556999D01*
X1030550Y558867D01*
X1029025Y560392D01*
X1027158Y561470D01*
X1025075Y562028D01*
D02*
G37*
G36*
X999675D02*
X997518D01*
X995435Y561470D01*
X993568Y560392D01*
X992043Y558867D01*
X990965Y556999D01*
X990406Y554916D01*
Y552760D01*
X990965Y550677D01*
X992043Y548809D01*
X993568Y547284D01*
X995435Y546206D01*
X997518Y545648D01*
X999675D01*
X1001758Y546206D01*
X1003625Y547284D01*
X1005150Y548809D01*
X1006228Y550677D01*
X1006786Y552760D01*
Y554916D01*
X1006228Y556999D01*
X1005150Y558867D01*
X1003625Y560392D01*
X1001758Y561470D01*
X999675Y562028D01*
D02*
G37*
G36*
X939637D02*
X937480D01*
X935397Y561470D01*
X933530Y560392D01*
X932005Y558867D01*
X930927Y556999D01*
X930368Y554916D01*
Y552760D01*
X930927Y550677D01*
X932005Y548809D01*
X933530Y547284D01*
X935397Y546206D01*
X937480Y545648D01*
X939637D01*
X941720Y546206D01*
X943587Y547284D01*
X945112Y548809D01*
X946190Y550677D01*
X946748Y552760D01*
Y554916D01*
X946190Y556999D01*
X945112Y558867D01*
X943587Y560392D01*
X941720Y561470D01*
X939637Y562028D01*
D02*
G37*
G36*
X914237D02*
X912080D01*
X909997Y561470D01*
X908130Y560392D01*
X906605Y558867D01*
X905527Y556999D01*
X904968Y554916D01*
Y552760D01*
X905527Y550677D01*
X906605Y548809D01*
X908130Y547284D01*
X909997Y546206D01*
X912080Y545648D01*
X914237D01*
X916320Y546206D01*
X918187Y547284D01*
X919712Y548809D01*
X920790Y550677D01*
X921348Y552760D01*
Y554916D01*
X920790Y556999D01*
X919712Y558867D01*
X918187Y560392D01*
X916320Y561470D01*
X914237Y562028D01*
D02*
G37*
G36*
X888837D02*
X886680D01*
X884597Y561470D01*
X882730Y560392D01*
X881205Y558867D01*
X880127Y556999D01*
X879568Y554916D01*
Y552760D01*
X880127Y550677D01*
X881205Y548809D01*
X882730Y547284D01*
X884597Y546206D01*
X886680Y545648D01*
X888837D01*
X890920Y546206D01*
X892787Y547284D01*
X894312Y548809D01*
X895390Y550677D01*
X895948Y552760D01*
Y554916D01*
X895390Y556999D01*
X894312Y558867D01*
X892787Y560392D01*
X890920Y561470D01*
X888837Y562028D01*
D02*
G37*
G36*
X863437D02*
X861280D01*
X859197Y561470D01*
X857330Y560392D01*
X855805Y558867D01*
X854727Y556999D01*
X854168Y554916D01*
Y552760D01*
X854727Y550677D01*
X855805Y548809D01*
X857330Y547284D01*
X859197Y546206D01*
X861280Y545648D01*
X863437D01*
X865520Y546206D01*
X867387Y547284D01*
X868912Y548809D01*
X869990Y550677D01*
X870548Y552760D01*
Y554916D01*
X869990Y556999D01*
X868912Y558867D01*
X867387Y560392D01*
X865520Y561470D01*
X863437Y562028D01*
D02*
G37*
G36*
X787237D02*
X785080D01*
X782997Y561470D01*
X781130Y560392D01*
X779605Y558867D01*
X778527Y556999D01*
X777968Y554916D01*
Y552760D01*
X778527Y550677D01*
X779605Y548809D01*
X781130Y547284D01*
X782997Y546206D01*
X785080Y545648D01*
X787237D01*
X789320Y546206D01*
X791187Y547284D01*
X792712Y548809D01*
X793790Y550677D01*
X794348Y552760D01*
Y554916D01*
X793790Y556999D01*
X792712Y558867D01*
X791187Y560392D01*
X789320Y561470D01*
X787237Y562028D01*
D02*
G37*
G36*
X727354D02*
X725198D01*
X723115Y561470D01*
X721247Y560392D01*
X719722Y558867D01*
X718644Y556999D01*
X718086Y554916D01*
Y552760D01*
X718644Y550677D01*
X719722Y548809D01*
X721247Y547284D01*
X723115Y546206D01*
X725198Y545648D01*
X727354D01*
X729437Y546206D01*
X731305Y547284D01*
X732830Y548809D01*
X733908Y550677D01*
X734466Y552760D01*
Y554916D01*
X733908Y556999D01*
X732830Y558867D01*
X731305Y560392D01*
X729437Y561470D01*
X727354Y562028D01*
D02*
G37*
G36*
X625754D02*
X623598D01*
X621515Y561470D01*
X619647Y560392D01*
X618122Y558867D01*
X617044Y556999D01*
X616486Y554916D01*
Y552760D01*
X617044Y550677D01*
X618122Y548809D01*
X619647Y547284D01*
X621515Y546206D01*
X623598Y545648D01*
X625754D01*
X627837Y546206D01*
X629705Y547284D01*
X631230Y548809D01*
X632308Y550677D01*
X632866Y552760D01*
Y554916D01*
X632308Y556999D01*
X631230Y558867D01*
X629705Y560392D01*
X627837Y561470D01*
X625754Y562028D01*
D02*
G37*
G36*
X439065Y538098D02*
X436053D01*
X433099Y537510D01*
X430316Y536357D01*
X427812Y534684D01*
X425682Y532555D01*
X424009Y530050D01*
X422856Y527268D01*
X422269Y524314D01*
Y521302D01*
X422856Y518348D01*
X424009Y515565D01*
X425682Y513061D01*
X427812Y510931D01*
X430316Y509258D01*
X433099Y508105D01*
X436053Y507518D01*
X439065D01*
X442019Y508105D01*
X444801Y509258D01*
X447305Y510931D01*
X449435Y513061D01*
X451109Y515565D01*
X452261Y518348D01*
X452849Y521302D01*
Y524314D01*
X452261Y527268D01*
X451109Y530050D01*
X449435Y532555D01*
X447305Y534684D01*
X444801Y536357D01*
X442019Y537510D01*
X439065Y538098D01*
D02*
G37*
G36*
X1286228Y537052D02*
X1283216D01*
X1280262Y536464D01*
X1277480Y535312D01*
X1274976Y533638D01*
X1272846Y531508D01*
X1271172Y529004D01*
X1270020Y526222D01*
X1269432Y523268D01*
Y520256D01*
X1270020Y517302D01*
X1271172Y514519D01*
X1272846Y512015D01*
X1274976Y509885D01*
X1277480Y508212D01*
X1280262Y507059D01*
X1283216Y506472D01*
X1286228D01*
X1289182Y507059D01*
X1291965Y508212D01*
X1294469Y509885D01*
X1296599Y512015D01*
X1298272Y514519D01*
X1299425Y517302D01*
X1300012Y520256D01*
Y523268D01*
X1299425Y526222D01*
X1298272Y529004D01*
X1296599Y531508D01*
X1294469Y533638D01*
X1291965Y535312D01*
X1289182Y536464D01*
X1286228Y537052D01*
D02*
G37*
G36*
X408885Y520998D02*
X405233D01*
X401651Y520285D01*
X398277Y518888D01*
X395240Y516859D01*
X392658Y514276D01*
X390629Y511240D01*
X389231Y507866D01*
X388519Y504284D01*
Y500632D01*
X389231Y497050D01*
X390629Y493676D01*
X392658Y490639D01*
X395240Y488057D01*
X398277Y486028D01*
X401651Y484630D01*
X405233Y483918D01*
X408885D01*
X412467Y484630D01*
X415841Y486028D01*
X418877Y488057D01*
X421460Y490639D01*
X423489Y493676D01*
X424886Y497050D01*
X425599Y500632D01*
Y504284D01*
X424886Y507866D01*
X423489Y511240D01*
X421460Y514276D01*
X418877Y516859D01*
X415841Y518888D01*
X412467Y520285D01*
X408885Y520998D01*
D02*
G37*
G36*
X1317049Y519952D02*
X1313397D01*
X1309815Y519239D01*
X1306441Y517842D01*
X1303404Y515813D01*
X1300822Y513230D01*
X1298793Y510194D01*
X1297395Y506820D01*
X1296683Y503238D01*
Y499586D01*
X1297395Y496004D01*
X1298793Y492630D01*
X1300822Y489593D01*
X1303404Y487011D01*
X1306441Y484982D01*
X1309815Y483584D01*
X1313397Y482872D01*
X1317049D01*
X1320631Y483584D01*
X1324005Y484982D01*
X1327041Y487011D01*
X1329624Y489593D01*
X1331653Y492630D01*
X1333050Y496004D01*
X1333763Y499586D01*
Y503238D01*
X1333050Y506820D01*
X1331653Y510194D01*
X1329624Y513230D01*
X1327041Y515813D01*
X1324005Y517842D01*
X1320631Y519239D01*
X1317049Y519952D01*
D02*
G37*
G36*
X1227579Y498252D02*
X1225067D01*
X1222640Y497602D01*
X1220465Y496346D01*
X1218689Y494569D01*
X1217433Y492394D01*
X1216783Y489968D01*
Y487456D01*
X1217433Y485029D01*
X1218689Y482854D01*
X1220465Y481078D01*
X1222640Y479822D01*
X1225067Y479172D01*
X1227579D01*
X1230005Y479822D01*
X1232180Y481078D01*
X1233957Y482854D01*
X1235212Y485029D01*
X1235863Y487456D01*
Y489968D01*
X1235212Y492394D01*
X1233957Y494569D01*
X1232180Y496346D01*
X1230005Y497602D01*
X1227579Y498252D01*
D02*
G37*
G36*
X1152266Y482577D02*
Y475708D01*
X1159135D01*
X1158628Y477599D01*
X1157550Y479467D01*
X1156025Y480992D01*
X1154158Y482070D01*
X1152266Y482577D01*
D02*
G37*
G36*
X939828D02*
Y475708D01*
X946697D01*
X946190Y477599D01*
X945112Y479467D01*
X943587Y480992D01*
X941720Y482070D01*
X939828Y482577D01*
D02*
G37*
G36*
X727546D02*
Y475708D01*
X734415D01*
X733908Y477599D01*
X732830Y479467D01*
X731305Y480992D01*
X729437Y482070D01*
X727546Y482577D01*
D02*
G37*
G36*
X1149726D02*
X1147835Y482070D01*
X1145968Y480992D01*
X1144443Y479467D01*
X1143365Y477599D01*
X1142858Y475708D01*
X1149726D01*
Y482577D01*
D02*
G37*
G36*
X937288D02*
X935397Y482070D01*
X933530Y480992D01*
X932005Y479467D01*
X930927Y477599D01*
X930420Y475708D01*
X937288D01*
Y482577D01*
D02*
G37*
G36*
X725006D02*
X723115Y482070D01*
X721247Y480992D01*
X719722Y479467D01*
X718644Y477599D01*
X718137Y475708D01*
X725006D01*
Y482577D01*
D02*
G37*
G36*
X946697Y473168D02*
X939828D01*
Y466299D01*
X941720Y466806D01*
X943587Y467884D01*
X945112Y469409D01*
X946190Y471277D01*
X946697Y473168D01*
D02*
G37*
G36*
X734415D02*
X727546D01*
Y466299D01*
X729437Y466806D01*
X731305Y467884D01*
X732830Y469409D01*
X733908Y471277D01*
X734415Y473168D01*
D02*
G37*
G36*
X937288D02*
X930420D01*
X930927Y471277D01*
X932005Y469409D01*
X933530Y467884D01*
X935397Y466806D01*
X937288Y466299D01*
Y473168D01*
D02*
G37*
G36*
X1126675Y482628D02*
X1124518D01*
X1122435Y482070D01*
X1120568Y480992D01*
X1119043Y479467D01*
X1117965Y477599D01*
X1117406Y475516D01*
Y473360D01*
X1117965Y471277D01*
X1119043Y469409D01*
X1120568Y467884D01*
X1122435Y466806D01*
X1124518Y466248D01*
X1126675D01*
X1128758Y466806D01*
X1130625Y467884D01*
X1132150Y469409D01*
X1133228Y471277D01*
X1133786Y473360D01*
Y475516D01*
X1133228Y477599D01*
X1132150Y479467D01*
X1130625Y480992D01*
X1128758Y482070D01*
X1126675Y482628D01*
D02*
G37*
G36*
X1101275D02*
X1099118D01*
X1097035Y482070D01*
X1095168Y480992D01*
X1093643Y479467D01*
X1092565Y477599D01*
X1092006Y475516D01*
Y473360D01*
X1092565Y471277D01*
X1093643Y469409D01*
X1095168Y467884D01*
X1097035Y466806D01*
X1099118Y466248D01*
X1101275D01*
X1103358Y466806D01*
X1105225Y467884D01*
X1106750Y469409D01*
X1107828Y471277D01*
X1108386Y473360D01*
Y475516D01*
X1107828Y477599D01*
X1106750Y479467D01*
X1105225Y480992D01*
X1103358Y482070D01*
X1101275Y482628D01*
D02*
G37*
G36*
X1075875D02*
X1073718D01*
X1071635Y482070D01*
X1069768Y480992D01*
X1068243Y479467D01*
X1067165Y477599D01*
X1066606Y475516D01*
Y473360D01*
X1067165Y471277D01*
X1068243Y469409D01*
X1069768Y467884D01*
X1071635Y466806D01*
X1073718Y466248D01*
X1075875D01*
X1077958Y466806D01*
X1079825Y467884D01*
X1081350Y469409D01*
X1082428Y471277D01*
X1082986Y473360D01*
Y475516D01*
X1082428Y477599D01*
X1081350Y479467D01*
X1079825Y480992D01*
X1077958Y482070D01*
X1075875Y482628D01*
D02*
G37*
G36*
X1025075D02*
X1022918D01*
X1020835Y482070D01*
X1018968Y480992D01*
X1017443Y479467D01*
X1016365Y477599D01*
X1015806Y475516D01*
Y473360D01*
X1016365Y471277D01*
X1017443Y469409D01*
X1018968Y467884D01*
X1020835Y466806D01*
X1022918Y466248D01*
X1025075D01*
X1027158Y466806D01*
X1029025Y467884D01*
X1030550Y469409D01*
X1031628Y471277D01*
X1032186Y473360D01*
Y475516D01*
X1031628Y477599D01*
X1030550Y479467D01*
X1029025Y480992D01*
X1027158Y482070D01*
X1025075Y482628D01*
D02*
G37*
G36*
X1006786D02*
X990406D01*
Y466248D01*
X1006786D01*
Y482628D01*
D02*
G37*
G36*
X914237D02*
X912080D01*
X909997Y482070D01*
X908130Y480992D01*
X906605Y479467D01*
X905527Y477599D01*
X904968Y475516D01*
Y473360D01*
X905527Y471277D01*
X906605Y469409D01*
X908130Y467884D01*
X909997Y466806D01*
X912080Y466248D01*
X914237D01*
X916320Y466806D01*
X918187Y467884D01*
X919712Y469409D01*
X920790Y471277D01*
X921348Y473360D01*
Y475516D01*
X920790Y477599D01*
X919712Y479467D01*
X918187Y480992D01*
X916320Y482070D01*
X914237Y482628D01*
D02*
G37*
G36*
X888837D02*
X886680D01*
X884597Y482070D01*
X882730Y480992D01*
X881205Y479467D01*
X880127Y477599D01*
X879568Y475516D01*
Y473360D01*
X880127Y471277D01*
X881205Y469409D01*
X882730Y467884D01*
X884597Y466806D01*
X886680Y466248D01*
X888837D01*
X890920Y466806D01*
X892787Y467884D01*
X894312Y469409D01*
X895390Y471277D01*
X895948Y473360D01*
Y475516D01*
X895390Y477599D01*
X894312Y479467D01*
X892787Y480992D01*
X890920Y482070D01*
X888837Y482628D01*
D02*
G37*
G36*
X863437D02*
X861280D01*
X859197Y482070D01*
X857330Y480992D01*
X855805Y479467D01*
X854727Y477599D01*
X854168Y475516D01*
Y473360D01*
X854727Y471277D01*
X855805Y469409D01*
X857330Y467884D01*
X859197Y466806D01*
X861280Y466248D01*
X863437D01*
X865520Y466806D01*
X867387Y467884D01*
X868912Y469409D01*
X869990Y471277D01*
X870548Y473360D01*
Y475516D01*
X869990Y477599D01*
X868912Y479467D01*
X867387Y480992D01*
X865520Y482070D01*
X863437Y482628D01*
D02*
G37*
G36*
X812637D02*
X810480D01*
X808397Y482070D01*
X806530Y480992D01*
X805005Y479467D01*
X803927Y477599D01*
X803368Y475516D01*
Y473360D01*
X803927Y471277D01*
X805005Y469409D01*
X806530Y467884D01*
X808397Y466806D01*
X810480Y466248D01*
X812637D01*
X814720Y466806D01*
X816587Y467884D01*
X818112Y469409D01*
X819190Y471277D01*
X819748Y473360D01*
Y475516D01*
X819190Y477599D01*
X818112Y479467D01*
X816587Y480992D01*
X814720Y482070D01*
X812637Y482628D01*
D02*
G37*
G36*
X783574Y621665D02*
X781066D01*
X778643Y621016D01*
X776471Y619762D01*
X774698Y617989D01*
X773444Y615816D01*
X772795Y613394D01*
Y610886D01*
X773444Y608464D01*
X774698Y606292D01*
X776471Y604518D01*
X777141Y604132D01*
Y585155D01*
X760878Y568892D01*
X759755Y567212D01*
X759361Y565230D01*
Y496056D01*
X759755Y494074D01*
X760878Y492394D01*
X777968Y475303D01*
Y466248D01*
X794348D01*
Y482628D01*
X785293D01*
X769719Y498202D01*
Y563084D01*
X785982Y579347D01*
X785983Y579347D01*
X787105Y581028D01*
X787499Y583010D01*
Y604132D01*
X788168Y604518D01*
X789942Y606292D01*
X791196Y608464D01*
X791845Y610886D01*
Y613394D01*
X791196Y615816D01*
X789942Y617989D01*
X788168Y619762D01*
X785996Y621016D01*
X783574Y621665D01*
D02*
G37*
G36*
X701954Y482628D02*
X699798D01*
X697715Y482070D01*
X695847Y480992D01*
X694322Y479467D01*
X693244Y477599D01*
X692686Y475516D01*
Y473360D01*
X693244Y471277D01*
X694322Y469409D01*
X695847Y467884D01*
X697715Y466806D01*
X699798Y466248D01*
X701954D01*
X704037Y466806D01*
X705905Y467884D01*
X707430Y469409D01*
X708508Y471277D01*
X709066Y473360D01*
Y475516D01*
X708508Y477599D01*
X707430Y479467D01*
X705905Y480992D01*
X704037Y482070D01*
X701954Y482628D01*
D02*
G37*
G36*
X651154D02*
X648998D01*
X646915Y482070D01*
X645047Y480992D01*
X643522Y479467D01*
X642444Y477599D01*
X641886Y475516D01*
Y473360D01*
X642444Y471277D01*
X643522Y469409D01*
X645047Y467884D01*
X646915Y466806D01*
X648998Y466248D01*
X651154D01*
X653237Y466806D01*
X655105Y467884D01*
X656629Y469409D01*
X657708Y471277D01*
X658266Y473360D01*
Y475516D01*
X657708Y477599D01*
X656629Y479467D01*
X655105Y480992D01*
X653237Y482070D01*
X651154Y482628D01*
D02*
G37*
G36*
X600354D02*
X598198D01*
X596115Y482070D01*
X594247Y480992D01*
X592722Y479467D01*
X591644Y477599D01*
X591086Y475516D01*
Y473360D01*
X591644Y471277D01*
X592722Y469409D01*
X594247Y467884D01*
X596115Y466806D01*
X598198Y466248D01*
X600354D01*
X602437Y466806D01*
X604305Y467884D01*
X605830Y469409D01*
X606908Y471277D01*
X607466Y473360D01*
Y475516D01*
X606908Y477599D01*
X605830Y479467D01*
X604305Y480992D01*
X602437Y482070D01*
X600354Y482628D01*
D02*
G37*
G36*
X1250453Y423942D02*
X1242186D01*
X1242833Y421530D01*
X1244089Y419354D01*
X1245865Y417578D01*
X1248040Y416322D01*
X1250453Y415676D01*
Y423942D01*
D02*
G37*
G36*
X727518Y427950D02*
X725362D01*
X723279Y427392D01*
X721411Y426314D01*
X719886Y424789D01*
X718808Y422921D01*
X718250Y420838D01*
Y418682D01*
X718808Y416599D01*
X719886Y414731D01*
X721411Y413206D01*
X723279Y412128D01*
X725362Y411570D01*
X727518D01*
X729601Y412128D01*
X731469Y413206D01*
X732994Y414731D01*
X734072Y416599D01*
X734630Y418682D01*
Y420838D01*
X734072Y422921D01*
X732994Y424789D01*
X731469Y426314D01*
X729601Y427392D01*
X727518Y427950D01*
D02*
G37*
G36*
X702118D02*
X699962D01*
X697879Y427392D01*
X696011Y426314D01*
X694486Y424789D01*
X693408Y422921D01*
X692850Y420838D01*
Y418682D01*
X693408Y416599D01*
X694486Y414731D01*
X696011Y413206D01*
X697879Y412128D01*
X699962Y411570D01*
X702118D01*
X704201Y412128D01*
X706069Y413206D01*
X707594Y414731D01*
X708672Y416599D01*
X709230Y418682D01*
Y420838D01*
X708672Y422921D01*
X707594Y424789D01*
X706069Y426314D01*
X704201Y427392D01*
X702118Y427950D01*
D02*
G37*
G36*
X676718D02*
X674562D01*
X672479Y427392D01*
X670611Y426314D01*
X669086Y424789D01*
X668008Y422921D01*
X667450Y420838D01*
Y418682D01*
X668008Y416599D01*
X669086Y414731D01*
X670611Y413206D01*
X672479Y412128D01*
X674562Y411570D01*
X676718D01*
X678801Y412128D01*
X680669Y413206D01*
X682194Y414731D01*
X683272Y416599D01*
X683830Y418682D01*
Y420838D01*
X683272Y422921D01*
X682194Y424789D01*
X680669Y426314D01*
X678801Y427392D01*
X676718Y427950D01*
D02*
G37*
G36*
X497215Y410398D02*
X494703D01*
X492277Y409748D01*
X490101Y408492D01*
X488325Y406715D01*
X487069Y404540D01*
X486419Y402114D01*
Y399602D01*
X487069Y397175D01*
X488325Y395000D01*
X490101Y393224D01*
X492277Y391968D01*
X494703Y391318D01*
X497215D01*
X499641Y391968D01*
X501817Y393224D01*
X503593Y395000D01*
X504849Y397175D01*
X505499Y399602D01*
Y402114D01*
X504849Y404540D01*
X503593Y406715D01*
X501817Y408492D01*
X499641Y409748D01*
X497215Y410398D01*
D02*
G37*
G36*
X1078230Y348499D02*
Y341630D01*
X1085099D01*
X1084592Y343521D01*
X1083514Y345389D01*
X1081989Y346914D01*
X1080121Y347992D01*
X1078230Y348499D01*
D02*
G37*
G36*
X829310D02*
Y341630D01*
X836179D01*
X835672Y343521D01*
X834594Y345389D01*
X833069Y346914D01*
X831201Y347992D01*
X829310Y348499D01*
D02*
G37*
G36*
X1075690D02*
X1073799Y347992D01*
X1071931Y346914D01*
X1070406Y345389D01*
X1069328Y343521D01*
X1068821Y341630D01*
X1075690D01*
Y348499D01*
D02*
G37*
G36*
X826770D02*
X824879Y347992D01*
X823011Y346914D01*
X821486Y345389D01*
X820408Y343521D01*
X819901Y341630D01*
X826770D01*
Y348499D01*
D02*
G37*
G36*
X1085099Y339090D02*
X1078230D01*
Y332221D01*
X1080121Y332728D01*
X1081989Y333806D01*
X1083514Y335331D01*
X1084592Y337199D01*
X1085099Y339090D01*
D02*
G37*
G36*
X836179D02*
X829310D01*
Y332221D01*
X831201Y332728D01*
X833069Y333806D01*
X834594Y335331D01*
X835672Y337199D01*
X836179Y339090D01*
D02*
G37*
G36*
X1052638Y348550D02*
X1050482D01*
X1048399Y347992D01*
X1046531Y346914D01*
X1045006Y345389D01*
X1043928Y343521D01*
X1043370Y341438D01*
Y339282D01*
X1043928Y337199D01*
X1045006Y335331D01*
X1046531Y333806D01*
X1048399Y332728D01*
X1050482Y332170D01*
X1052638D01*
X1054721Y332728D01*
X1056589Y333806D01*
X1058114Y335331D01*
X1059192Y337199D01*
X1059750Y339282D01*
Y341438D01*
X1059192Y343521D01*
X1058114Y345389D01*
X1056589Y346914D01*
X1054721Y347992D01*
X1052638Y348550D01*
D02*
G37*
G36*
X1027238D02*
X1025082D01*
X1022999Y347992D01*
X1021131Y346914D01*
X1019606Y345389D01*
X1018528Y343521D01*
X1017970Y341438D01*
Y339282D01*
X1018528Y337199D01*
X1019606Y335331D01*
X1021131Y333806D01*
X1022999Y332728D01*
X1025082Y332170D01*
X1027238D01*
X1029321Y332728D01*
X1031189Y333806D01*
X1032714Y335331D01*
X1033792Y337199D01*
X1034350Y339282D01*
Y341438D01*
X1033792Y343521D01*
X1032714Y345389D01*
X1031189Y346914D01*
X1029321Y347992D01*
X1027238Y348550D01*
D02*
G37*
G36*
X1001838D02*
X999682D01*
X997599Y347992D01*
X995731Y346914D01*
X994206Y345389D01*
X993128Y343521D01*
X992570Y341438D01*
Y339282D01*
X993128Y337199D01*
X994206Y335331D01*
X995731Y333806D01*
X997599Y332728D01*
X999682Y332170D01*
X1001838D01*
X1003921Y332728D01*
X1005789Y333806D01*
X1007314Y335331D01*
X1008392Y337199D01*
X1008950Y339282D01*
Y341438D01*
X1008392Y343521D01*
X1007314Y345389D01*
X1005789Y346914D01*
X1003921Y347992D01*
X1001838Y348550D01*
D02*
G37*
G36*
X976438D02*
X974282D01*
X972199Y347992D01*
X970331Y346914D01*
X968806Y345389D01*
X967728Y343521D01*
X967170Y341438D01*
Y339282D01*
X967728Y337199D01*
X968806Y335331D01*
X970331Y333806D01*
X972199Y332728D01*
X974282Y332170D01*
X976438D01*
X978521Y332728D01*
X980389Y333806D01*
X981914Y335331D01*
X982992Y337199D01*
X983550Y339282D01*
Y341438D01*
X982992Y343521D01*
X981914Y345389D01*
X980389Y346914D01*
X978521Y347992D01*
X976438Y348550D01*
D02*
G37*
G36*
X951038D02*
X948882D01*
X946799Y347992D01*
X944931Y346914D01*
X943406Y345389D01*
X942328Y343521D01*
X941770Y341438D01*
Y339282D01*
X942328Y337199D01*
X943406Y335331D01*
X944931Y333806D01*
X946799Y332728D01*
X948882Y332170D01*
X951038D01*
X953121Y332728D01*
X954989Y333806D01*
X956514Y335331D01*
X957592Y337199D01*
X958150Y339282D01*
Y341438D01*
X957592Y343521D01*
X956514Y345389D01*
X954989Y346914D01*
X953121Y347992D01*
X951038Y348550D01*
D02*
G37*
G36*
X925638D02*
X923482D01*
X921399Y347992D01*
X919531Y346914D01*
X918006Y345389D01*
X916928Y343521D01*
X916370Y341438D01*
Y339282D01*
X916928Y337199D01*
X918006Y335331D01*
X919531Y333806D01*
X921399Y332728D01*
X923482Y332170D01*
X925638D01*
X927721Y332728D01*
X929589Y333806D01*
X931114Y335331D01*
X932192Y337199D01*
X932750Y339282D01*
Y341438D01*
X932192Y343521D01*
X931114Y345389D01*
X929589Y346914D01*
X927721Y347992D01*
X925638Y348550D01*
D02*
G37*
G36*
X907350D02*
X890970D01*
Y332170D01*
X907350D01*
Y348550D01*
D02*
G37*
G36*
X803718D02*
X801562D01*
X799479Y347992D01*
X797611Y346914D01*
X796086Y345389D01*
X795008Y343521D01*
X794450Y341438D01*
Y339282D01*
X795008Y337199D01*
X796086Y335331D01*
X797611Y333806D01*
X799479Y332728D01*
X801562Y332170D01*
X803718D01*
X805801Y332728D01*
X807669Y333806D01*
X809194Y335331D01*
X810272Y337199D01*
X810830Y339282D01*
Y341438D01*
X810272Y343521D01*
X809194Y345389D01*
X807669Y346914D01*
X805801Y347992D01*
X803718Y348550D01*
D02*
G37*
G36*
X778318D02*
X776162D01*
X774079Y347992D01*
X772211Y346914D01*
X770686Y345389D01*
X769608Y343521D01*
X769050Y341438D01*
Y339282D01*
X769608Y337199D01*
X770686Y335331D01*
X772211Y333806D01*
X774079Y332728D01*
X776162Y332170D01*
X778318D01*
X780401Y332728D01*
X782269Y333806D01*
X783794Y335331D01*
X784872Y337199D01*
X785430Y339282D01*
Y341438D01*
X784872Y343521D01*
X783794Y345389D01*
X782269Y346914D01*
X780401Y347992D01*
X778318Y348550D01*
D02*
G37*
G36*
X752918D02*
X750762D01*
X748679Y347992D01*
X746811Y346914D01*
X745286Y345389D01*
X744208Y343521D01*
X743650Y341438D01*
Y339282D01*
X744208Y337199D01*
X745286Y335331D01*
X746811Y333806D01*
X748679Y332728D01*
X750762Y332170D01*
X752918D01*
X755001Y332728D01*
X756869Y333806D01*
X758394Y335331D01*
X759472Y337199D01*
X760030Y339282D01*
Y341438D01*
X759472Y343521D01*
X758394Y345389D01*
X756869Y346914D01*
X755001Y347992D01*
X752918Y348550D01*
D02*
G37*
G36*
X727518D02*
X725362D01*
X723279Y347992D01*
X721411Y346914D01*
X719886Y345389D01*
X718808Y343521D01*
X718250Y341438D01*
Y339282D01*
X718808Y337199D01*
X719886Y335331D01*
X721411Y333806D01*
X723279Y332728D01*
X725362Y332170D01*
X727518D01*
X729601Y332728D01*
X731469Y333806D01*
X732994Y335331D01*
X734072Y337199D01*
X734630Y339282D01*
Y341438D01*
X734072Y343521D01*
X732994Y345389D01*
X731469Y346914D01*
X729601Y347992D01*
X727518Y348550D01*
D02*
G37*
G36*
X702118D02*
X699962D01*
X697879Y347992D01*
X696011Y346914D01*
X694486Y345389D01*
X693408Y343521D01*
X692850Y341438D01*
Y339282D01*
X693408Y337199D01*
X694486Y335331D01*
X696011Y333806D01*
X697879Y332728D01*
X699962Y332170D01*
X702118D01*
X704201Y332728D01*
X706069Y333806D01*
X707594Y335331D01*
X708672Y337199D01*
X709230Y339282D01*
Y341438D01*
X708672Y343521D01*
X707594Y345389D01*
X706069Y346914D01*
X704201Y347992D01*
X702118Y348550D01*
D02*
G37*
G36*
X676718D02*
X674562D01*
X672479Y347992D01*
X670611Y346914D01*
X669086Y345389D01*
X668008Y343521D01*
X667450Y341438D01*
Y339282D01*
X668008Y337199D01*
X669086Y335331D01*
X670611Y333806D01*
X672479Y332728D01*
X674562Y332170D01*
X676718D01*
X678801Y332728D01*
X680669Y333806D01*
X682194Y335331D01*
X683272Y337199D01*
X683830Y339282D01*
Y341438D01*
X683272Y343521D01*
X682194Y345389D01*
X680669Y346914D01*
X678801Y347992D01*
X676718Y348550D01*
D02*
G37*
G36*
X658430D02*
X642050D01*
Y332170D01*
X658430D01*
Y348550D01*
D02*
G37*
G36*
X1317643Y308974D02*
X1317443D01*
Y299079D01*
X1327338D01*
Y299279D01*
X1326577Y302118D01*
X1325107Y304664D01*
X1323028Y306743D01*
X1320482Y308213D01*
X1317643Y308974D01*
D02*
G37*
G36*
X331379Y308736D02*
X331179D01*
Y298841D01*
X341074D01*
Y299041D01*
X340313Y301881D01*
X338843Y304427D01*
X336764Y306505D01*
X334218Y307975D01*
X331379Y308736D01*
D02*
G37*
G36*
X328639D02*
X328439D01*
X325599Y307975D01*
X323054Y306505D01*
X320975Y304427D01*
X319505Y301881D01*
X318744Y299041D01*
Y298841D01*
X328639D01*
Y308736D01*
D02*
G37*
G36*
X1419243Y308974D02*
X1416303D01*
X1413463Y308213D01*
X1410917Y306743D01*
X1408838Y304664D01*
X1407368Y302118D01*
X1406608Y299279D01*
Y296339D01*
X1407368Y293499D01*
X1408838Y290953D01*
X1410917Y288875D01*
X1413463Y287405D01*
X1416303Y286644D01*
X1419243D01*
X1422082Y287405D01*
X1424628Y288875D01*
X1426707Y290953D01*
X1428177Y293499D01*
X1428938Y296339D01*
Y299279D01*
X1428177Y302118D01*
X1426707Y304664D01*
X1424628Y306743D01*
X1422082Y308213D01*
X1419243Y308974D01*
D02*
G37*
G36*
X480099Y499298D02*
X461019D01*
Y482237D01*
X416098D01*
X414116Y481843D01*
X412435Y480720D01*
X300846Y369131D01*
X299724Y367451D01*
X299329Y365469D01*
Y308736D01*
X293344D01*
Y286406D01*
X315674D01*
Y308736D01*
X309688D01*
Y363324D01*
X418243Y471878D01*
X462928D01*
X463414Y470705D01*
X462925Y470215D01*
X461669Y468040D01*
X461023Y465628D01*
X470559D01*
Y463088D01*
X461023D01*
X461669Y460675D01*
X462925Y458500D01*
X463414Y458011D01*
X462928Y456837D01*
X416098D01*
X414116Y456443D01*
X412435Y455320D01*
X351646Y394531D01*
X350524Y392851D01*
X350129Y390869D01*
Y307473D01*
X348453Y306505D01*
X346375Y304427D01*
X344905Y301881D01*
X344144Y299041D01*
Y296101D01*
X344905Y293262D01*
X346196Y291025D01*
X345911Y290031D01*
X345649Y289645D01*
X345230Y289575D01*
X340573Y294232D01*
X341074Y296101D01*
Y296301D01*
X331179D01*
Y286406D01*
X331379D01*
X333248Y286907D01*
X339951Y280204D01*
X341632Y279081D01*
X343614Y278687D01*
X1302230D01*
X1304212Y279081D01*
X1305892Y280204D01*
X1312833Y287145D01*
X1314703Y286644D01*
X1314903D01*
Y297809D01*
Y308974D01*
X1314703D01*
X1312833Y308473D01*
X1272072Y349235D01*
Y355993D01*
X1273342Y356519D01*
X1274976Y354885D01*
X1277480Y353212D01*
X1280262Y352059D01*
X1283216Y351472D01*
X1286228D01*
X1289182Y352059D01*
X1291965Y353212D01*
X1294469Y354885D01*
X1296599Y357015D01*
X1298272Y359519D01*
X1299425Y362302D01*
X1300012Y365256D01*
Y368268D01*
X1299425Y371222D01*
X1298272Y374004D01*
X1296599Y376509D01*
X1294469Y378638D01*
X1291965Y380312D01*
X1289182Y381464D01*
X1286228Y382052D01*
X1283216D01*
X1280262Y381464D01*
X1277480Y380312D01*
X1274976Y378638D01*
X1273342Y377005D01*
X1272072Y377531D01*
Y410042D01*
X1271678Y412024D01*
X1270555Y413705D01*
X1261060Y423199D01*
X1261259Y423942D01*
X1252993D01*
Y415676D01*
X1253735Y415874D01*
X1259084Y410525D01*
X1258598Y409352D01*
X1242183D01*
Y390272D01*
X1261263D01*
X1261713Y389188D01*
Y347089D01*
X1262107Y345107D01*
X1263230Y343427D01*
X1296509Y310147D01*
X1296023Y308974D01*
X1279608D01*
Y306717D01*
X1278434Y306231D01*
X1231502Y353163D01*
Y404486D01*
X1232180Y404878D01*
X1233957Y406654D01*
X1235212Y408829D01*
X1235863Y411256D01*
Y413768D01*
X1235212Y416194D01*
X1233957Y418369D01*
X1232180Y420146D01*
X1230005Y421402D01*
X1227579Y422052D01*
X1225067D01*
X1222640Y421402D01*
X1220465Y420146D01*
X1218689Y418369D01*
X1217433Y416194D01*
X1216783Y413768D01*
Y411256D01*
X1217433Y408829D01*
X1218689Y406654D01*
X1220465Y404878D01*
X1221143Y404486D01*
Y351017D01*
X1221537Y349035D01*
X1222660Y347355D01*
X1273841Y296174D01*
X1275521Y295051D01*
X1277504Y294657D01*
X1279608D01*
Y289046D01*
X1034630D01*
X1034144Y290219D01*
X1075690Y331765D01*
Y339090D01*
X1068365D01*
X1018321Y289046D01*
X785710D01*
X785224Y290219D01*
X826770Y331765D01*
Y339090D01*
X819445D01*
X769401Y289046D01*
X440433D01*
X439946Y290219D01*
X440443Y290716D01*
X441913Y293262D01*
X442674Y296101D01*
Y299041D01*
X442173Y300910D01*
X555843Y414580D01*
X643837D01*
X645211Y413206D01*
X647079Y412128D01*
X649162Y411570D01*
X651318D01*
X653401Y412128D01*
X655269Y413206D01*
X656794Y414731D01*
X657872Y416599D01*
X658430Y418682D01*
Y420838D01*
X657872Y422921D01*
X656794Y424789D01*
X655269Y426314D01*
X653401Y427392D01*
X651318Y427950D01*
X649162D01*
X647079Y427392D01*
X645211Y426314D01*
X643837Y424939D01*
X553698D01*
X551716Y424545D01*
X550035Y423422D01*
X550035Y423422D01*
X434848Y308235D01*
X432979Y308736D01*
X430039D01*
X427199Y307975D01*
X424654Y306505D01*
X422575Y304427D01*
X421105Y301881D01*
X420344Y299041D01*
Y296101D01*
X421105Y293262D01*
X422575Y290716D01*
X423071Y290219D01*
X422585Y289046D01*
X415033D01*
X414546Y290219D01*
X415043Y290716D01*
X416513Y293262D01*
X417274Y296101D01*
Y299041D01*
X416773Y300910D01*
X474221Y358359D01*
X474221Y358359D01*
X475344Y360039D01*
X475738Y362021D01*
Y405532D01*
X476417Y405924D01*
X478193Y407700D01*
X479449Y409875D01*
X480099Y412302D01*
Y414814D01*
X479449Y417240D01*
X478193Y419415D01*
X477703Y419905D01*
X478189Y421078D01*
X487933D01*
X488325Y420400D01*
X490101Y418624D01*
X492277Y417368D01*
X494703Y416718D01*
X497215D01*
X499641Y417368D01*
X501817Y418624D01*
X503593Y420400D01*
X503984Y421078D01*
X520700D01*
X522682Y421473D01*
X524362Y422595D01*
X540625Y438858D01*
X752697D01*
X759361Y432195D01*
Y425521D01*
X758091Y425092D01*
X756869Y426314D01*
X755001Y427392D01*
X752918Y427950D01*
X750762D01*
X748679Y427392D01*
X746811Y426314D01*
X745286Y424789D01*
X744208Y422921D01*
X743650Y420838D01*
Y418682D01*
X744208Y416599D01*
X745286Y414731D01*
X746811Y413206D01*
X748679Y412128D01*
X750762Y411570D01*
X752918D01*
X755001Y412128D01*
X756869Y413206D01*
X758091Y414428D01*
X759361Y413999D01*
Y411480D01*
X759755Y409498D01*
X760878Y407817D01*
X771038Y397658D01*
X772718Y396535D01*
X774700Y396141D01*
X1058520D01*
X1060502Y396535D01*
X1062183Y397658D01*
X1076095Y411570D01*
X1078038D01*
X1080121Y412128D01*
X1081989Y413206D01*
X1083514Y414731D01*
X1084592Y416599D01*
X1085150Y418682D01*
Y420838D01*
X1084592Y422921D01*
X1083514Y424789D01*
X1081989Y426314D01*
X1080121Y427392D01*
X1078038Y427950D01*
X1075882D01*
X1073799Y427392D01*
X1071931Y426314D01*
X1070406Y424789D01*
X1069328Y422921D01*
X1068770Y420838D01*
Y418895D01*
X1056375Y406499D01*
X832017D01*
X831791Y407046D01*
X831616Y407770D01*
X832662Y409334D01*
X833056Y411317D01*
X833056Y411317D01*
Y413199D01*
X833069Y413206D01*
X834594Y414731D01*
X835672Y416599D01*
X836230Y418682D01*
Y420838D01*
X835672Y422921D01*
X835026Y424040D01*
X835759Y425310D01*
X891441D01*
X892174Y424040D01*
X891528Y422921D01*
X890970Y420838D01*
Y418682D01*
X891528Y416599D01*
X892606Y414731D01*
X894131Y413206D01*
X895999Y412128D01*
X898082Y411570D01*
X900238D01*
X902321Y412128D01*
X904189Y413206D01*
X905714Y414731D01*
X906792Y416599D01*
X907350Y418682D01*
Y420838D01*
X906792Y422921D01*
X906146Y424040D01*
X906879Y425310D01*
X916841D01*
X917574Y424040D01*
X916928Y422921D01*
X916370Y420838D01*
Y418682D01*
X916928Y416599D01*
X918006Y414731D01*
X919531Y413206D01*
X921399Y412128D01*
X923482Y411570D01*
X925638D01*
X927721Y412128D01*
X929589Y413206D01*
X931114Y414731D01*
X932192Y416599D01*
X932750Y418682D01*
Y420838D01*
X932192Y422921D01*
X931546Y424040D01*
X932279Y425310D01*
X942241D01*
X942974Y424040D01*
X942328Y422921D01*
X941770Y420838D01*
Y418682D01*
X942328Y416599D01*
X943406Y414731D01*
X944931Y413206D01*
X946799Y412128D01*
X948882Y411570D01*
X951038D01*
X953121Y412128D01*
X954989Y413206D01*
X956514Y414731D01*
X957592Y416599D01*
X958150Y418682D01*
Y420838D01*
X957592Y422921D01*
X956946Y424040D01*
X957679Y425310D01*
X967641D01*
X968374Y424040D01*
X967728Y422921D01*
X967170Y420838D01*
Y418682D01*
X967728Y416599D01*
X968806Y414731D01*
X970331Y413206D01*
X972199Y412128D01*
X974282Y411570D01*
X976438D01*
X978521Y412128D01*
X980389Y413206D01*
X981914Y414731D01*
X982992Y416599D01*
X983550Y418682D01*
Y420838D01*
X982992Y422921D01*
X982346Y424040D01*
X983079Y425310D01*
X993041D01*
X993774Y424040D01*
X993128Y422921D01*
X992570Y420838D01*
Y418682D01*
X993128Y416599D01*
X994206Y414731D01*
X995731Y413206D01*
X997599Y412128D01*
X999682Y411570D01*
X1001838D01*
X1003921Y412128D01*
X1005789Y413206D01*
X1007314Y414731D01*
X1008392Y416599D01*
X1008950Y418682D01*
Y420838D01*
X1008392Y422921D01*
X1007746Y424040D01*
X1008479Y425310D01*
X1018441D01*
X1019174Y424040D01*
X1018528Y422921D01*
X1017970Y420838D01*
Y418682D01*
X1018528Y416599D01*
X1019606Y414731D01*
X1021131Y413206D01*
X1022999Y412128D01*
X1025082Y411570D01*
X1027238D01*
X1029321Y412128D01*
X1031189Y413206D01*
X1032714Y414731D01*
X1033792Y416599D01*
X1034350Y418682D01*
Y420838D01*
X1033792Y422921D01*
X1033146Y424040D01*
X1033879Y425310D01*
X1038685D01*
X1043370Y420625D01*
Y418682D01*
X1043928Y416599D01*
X1045006Y414731D01*
X1046531Y413206D01*
X1048399Y412128D01*
X1050482Y411570D01*
X1052638D01*
X1054721Y412128D01*
X1056589Y413206D01*
X1058114Y414731D01*
X1059192Y416599D01*
X1059750Y418682D01*
Y420625D01*
X1071857Y432732D01*
X1218297D01*
X1218689Y432054D01*
X1220465Y430278D01*
X1222640Y429022D01*
X1225067Y428372D01*
X1227579D01*
X1230005Y429022D01*
X1232180Y430278D01*
X1233957Y432054D01*
X1234348Y432732D01*
X1244092D01*
X1244578Y431559D01*
X1244089Y431069D01*
X1242833Y428894D01*
X1242186Y426482D01*
X1251723D01*
X1261259D01*
X1260612Y428894D01*
X1259357Y431069D01*
X1258867Y431559D01*
X1259353Y432732D01*
X1292089D01*
X1318149Y406672D01*
X1317550Y405552D01*
X1317049Y405652D01*
X1313397D01*
X1309815Y404939D01*
X1306441Y403542D01*
X1303404Y401513D01*
X1300822Y398930D01*
X1298793Y395894D01*
X1297395Y392520D01*
X1296683Y388938D01*
Y385286D01*
X1297395Y381704D01*
X1298793Y378330D01*
X1300822Y375293D01*
X1303404Y372711D01*
X1306441Y370682D01*
X1309815Y369284D01*
X1313397Y368572D01*
X1317049D01*
X1320631Y369284D01*
X1324005Y370682D01*
X1327041Y372711D01*
X1329624Y375293D01*
X1331653Y378330D01*
X1333050Y381704D01*
X1333763Y385286D01*
Y388938D01*
X1333663Y389439D01*
X1334783Y390038D01*
X1336393Y388428D01*
Y307711D01*
X1334717Y306743D01*
X1332638Y304664D01*
X1331169Y302118D01*
X1330408Y299279D01*
Y296339D01*
X1331169Y293499D01*
X1332638Y290953D01*
X1334717Y288875D01*
X1337263Y287405D01*
X1340103Y286644D01*
X1343042D01*
X1345882Y287405D01*
X1348428Y288875D01*
X1350507Y290953D01*
X1351977Y293499D01*
X1352738Y296339D01*
Y299279D01*
X1351977Y302118D01*
X1350507Y304664D01*
X1348428Y306743D01*
X1346752Y307711D01*
Y390573D01*
X1346358Y392555D01*
X1345235Y394236D01*
X1297897Y441574D01*
X1296216Y442697D01*
X1294234Y443091D01*
X1259353D01*
X1258867Y444265D01*
X1259357Y444754D01*
X1260612Y446930D01*
X1261259Y449342D01*
X1251723D01*
Y451882D01*
X1261259D01*
X1260612Y454294D01*
X1259357Y456469D01*
X1258867Y456959D01*
X1259353Y458132D01*
X1284603D01*
X1361793Y380942D01*
Y307711D01*
X1360117Y306743D01*
X1358038Y304664D01*
X1356568Y302118D01*
X1355808Y299279D01*
Y296339D01*
X1356568Y293499D01*
X1358038Y290953D01*
X1360117Y288875D01*
X1362663Y287405D01*
X1365503Y286644D01*
X1368443D01*
X1371282Y287405D01*
X1373828Y288875D01*
X1375907Y290953D01*
X1377377Y293499D01*
X1378138Y296339D01*
Y299279D01*
X1377377Y302118D01*
X1375907Y304664D01*
X1373828Y306743D01*
X1372152Y307711D01*
Y383087D01*
X1372152Y383087D01*
X1371758Y385070D01*
X1370635Y386750D01*
X1290411Y466974D01*
X1289092Y467855D01*
X1289477Y469125D01*
X1304090D01*
X1387193Y386022D01*
Y307711D01*
X1385517Y306743D01*
X1383438Y304664D01*
X1381969Y302118D01*
X1381208Y299279D01*
Y296339D01*
X1381969Y293499D01*
X1383438Y290953D01*
X1385517Y288875D01*
X1388063Y287405D01*
X1390903Y286644D01*
X1393842D01*
X1396682Y287405D01*
X1399228Y288875D01*
X1401307Y290953D01*
X1402777Y293499D01*
X1403538Y296339D01*
Y299279D01*
X1402777Y302118D01*
X1401307Y304664D01*
X1399228Y306743D01*
X1397552Y307711D01*
Y388167D01*
X1397552Y388167D01*
X1397158Y390149D01*
X1396035Y391830D01*
X1309898Y477967D01*
X1308217Y479090D01*
X1306235Y479484D01*
X1260669D01*
X1260612Y479694D01*
X1259357Y481869D01*
X1257580Y483646D01*
X1255405Y484902D01*
X1252979Y485552D01*
X1250467D01*
X1248040Y484902D01*
X1245865Y483646D01*
X1244089Y481869D01*
X1242833Y479694D01*
X1242183Y477268D01*
Y474756D01*
X1242833Y472329D01*
X1244089Y470154D01*
X1244578Y469665D01*
X1244092Y468491D01*
X1234348D01*
X1233957Y469169D01*
X1232180Y470946D01*
X1230005Y472202D01*
X1227579Y472852D01*
X1225067D01*
X1222640Y472202D01*
X1220465Y470946D01*
X1218689Y469169D01*
X1217433Y466994D01*
X1216783Y464568D01*
Y462056D01*
X1217433Y459630D01*
X1218689Y457454D01*
X1219178Y456965D01*
X1218692Y455791D01*
X1164434D01*
X1156176Y464049D01*
Y468035D01*
X1157550Y469409D01*
X1158628Y471277D01*
X1159135Y473168D01*
X1150996D01*
X1142858D01*
X1143365Y471277D01*
X1144443Y469409D01*
X1145817Y468035D01*
Y461904D01*
X1146211Y459921D01*
X1147334Y458241D01*
X1158626Y446949D01*
X1160306Y445826D01*
X1162288Y445432D01*
X1218692D01*
X1219178Y444259D01*
X1218689Y443769D01*
X1218297Y443091D01*
X1069712D01*
X1069712Y443091D01*
X1067730Y442697D01*
X1066049Y441574D01*
X1052425Y427950D01*
X1050695D01*
X1044492Y434152D01*
X1042812Y435275D01*
X1040830Y435669D01*
X813370D01*
X811388Y435275D01*
X809707Y434152D01*
X803505Y427950D01*
X801775D01*
X774405Y455320D01*
X772724Y456443D01*
X770742Y456837D01*
X717660D01*
X717173Y458011D01*
X725006Y465843D01*
Y473168D01*
X717681D01*
X708970Y464457D01*
X541088D01*
X537525Y468020D01*
X535844Y469143D01*
X533862Y469537D01*
X503589D01*
X503103Y470711D01*
X503593Y471200D01*
X504849Y473375D01*
X505499Y475802D01*
Y478314D01*
X504849Y480740D01*
X503593Y482915D01*
X501817Y484692D01*
X499641Y485948D01*
X497215Y486598D01*
X494703D01*
X492277Y485948D01*
X490101Y484692D01*
X488325Y482915D01*
X487933Y482237D01*
X480099D01*
Y499298D01*
D02*
G37*
G36*
X1327338Y296539D02*
X1317443D01*
Y286644D01*
X1317643D01*
X1320482Y287405D01*
X1323028Y288875D01*
X1325107Y290953D01*
X1326577Y293499D01*
X1327338Y296339D01*
Y296539D01*
D02*
G37*
G36*
X328639Y296301D02*
X318744D01*
Y296101D01*
X319505Y293262D01*
X320975Y290716D01*
X323054Y288637D01*
X325599Y287167D01*
X328439Y286406D01*
X328639D01*
Y296301D01*
D02*
G37*
%LPD*%
G36*
X532422Y445305D02*
X518555Y431437D01*
X503984D01*
X503593Y432115D01*
X501817Y433892D01*
X499641Y435148D01*
X497215Y435798D01*
X494703D01*
X492277Y435148D01*
X490101Y433892D01*
X488325Y432115D01*
X487933Y431437D01*
X478189D01*
X477703Y432611D01*
X478193Y433100D01*
X479449Y435275D01*
X480095Y437688D01*
X470559D01*
X461023D01*
X461669Y435275D01*
X462925Y433100D01*
X463414Y432611D01*
X462928Y431437D01*
X415347D01*
X413365Y431043D01*
X411685Y429920D01*
X377046Y395282D01*
X375924Y393601D01*
X375529Y391619D01*
Y307473D01*
X373853Y306505D01*
X371775Y304427D01*
X370305Y301881D01*
X369544Y299041D01*
Y296101D01*
X370305Y293262D01*
X371775Y290716D01*
X372271Y290219D01*
X371785Y289046D01*
X364232D01*
X363746Y290219D01*
X364243Y290716D01*
X365713Y293262D01*
X366474Y296101D01*
Y299041D01*
X365713Y301881D01*
X364243Y304427D01*
X362164Y306505D01*
X360488Y307473D01*
Y388723D01*
X418243Y446478D01*
X462928D01*
X463414Y445305D01*
X462925Y444815D01*
X461669Y442640D01*
X461023Y440228D01*
X470559D01*
X480095D01*
X479449Y442640D01*
X478193Y444815D01*
X477703Y445305D01*
X478189Y446478D01*
X487933D01*
X488325Y445800D01*
X490101Y444024D01*
X492277Y442768D01*
X494703Y442118D01*
X497215D01*
X499641Y442768D01*
X501817Y444024D01*
X503593Y445800D01*
X503984Y446478D01*
X531936D01*
X532422Y445305D01*
D02*
G37*
G36*
X794450Y420625D02*
Y418682D01*
X795008Y416599D01*
X796086Y414731D01*
X797611Y413206D01*
X799479Y412128D01*
X801562Y411570D01*
X803718D01*
X805801Y412128D01*
X807669Y413206D01*
X809194Y414731D01*
X810272Y416599D01*
X810830Y418682D01*
Y420625D01*
X815515Y425310D01*
X820321D01*
X821054Y424040D01*
X820408Y422921D01*
X819850Y420838D01*
Y418682D01*
X820408Y416599D01*
X821486Y414731D01*
X822697Y413520D01*
Y413462D01*
X815735Y406499D01*
X776845D01*
X770442Y412903D01*
X770495Y413127D01*
X771892Y413525D01*
X772211Y413206D01*
X774079Y412128D01*
X776162Y411570D01*
X778318D01*
X780401Y412128D01*
X782269Y413206D01*
X783794Y414731D01*
X784872Y416599D01*
X785430Y418682D01*
Y420838D01*
X784872Y422921D01*
X783794Y424789D01*
X782269Y426314D01*
X780401Y427392D01*
X778318Y427950D01*
X776162D01*
X774079Y427392D01*
X772211Y426314D01*
X770990Y425092D01*
X769719Y425521D01*
Y434340D01*
X769325Y436322D01*
X768203Y438003D01*
X760900Y445305D01*
X761386Y446478D01*
X768597D01*
X794450Y420625D01*
D02*
G37*
G36*
X463414Y419905D02*
X462925Y419415D01*
X461669Y417240D01*
X461019Y414814D01*
Y412302D01*
X461669Y409875D01*
X462925Y407700D01*
X464701Y405924D01*
X465379Y405532D01*
Y364166D01*
X409448Y308235D01*
X407579Y308736D01*
X404639D01*
X401799Y307975D01*
X399254Y306505D01*
X397175Y304427D01*
X395705Y301881D01*
X394944Y299041D01*
Y296101D01*
X395705Y293262D01*
X397175Y290716D01*
X397671Y290219D01*
X397185Y289046D01*
X389632D01*
X389146Y290219D01*
X389643Y290716D01*
X391113Y293262D01*
X391874Y296101D01*
Y299041D01*
X391113Y301881D01*
X389643Y304427D01*
X387564Y306505D01*
X385888Y307473D01*
Y389474D01*
X387499Y391084D01*
X388619Y390485D01*
X388519Y389984D01*
Y386332D01*
X389231Y382750D01*
X390629Y379376D01*
X392658Y376339D01*
X395240Y373757D01*
X398277Y371728D01*
X401651Y370330D01*
X405233Y369618D01*
X408885D01*
X412467Y370330D01*
X415841Y371728D01*
X418877Y373757D01*
X421460Y376339D01*
X423489Y379376D01*
X424886Y382750D01*
X425599Y386332D01*
Y389984D01*
X424886Y393566D01*
X423489Y396940D01*
X421460Y399976D01*
X418877Y402559D01*
X415841Y404588D01*
X412467Y405985D01*
X408885Y406698D01*
X405233D01*
X404731Y406598D01*
X404133Y407718D01*
X417493Y421078D01*
X462928D01*
X463414Y419905D01*
D02*
G37*
%LPC*%
G36*
X439065Y383098D02*
X436053D01*
X433099Y382510D01*
X430316Y381358D01*
X427812Y379684D01*
X425682Y377555D01*
X424009Y375050D01*
X422856Y372268D01*
X422269Y369314D01*
Y366302D01*
X422856Y363348D01*
X424009Y360565D01*
X425682Y358061D01*
X427812Y355931D01*
X430316Y354258D01*
X433099Y353105D01*
X436053Y352518D01*
X439065D01*
X442019Y353105D01*
X444801Y354258D01*
X447305Y355931D01*
X449435Y358061D01*
X451109Y360565D01*
X452261Y363348D01*
X452849Y366302D01*
Y369314D01*
X452261Y372268D01*
X451109Y375050D01*
X449435Y377555D01*
X447305Y379684D01*
X444801Y381358D01*
X442019Y382510D01*
X439065Y383098D01*
D02*
G37*
%LPD*%
D33*
X744173Y1128533D02*
X744220Y1128580D01*
X689266Y1128533D02*
X744173D01*
X689219Y1128486D02*
X689266Y1128533D01*
X744165Y1077741D02*
X744220Y1077797D01*
X689275Y1077741D02*
X744165D01*
X689219Y1077686D02*
X689275Y1077741D01*
X744141Y1026807D02*
X744220Y1026728D01*
X689298Y1026807D02*
X744141D01*
X689219Y1026886D02*
X689298Y1026807D01*
X744027Y976279D02*
X744220Y976472D01*
X689412Y976279D02*
X744027D01*
X689219Y976086D02*
X689412Y976279D01*
X731338Y865495D02*
X744038Y878195D01*
X731338Y612322D02*
Y865495D01*
X706120Y560765D02*
Y612140D01*
X731338Y612322D02*
X731520Y612140D01*
X1081952Y1127848D02*
X1092059D01*
X1077800Y766240D02*
X1091758D01*
X609819Y1052906D02*
X621280D01*
X609819Y802735D02*
X624935D01*
X1082260Y868460D02*
X1091758D01*
X1054100Y896620D02*
X1082260Y868460D01*
X1079720Y817660D02*
X1091758D01*
X1054100Y843280D02*
X1079720Y817660D01*
X1074640Y716060D02*
X1091758D01*
X1054100Y736600D02*
X1074640Y716060D01*
X1054100Y736600D02*
Y789940D01*
X609819Y700514D02*
X626854D01*
X606511D02*
X609819D01*
X957580Y690083D02*
X957868Y690371D01*
X1012070D01*
X1012359Y690660D01*
X957580Y741519D02*
X957609Y741489D01*
X1012329D01*
X1012359Y741460D01*
X957580Y791941D02*
X957740Y792101D01*
X1012199D01*
X1012359Y792260D01*
X957580Y842616D02*
X957802Y842838D01*
X1012137D01*
X1012359Y843060D01*
X957580Y949677D02*
X957765Y949863D01*
X1012416D01*
X1012601Y950048D01*
X957580Y1001000D02*
X957656Y1000924D01*
X1012525D01*
X1012601Y1000848D01*
X957580Y1051612D02*
X957598Y1051630D01*
X1012584D01*
X1012601Y1051648D01*
X957580Y1102509D02*
X957610Y1102478D01*
X1012571D01*
X1012601Y1102448D01*
X743952Y776687D02*
X744038Y776601D01*
X744177Y827538D02*
X744220Y827581D01*
X743885Y725287D02*
X744220Y725621D01*
X957580Y741519D02*
X957780Y741719D01*
X932180Y791941D02*
X934124Y793885D01*
X932180Y738770D02*
Y741519D01*
X957580Y1001000D02*
X957934Y1001354D01*
X932180Y1102509D02*
X934146D01*
X957580D02*
X957974Y1102903D01*
X744147Y1128653D02*
X744220Y1128580D01*
X545480Y835040D02*
X588754Y878314D01*
X609819D01*
Y852914D02*
X621774D01*
X650414Y881554D01*
X545835Y782055D02*
X591294Y827514D01*
X609819D01*
X548020Y730900D02*
X593834Y776714D01*
X610325D01*
X609819Y751314D02*
X626854D01*
X650414Y774874D01*
X594157Y725914D02*
X609819D01*
X544196Y673655D02*
Y675953D01*
X594157Y725914D01*
X626854Y700514D02*
X650414Y724074D01*
X1223909Y412512D02*
X1226323D01*
Y351017D02*
Y412512D01*
X1288745Y299836D02*
X1290773Y297809D01*
X1277504Y299836D02*
X1288745D01*
X1226323Y351017D02*
X1277504Y299836D01*
X470559Y362021D02*
Y413558D01*
X406109Y297571D02*
X470559Y362021D01*
X1253429Y474305D02*
X1306235D01*
X1392373Y297809D02*
Y388167D01*
X1306235Y474305D02*
X1392373Y388167D01*
X1251723Y476012D02*
X1253429Y474305D01*
X817880Y401320D02*
X827877Y411317D01*
X1076357Y418717D02*
X1076740Y419100D01*
X827877Y411317D02*
Y419596D01*
X817880Y401320D02*
X1058520D01*
X827877Y419596D02*
X828040Y419760D01*
X1058520Y401320D02*
X1076960Y419760D01*
X774700Y401320D02*
X817880D01*
X764540Y411480D02*
X774700Y401320D01*
X764540Y411480D02*
Y434340D01*
X538480Y444038D02*
X754842D01*
X764540Y434340D01*
X495959Y426258D02*
X520700D01*
X538480Y444038D01*
X380709Y297571D02*
Y391619D01*
X1226323Y463312D02*
X1286748D01*
X1366973Y297809D02*
Y383087D01*
X1286748Y463312D02*
X1366973Y383087D01*
X415347Y426258D02*
X495959D01*
X380709Y391619D02*
X415347Y426258D01*
X1051560Y419760D02*
X1069712Y437912D01*
X1226323D01*
X1040830Y430490D02*
X1051560Y419760D01*
X802640D02*
X813370Y430490D01*
X1040830D01*
X770742Y451658D02*
X802640Y419760D01*
X495959Y451658D02*
X770742D01*
X1226323Y437912D02*
X1294234D01*
X416098Y451658D02*
X495959D01*
X1294234Y437912D02*
X1341573Y390573D01*
Y297809D02*
Y390573D01*
X355309Y390869D02*
X416098Y451658D01*
X355309Y297571D02*
Y390869D01*
X304509Y297571D02*
Y365469D01*
X416098Y477058D02*
X495959D01*
X304509Y365469D02*
X416098Y477058D01*
X431509Y297571D02*
X553698Y419760D01*
X650240D01*
X573876Y581496D02*
X604520Y612140D01*
X573876Y553838D02*
Y581496D01*
X1096059Y846180D02*
X1110939Y861060D01*
X1158240D01*
X1113439Y810260D02*
X1158240D01*
X1096059Y792880D02*
X1113439Y810260D01*
X1115939Y759460D02*
X1158240D01*
X1096059Y739580D02*
X1115939Y759460D01*
X1118439Y708660D02*
X1158240D01*
X1096059Y686280D02*
X1118439Y708660D01*
X1109694Y1120140D02*
X1158240D01*
X1091928Y1102374D02*
X1109694Y1120140D01*
X1092001Y1051648D02*
X1109694Y1069340D01*
X1158240D01*
X1109694Y1018540D02*
X1158240D01*
X1092001Y1000848D02*
X1109694Y1018540D01*
X1092001Y950048D02*
X1109694Y967740D01*
X1158240D01*
X544196Y724455D02*
Y726774D01*
X548020Y730599D01*
Y730900D01*
X544196Y775255D02*
X545835Y776895D01*
Y782055D01*
X544196Y826055D02*
X545480Y827339D01*
Y835040D01*
X565199Y931465D02*
X609826Y976092D01*
X544301Y931465D02*
X565199D01*
Y982265D02*
X609819Y1026886D01*
X544301Y982265D02*
X565199D01*
X544301Y1033065D02*
X545900Y1034665D01*
X566798D01*
X609926Y1077793D01*
X565199Y1083865D02*
X609819Y1128486D01*
X544301Y1083865D02*
X565199D01*
X1357770Y742975D02*
X1408770D01*
X1357770Y872937D02*
X1408770D01*
X1357770Y1002003D02*
X1408770D01*
X1357770Y1131811D02*
X1408770D01*
X1232830Y742975D02*
X1283830D01*
X1232830Y872937D02*
X1283830D01*
X1232830Y1002003D02*
X1283830D01*
X1232830Y1131811D02*
X1283830D01*
X430670Y745285D02*
X481670D01*
X430670Y873555D02*
X481670D01*
X431572Y1001825D02*
X482572D01*
X430670Y1131365D02*
X481670D01*
X305730Y745285D02*
X356730D01*
X305730Y873555D02*
X356730D01*
X305730Y1001825D02*
X356730D01*
X305730Y1131365D02*
X356730D01*
X1386549Y1049311D02*
X1408770D01*
X1320800Y1115060D02*
X1386549Y1049311D01*
X1283830D02*
X1319099Y1084580D01*
X1320800D01*
X1386817Y919503D02*
X1408770D01*
X1320800Y985520D02*
X1386817Y919503D01*
X1283830D02*
X1320800Y956473D01*
Y960120D01*
X1389938Y660475D02*
X1408770D01*
X1318893Y731520D02*
X1389938Y660475D01*
X1283830D02*
X1318893Y695538D01*
Y731520D01*
X1320800Y855980D02*
X1386342Y790438D01*
X1408770D01*
X1283830Y790437D02*
X1318893Y825500D01*
X1320800D01*
X396240Y980440D02*
X457355Y919325D01*
X393700Y1109980D02*
X454815Y1048865D01*
X481670D01*
X393700Y853440D02*
X456085Y791055D01*
X457355Y919325D02*
X482572D01*
X393700Y980440D02*
X396240D01*
X393700Y699755D02*
X415275Y678180D01*
X466275D02*
X481670Y662785D01*
X415275Y678180D02*
X466275D01*
X356730Y1048865D02*
X392445Y1084580D01*
X393700D01*
X356730Y919325D02*
X393700Y956295D01*
Y957580D01*
X456085Y791055D02*
X481670D01*
X356730D02*
X391175Y825500D01*
X393700D01*
X356730Y662785D02*
X393700Y699755D01*
X1054100Y1049020D02*
X1077492Y1025628D01*
X1054100Y789940D02*
X1077800Y766240D01*
X650414Y724074D02*
Y774874D01*
X624935Y802735D02*
X650414Y828214D01*
X621280Y1052906D02*
X650414Y1082040D01*
X1074332Y975448D02*
X1092001D01*
X1054100Y995680D02*
X1074332Y975448D01*
X1077492Y1025628D02*
X1091382D01*
X1092001Y1026248D01*
X1054100Y1102360D02*
X1079412Y1077048D01*
X1092001D01*
X1054100Y1155700D02*
X1081952Y1127848D01*
X620486Y1103086D02*
X650414Y1133014D01*
X609819Y1103086D02*
X620486D01*
X609819Y1001486D02*
X628280D01*
X650414Y1023620D01*
X609819Y950686D02*
X630820D01*
X650414Y970280D01*
X894080Y612140D02*
X932180Y574040D01*
X1105394D02*
X1125596Y553838D01*
X932180Y574040D02*
X1105394D01*
X1102360Y645160D02*
X1137920Y609600D01*
Y546100D02*
Y609600D01*
X1104331Y512510D02*
X1137920Y546100D01*
X1087469Y512510D02*
X1104331D01*
X1049396Y474438D02*
X1087469Y512510D01*
X977900Y645160D02*
X1102360D01*
X944880Y612140D02*
X977900Y645160D01*
X807720Y612140D02*
X822595Y597265D01*
Y488802D02*
Y597265D01*
Y488802D02*
X836958Y474438D01*
X764540Y496056D02*
X786158Y474438D01*
X764540Y565230D02*
X782320Y583010D01*
X764540Y496056D02*
Y565230D01*
X782320Y583010D02*
Y612140D01*
X573876Y474438D02*
X586740Y487302D01*
Y568960D02*
X629920Y612140D01*
X586740Y487302D02*
Y568960D01*
X639346Y596166D02*
X655320Y612140D01*
X639346Y489108D02*
Y596166D01*
X624676Y474438D02*
X639346Y489108D01*
X744167Y1077850D02*
X744220Y1077797D01*
X675476Y474438D02*
X688340Y487302D01*
X680720Y612140D02*
X688340Y604520D01*
Y487302D02*
Y604520D01*
X700876Y553838D02*
Y555521D01*
X706120Y560765D01*
X744207Y976485D02*
X744220Y976472D01*
X329909Y297571D02*
X343614Y283866D01*
X533862Y464358D02*
X538942Y459278D01*
X470559Y464358D02*
X533862D01*
X343614Y283866D02*
X772160D01*
X538942Y459278D02*
X711116D01*
X726276Y474438D01*
X687645Y950686D02*
X689219D01*
X689159Y1052286D02*
X689219D01*
X772160Y283866D02*
X1021080D01*
X772160D02*
Y284480D01*
X828040Y340360D01*
X1021080Y283866D02*
Y284480D01*
X1076960Y340360D01*
X1021080Y283866D02*
X1302230D01*
X1251723Y425212D02*
X1266892Y410042D01*
Y347089D02*
Y410042D01*
X1302230Y283866D02*
X1316173Y297809D01*
X1266892Y347089D02*
X1316173Y297809D01*
X1162288Y450612D02*
X1251723D01*
X1150996Y461904D02*
X1162288Y450612D01*
X1150996Y461904D02*
Y474438D01*
D34*
X1020666Y1206915D02*
X1160366D01*
X1209040Y1158240D02*
X1308100D01*
X1160366Y1206915D02*
X1209040Y1158240D01*
X1320800Y1115060D02*
Y1145540D01*
Y1084580D02*
Y1115060D01*
Y985520D02*
Y1084580D01*
Y960120D02*
Y985520D01*
Y855980D02*
Y956473D01*
Y825500D02*
Y855980D01*
X1308100Y1158240D02*
X1320800Y1145540D01*
X393700Y1109980D02*
Y1147824D01*
Y1084580D02*
Y1109980D01*
Y980440D02*
Y1084580D01*
Y957580D02*
Y980440D01*
Y853440D02*
Y956295D01*
Y825500D02*
Y853440D01*
X404115Y1158240D02*
X505460D01*
X393700Y1147824D02*
X404115Y1158240D01*
X554134Y1206915D02*
X681134D01*
X505460Y1158240D02*
X554134Y1206915D01*
X1054100Y1155700D02*
Y1173480D01*
Y1102360D02*
Y1155700D01*
Y1049020D02*
Y1102360D01*
Y995680D02*
Y1049020D01*
Y896620D02*
Y995680D01*
Y843280D02*
Y896620D01*
Y789940D02*
Y843280D01*
X1020666Y1206915D02*
X1054100Y1173480D01*
X650414Y774874D02*
Y828214D01*
Y881554D01*
Y970280D01*
Y1133014D02*
Y1176194D01*
Y1082040D02*
Y1133014D01*
Y1023620D02*
Y1082040D01*
Y970280D02*
Y1023620D01*
Y1176194D02*
X681134Y1206915D01*
X844500D01*
X869900D01*
X1020666D01*
D35*
X1318893Y731520D02*
Y825500D01*
X393700Y699755D02*
Y825500D01*
D36*
X490300Y645160D02*
X544196Y699055D01*
X448295Y645160D02*
X490300D01*
X430670Y662785D02*
X448295Y645160D01*
X430670Y791055D02*
X450572Y771154D01*
X522897D01*
X544196Y749855D01*
X508000Y817880D02*
Y873760D01*
X466127Y884770D02*
X496990D01*
X508000Y873760D01*
Y817880D02*
X525225Y800655D01*
X544196D01*
X431572Y919325D02*
X466127Y884770D01*
X508000Y887651D02*
X544196Y851455D01*
X489600Y1025600D02*
X508000Y1007200D01*
Y887651D02*
Y1007200D01*
X430670Y1048865D02*
X453935Y1025600D01*
X489600D01*
D37*
X769620Y725621D02*
D03*
X744220D02*
D03*
X769620Y827581D02*
D03*
X744220D02*
D03*
X769438Y776601D02*
D03*
X744038D02*
D03*
X769438Y878195D02*
D03*
X744038D02*
D03*
X932180Y690083D02*
D03*
X957580D02*
D03*
X932180Y741519D02*
D03*
X957580D02*
D03*
X932180Y791941D02*
D03*
X957580D02*
D03*
X932180Y842616D02*
D03*
X957580D02*
D03*
X932180Y1102509D02*
D03*
X957580D02*
D03*
X932180Y1051612D02*
D03*
X957580D02*
D03*
X932180Y1001000D02*
D03*
X957580D02*
D03*
X932180Y949677D02*
D03*
X957580D02*
D03*
X769620Y1128580D02*
D03*
X744220D02*
D03*
Y1026728D02*
D03*
X769620D02*
D03*
X744220Y1077797D02*
D03*
X769620D02*
D03*
X744220Y976472D02*
D03*
X769620D02*
D03*
D38*
X307340Y607060D02*
D03*
X1419860D02*
D03*
D39*
X863600Y896620D02*
D03*
D40*
X609819Y1052286D02*
D03*
X1092001Y1127848D02*
D03*
Y1026248D02*
D03*
X609819Y1001486D02*
D03*
X1092001Y1077048D02*
D03*
X609819Y1103086D02*
D03*
Y950686D02*
D03*
X1092001Y975448D02*
D03*
X1091758Y766860D02*
D03*
X609819Y751314D02*
D03*
Y852914D02*
D03*
X1091758Y817660D02*
D03*
X609819Y700514D02*
D03*
X1091758Y716060D02*
D03*
X609819Y802114D02*
D03*
X1091758Y868460D02*
D03*
X1012601Y950048D02*
D03*
Y975448D02*
D03*
Y1000848D02*
D03*
Y1026248D02*
D03*
Y1051648D02*
D03*
Y1077048D02*
D03*
Y1102448D02*
D03*
Y1127848D02*
D03*
X1092001Y1102448D02*
D03*
Y1051648D02*
D03*
Y1000848D02*
D03*
X689219Y1128486D02*
D03*
Y1103086D02*
D03*
Y1077686D02*
D03*
Y1052286D02*
D03*
Y1026886D02*
D03*
Y1001486D02*
D03*
Y976086D02*
D03*
Y950686D02*
D03*
X609819Y976086D02*
D03*
Y1026886D02*
D03*
Y1077686D02*
D03*
X1091758Y741460D02*
D03*
Y792260D02*
D03*
Y843060D02*
D03*
X1012359Y868460D02*
D03*
Y843060D02*
D03*
Y817660D02*
D03*
Y792260D02*
D03*
Y766860D02*
D03*
Y741460D02*
D03*
Y716060D02*
D03*
Y690660D02*
D03*
X609819Y827514D02*
D03*
Y776714D02*
D03*
Y725914D02*
D03*
X689219Y700514D02*
D03*
Y725914D02*
D03*
Y751314D02*
D03*
Y776714D02*
D03*
Y802114D02*
D03*
Y827514D02*
D03*
Y852914D02*
D03*
Y878314D02*
D03*
X899160Y419760D02*
D03*
X924560D02*
D03*
X949960D02*
D03*
X975360D02*
D03*
X1000760D02*
D03*
X1026160D02*
D03*
X1051560D02*
D03*
X1076960D02*
D03*
Y340360D02*
D03*
X1051560D02*
D03*
X1026160D02*
D03*
X1000760D02*
D03*
X975360D02*
D03*
X949960D02*
D03*
X924560D02*
D03*
X650240Y419760D02*
D03*
X675640D02*
D03*
X701040D02*
D03*
X726440D02*
D03*
X751840D02*
D03*
X777240D02*
D03*
X802640D02*
D03*
X828040D02*
D03*
Y340360D02*
D03*
X802640D02*
D03*
X777240D02*
D03*
X751840D02*
D03*
X726440D02*
D03*
X701040D02*
D03*
X675640D02*
D03*
X998596Y553838D02*
D03*
X1023996D02*
D03*
X1049396D02*
D03*
X1074796D02*
D03*
X1100196D02*
D03*
X1125596D02*
D03*
X1150996D02*
D03*
Y474438D02*
D03*
X1125596D02*
D03*
X1100196D02*
D03*
X1074796D02*
D03*
X1049396D02*
D03*
X1023996D02*
D03*
X786158Y553838D02*
D03*
X811558D02*
D03*
X836958D02*
D03*
X862358D02*
D03*
X887758D02*
D03*
X913158D02*
D03*
X938558D02*
D03*
Y474438D02*
D03*
X913158D02*
D03*
X887758D02*
D03*
X862358D02*
D03*
X836958D02*
D03*
X811558D02*
D03*
X573876Y553838D02*
D03*
X599276D02*
D03*
X624676D02*
D03*
X650076D02*
D03*
X675476D02*
D03*
X700876D02*
D03*
X726276D02*
D03*
Y474438D02*
D03*
X700876D02*
D03*
X675476D02*
D03*
X650076D02*
D03*
X624676D02*
D03*
X599276D02*
D03*
D41*
X1408770Y1049311D02*
D03*
X356730Y919325D02*
D03*
X356730Y1048865D02*
D03*
X1408770Y660475D02*
D03*
X356730Y662785D02*
D03*
X1283830Y919503D02*
D03*
Y660475D02*
D03*
Y1049311D02*
D03*
X481670Y662785D02*
D03*
X1283830Y790437D02*
D03*
X481670Y791055D02*
D03*
X1408770Y790438D02*
D03*
X481670Y1048865D02*
D03*
X356730Y791055D02*
D03*
X1408770Y919503D02*
D03*
X482572Y919325D02*
D03*
X1408770Y742975D02*
D03*
X1357770D02*
D03*
X1283830D02*
D03*
X1232830D02*
D03*
X1283830Y872937D02*
D03*
X1232830D02*
D03*
X1408770D02*
D03*
X1357770D02*
D03*
X1408770Y1002003D02*
D03*
X1357770D02*
D03*
X1408770Y1131811D02*
D03*
X1357770D02*
D03*
X1283830Y1002003D02*
D03*
X1232830D02*
D03*
X1283830Y1131811D02*
D03*
X1232830D02*
D03*
X481670Y745285D02*
D03*
X430670D02*
D03*
X481670Y873555D02*
D03*
X430670D02*
D03*
X481670Y1131365D02*
D03*
X430670D02*
D03*
X482572Y1001825D02*
D03*
X431572D02*
D03*
X356730Y745285D02*
D03*
X305730D02*
D03*
X356730Y873555D02*
D03*
X305730D02*
D03*
X356730Y1001825D02*
D03*
X305730D02*
D03*
X356730Y1131365D02*
D03*
X305730D02*
D03*
D42*
X844500Y1206915D02*
D03*
X1231900Y1206500D02*
D03*
X304800D02*
D03*
D43*
X869900Y1206915D02*
D03*
X1257300Y1206500D02*
D03*
X1282700D02*
D03*
X1308100D02*
D03*
X1333500D02*
D03*
X1358900D02*
D03*
X1384300D02*
D03*
X1409700D02*
D03*
X330200D02*
D03*
X355600D02*
D03*
X381000D02*
D03*
X406400D02*
D03*
X431800D02*
D03*
X457200D02*
D03*
X482600D02*
D03*
D44*
X1097280Y612140D02*
D03*
X1071880D02*
D03*
X1046480D02*
D03*
X1021080D02*
D03*
X995680D02*
D03*
X970280D02*
D03*
X944880D02*
D03*
X919480D02*
D03*
X894080D02*
D03*
X604520D02*
D03*
X629920D02*
D03*
X655320D02*
D03*
X680720D02*
D03*
X706120D02*
D03*
X731520D02*
D03*
X756920D02*
D03*
X782320D02*
D03*
X807720D02*
D03*
D45*
X1092001Y950048D02*
D03*
X609819Y1128486D02*
D03*
X1091758Y690660D02*
D03*
X609819Y878314D02*
D03*
D46*
X899160Y340360D02*
D03*
X650240D02*
D03*
X998596Y474438D02*
D03*
X786158D02*
D03*
X573876D02*
D03*
D47*
X1315223Y501412D02*
D03*
Y387112D02*
D03*
X407059Y502458D02*
D03*
Y388158D02*
D03*
D48*
X1284722Y521762D02*
D03*
Y366762D02*
D03*
X437559Y522808D02*
D03*
Y367808D02*
D03*
D49*
X1226323Y488712D02*
D03*
X1251723Y476012D02*
D03*
X1226323Y463312D02*
D03*
X1251723Y450612D02*
D03*
X1226323Y437912D02*
D03*
X1251723Y425212D02*
D03*
X1226323Y412512D02*
D03*
X495959Y477058D02*
D03*
X470559Y464358D02*
D03*
X495959Y451658D02*
D03*
X470559Y438958D02*
D03*
X495959Y426258D02*
D03*
X470559Y413558D02*
D03*
X495959Y400858D02*
D03*
D50*
X1251723Y399812D02*
D03*
X470559Y489758D02*
D03*
D51*
X544196Y851455D02*
D03*
Y826055D02*
D03*
Y800655D02*
D03*
Y775255D02*
D03*
Y749855D02*
D03*
Y724455D02*
D03*
Y699055D02*
D03*
Y673655D02*
D03*
X1158240Y1120140D02*
D03*
Y1094740D02*
D03*
Y1069340D02*
D03*
Y1043940D02*
D03*
Y1018540D02*
D03*
Y993140D02*
D03*
Y967740D02*
D03*
Y942340D02*
D03*
Y861060D02*
D03*
Y835660D02*
D03*
Y810260D02*
D03*
Y784860D02*
D03*
Y759460D02*
D03*
Y734060D02*
D03*
Y708660D02*
D03*
Y683260D02*
D03*
X544301Y931465D02*
D03*
Y956865D02*
D03*
Y982265D02*
D03*
Y1007665D02*
D03*
Y1033065D02*
D03*
Y1058465D02*
D03*
Y1083865D02*
D03*
Y1109265D02*
D03*
D52*
X1220330Y607060D02*
D03*
D53*
X1361330D02*
D03*
D54*
X304509Y297571D02*
D03*
X1290773Y297809D02*
D03*
D55*
X329909Y297571D02*
D03*
X355309D02*
D03*
X380709D02*
D03*
X406109D02*
D03*
X431509D02*
D03*
X1316173Y297809D02*
D03*
X1341573D02*
D03*
X1366973D02*
D03*
X1392373D02*
D03*
X1417773D02*
D03*
D56*
X1357770Y660475D02*
D03*
X1232830D02*
D03*
Y790437D02*
D03*
X1357770Y790438D02*
D03*
Y919503D02*
D03*
Y1049311D02*
D03*
X1232830Y919503D02*
D03*
Y1049311D02*
D03*
X430670Y662785D02*
D03*
Y791055D02*
D03*
Y1048865D02*
D03*
X431572Y919325D02*
D03*
X305730Y662785D02*
D03*
Y791055D02*
D03*
Y919325D02*
D03*
Y1048865D02*
D03*
M02*
